  0
SECTION
  2
HEADER
  9
$CLAYER
  8
1
  9
$ACADVER
  1
AC1009
  0
ENDSEC
  0
SECTION
  2
TABLES
  0
TABLE
  2
LTYPE
 70
  1
  0
LTYPE
  2
CONTINUOUS
 70
 64
  3
SOLIDLINE
 72
 65
 73
  0
 40
0.0000
  0
ENDTAB
  0
TABLE
  2
LAYER
 70
  14
  0
LAYER
  2
1
 70
  0
 62
  7
  6
CONTINUOUS
  0
LAYER
  2
2
 70
  0
 62
  1
  6
CONTINUOUS
  0
LAYER
  2
3
 70
  0
 62
  2
  6
CONTINUOUS
  0
LAYER
  2
4
 70
  0
 62
  3
  6
CONTINUOUS
  0
LAYER
  2
5
 70
  0
 62
  5
  6
CONTINUOUS
  0
LAYER
  2
6
 70
  0
 62
  5
  6
CONTINUOUS
  0
LAYER
  2
7
 70
  0
 62
  5
  6
CONTINUOUS
  0
LAYER
  2
8
 70
  0
 62
  4
  6
CONTINUOUS
  0
LAYER
  2
9
 70
  0
 62
  5
  6
CONTINUOUS
  0
LAYER
  2
10
 70
  0
 62
  5
  6
CONTINUOUS
  0
LAYER
  2
11
 70
  0
 62
  4
  6
CONTINUOUS
  0
LAYER
  2
12
 70
  0
 62
  6
  6
CONTINUOUS
  0
LAYER
  2
13
 70
  0
 62
  4
  6
CONTINUOUS
  0
LAYER
  2
14
 70
  0
 62
  7
  6
CONTINUOUS
  0
LAYER
  2
15
 70
  0
 62
  7
  6
CONTINUOUS
  0
LAYER
  2
20
 70
  0
 62
  7
  6
CONTINUOUS
  0
LAYER
  2
22
 70
  0
 62
  1
  6
LINE3
  0
LAYER
  2
50
 70
  0
 62
  7
  6
CONTINUOUS
  0
LAYER
  2
51
 70
  0
 62
  7
  6
CONTINUOUS
  0
LAYER
  2
52
 70
  0
 62
  7
  6
CONTINUOUS
  0
LAYER
  2
53
 70
  0
 62
  7
  6
CONTINUOUS
  0
LAYER
  2
54
 70
  0
 62
  7
  6
CONTINUOUS
  0
LAYER
  2
55
 70
  0
 62
  7
  6
CONTINUOUS
  0
LAYER
  2
101
 70
  0
 62
  4
  6
CUCITURA
  0
LAYER
  2
254
 70
  0
 62
  -7
  6
CONTINUOUS
  0
LAYER
  2
255
 70
  0
 62
  -7
  6
CONTINUOUS
  0
ENDTAB
  0
TABLE
  2
STYLE
 70
  1
  0
STYLE
  2
STANDARD
 70
  0
 40
0.0000
 41
1.0000
 50
0.0000
 71
  0
 42
1.0000
  3
txt
  4
   
  0
ENDTAB
  0
ENDSEC
  0
SECTION
  2
BLOCKS
  0
BLOCK
  8
1
  2
910588V20000BFD
 70
0
 10
0.0
 20
0.0
  0
POLYLINE
  8
1
 66
1
 70
    1
  0
VERTEX
  8
1
 10
-37.500
 20
-55.000
  0
VERTEX
  8
1
 10
-62.500
 20
-55.000
  0
VERTEX
  8
1
 10
-62.500
 20
55.000
  0
VERTEX
  8
1
 10
-37.500
 20
55.000
  0
VERTEX
  8
1
 10
-37.500
 20
80.000
  0
VERTEX
  8
1
 10
82.500
 20
80.000
  0
VERTEX
  8
1
 10
112.500
 20
80.000
  0
VERTEX
  8
1
 10
112.500
 20
45.000
  0
VERTEX
  8
1
 10
112.500
 20
0.000
  0
VERTEX
  8
1
 10
112.500
 20
-45.000
  0
VERTEX
  8
1
 10
112.500
 20
-80.000
  0
VERTEX
  8
1
 10
82.500
 20
-80.000
  0
VERTEX
  8
1
 10
-37.500
 20
-80.000
  0
VERTEX
  8
1
 10
-37.500
 20
-55.000
  0
SEQEND
  0
POINT
  8
2
 10
-37.500
 20
-55.000
  0
TEXT
  8
1
 10
-37.500
 20
-55.000
 40
3.0
  1
# 1
  0
POINT
  8
2
 10
-62.500
 20
-55.000
  0
TEXT
  8
1
 10
-62.500
 20
-55.000
 40
3.0
  1
# 2
  0
POINT
  8
2
 10
-62.500
 20
55.000
  0
TEXT
  8
1
 10
-62.500
 20
55.000
 40
3.0
  1
# 3
  0
POINT
  8
2
 10
-37.500
 20
55.000
  0
TEXT
  8
1
 10
-37.500
 20
55.000
 40
3.0
  1
# 4
  0
POINT
  8
2
 10
-37.500
 20
80.000
  0
TEXT
  8
1
 10
-37.500
 20
80.000
 40
3.0
  1
# 5
  0
POINT
  8
4
 10
82.500
 20
80.000
 30
5.000
 50
270.000
  0
POINT
  8
3
 10
82.500
 20
80.000
  0
POINT
  8
2
 10
112.500
 20
80.000
  0
TEXT
  8
1
 10
112.500
 20
80.000
 40
3.0
  1
# 6
  0
POINT
  8
4
 10
112.500
 20
45.000
 30
5.000
 50
180.000
  0
POINT
  8
2
 10
112.500
 20
45.000
  0
TEXT
  8
1
 10
112.500
 20
45.000
 40
3.0
  1
# 7
  0
POINT
  8
2
 10
112.500
 20
0.000
  0
TEXT
  8
1
 10
112.500
 20
0.000
 40
3.0
  1
# 8
  0
POINT
  8
4
 10
112.500
 20
-45.000
 30
5.000
 50
180.000
  0
POINT
  8
2
 10
112.500
 20
-45.000
  0
TEXT
  8
1
 10
112.500
 20
-45.000
 40
3.0
  1
# 9
  0
POINT
  8
2
 10
112.500
 20
-80.000
  0
TEXT
  8
1
 10
112.500
 20
-80.000
 40
3.0
  1
# 10
  0
POINT
  8
4
 10
82.500
 20
-80.000
 30
5.000
 50
90.000
  0
POINT
  8
3
 10
82.500
 20
-80.000
  0
POINT
  8
2
 10
-37.500
 20
-80.000
  0
TEXT
  8
1
 10
-37.500
 20
-80.000
 40
3.0
  1
# 11
  0
POINT
  8
2
 10
-37.500
 20
-55.000
  0
TEXT
  8
1
 10
-37.500
 20
-55.000
 40
3.0
  1
# 12
  0
POLYLINE
  8
14
 66
1
 70
    1
  0
VERTEX
  8
14
 10
-27.500
 20
-45.000
  0
VERTEX
  8
14
 10
-52.500
 20
-45.000
  0
VERTEX
  8
14
 10
-52.500
 20
45.000
  0
VERTEX
  8
14
 10
-27.500
 20
45.000
  0
VERTEX
  8
14
 10
-27.500
 20
70.000
  0
VERTEX
  8
14
 10
82.500
 20
70.000
  0
VERTEX
  8
14
 10
82.500
 20
45.000
  0
VERTEX
  8
14
 10
82.500
 20
0.000
  0
VERTEX
  8
14
 10
82.500
 20
-45.000
  0
VERTEX
  8
14
 10
82.500
 20
-70.000
  0
VERTEX
  8
14
 10
-27.500
 20
-70.000
  0
VERTEX
  8
14
 10
-27.500
 20
-45.000
  0
SEQEND
  0
POINT
  8
2
 10
-27.500
 20
-45.000
  0
TEXT
  8
14
 10
-27.500
 20
-45.000
 40
3.0
  1
# 13
  0
POINT
  8
2
 10
-52.500
 20
-45.000
  0
TEXT
  8
14
 10
-52.500
 20
-45.000
 40
3.0
  1
# 14
  0
POINT
  8
2
 10
-52.500
 20
45.000
  0
TEXT
  8
14
 10
-52.500
 20
45.000
 40
3.0
  1
# 15
  0
POINT
  8
2
 10
-27.500
 20
45.000
  0
TEXT
  8
14
 10
-27.500
 20
45.000
 40
3.0
  1
# 16
  0
POINT
  8
2
 10
-27.500
 20
70.000
  0
TEXT
  8
14
 10
-27.500
 20
70.000
 40
3.0
  1
# 17
  0
POINT
  8
4
 10
82.500
 20
70.000
 30
5.000
 50
270.000
  0
POINT
  8
2
 10
82.500
 20
70.000
  0
TEXT
  8
14
 10
82.500
 20
70.000
 40
3.0
  1
# 18
  0
POINT
  8
4
 10
82.500
 20
45.000
 30
5.000
 50
180.000
  0
POINT
  8
2
 10
82.500
 20
45.000
  0
TEXT
  8
14
 10
82.500
 20
45.000
 40
3.0
  1
# 19
  0
POINT
  8
2
 10
82.500
 20
0.000
  0
TEXT
  8
14
 10
82.500
 20
0.000
 40
3.0
  1
# 20
  0
POINT
  8
4
 10
82.500
 20
-45.000
 30
5.000
 50
180.000
  0
POINT
  8
2
 10
82.500
 20
-45.000
  0
TEXT
  8
14
 10
82.500
 20
-45.000
 40
3.0
  1
# 21
  0
POINT
  8
4
 10
82.500
 20
-70.000
 30
5.000
 50
90.000
  0
POINT
  8
2
 10
82.500
 20
-70.000
  0
TEXT
  8
14
 10
82.500
 20
-70.000
 40
3.0
  1
# 22
  0
POINT
  8
2
 10
-27.500
 20
-70.000
  0
TEXT
  8
14
 10
-27.500
 20
-70.000
 40
3.0
  1
# 23
  0
POINT
  8
2
 10
-27.500
 20
-45.000
  0
TEXT
  8
14
 10
-27.500
 20
-45.000
 40
3.0
  1
# 24
  0
LINE
  8
7
 10
0.000
 20
0.000
 11
55.000
 21
0.000
  0
POINT
  8
2
 10
0.000
 20
0.000
  0
TEXT
  8
7
 10
0.000
 20
0.000
 40
3.0
  1
# 27
  0
POINT
  8
2
 10
55.000
 20
0.000
  0
TEXT
  8
7
 10
55.000
 20
0.000
 40
3.0
  1
# 28
  0
TEXT
  8
15
 10
22.640
 20
36.136
 40
0.143
 50
0.000
  1
1 Piece
  0
TEXT
  8
15
 10
22.640
 20
36.136
 40
3.0
  1
# 29
  0
TEXT
  8
15
 10
41.982
 20
-40.406
 40
0.091
 50
0.000
  1
Main Fabric
  0
TEXT
  8
15
 10
41.982
 20
-40.406
 40
3.0
  1
# 30
  0
TEXT
  8
15
 10
-18.460
 20
16.812
 40
0.167
 50
0.000
  1
Pocket
  0
TEXT
  8
15
 10
-18.460
 20
16.812
 40
3.0
  1
# 31
  0
TEXT
  8
1
 10
0.000
 20
0.000
 40
3.0
  1
Piece Name: 910588V20000.BFD
  0
TEXT
  8
1
 10
0.000
 20
5.000
 40
3.0
  1
Size: T38
  0
TEXT
  8
1
 10
0.000
 20
10.000
 40
3.0
  1
Annotation:RIGHT POCKET FUELLE 1S
  0
TEXT
  8
1
 10
0.000
 20
15.000
 40
3.0
  1
Quantity: 1
  0
TEXT
  8
1
 10
0.000
 20
20.000
 40
3.0
  1
Category: Bolsillo
  0
ENDBLK
  0
BLOCK
  8
1
  2
910588V20000BOD
 70
0
 10
0.0
 20
0.0
  0
POLYLINE
  8
1
 66
1
 70
    1
  0
VERTEX
  8
1
 10
-77.951
 20
-124.504
  0
VERTEX
  8
1
 10
-77.951
 20
-30.184
  0
VERTEX
  8
1
 10
-77.951
 20
-12.684
  0
VERTEX
  8
1
 10
-77.951
 20
22.620
  0
VERTEX
  8
1
 10
-77.951
 20
40.120
  0
VERTEX
  8
1
 10
-77.951
 20
134.440
  0
VERTEX
  8
1
 10
-45.951
 20
134.440
  0
VERTEX
  8
1
 10
134.879
 20
134.440
  0
VERTEX
  8
1
 10
164.879
 20
134.440
  0
VERTEX
  8
1
 10
164.879
 20
40.120
  0
VERTEX
  8
1
 10
164.879
 20
22.620
  0
VERTEX
  8
1
 10
164.879
 20
4.968
  0
VERTEX
  8
1
 10
164.879
 20
-12.684
  0
VERTEX
  8
1
 10
164.879
 20
-30.184
  0
VERTEX
  8
1
 10
164.879
 20
-124.504
  0
VERTEX
  8
1
 10
134.879
 20
-124.504
  0
VERTEX
  8
1
 10
-45.951
 20
-124.504
  0
VERTEX
  8
1
 10
-77.951
 20
-124.504
  0
SEQEND
  0
POINT
  8
2
 10
-77.951
 20
-124.504
  0
TEXT
  8
1
 10
-77.951
 20
-124.504
 40
3.0
  1
# 1
  0
POINT
  8
4
 10
-77.951
 20
-30.184
 30
5.000
 50
0.000
  0
POINT
  8
2
 10
-77.951
 20
-30.184
  0
TEXT
  8
1
 10
-77.951
 20
-30.184
 40
3.0
  1
# 2
  0
POINT
  8
4
 10
-77.951
 20
-12.684
 30
5.000
 50
0.000
  0
POINT
  8
2
 10
-77.951
 20
-12.684
  0
TEXT
  8
1
 10
-77.951
 20
-12.684
 40
3.0
  1
# 3
  0
POINT
  8
4
 10
-77.951
 20
22.620
 30
5.000
 50
0.000
  0
POINT
  8
2
 10
-77.951
 20
22.620
  0
TEXT
  8
1
 10
-77.951
 20
22.620
 40
3.0
  1
# 4
  0
POINT
  8
4
 10
-77.951
 20
40.120
 30
5.000
 50
0.000
  0
POINT
  8
2
 10
-77.951
 20
40.120
  0
TEXT
  8
1
 10
-77.951
 20
40.120
 40
3.0
  1
# 5
  0
POINT
  8
2
 10
-77.951
 20
134.440
  0
TEXT
  8
1
 10
-77.951
 20
134.440
 40
3.0
  1
# 6
  0
POINT
  8
3
 10
-45.951
 20
134.440
  0
POINT
  8
4
 10
134.879
 20
134.440
 30
5.000
 50
270.000
  0
POINT
  8
2
 10
134.879
 20
134.440
  0
TEXT
  8
1
 10
134.879
 20
134.440
 40
3.0
  1
# 7
  0
POINT
  8
2
 10
164.879
 20
134.440
  0
TEXT
  8
1
 10
164.879
 20
134.440
 40
3.0
  1
# 8
  0
POINT
  8
4
 10
164.879
 20
40.120
 30
5.000
 50
180.000
  0
POINT
  8
2
 10
164.879
 20
40.120
  0
TEXT
  8
1
 10
164.879
 20
40.120
 40
3.0
  1
# 9
  0
POINT
  8
4
 10
164.879
 20
22.620
 30
5.000
 50
180.000
  0
POINT
  8
2
 10
164.879
 20
22.620
  0
TEXT
  8
1
 10
164.879
 20
22.620
 40
3.0
  1
# 10
  0
POINT
  8
2
 10
164.879
 20
4.968
  0
TEXT
  8
1
 10
164.879
 20
4.968
 40
3.0
  1
# 11
  0
POINT
  8
4
 10
164.879
 20
-12.684
 30
5.000
 50
180.000
  0
POINT
  8
2
 10
164.879
 20
-12.684
  0
TEXT
  8
1
 10
164.879
 20
-12.684
 40
3.0
  1
# 12
  0
POINT
  8
4
 10
164.879
 20
-30.184
 30
5.000
 50
180.000
  0
POINT
  8
2
 10
164.879
 20
-30.184
  0
TEXT
  8
1
 10
164.879
 20
-30.184
 40
3.0
  1
# 13
  0
POINT
  8
2
 10
164.879
 20
-124.504
  0
TEXT
  8
1
 10
164.879
 20
-124.504
 40
3.0
  1
# 14
  0
POINT
  8
4
 10
134.879
 20
-124.504
 30
5.000
 50
90.000
  0
POINT
  8
2
 10
134.879
 20
-124.504
  0
TEXT
  8
1
 10
134.879
 20
-124.504
 40
3.0
  1
# 15
  0
POINT
  8
3
 10
-45.951
 20
-124.504
  0
POINT
  8
2
 10
-77.951
 20
-124.504
  0
TEXT
  8
1
 10
-77.951
 20
-124.504
 40
3.0
  1
# 16
  0
POLYLINE
  8
14
 66
1
 70
    1
  0
VERTEX
  8
14
 10
-65.951
 20
-112.504
  0
VERTEX
  8
14
 10
-65.951
 20
-30.184
  0
VERTEX
  8
14
 10
-65.951
 20
-12.684
  0
VERTEX
  8
14
 10
-65.951
 20
22.620
  0
VERTEX
  8
14
 10
-65.951
 20
40.120
  0
VERTEX
  8
14
 10
-65.951
 20
122.440
  0
VERTEX
  8
14
 10
-45.951
 20
122.440
  0
VERTEX
  8
14
 10
134.879
 20
122.440
  0
VERTEX
  8
14
 10
134.879
 20
40.120
  0
VERTEX
  8
14
 10
134.879
 20
22.620
  0
VERTEX
  8
14
 10
134.879
 20
4.968
  0
VERTEX
  8
14
 10
134.879
 20
-12.684
  0
VERTEX
  8
14
 10
134.879
 20
-30.184
  0
VERTEX
  8
14
 10
134.879
 20
-112.504
  0
VERTEX
  8
14
 10
-45.951
 20
-112.504
  0
VERTEX
  8
14
 10
-65.951
 20
-112.504
  0
SEQEND
  0
POINT
  8
2
 10
-65.951
 20
-112.504
  0
TEXT
  8
14
 10
-65.951
 20
-112.504
 40
3.0
  1
# 17
  0
POINT
  8
4
 10
-65.951
 20
-30.184
 30
5.000
 50
0.000
  0
POINT
  8
2
 10
-65.951
 20
-30.184
  0
TEXT
  8
14
 10
-65.951
 20
-30.184
 40
3.0
  1
# 18
  0
POINT
  8
4
 10
-65.951
 20
-12.684
 30
5.000
 50
0.000
  0
POINT
  8
2
 10
-65.951
 20
-12.684
  0
TEXT
  8
14
 10
-65.951
 20
-12.684
 40
3.0
  1
# 19
  0
POINT
  8
4
 10
-65.951
 20
22.620
 30
5.000
 50
0.000
  0
POINT
  8
2
 10
-65.951
 20
22.620
  0
TEXT
  8
14
 10
-65.951
 20
22.620
 40
3.0
  1
# 20
  0
POINT
  8
4
 10
-65.951
 20
40.120
 30
5.000
 50
0.000
  0
POINT
  8
2
 10
-65.951
 20
40.120
  0
TEXT
  8
14
 10
-65.951
 20
40.120
 40
3.0
  1
# 21
  0
POINT
  8
2
 10
-65.951
 20
122.440
  0
TEXT
  8
14
 10
-65.951
 20
122.440
 40
3.0
  1
# 22
  0
POINT
  8
3
 10
-45.951
 20
122.440
  0
POINT
  8
4
 10
134.879
 20
122.440
 30
5.000
 50
270.000
  0
POINT
  8
2
 10
134.879
 20
122.440
  0
TEXT
  8
14
 10
134.879
 20
122.440
 40
3.0
  1
# 23
  0
POINT
  8
4
 10
134.879
 20
40.120
 30
5.000
 50
180.000
  0
POINT
  8
2
 10
134.879
 20
40.120
  0
TEXT
  8
14
 10
134.879
 20
40.120
 40
3.0
  1
# 24
  0
POINT
  8
4
 10
134.879
 20
22.620
 30
5.000
 50
180.000
  0
POINT
  8
2
 10
134.879
 20
22.620
  0
TEXT
  8
14
 10
134.879
 20
22.620
 40
3.0
  1
# 25
  0
POINT
  8
2
 10
134.879
 20
4.968
  0
TEXT
  8
14
 10
134.879
 20
4.968
 40
3.0
  1
# 26
  0
POINT
  8
4
 10
134.879
 20
-12.684
 30
5.000
 50
180.000
  0
POINT
  8
2
 10
134.879
 20
-12.684
  0
TEXT
  8
14
 10
134.879
 20
-12.684
 40
3.0
  1
# 27
  0
POINT
  8
4
 10
134.879
 20
-30.184
 30
5.000
 50
180.000
  0
POINT
  8
2
 10
134.879
 20
-30.184
  0
TEXT
  8
14
 10
134.879
 20
-30.184
 40
3.0
  1
# 28
  0
POINT
  8
4
 10
134.879
 20
-112.504
 30
5.000
 50
90.000
  0
POINT
  8
2
 10
134.879
 20
-112.504
  0
TEXT
  8
14
 10
134.879
 20
-112.504
 40
3.0
  1
# 29
  0
POINT
  8
3
 10
-45.951
 20
-112.504
  0
POINT
  8
2
 10
-65.951
 20
-112.504
  0
TEXT
  8
14
 10
-65.951
 20
-112.504
 40
3.0
  1
# 30
  0
LINE
  8
7
 10
0.000
 20
0.000
 11
90.000
 21
0.000
  0
POINT
  8
2
 10
0.000
 20
0.000
  0
TEXT
  8
7
 10
0.000
 20
0.000
 40
3.0
  1
# 33
  0
POINT
  8
2
 10
90.000
 20
0.000
  0
TEXT
  8
7
 10
90.000
 20
0.000
 40
3.0
  1
# 34
  0
TEXT
  8
15
 10
57.968
 20
24.683
 40
0.091
 50
0.000
  1
Main Fabric
  0
TEXT
  8
15
 10
57.968
 20
24.683
 40
3.0
  1
# 35
  0
TEXT
  8
15
 10
52.214
 20
-37.744
 40
0.167
 50
0.000
  1
Pocket
  0
TEXT
  8
15
 10
52.214
 20
-37.744
 40
3.0
  1
# 36
  0
TEXT
  8
15
 10
33.274
 20
77.469
 40
0.143
 50
0.000
  1
1 Piece
  0
TEXT
  8
15
 10
33.274
 20
77.469
 40
3.0
  1
# 37
  0
TEXT
  8
1
 10
0.000
 20
0.000
 40
3.0
  1
Piece Name: 910588V20000.BOD
  0
TEXT
  8
1
 10
0.000
 20
5.000
 40
3.0
  1
Size: T38
  0
TEXT
  8
1
 10
0.000
 20
10.000
 40
3.0
  1
Annotation:RIGHT FRONT 1S
  0
TEXT
  8
1
 10
0.000
 20
15.000
 40
3.0
  1
Quantity: 1
  0
TEXT
  8
1
 10
0.000
 20
20.000
 40
3.0
  1
Category: Bolsillo Costado Ext.
  0
ENDBLK
  0
BLOCK
  8
1
  2
910588V20000BOL
 70
0
 10
0.0
 20
0.0
  0
POLYLINE
  8
1
 66
1
 70
    1
  0
VERTEX
  8
1
 10
-135.094
 20
-74.705
  0
VERTEX
  8
1
 10
-135.094
 20
1.178
  0
VERTEX
  8
1
 10
-135.094
 20
80.135
  0
VERTEX
  8
1
 10
-96.974
 20
80.135
  0
VERTEX
  8
1
 10
181.980
 20
80.135
  0
VERTEX
  8
1
 10
182.053
 20
64.330
  0
VERTEX
  8
1
 10
182.059
 20
60.456
  0
VERTEX
  8
1
 10
181.961
 20
28.625
  0
VERTEX
  8
1
 10
53.190
 20
-102.874
  0
VERTEX
  8
1
 10
40.701
 20
-102.938
  0
VERTEX
  8
1
 10
36.417
 20
-102.851
  0
VERTEX
  8
1
 10
36.240
 20
-98.569
  0
VERTEX
  8
1
 10
36.042
 20
-86.082
  0
VERTEX
  8
1
 10
23.554
 20
-86.146
  0
VERTEX
  8
1
 10
1.044
 20
-85.689
  0
VERTEX
  8
1
 10
-20.851
 20
-84.659
  0
VERTEX
  8
1
 10
-21.517
 20
-84.628
  0
VERTEX
  8
1
 10
-55.766
 20
-81.659
  0
VERTEX
  8
1
 10
-89.896
 20
-78.913
  0
VERTEX
  8
1
 10
-135.094
 20
-74.705
  0
SEQEND
  0
POINT
  8
2
 10
-135.094
 20
-74.705
  0
TEXT
  8
1
 10
-135.094
 20
-74.705
 40
3.0
  1
# 1
  0
POINT
  8
3
 10
-135.094
 20
1.178
  0
POINT
  8
2
 10
-135.094
 20
80.135
  0
TEXT
  8
1
 10
-135.094
 20
80.135
 40
3.0
  1
# 2
  0
POINT
  8
3
 10
-96.974
 20
80.135
  0
POINT
  8
2
 10
181.980
 20
80.135
  0
TEXT
  8
1
 10
181.980
 20
80.135
 40
3.0
  1
# 3
  0
POINT
  8
3
 10
182.053
 20
64.330
  0
POINT
  8
4
 10
182.059
 20
60.456
 30
5.000
 50
180.000
  0
POINT
  8
2
 10
182.059
 20
60.456
  0
TEXT
  8
1
 10
182.059
 20
60.456
 40
3.0
  1
# 4
  0
POINT
  8
2
 10
181.961
 20
28.625
  0
TEXT
  8
1
 10
181.961
 20
28.625
 40
3.0
  1
# 5
  0
POINT
  8
2
 10
53.190
 20
-102.874
  0
TEXT
  8
1
 10
53.190
 20
-102.874
 40
3.0
  1
# 6
  0
POINT
  8
3
 10
40.701
 20
-102.938
  0
POINT
  8
4
 10
36.417
 20
-102.851
 30
5.000
 50
45.600
  0
POINT
  8
2
 10
36.417
 20
-102.851
  0
TEXT
  8
1
 10
36.417
 20
-102.851
 40
3.0
  1
# 7
  0
POINT
  8
3
 10
36.240
 20
-98.569
  0
POINT
  8
4
 10
36.042
 20
-86.082
 30
5.000
 50
45.600
  0
POINT
  8
2
 10
36.042
 20
-86.082
  0
TEXT
  8
1
 10
36.042
 20
-86.082
 40
3.0
  1
# 8
  0
POINT
  8
3
 10
23.554
 20
-86.146
  0
POINT
  8
3
 10
1.044
 20
-85.689
  0
POINT
  8
4
 10
-20.851
 20
-84.659
 30
5.000
 50
90.000
  0
POINT
  8
3
 10
-20.851
 20
-84.659
  0
POINT
  8
2
 10
-21.517
 20
-84.628
  0
TEXT
  8
1
 10
-21.517
 20
-84.628
 40
3.0
  1
# 9
  0
POINT
  8
3
 10
-55.766
 20
-81.659
  0
POINT
  8
3
 10
-89.896
 20
-78.913
  0
POINT
  8
2
 10
-135.094
 20
-74.705
  0
TEXT
  8
1
 10
-135.094
 20
-74.705
 40
3.0
  1
# 10
  0
POLYLINE
  8
14
 66
1
 70
    1
  0
VERTEX
  8
14
 10
-123.094
 20
-65.779
  0
VERTEX
  8
14
 10
-123.094
 20
1.178
  0
VERTEX
  8
14
 10
-123.094
 20
68.135
  0
VERTEX
  8
14
 10
-96.974
 20
68.135
  0
VERTEX
  8
14
 10
172.035
 20
68.135
  0
VERTEX
  8
14
 10
172.053
 20
64.299
  0
VERTEX
  8
14
 10
172.059
 20
60.463
  0
VERTEX
  8
14
 10
172.035
 20
52.792
  0
VERTEX
  8
14
 10
45.884
 20
-76.032
  0
VERTEX
  8
14
 10
23.630
 20
-76.146
  0
VERTEX
  8
14
 10
1.379
 20
-75.694
  0
VERTEX
  8
14
 10
-20.851
 20
-74.652
  0
VERTEX
  8
14
 10
-54.932
 20
-71.693
  0
VERTEX
  8
14
 10
-89.032
 20
-68.950
  0
VERTEX
  8
14
 10
-123.094
 20
-65.779
  0
SEQEND
  0
POINT
  8
2
 10
-123.094
 20
-65.779
  0
TEXT
  8
14
 10
-123.094
 20
-65.779
 40
3.0
  1
# 11
  0
POINT
  8
3
 10
-123.094
 20
1.178
  0
POINT
  8
2
 10
-123.094
 20
68.135
  0
TEXT
  8
14
 10
-123.094
 20
68.135
 40
3.0
  1
# 12
  0
POINT
  8
3
 10
-96.974
 20
68.135
  0
POINT
  8
2
 10
172.035
 20
68.135
  0
TEXT
  8
14
 10
172.035
 20
68.135
 40
3.0
  1
# 13
  0
POINT
  8
3
 10
172.053
 20
64.299
  0
POINT
  8
4
 10
172.059
 20
60.463
 30
5.000
 50
180.000
  0
POINT
  8
2
 10
172.059
 20
60.463
  0
TEXT
  8
14
 10
172.059
 20
60.463
 40
3.0
  1
# 14
  0
POINT
  8
2
 10
172.035
 20
52.792
  0
TEXT
  8
14
 10
172.035
 20
52.792
 40
3.0
  1
# 15
  0
POINT
  8
2
 10
45.884
 20
-76.032
  0
TEXT
  8
14
 10
45.884
 20
-76.032
 40
3.0
  1
# 16
  0
POINT
  8
3
 10
23.630
 20
-76.146
  0
POINT
  8
3
 10
1.379
 20
-75.694
  0
POINT
  8
4
 10
-20.851
 20
-74.652
 30
5.000
 50
90.000
  0
POINT
  8
2
 10
-20.851
 20
-74.652
  0
TEXT
  8
14
 10
-20.851
 20
-74.652
 40
3.0
  1
# 17
  0
POINT
  8
3
 10
-54.932
 20
-71.693
  0
POINT
  8
3
 10
-89.032
 20
-68.950
  0
POINT
  8
2
 10
-123.094
 20
-65.779
  0
TEXT
  8
14
 10
-123.094
 20
-65.779
 40
3.0
  1
# 18
  0
LINE
  8
7
 10
0.000
 20
0.000
 11
44.017
 21
0.000
  0
POINT
  8
2
 10
0.000
 20
0.000
  0
TEXT
  8
7
 10
0.000
 20
0.000
 40
3.0
  1
# 21
  0
POINT
  8
2
 10
44.017
 20
0.000
  0
TEXT
  8
7
 10
44.017
 20
0.000
 40
3.0
  1
# 22
  0
TEXT
  8
15
 10
40.760
 20
42.404
 40
0.125
 50
0.000
  1
2 Pieces
  0
TEXT
  8
15
 10
40.760
 20
42.404
 40
3.0
  1
# 23
  0
TEXT
  8
15
 10
25.491
 20
-35.849
 40
0.091
 50
0.000
  1
Main Fabric
  0
TEXT
  8
15
 10
25.491
 20
-35.849
 40
3.0
  1
# 24
  0
TEXT
  8
15
 10
17.857
 20
19.500
 40
0.167
 50
0.000
  1
Pocket
  0
TEXT
  8
15
 10
17.857
 20
19.500
 40
3.0
  1
# 25
  0
TEXT
  8
1
 10
0.000
 20
0.000
 40
3.0
  1
Piece Name: 910588V20000.BOL
  0
TEXT
  8
1
 10
0.000
 20
5.000
 40
3.0
  1
Size: T38
  0
TEXT
  8
1
 10
0.000
 20
10.000
 40
3.0
  1
Annotation:2S FRONT POCKET
  0
TEXT
  8
1
 10
0.000
 20
15.000
 40
3.0
  1
Quantity: 1
  0
TEXT
  8
1
 10
0.000
 20
20.000
 40
3.0
  1
Category: Bolsillo
  0
ENDBLK
  0
BLOCK
  8
1
  2
910588V20000BOT
 70
0
 10
0.0
 20
0.0
  0
POLYLINE
  8
1
 66
1
 70
    1
  0
VERTEX
  8
1
 10
-32.666
 20
-61.331
  0
VERTEX
  8
1
 10
-67.607
 20
14.962
  0
VERTEX
  8
1
 10
-32.666
 20
91.254
  0
VERTEX
  8
1
 10
114.517
 20
107.018
  0
VERTEX
  8
1
 10
139.517
 20
104.340
  0
VERTEX
  8
1
 10
139.516
 20
-74.418
  0
VERTEX
  8
1
 10
114.516
 20
-77.096
  0
VERTEX
  8
1
 10
-32.666
 20
-61.331
  0
SEQEND
  0
POINT
  8
2
 10
-32.666
 20
-61.331
  0
TEXT
  8
1
 10
-32.666
 20
-61.331
 40
3.0
  1
# 1
  0
POINT
  8
2
 10
-67.607
 20
14.962
  0
TEXT
  8
1
 10
-67.607
 20
14.962
 40
3.0
  1
# 2
  0
POINT
  8
2
 10
-32.666
 20
91.254
  0
TEXT
  8
1
 10
-32.666
 20
91.254
 40
3.0
  1
# 3
  0
POINT
  8
4
 10
114.517
 20
107.018
 30
5.000
 50
270.000
  0
POINT
  8
2
 10
114.517
 20
107.018
  0
TEXT
  8
1
 10
114.517
 20
107.018
 40
3.0
  1
# 4
  0
POINT
  8
2
 10
139.517
 20
104.340
  0
TEXT
  8
1
 10
139.517
 20
104.340
 40
3.0
  1
# 5
  0
POINT
  8
2
 10
139.516
 20
-74.418
  0
TEXT
  8
1
 10
139.516
 20
-74.418
 40
3.0
  1
# 6
  0
POINT
  8
4
 10
114.516
 20
-77.096
 30
5.000
 50
90.000
  0
POINT
  8
2
 10
114.516
 20
-77.096
  0
TEXT
  8
1
 10
114.516
 20
-77.096
 40
3.0
  1
# 7
  0
POINT
  8
2
 10
-32.666
 20
-61.331
  0
TEXT
  8
1
 10
-32.666
 20
-61.331
 40
3.0
  1
# 8
  0
POLYLINE
  8
14
 66
1
 70
    1
  0
VERTEX
  8
14
 10
-24.599
 20
-50.126
  0
VERTEX
  8
14
 10
-54.409
 20
14.962
  0
VERTEX
  8
14
 10
-24.599
 20
80.049
  0
VERTEX
  8
14
 10
114.517
 20
94.949
  0
VERTEX
  8
14
 10
114.516
 20
-65.027
  0
VERTEX
  8
14
 10
-24.599
 20
-50.126
  0
SEQEND
  0
POINT
  8
2
 10
-24.599
 20
-50.126
  0
TEXT
  8
14
 10
-24.599
 20
-50.126
 40
3.0
  1
# 9
  0
POINT
  8
2
 10
-54.409
 20
14.962
  0
TEXT
  8
14
 10
-54.409
 20
14.962
 40
3.0
  1
# 10
  0
POINT
  8
2
 10
-24.599
 20
80.049
  0
TEXT
  8
14
 10
-24.599
 20
80.049
 40
3.0
  1
# 11
  0
POINT
  8
4
 10
114.517
 20
94.949
 30
5.000
 50
270.000
  0
POINT
  8
2
 10
114.517
 20
94.949
  0
TEXT
  8
14
 10
114.517
 20
94.949
 40
3.0
  1
# 12
  0
POINT
  8
4
 10
114.516
 20
-65.027
 30
5.000
 50
90.000
  0
POINT
  8
2
 10
114.516
 20
-65.027
  0
TEXT
  8
14
 10
114.516
 20
-65.027
 40
3.0
  1
# 13
  0
POINT
  8
2
 10
-24.599
 20
-50.126
  0
TEXT
  8
14
 10
-24.599
 20
-50.126
 40
3.0
  1
# 14
  0
LINE
  8
7
 10
0.000
 20
0.000
 11
71.983
 21
0.000
  0
POINT
  8
2
 10
0.000
 20
0.000
  0
TEXT
  8
7
 10
0.000
 20
0.000
 40
3.0
  1
# 17
  0
POINT
  8
2
 10
71.983
 20
0.000
  0
TEXT
  8
7
 10
71.983
 20
0.000
 40
3.0
  1
# 18
  0
TEXT
  8
15
 10
41.878
 20
36.104
 40
0.093
 50
0.000
  1
Main Fabric
  0
TEXT
  8
15
 10
41.878
 20
36.104
 40
3.0
  1
# 19
  0
TEXT
  8
15
 10
36.166
 20
14.957
 40
0.170
 50
0.000
  1
Pocket
  0
TEXT
  8
15
 10
36.166
 20
14.957
 40
3.0
  1
# 20
  0
TEXT
  8
15
 10
25.713
 20
-35.304
 40
0.128
 50
0.000
  1
2 Pieces
  0
TEXT
  8
15
 10
25.713
 20
-35.304
 40
3.0
  1
# 21
  0
TEXT
  8
1
 10
0.000
 20
0.000
 40
3.0
  1
Piece Name: 910588V20000.BOT
  0
TEXT
  8
1
 10
0.000
 20
5.000
 40
3.0
  1
Size: T38
  0
TEXT
  8
1
 10
0.000
 20
10.000
 40
3.0
  1
Annotation: BACK POCKET 2H
  0
TEXT
  8
1
 10
0.000
 20
15.000
 40
3.0
  1
Quantity: 1
  0
TEXT
  8
1
 10
0.000
 20
20.000
 40
3.0
  1
Category: Bolsillo
  0
ENDBLK
  0
BLOCK
  8
1
  2
910588V20000BOZ
 70
0
 10
0.0
 20
0.0
  0
POLYLINE
  8
1
 66
1
 70
    1
  0
VERTEX
  8
1
 10
-127.951
 20
-134.504
  0
VERTEX
  8
1
 10
-127.951
 20
-30.184
  0
VERTEX
  8
1
 10
-127.951
 20
-12.684
  0
VERTEX
  8
1
 10
-127.951
 20
22.620
  0
VERTEX
  8
1
 10
-127.951
 20
40.120
  0
VERTEX
  8
1
 10
-127.951
 20
144.440
  0
VERTEX
  8
1
 10
-90.972
 20
144.440
  0
VERTEX
  8
1
 10
134.879
 20
144.440
  0
VERTEX
  8
1
 10
164.879
 20
144.440
  0
VERTEX
  8
1
 10
164.879
 20
40.120
  0
VERTEX
  8
1
 10
164.879
 20
22.620
  0
VERTEX
  8
1
 10
164.879
 20
4.968
  0
VERTEX
  8
1
 10
164.879
 20
-12.684
  0
VERTEX
  8
1
 10
164.879
 20
-30.184
  0
VERTEX
  8
1
 10
164.879
 20
-134.504
  0
VERTEX
  8
1
 10
134.879
 20
-134.504
  0
VERTEX
  8
1
 10
-90.972
 20
-134.504
  0
VERTEX
  8
1
 10
-127.951
 20
-134.504
  0
SEQEND
  0
POINT
  8
2
 10
-127.951
 20
-134.504
  0
TEXT
  8
1
 10
-127.951
 20
-134.504
 40
3.0
  1
# 1
  0
POINT
  8
4
 10
-127.951
 20
-30.184
 30
5.000
 50
0.000
  0
POINT
  8
2
 10
-127.951
 20
-30.184
  0
TEXT
  8
1
 10
-127.951
 20
-30.184
 40
3.0
  1
# 2
  0
POINT
  8
4
 10
-127.951
 20
-12.684
 30
5.000
 50
0.000
  0
POINT
  8
2
 10
-127.951
 20
-12.684
  0
TEXT
  8
1
 10
-127.951
 20
-12.684
 40
3.0
  1
# 3
  0
POINT
  8
4
 10
-127.951
 20
22.620
 30
5.000
 50
0.000
  0
POINT
  8
2
 10
-127.951
 20
22.620
  0
TEXT
  8
1
 10
-127.951
 20
22.620
 40
3.0
  1
# 4
  0
POINT
  8
4
 10
-127.951
 20
40.120
 30
5.000
 50
0.000
  0
POINT
  8
2
 10
-127.951
 20
40.120
  0
TEXT
  8
1
 10
-127.951
 20
40.120
 40
3.0
  1
# 5
  0
POINT
  8
2
 10
-127.951
 20
144.440
  0
TEXT
  8
1
 10
-127.951
 20
144.440
 40
3.0
  1
# 6
  0
POINT
  8
3
 10
-90.972
 20
144.440
  0
POINT
  8
4
 10
134.879
 20
144.440
 30
5.000
 50
270.000
  0
POINT
  8
2
 10
134.879
 20
144.440
  0
TEXT
  8
1
 10
134.879
 20
144.440
 40
3.0
  1
# 7
  0
POINT
  8
2
 10
164.879
 20
144.440
  0
TEXT
  8
1
 10
164.879
 20
144.440
 40
3.0
  1
# 8
  0
POINT
  8
4
 10
164.879
 20
40.120
 30
5.000
 50
180.000
  0
POINT
  8
2
 10
164.879
 20
40.120
  0
TEXT
  8
1
 10
164.879
 20
40.120
 40
3.0
  1
# 9
  0
POINT
  8
4
 10
164.879
 20
22.620
 30
5.000
 50
180.000
  0
POINT
  8
2
 10
164.879
 20
22.620
  0
TEXT
  8
1
 10
164.879
 20
22.620
 40
3.0
  1
# 10
  0
POINT
  8
2
 10
164.879
 20
4.968
  0
TEXT
  8
1
 10
164.879
 20
4.968
 40
3.0
  1
# 11
  0
POINT
  8
4
 10
164.879
 20
-12.684
 30
5.000
 50
180.000
  0
POINT
  8
2
 10
164.879
 20
-12.684
  0
TEXT
  8
1
 10
164.879
 20
-12.684
 40
3.0
  1
# 12
  0
POINT
  8
4
 10
164.879
 20
-30.184
 30
5.000
 50
180.000
  0
POINT
  8
2
 10
164.879
 20
-30.184
  0
TEXT
  8
1
 10
164.879
 20
-30.184
 40
3.0
  1
# 13
  0
POINT
  8
2
 10
164.879
 20
-134.504
  0
TEXT
  8
1
 10
164.879
 20
-134.504
 40
3.0
  1
# 14
  0
POINT
  8
4
 10
134.879
 20
-134.504
 30
5.000
 50
90.000
  0
POINT
  8
2
 10
134.879
 20
-134.504
  0
TEXT
  8
1
 10
134.879
 20
-134.504
 40
3.0
  1
# 15
  0
POINT
  8
3
 10
-90.972
 20
-134.504
  0
POINT
  8
2
 10
-127.951
 20
-134.504
  0
TEXT
  8
1
 10
-127.951
 20
-134.504
 40
3.0
  1
# 16
  0
POLYLINE
  8
14
 66
1
 70
    1
  0
VERTEX
  8
14
 10
-115.951
 20
-122.504
  0
VERTEX
  8
14
 10
-115.951
 20
-30.184
  0
VERTEX
  8
14
 10
-115.951
 20
-12.684
  0
VERTEX
  8
14
 10
-115.951
 20
22.620
  0
VERTEX
  8
14
 10
-115.951
 20
40.120
  0
VERTEX
  8
14
 10
-115.951
 20
132.440
  0
VERTEX
  8
14
 10
-90.972
 20
132.440
  0
VERTEX
  8
14
 10
134.879
 20
132.440
  0
VERTEX
  8
14
 10
134.879
 20
40.120
  0
VERTEX
  8
14
 10
134.879
 20
22.620
  0
VERTEX
  8
14
 10
134.879
 20
4.968
  0
VERTEX
  8
14
 10
134.879
 20
-12.684
  0
VERTEX
  8
14
 10
134.879
 20
-30.184
  0
VERTEX
  8
14
 10
134.879
 20
-122.504
  0
VERTEX
  8
14
 10
-90.972
 20
-122.504
  0
VERTEX
  8
14
 10
-115.951
 20
-122.504
  0
SEQEND
  0
POINT
  8
2
 10
-115.951
 20
-122.504
  0
TEXT
  8
14
 10
-115.951
 20
-122.504
 40
3.0
  1
# 17
  0
POINT
  8
4
 10
-115.951
 20
-30.184
 30
5.000
 50
0.000
  0
POINT
  8
2
 10
-115.951
 20
-30.184
  0
TEXT
  8
14
 10
-115.951
 20
-30.184
 40
3.0
  1
# 18
  0
POINT
  8
4
 10
-115.951
 20
-12.684
 30
5.000
 50
0.000
  0
POINT
  8
2
 10
-115.951
 20
-12.684
  0
TEXT
  8
14
 10
-115.951
 20
-12.684
 40
3.0
  1
# 19
  0
POINT
  8
4
 10
-115.951
 20
22.620
 30
5.000
 50
0.000
  0
POINT
  8
2
 10
-115.951
 20
22.620
  0
TEXT
  8
14
 10
-115.951
 20
22.620
 40
3.0
  1
# 20
  0
POINT
  8
4
 10
-115.951
 20
40.120
 30
5.000
 50
0.000
  0
POINT
  8
2
 10
-115.951
 20
40.120
  0
TEXT
  8
14
 10
-115.951
 20
40.120
 40
3.0
  1
# 21
  0
POINT
  8
2
 10
-115.951
 20
132.440
  0
TEXT
  8
14
 10
-115.951
 20
132.440
 40
3.0
  1
# 22
  0
POINT
  8
3
 10
-90.972
 20
132.440
  0
POINT
  8
4
 10
134.879
 20
132.440
 30
5.000
 50
270.000
  0
POINT
  8
2
 10
134.879
 20
132.440
  0
TEXT
  8
14
 10
134.879
 20
132.440
 40
3.0
  1
# 23
  0
POINT
  8
4
 10
134.879
 20
40.120
 30
5.000
 50
180.000
  0
POINT
  8
2
 10
134.879
 20
40.120
  0
TEXT
  8
14
 10
134.879
 20
40.120
 40
3.0
  1
# 24
  0
POINT
  8
4
 10
134.879
 20
22.620
 30
5.000
 50
180.000
  0
POINT
  8
2
 10
134.879
 20
22.620
  0
TEXT
  8
14
 10
134.879
 20
22.620
 40
3.0
  1
# 25
  0
POINT
  8
2
 10
134.879
 20
4.968
  0
TEXT
  8
14
 10
134.879
 20
4.968
 40
3.0
  1
# 26
  0
POINT
  8
4
 10
134.879
 20
-12.684
 30
5.000
 50
180.000
  0
POINT
  8
2
 10
134.879
 20
-12.684
  0
TEXT
  8
14
 10
134.879
 20
-12.684
 40
3.0
  1
# 27
  0
POINT
  8
4
 10
134.879
 20
-30.184
 30
5.000
 50
180.000
  0
POINT
  8
2
 10
134.879
 20
-30.184
  0
TEXT
  8
14
 10
134.879
 20
-30.184
 40
3.0
  1
# 28
  0
POINT
  8
4
 10
134.879
 20
-122.504
 30
5.000
 50
90.000
  0
POINT
  8
2
 10
134.879
 20
-122.504
  0
TEXT
  8
14
 10
134.879
 20
-122.504
 40
3.0
  1
# 29
  0
POINT
  8
3
 10
-90.972
 20
-122.504
  0
POINT
  8
2
 10
-115.951
 20
-122.504
  0
TEXT
  8
14
 10
-115.951
 20
-122.504
 40
3.0
  1
# 30
  0
LINE
  8
7
 10
0.000
 20
0.000
 11
90.000
 21
0.000
  0
POINT
  8
2
 10
0.000
 20
0.000
  0
TEXT
  8
7
 10
0.000
 20
0.000
 40
3.0
  1
# 33
  0
POINT
  8
2
 10
90.000
 20
0.000
  0
TEXT
  8
7
 10
90.000
 20
0.000
 40
3.0
  1
# 34
  0
TEXT
  8
15
 10
57.968
 20
24.683
 40
0.091
 50
0.000
  1
Main Fabric
  0
TEXT
  8
15
 10
57.968
 20
24.683
 40
3.0
  1
# 35
  0
TEXT
  8
15
 10
52.214
 20
-37.744
 40
0.167
 50
0.000
  1
Pocket
  0
TEXT
  8
15
 10
52.214
 20
-37.744
 40
3.0
  1
# 36
  0
TEXT
  8
15
 10
33.274
 20
77.469
 40
0.143
 50
0.000
  1
1 Piece
  0
TEXT
  8
15
 10
33.274
 20
77.469
 40
3.0
  1
# 37
  0
TEXT
  8
1
 10
0.000
 20
0.000
 40
3.0
  1
Piece Name: 910588V20000.BOZ
  0
TEXT
  8
1
 10
0.000
 20
5.000
 40
3.0
  1
Size: T38
  0
TEXT
  8
1
 10
0.000
 20
10.000
 40
3.0
  1
Annotation:LEFT FRONT POCKET 1S
  0
TEXT
  8
1
 10
0.000
 20
15.000
 40
3.0
  1
Quantity: 1
  0
TEXT
  8
1
 10
0.000
 20
20.000
 40
3.0
  1
Category: Bolsillo Costado Ext.
  0
ENDBLK
  0
BLOCK
  8
1
  2
910588V20000BRA
 70
0
 10
0.0
 20
0.0
  0
POLYLINE
  8
1
 66
1
 70
    1
  0
VERTEX
  8
1
 10
155.365
 20
3.710
  0
VERTEX
  8
1
 10
159.030
 20
-43.602
  0
VERTEX
  8
1
 10
-16.938
 20
-43.602
  0
VERTEX
  8
1
 10
-57.028
 20
-43.602
  0
VERTEX
  8
1
 10
-49.831
 20
3.710
  0
VERTEX
  8
1
 10
-57.028
 20
51.023
  0
VERTEX
  8
1
 10
-16.938
 20
51.023
  0
VERTEX
  8
1
 10
159.030
 20
51.023
  0
VERTEX
  8
1
 10
155.365
 20
3.710
  0
SEQEND
  0
POINT
  8
4
 10
155.365
 20
3.710
 30
5.000
 50
180.000
  0
POINT
  8
2
 10
155.365
 20
3.710
  0
TEXT
  8
1
 10
155.365
 20
3.710
 40
3.0
  1
# 1
  0
POINT
  8
2
 10
159.030
 20
-43.602
  0
TEXT
  8
1
 10
159.030
 20
-43.602
 40
3.0
  1
# 2
  0
POINT
  8
4
 10
-16.938
 20
-43.602
 30
7.000
 50
90.000
  0
POINT
  8
2
 10
-16.938
 20
-43.602
  0
TEXT
  8
1
 10
-16.938
 20
-43.602
 40
3.0
  1
# 3
  0
POINT
  8
2
 10
-57.028
 20
-43.602
  0
TEXT
  8
1
 10
-57.028
 20
-43.602
 40
3.0
  1
# 4
  0
POINT
  8
4
 10
-49.831
 20
3.710
 30
5.000
 50
0.000
  0
POINT
  8
2
 10
-49.831
 20
3.710
  0
TEXT
  8
1
 10
-49.831
 20
3.710
 40
3.0
  1
# 5
  0
POINT
  8
2
 10
-57.028
 20
51.023
  0
TEXT
  8
1
 10
-57.028
 20
51.023
 40
3.0
  1
# 6
  0
POINT
  8
4
 10
-16.938
 20
51.023
 30
7.000
 50
270.000
  0
POINT
  8
2
 10
-16.938
 20
51.023
  0
TEXT
  8
1
 10
-16.938
 20
51.023
 40
3.0
  1
# 7
  0
POINT
  8
2
 10
159.030
 20
51.023
  0
TEXT
  8
1
 10
159.030
 20
51.023
 40
3.0
  1
# 8
  0
POINT
  8
4
 10
155.365
 20
3.710
 30
5.000
 50
180.000
  0
POINT
  8
2
 10
155.365
 20
3.710
  0
TEXT
  8
1
 10
155.365
 20
3.710
 40
3.0
  1
# 9
  0
POLYLINE
  8
14
 66
1
 70
    1
  0
VERTEX
  8
14
 10
145.335
 20
3.710
  0
VERTEX
  8
14
 10
148.226
 20
-33.602
  0
VERTEX
  8
14
 10
-16.938
 20
-33.602
  0
VERTEX
  8
14
 10
-45.392
 20
-33.602
  0
VERTEX
  8
14
 10
-39.716
 20
3.710
  0
VERTEX
  8
14
 10
-45.392
 20
41.023
  0
VERTEX
  8
14
 10
-16.938
 20
41.023
  0
VERTEX
  8
14
 10
148.226
 20
41.023
  0
VERTEX
  8
14
 10
145.335
 20
3.710
  0
SEQEND
  0
POINT
  8
4
 10
145.335
 20
3.710
 30
5.000
 50
180.000
  0
POINT
  8
2
 10
145.335
 20
3.710
  0
TEXT
  8
14
 10
145.335
 20
3.710
 40
3.0
  1
# 10
  0
POINT
  8
2
 10
148.226
 20
-33.602
  0
TEXT
  8
14
 10
148.226
 20
-33.602
 40
3.0
  1
# 11
  0
POINT
  8
4
 10
-16.938
 20
-33.602
 30
7.000
 50
90.000
  0
POINT
  8
2
 10
-16.938
 20
-33.602
  0
TEXT
  8
14
 10
-16.938
 20
-33.602
 40
3.0
  1
# 12
  0
POINT
  8
2
 10
-45.392
 20
-33.602
  0
TEXT
  8
14
 10
-45.392
 20
-33.602
 40
3.0
  1
# 13
  0
POINT
  8
4
 10
-39.716
 20
3.710
 30
5.000
 50
0.000
  0
POINT
  8
2
 10
-39.716
 20
3.710
  0
TEXT
  8
14
 10
-39.716
 20
3.710
 40
3.0
  1
# 14
  0
POINT
  8
2
 10
-45.392
 20
41.023
  0
TEXT
  8
14
 10
-45.392
 20
41.023
 40
3.0
  1
# 15
  0
POINT
  8
4
 10
-16.938
 20
41.023
 30
7.000
 50
270.000
  0
POINT
  8
2
 10
-16.938
 20
41.023
  0
TEXT
  8
14
 10
-16.938
 20
41.023
 40
3.0
  1
# 16
  0
POINT
  8
2
 10
148.226
 20
41.023
  0
TEXT
  8
14
 10
148.226
 20
41.023
 40
3.0
  1
# 17
  0
POINT
  8
4
 10
145.335
 20
3.710
 30
5.000
 50
180.000
  0
POINT
  8
2
 10
145.335
 20
3.710
  0
TEXT
  8
14
 10
145.335
 20
3.710
 40
3.0
  1
# 18
  0
LINE
  8
7
 10
0.000
 20
0.000
 11
55.553
 21
0.000
  0
POINT
  8
2
 10
0.000
 20
0.000
  0
TEXT
  8
7
 10
0.000
 20
0.000
 40
3.0
  1
# 21
  0
POINT
  8
2
 10
55.553
 20
0.000
  0
TEXT
  8
7
 10
55.553
 20
0.000
 40
3.0
  1
# 22
  0
TEXT
  8
15
 10
44.094
 20
17.113
 40
0.146
 50
0.014
  1
1 Piece
  0
TEXT
  8
15
 10
44.094
 20
17.113
 40
3.0
  1
# 23
  0
TEXT
  8
15
 10
113.272
 20
14.625
 40
0.093
 50
0.000
  1
Main Fabric
  0
TEXT
  8
15
 10
113.272
 20
14.625
 40
3.0
  1
# 24
  0
TEXT
  8
1
 10
0.000
 20
0.000
 40
3.0
  1
Piece Name: 910588V20000.BRA
  0
TEXT
  8
1
 10
0.000
 20
5.000
 40
3.0
  1
Size: T38
  0
TEXT
  8
1
 10
0.000
 20
10.000
 40
3.0
  1
Annotation:1S FLY
  0
TEXT
  8
1
 10
0.000
 20
15.000
 40
3.0
  1
Quantity: 1
  0
TEXT
  8
1
 10
0.000
 20
20.000
 40
3.0
  1
Category: Bragueta
  0
ENDBLK
  0
BLOCK
  8
1
  2
910588V20000CAD
 70
0
 10
0.0
 20
0.0
  0
POLYLINE
  8
1
 66
1
 70
    1
  0
VERTEX
  8
1
 10
-15.750
 20
-82.500
  0
VERTEX
  8
1
 10
-15.750
 20
32.500
  0
VERTEX
  8
1
 10
-15.750
 20
147.500
  0
VERTEX
  8
1
 10
66.250
 20
147.500
  0
VERTEX
  8
1
 10
66.250
 20
70.887
  0
VERTEX
  8
1
 10
66.250
 20
32.500
  0
VERTEX
  8
1
 10
66.250
 20
-5.887
  0
VERTEX
  8
1
 10
66.250
 20
-82.500
  0
VERTEX
  8
1
 10
-15.750
 20
-82.500
  0
SEQEND
  0
POINT
  8
2
 10
-15.750
 20
-82.500
  0
TEXT
  8
1
 10
-15.750
 20
-82.500
 40
3.0
  1
# 1
  0
POINT
  8
3
 10
-15.750
 20
32.500
  0
POINT
  8
2
 10
-15.750
 20
147.500
  0
TEXT
  8
1
 10
-15.750
 20
147.500
 40
3.0
  1
# 2
  0
POINT
  8
2
 10
66.250
 20
147.500
  0
TEXT
  8
1
 10
66.250
 20
147.500
 40
3.0
  1
# 3
  0
POINT
  8
3
 10
66.250
 20
70.887
  0
POINT
  8
3
 10
66.250
 20
32.500
  0
POINT
  8
3
 10
66.250
 20
-5.887
  0
POINT
  8
2
 10
66.250
 20
-82.500
  0
TEXT
  8
1
 10
66.250
 20
-82.500
 40
3.0
  1
# 4
  0
POINT
  8
2
 10
-15.750
 20
-82.500
  0
TEXT
  8
1
 10
-15.750
 20
-82.500
 40
3.0
  1
# 5
  0
POLYLINE
  8
14
 66
1
 70
    1
  0
VERTEX
  8
14
 10
-5.750
 20
-72.500
  0
VERTEX
  8
14
 10
-5.750
 20
32.500
  0
VERTEX
  8
14
 10
-5.750
 20
137.500
  0
VERTEX
  8
14
 10
56.250
 20
137.500
  0
VERTEX
  8
14
 10
56.250
 20
70.887
  0
VERTEX
  8
14
 10
56.250
 20
32.500
  0
VERTEX
  8
14
 10
56.250
 20
-5.887
  0
VERTEX
  8
14
 10
56.250
 20
-72.500
  0
VERTEX
  8
14
 10
-5.750
 20
-72.500
  0
SEQEND
  0
POINT
  8
2
 10
-5.750
 20
-72.500
  0
TEXT
  8
14
 10
-5.750
 20
-72.500
 40
3.0
  1
# 6
  0
POINT
  8
3
 10
-5.750
 20
32.500
  0
POINT
  8
2
 10
-5.750
 20
137.500
  0
TEXT
  8
14
 10
-5.750
 20
137.500
 40
3.0
  1
# 7
  0
POINT
  8
2
 10
56.250
 20
137.500
  0
TEXT
  8
14
 10
56.250
 20
137.500
 40
3.0
  1
# 8
  0
POINT
  8
3
 10
56.250
 20
70.887
  0
POINT
  8
3
 10
56.250
 20
32.500
  0
POINT
  8
3
 10
56.250
 20
-5.887
  0
POINT
  8
2
 10
56.250
 20
-72.500
  0
TEXT
  8
14
 10
56.250
 20
-72.500
 40
3.0
  1
# 9
  0
POINT
  8
2
 10
-5.750
 20
-72.500
  0
TEXT
  8
14
 10
-5.750
 20
-72.500
 40
3.0
  1
# 10
  0
LINE
  8
7
 10
0.000
 20
0.000
 11
37.500
 21
0.000
  0
POINT
  8
2
 10
0.000
 20
0.000
  0
TEXT
  8
7
 10
0.000
 20
0.000
 40
3.0
  1
# 13
  0
POINT
  8
2
 10
37.500
 20
0.000
  0
TEXT
  8
7
 10
37.500
 20
0.000
 40
3.0
  1
# 14
  0
TEXT
  8
15
 10
41.114
 20
-26.335
 40
0.091
 50
0.000
  1
Main Fabric
  0
TEXT
  8
15
 10
41.114
 20
-26.335
 40
3.0
  1
# 15
  0
TEXT
  8
15
 10
25.113
 20
49.810
 40
0.125
 50
0.000
  1
2 Pieces
  0
TEXT
  8
15
 10
25.113
 20
49.810
 40
3.0
  1
# 16
  0
TEXT
  8
1
 10
0.000
 20
0.000
 40
3.0
  1
Piece Name: 910588V20000.CAD
  0
TEXT
  8
1
 10
0.000
 20
5.000
 40
3.0
  1
Size: T38
  0
TEXT
  8
1
 10
0.000
 20
10.000
 40
3.0
  1
Annotation:FRONT FLAP 2S
  0
TEXT
  8
1
 10
0.000
 20
15.000
 40
3.0
  1
Quantity: 1
  0
TEXT
  8
1
 10
0.000
 20
20.000
 40
3.0
  1
Category: Cartera de Costado
  0
ENDBLK
  0
BLOCK
  8
1
  2
910588V20000CAF
 70
0
 10
0.0
 20
0.0
  0
POLYLINE
  8
1
 66
1
 70
    1
  0
VERTEX
  8
1
 10
-20.500
 20
-57.500
  0
VERTEX
  8
1
 10
-20.500
 20
57.500
  0
VERTEX
  8
1
 10
41.500
 20
57.500
  0
VERTEX
  8
1
 10
41.500
 20
0.000
  0
VERTEX
  8
1
 10
41.500
 20
-57.500
  0
VERTEX
  8
1
 10
-20.500
 20
-57.500
  0
SEQEND
  0
POINT
  8
2
 10
-20.500
 20
-57.500
  0
TEXT
  8
1
 10
-20.500
 20
-57.500
 40
3.0
  1
# 1
  0
POINT
  8
2
 10
-20.500
 20
57.500
  0
TEXT
  8
1
 10
-20.500
 20
57.500
 40
3.0
  1
# 2
  0
POINT
  8
2
 10
41.500
 20
57.500
  0
TEXT
  8
1
 10
41.500
 20
57.500
 40
3.0
  1
# 3
  0
POINT
  8
2
 10
41.500
 20
0.000
  0
TEXT
  8
1
 10
41.500
 20
0.000
 40
3.0
  1
# 4
  0
POINT
  8
2
 10
41.500
 20
-57.500
  0
TEXT
  8
1
 10
41.500
 20
-57.500
 40
3.0
  1
# 5
  0
POINT
  8
2
 10
-20.500
 20
-57.500
  0
TEXT
  8
1
 10
-20.500
 20
-57.500
 40
3.0
  1
# 6
  0
POLYLINE
  8
14
 66
1
 70
    1
  0
VERTEX
  8
14
 10
-10.500
 20
-47.500
  0
VERTEX
  8
14
 10
-10.500
 20
47.500
  0
VERTEX
  8
14
 10
31.500
 20
47.500
  0
VERTEX
  8
14
 10
31.500
 20
0.000
  0
VERTEX
  8
14
 10
31.500
 20
-47.500
  0
VERTEX
  8
14
 10
-10.500
 20
-47.500
  0
SEQEND
  0
POINT
  8
2
 10
-10.500
 20
-47.500
  0
TEXT
  8
14
 10
-10.500
 20
-47.500
 40
3.0
  1
# 7
  0
POINT
  8
2
 10
-10.500
 20
47.500
  0
TEXT
  8
14
 10
-10.500
 20
47.500
 40
3.0
  1
# 8
  0
POINT
  8
2
 10
31.500
 20
47.500
  0
TEXT
  8
14
 10
31.500
 20
47.500
 40
3.0
  1
# 9
  0
POINT
  8
2
 10
31.500
 20
0.000
  0
TEXT
  8
14
 10
31.500
 20
0.000
 40
3.0
  1
# 10
  0
POINT
  8
2
 10
31.500
 20
-47.500
  0
TEXT
  8
14
 10
31.500
 20
-47.500
 40
3.0
  1
# 11
  0
POINT
  8
2
 10
-10.500
 20
-47.500
  0
TEXT
  8
14
 10
-10.500
 20
-47.500
 40
3.0
  1
# 12
  0
LINE
  8
7
 10
0.000
 20
0.000
 11
21.000
 21
0.000
  0
POINT
  8
2
 10
0.000
 20
0.000
  0
TEXT
  8
7
 10
0.000
 20
0.000
 40
3.0
  1
# 15
  0
POINT
  8
2
 10
21.000
 20
0.000
  0
TEXT
  8
7
 10
21.000
 20
0.000
 40
3.0
  1
# 16
  0
TEXT
  8
15
 10
15.189
 20
29.984
 40
0.125
 50
0.000
  1
2 Pieces
  0
TEXT
  8
15
 10
15.189
 20
29.984
 40
3.0
  1
# 17
  0
TEXT
  8
15
 10
16.802
 20
-38.516
 40
0.091
 50
0.000
  1
Main Fabric
  0
TEXT
  8
15
 10
16.802
 20
-38.516
 40
3.0
  1
# 18
  0
TEXT
  8
1
 10
0.000
 20
0.000
 40
3.0
  1
Piece Name: 910588V20000.CAF
  0
TEXT
  8
1
 10
0.000
 20
5.000
 40
3.0
  1
Size: T38
  0
TEXT
  8
1
 10
0.000
 20
10.000
 40
3.0
  1
Annotation:FLAP 2S
  0
TEXT
  8
1
 10
0.000
 20
15.000
 40
3.0
  1
Quantity: 1
  0
TEXT
  8
1
 10
0.000
 20
20.000
 40
3.0
  1
Category: Cartera
  0
ENDBLK
  0
BLOCK
  8
1
  2
910588V20000CAR
 70
0
 10
0.0
 20
0.0
  0
POLYLINE
  8
1
 66
1
 70
    1
  0
VERTEX
  8
1
 10
-8.109
 20
81.287
  0
VERTEX
  8
1
 10
49.323
 20
81.287
  0
VERTEX
  8
1
 10
49.323
 20
0.860
  0
VERTEX
  8
1
 10
49.183
 20
-79.549
  0
VERTEX
  8
1
 10
-8.380
 20
-79.549
  0
VERTEX
  8
1
 10
-30.945
 20
0.886
  0
VERTEX
  8
1
 10
-8.109
 20
81.287
  0
SEQEND
  0
POINT
  8
2
 10
-8.109
 20
81.287
  0
TEXT
  8
1
 10
-8.109
 20
81.287
 40
3.0
  1
# 1
  0
POINT
  8
2
 10
49.323
 20
81.287
  0
TEXT
  8
1
 10
49.323
 20
81.287
 40
3.0
  1
# 2
  0
POINT
  8
2
 10
49.323
 20
0.860
  0
TEXT
  8
1
 10
49.323
 20
0.860
 40
3.0
  1
# 3
  0
POINT
  8
2
 10
49.183
 20
-79.549
  0
TEXT
  8
1
 10
49.183
 20
-79.549
 40
3.0
  1
# 4
  0
POINT
  8
2
 10
-8.380
 20
-79.549
  0
TEXT
  8
1
 10
-8.380
 20
-79.549
 40
3.0
  1
# 5
  0
POINT
  8
2
 10
-30.945
 20
0.886
  0
TEXT
  8
1
 10
-30.945
 20
0.886
 40
3.0
  1
# 6
  0
POINT
  8
2
 10
-8.109
 20
81.287
  0
TEXT
  8
1
 10
-8.109
 20
81.287
 40
3.0
  1
# 7
  0
POLYLINE
  8
14
 66
1
 70
    1
  0
VERTEX
  8
14
 10
-0.554
 20
71.287
  0
VERTEX
  8
14
 10
39.323
 20
71.287
  0
VERTEX
  8
14
 10
39.323
 20
0.869
  0
VERTEX
  8
14
 10
39.200
 20
-69.549
  0
VERTEX
  8
14
 10
-0.800
 20
-69.549
  0
VERTEX
  8
14
 10
-20.554
 20
0.869
  0
VERTEX
  8
14
 10
-0.554
 20
71.287
  0
SEQEND
  0
POINT
  8
2
 10
-0.554
 20
71.287
  0
TEXT
  8
14
 10
-0.554
 20
71.287
 40
3.0
  1
# 8
  0
POINT
  8
2
 10
39.323
 20
71.287
  0
TEXT
  8
14
 10
39.323
 20
71.287
 40
3.0
  1
# 9
  0
POINT
  8
2
 10
39.323
 20
0.869
  0
TEXT
  8
14
 10
39.323
 20
0.869
 40
3.0
  1
# 10
  0
POINT
  8
2
 10
39.200
 20
-69.549
  0
TEXT
  8
14
 10
39.200
 20
-69.549
 40
3.0
  1
# 11
  0
POINT
  8
2
 10
-0.800
 20
-69.549
  0
TEXT
  8
14
 10
-0.800
 20
-69.549
 40
3.0
  1
# 12
  0
POINT
  8
2
 10
-20.554
 20
0.869
  0
TEXT
  8
14
 10
-20.554
 20
0.869
 40
3.0
  1
# 13
  0
POINT
  8
2
 10
-0.554
 20
71.287
  0
TEXT
  8
14
 10
-0.554
 20
71.287
 40
3.0
  1
# 14
  0
LINE
  8
7
 10
0.000
 20
0.000
 11
19.237
 21
0.000
  0
POINT
  8
2
 10
0.000
 20
0.000
  0
TEXT
  8
7
 10
0.000
 20
0.000
 40
3.0
  1
# 17
  0
POINT
  8
2
 10
19.237
 20
0.000
  0
TEXT
  8
7
 10
19.237
 20
0.000
 40
3.0
  1
# 18
  0
TEXT
  8
15
 10
3.951
 20
-59.661
 40
0.091
 50
0.000
  1
Main Fabric
  0
TEXT
  8
15
 10
3.951
 20
-59.661
 40
3.0
  1
# 19
  0
TEXT
  8
15
 10
18.289
 20
33.245
 40
0.125
 50
0.000
  1
4 Pieces
  0
TEXT
  8
15
 10
18.289
 20
33.245
 40
3.0
  1
# 20
  0
TEXT
  8
1
 10
0.000
 20
0.000
 40
3.0
  1
Piece Name: 910588V20000.CAR
  0
TEXT
  8
1
 10
0.000
 20
5.000
 40
3.0
  1
Size: T38
  0
TEXT
  8
1
 10
0.000
 20
10.000
 40
3.0
  1
Annotation:FRONT FLAP 4S
  0
TEXT
  8
1
 10
0.000
 20
15.000
 40
3.0
  1
Quantity: 1
  0
TEXT
  8
1
 10
0.000
 20
20.000
 40
3.0
  1
Category: Cartera de Costado
  0
ENDBLK
  0
BLOCK
  8
1
  2
910588V20000CAZ
 70
0
 10
0.0
 20
0.0
  0
POLYLINE
  8
1
 66
1
 70
    1
  0
VERTEX
  8
1
 10
-18.750
 20
-92.500
  0
VERTEX
  8
1
 10
-18.750
 20
32.500
  0
VERTEX
  8
1
 10
-18.750
 20
157.500
  0
VERTEX
  8
1
 10
66.250
 20
157.500
  0
VERTEX
  8
1
 10
66.250
 20
74.543
  0
VERTEX
  8
1
 10
66.250
 20
32.500
  0
VERTEX
  8
1
 10
66.250
 20
-9.543
  0
VERTEX
  8
1
 10
66.250
 20
-92.500
  0
VERTEX
  8
1
 10
-18.750
 20
-92.500
  0
SEQEND
  0
POINT
  8
2
 10
-18.750
 20
-92.500
  0
TEXT
  8
1
 10
-18.750
 20
-92.500
 40
3.0
  1
# 1
  0
POINT
  8
3
 10
-18.750
 20
32.500
  0
POINT
  8
2
 10
-18.750
 20
157.500
  0
TEXT
  8
1
 10
-18.750
 20
157.500
 40
3.0
  1
# 2
  0
POINT
  8
2
 10
66.250
 20
157.500
  0
TEXT
  8
1
 10
66.250
 20
157.500
 40
3.0
  1
# 3
  0
POINT
  8
3
 10
66.250
 20
74.543
  0
POINT
  8
3
 10
66.250
 20
32.500
  0
POINT
  8
3
 10
66.250
 20
-9.543
  0
POINT
  8
2
 10
66.250
 20
-92.500
  0
TEXT
  8
1
 10
66.250
 20
-92.500
 40
3.0
  1
# 4
  0
POINT
  8
2
 10
-18.750
 20
-92.500
  0
TEXT
  8
1
 10
-18.750
 20
-92.500
 40
3.0
  1
# 5
  0
POLYLINE
  8
14
 66
1
 70
    1
  0
VERTEX
  8
14
 10
-8.750
 20
-82.500
  0
VERTEX
  8
14
 10
-8.750
 20
32.500
  0
VERTEX
  8
14
 10
-8.750
 20
147.500
  0
VERTEX
  8
14
 10
56.250
 20
147.500
  0
VERTEX
  8
14
 10
56.250
 20
74.543
  0
VERTEX
  8
14
 10
56.250
 20
32.500
  0
VERTEX
  8
14
 10
56.250
 20
-9.543
  0
VERTEX
  8
14
 10
56.250
 20
-82.500
  0
VERTEX
  8
14
 10
-8.750
 20
-82.500
  0
SEQEND
  0
POINT
  8
2
 10
-8.750
 20
-82.500
  0
TEXT
  8
14
 10
-8.750
 20
-82.500
 40
3.0
  1
# 6
  0
POINT
  8
3
 10
-8.750
 20
32.500
  0
POINT
  8
2
 10
-8.750
 20
147.500
  0
TEXT
  8
14
 10
-8.750
 20
147.500
 40
3.0
  1
# 7
  0
POINT
  8
2
 10
56.250
 20
147.500
  0
TEXT
  8
14
 10
56.250
 20
147.500
 40
3.0
  1
# 8
  0
POINT
  8
3
 10
56.250
 20
74.543
  0
POINT
  8
3
 10
56.250
 20
32.500
  0
POINT
  8
3
 10
56.250
 20
-9.543
  0
POINT
  8
2
 10
56.250
 20
-82.500
  0
TEXT
  8
14
 10
56.250
 20
-82.500
 40
3.0
  1
# 9
  0
POINT
  8
2
 10
-8.750
 20
-82.500
  0
TEXT
  8
14
 10
-8.750
 20
-82.500
 40
3.0
  1
# 10
  0
LINE
  8
7
 10
0.000
 20
0.000
 11
37.500
 21
0.000
  0
POINT
  8
2
 10
0.000
 20
0.000
  0
TEXT
  8
7
 10
0.000
 20
0.000
 40
3.0
  1
# 13
  0
POINT
  8
2
 10
37.500
 20
0.000
  0
TEXT
  8
7
 10
37.500
 20
0.000
 40
3.0
  1
# 14
  0
TEXT
  8
15
 10
41.114
 20
-26.335
 40
0.091
 50
0.000
  1
Main Fabric
  0
TEXT
  8
15
 10
41.114
 20
-26.335
 40
3.0
  1
# 15
  0
TEXT
  8
15
 10
25.113
 20
49.810
 40
0.125
 50
0.000
  1
2 Pieces
  0
TEXT
  8
15
 10
25.113
 20
49.810
 40
3.0
  1
# 16
  0
TEXT
  8
1
 10
0.000
 20
0.000
 40
3.0
  1
Piece Name: 910588V20000.CAZ
  0
TEXT
  8
1
 10
0.000
 20
5.000
 40
3.0
  1
Size: T38
  0
TEXT
  8
1
 10
0.000
 20
10.000
 40
3.0
  1
Annotation:LEFT FLAP 2S
  0
TEXT
  8
1
 10
0.000
 20
15.000
 40
3.0
  1
Quantity: 1
  0
TEXT
  8
1
 10
0.000
 20
20.000
 40
3.0
  1
Category: Cartera de Costado
  0
ENDBLK
  0
BLOCK
  8
1
  2
910588V20000CIN
 70
0
 10
0.0
 20
0.0
  0
POLYLINE
  8
1
 66
1
 70
    1
  0
VERTEX
  8
1
 10
65.573
 20
-198.027
  0
VERTEX
  8
1
 10
70.597
 20
-220.429
  0
VERTEX
  8
1
 10
75.991
 20
-242.746
  0
VERTEX
  8
1
 10
81.793
 20
-265.119
  0
VERTEX
  8
1
 10
87.968
 20
-287.392
  0
VERTEX
  8
1
 10
94.519
 20
-309.575
  0
VERTEX
  8
1
 10
101.438
 20
-331.646
  0
VERTEX
  8
1
 10
108.730
 20
-353.620
  0
VERTEX
  8
1
 10
116.386
 20
-375.470
  0
VERTEX
  8
1
 10
124.270
 20
-396.949
  0
VERTEX
  8
1
 10
131.779
 20
-416.643
  0
VERTEX
  8
1
 10
72.843
 20
-440.201
  0
VERTEX
  8
1
 10
55.879
 20
-395.524
  0
VERTEX
  8
1
 10
48.067
 20
-373.057
  0
VERTEX
  8
1
 10
40.590
 20
-350.476
  0
VERTEX
  8
1
 10
33.456
 20
-327.798
  0
VERTEX
  8
1
 10
26.651
 20
-305.018
  0
VERTEX
  8
1
 10
20.179
 20
-282.157
  0
VERTEX
  8
1
 10
14.075
 20
-259.196
  0
VERTEX
  8
1
 10
8.414
 20
-236.409
  0
VERTEX
  8
1
 10
2.983
 20
-213.566
  0
VERTEX
  8
1
 10
2.760
 20
-212.614
  0
VERTEX
  8
1
 10
-0.502
 20
-187.658
  0
VERTEX
  8
1
 10
-3.452
 20
-162.664
  0
VERTEX
  8
1
 10
-6.069
 20
-137.856
  0
VERTEX
  8
1
 10
-8.377
 20
-113.018
  0
VERTEX
  8
1
 10
-10.376
 20
-88.158
  0
VERTEX
  8
1
 10
-12.065
 20
-63.274
  0
VERTEX
  8
1
 10
-13.462
 20
-38.083
  0
VERTEX
  8
1
 10
-14.545
 20
-12.877
  0
VERTEX
  8
1
 10
-12.378
 20
12.295
  0
VERTEX
  8
1
 10
-9.918
 20
37.441
  0
VERTEX
  8
1
 10
-7.199
 20
62.265
  0
VERTEX
  8
1
 10
-4.193
 20
87.055
  0
VERTEX
  8
1
 10
-0.898
 20
111.815
  0
VERTEX
  8
1
 10
2.683
 20
136.535
  0
VERTEX
  8
1
 10
6.602
 20
161.542
  0
VERTEX
  8
1
 10
10.812
 20
186.501
  0
VERTEX
  8
1
 10
11.004
 20
187.099
  0
VERTEX
  8
1
 10
18.106
 20
209.062
  0
VERTEX
  8
1
 10
25.466
 20
230.939
  0
VERTEX
  8
1
 10
33.246
 20
252.681
  0
VERTEX
  8
1
 10
41.438
 20
274.273
  0
VERTEX
  8
1
 10
50.007
 20
295.740
  0
VERTEX
  8
1
 10
58.922
 20
317.066
  0
VERTEX
  8
1
 10
70.196
 20
342.791
  0
VERTEX
  8
1
 10
81.954
 20
368.297
  0
VERTEX
  8
1
 10
139.766
 20
341.447
  0
VERTEX
  8
1
 10
128.549
 20
316.944
  0
VERTEX
  8
1
 10
117.796
 20
292.234
  0
VERTEX
  8
1
 10
109.385
 20
271.971
  0
VERTEX
  8
1
 10
101.309
 20
251.573
  0
VERTEX
  8
1
 10
93.655
 20
231.199
  0
VERTEX
  8
1
 10
86.359
 20
210.694
  0
VERTEX
  8
1
 10
79.480
 20
190.263
  0
VERTEX
  8
1
 10
72.951
 20
169.719
  0
VERTEX
  8
1
 10
69.811
 20
154.822
  0
VERTEX
  8
1
 10
66.893
 20
139.879
  0
VERTEX
  8
1
 10
64.159
 20
124.680
  0
VERTEX
  8
1
 10
61.654
 20
109.442
  0
VERTEX
  8
1
 10
59.377
 20
94.166
  0
VERTEX
  8
1
 10
57.330
 20
78.858
  0
VERTEX
  8
1
 10
55.514
 20
63.525
  0
VERTEX
  8
1
 10
53.929
 20
48.166
  0
VERTEX
  8
1
 10
52.574
 20
32.785
  0
VERTEX
  8
1
 10
51.450
 20
17.387
  0
VERTEX
  8
1
 10
50.564
 20
2.112
  0
VERTEX
  8
1
 10
49.905
 20
-13.174
  0
VERTEX
  8
1
 10
50.493
 20
-36.312
  0
VERTEX
  8
1
 10
51.471
 20
-59.439
  0
VERTEX
  8
1
 10
52.847
 20
-82.674
  0
VERTEX
  8
1
 10
54.616
 20
-105.883
  0
VERTEX
  8
1
 10
56.779
 20
-129.061
  0
VERTEX
  8
1
 10
59.334
 20
-152.199
  0
VERTEX
  8
1
 10
62.261
 20
-175.139
  0
VERTEX
  8
1
 10
65.573
 20
-198.027
  0
SEQEND
  0
POINT
  8
2
 10
65.573
 20
-198.027
  0
TEXT
  8
1
 10
65.573
 20
-198.027
 40
3.0
  1
# 1
  0
POINT
  8
3
 10
70.597
 20
-220.429
  0
POINT
  8
3
 10
75.991
 20
-242.746
  0
POINT
  8
3
 10
81.793
 20
-265.119
  0
POINT
  8
3
 10
87.968
 20
-287.392
  0
POINT
  8
3
 10
94.519
 20
-309.575
  0
POINT
  8
3
 10
101.438
 20
-331.646
  0
POINT
  8
3
 10
108.730
 20
-353.620
  0
POINT
  8
2
 10
116.386
 20
-375.470
  0
TEXT
  8
1
 10
116.386
 20
-375.470
 40
3.0
  1
# 2
  0
POINT
  8
3
 10
124.270
 20
-396.949
  0
POINT
  8
2
 10
131.779
 20
-416.643
  0
TEXT
  8
1
 10
131.779
 20
-416.643
 40
3.0
  1
# 3
  0
POINT
  8
2
 10
72.843
 20
-440.201
  0
TEXT
  8
1
 10
72.843
 20
-440.201
 40
3.0
  1
# 4
  0
POINT
  8
4
 10
55.879
 20
-395.524
 30
5.000
 50
22.604
  0
POINT
  8
2
 10
55.879
 20
-395.524
  0
TEXT
  8
1
 10
55.879
 20
-395.524
 40
3.0
  1
# 5
  0
POINT
  8
3
 10
48.067
 20
-373.057
  0
POINT
  8
3
 10
40.590
 20
-350.476
  0
POINT
  8
3
 10
33.456
 20
-327.798
  0
POINT
  8
3
 10
26.651
 20
-305.018
  0
POINT
  8
3
 10
20.179
 20
-282.157
  0
POINT
  8
3
 10
14.075
 20
-259.196
  0
POINT
  8
3
 10
8.414
 20
-236.409
  0
POINT
  8
4
 10
2.983
 20
-213.566
 30
5.000
 50
15.970
  0
POINT
  8
3
 10
2.983
 20
-213.566
  0
POINT
  8
2
 10
2.760
 20
-212.614
  0
TEXT
  8
1
 10
2.760
 20
-212.614
 40
3.0
  1
# 6
  0
POINT
  8
3
 10
-0.502
 20
-187.658
  0
POINT
  8
3
 10
-3.452
 20
-162.664
  0
POINT
  8
3
 10
-6.069
 20
-137.856
  0
POINT
  8
3
 10
-8.377
 20
-113.018
  0
POINT
  8
3
 10
-10.376
 20
-88.158
  0
POINT
  8
3
 10
-12.065
 20
-63.274
  0
POINT
  8
3
 10
-13.462
 20
-38.083
  0
POINT
  8
4
 10
-14.545
 20
-12.877
 30
5.000
 50
0.000
  0
POINT
  8
2
 10
-14.545
 20
-12.877
  0
TEXT
  8
1
 10
-14.545
 20
-12.877
 40
3.0
  1
# 7
  0
POINT
  8
3
 10
-12.378
 20
12.295
  0
POINT
  8
3
 10
-9.918
 20
37.441
  0
POINT
  8
3
 10
-7.199
 20
62.265
  0
POINT
  8
3
 10
-4.193
 20
87.055
  0
POINT
  8
3
 10
-0.898
 20
111.815
  0
POINT
  8
3
 10
2.683
 20
136.535
  0
POINT
  8
3
 10
6.602
 20
161.542
  0
POINT
  8
2
 10
10.812
 20
186.501
  0
TEXT
  8
1
 10
10.812
 20
186.501
 40
3.0
  1
# 8
  0
POINT
  8
4
 10
11.004
 20
187.099
 30
5.000
 50
342.667
  0
POINT
  8
3
 10
11.004
 20
187.099
  0
POINT
  8
3
 10
18.106
 20
209.062
  0
POINT
  8
3
 10
25.466
 20
230.939
  0
POINT
  8
3
 10
33.246
 20
252.681
  0
POINT
  8
3
 10
41.438
 20
274.273
  0
POINT
  8
3
 10
50.007
 20
295.740
  0
POINT
  8
3
 10
58.922
 20
317.066
  0
POINT
  8
3
 10
70.196
 20
342.791
  0
POINT
  8
2
 10
81.954
 20
368.297
  0
TEXT
  8
1
 10
81.954
 20
368.297
 40
3.0
  1
# 9
  0
POINT
  8
2
 10
139.766
 20
341.447
  0
TEXT
  8
1
 10
139.766
 20
341.447
 40
3.0
  1
# 10
  0
POINT
  8
3
 10
128.549
 20
316.944
  0
POINT
  8
3
 10
117.796
 20
292.234
  0
POINT
  8
3
 10
109.385
 20
271.971
  0
POINT
  8
3
 10
101.309
 20
251.573
  0
POINT
  8
3
 10
93.655
 20
231.199
  0
POINT
  8
3
 10
86.359
 20
210.694
  0
POINT
  8
3
 10
79.480
 20
190.263
  0
POINT
  8
2
 10
72.951
 20
169.719
  0
TEXT
  8
1
 10
72.951
 20
169.719
 40
3.0
  1
# 11
  0
POINT
  8
3
 10
69.811
 20
154.822
  0
POINT
  8
3
 10
66.893
 20
139.879
  0
POINT
  8
3
 10
64.159
 20
124.680
  0
POINT
  8
3
 10
61.654
 20
109.442
  0
POINT
  8
3
 10
59.377
 20
94.166
  0
POINT
  8
3
 10
57.330
 20
78.858
  0
POINT
  8
3
 10
55.514
 20
63.525
  0
POINT
  8
3
 10
53.929
 20
48.166
  0
POINT
  8
3
 10
52.574
 20
32.785
  0
POINT
  8
3
 10
51.450
 20
17.387
  0
POINT
  8
3
 10
50.564
 20
2.112
  0
POINT
  8
4
 10
49.905
 20
-13.174
 30
5.000
 50
180.000
  0
POINT
  8
2
 10
49.905
 20
-13.174
  0
TEXT
  8
1
 10
49.905
 20
-13.174
 40
3.0
  1
# 12
  0
POINT
  8
3
 10
50.493
 20
-36.312
  0
POINT
  8
3
 10
51.471
 20
-59.439
  0
POINT
  8
3
 10
52.847
 20
-82.674
  0
POINT
  8
3
 10
54.616
 20
-105.883
  0
POINT
  8
3
 10
56.779
 20
-129.061
  0
POINT
  8
3
 10
59.334
 20
-152.199
  0
POINT
  8
3
 10
62.261
 20
-175.139
  0
POINT
  8
2
 10
65.573
 20
-198.027
  0
TEXT
  8
1
 10
65.573
 20
-198.027
 40
3.0
  1
# 13
  0
POLYLINE
  8
14
 66
1
 70
    1
  0
VERTEX
  8
14
 10
55.728
 20
-199.840
  0
VERTEX
  8
14
 10
66.289
 20
-245.177
  0
VERTEX
  8
14
 10
78.353
 20
-290.145
  0
VERTEX
  8
14
 10
91.920
 20
-334.717
  0
VERTEX
  8
14
 10
106.959
 20
-378.807
  0
VERTEX
  8
14
 10
114.904
 20
-400.453
  0
VERTEX
  8
14
 10
118.929
 20
-411.010
  0
VERTEX
  8
14
 10
78.580
 20
-427.139
  0
VERTEX
  8
14
 10
65.289
 20
-392.143
  0
VERTEX
  8
14
 10
50.107
 20
-347.403
  0
VERTEX
  8
14
 10
36.255
 20
-302.228
  0
VERTEX
  8
14
 10
23.757
 20
-256.692
  0
VERTEX
  8
14
 10
12.612
 20
-210.811
  0
VERTEX
  8
14
 10
6.487
 20
-161.553
  0
VERTEX
  8
14
 10
1.586
 20
-112.155
  0
VERTEX
  8
14
 10
-2.083
 20
-62.659
  0
VERTEX
  8
14
 10
-4.522
 20
-13.090
  0
VERTEX
  8
14
 10
0.030
 20
36.409
  0
VERTEX
  8
14
 10
5.728
 20
85.794
  0
VERTEX
  8
14
 10
12.572
 20
135.043
  0
VERTEX
  8
14
 10
20.556
 20
184.117
  0
VERTEX
  8
14
 10
34.909
 20
227.643
  0
VERTEX
  8
14
 10
50.761
 20
270.652
  0
VERTEX
  8
14
 10
68.113
 20
313.124
  0
VERTEX
  8
14
 10
86.923
 20
354.963
  0
VERTEX
  8
14
 10
126.618
 20
336.527
  0
VERTEX
  8
14
 10
108.594
 20
296.152
  0
VERTEX
  8
14
 10
91.977
 20
255.170
  0
VERTEX
  8
14
 10
76.908
 20
213.967
  0
VERTEX
  8
14
 10
63.266
 20
172.277
  0
VERTEX
  8
14
 10
57.063
 20
141.723
  0
VERTEX
  8
14
 10
51.774
 20
110.990
  0
VERTEX
  8
14
 10
47.407
 20
80.109
  0
VERTEX
  8
14
 10
43.974
 20
49.118
  0
VERTEX
  8
14
 10
41.470
 20
18.041
  0
VERTEX
  8
14
 10
39.896
 20
-13.090
  0
VERTEX
  8
14
 10
41.482
 20
-59.946
  0
VERTEX
  8
14
 10
44.651
 20
-106.728
  0
VERTEX
  8
14
 10
49.403
 20
-153.380
  0
VERTEX
  8
14
 10
55.728
 20
-199.840
  0
SEQEND
  0
POINT
  8
2
 10
55.728
 20
-199.840
  0
TEXT
  8
14
 10
55.728
 20
-199.840
 40
3.0
  1
# 14
  0
POINT
  8
3
 10
66.289
 20
-245.177
  0
POINT
  8
3
 10
78.353
 20
-290.145
  0
POINT
  8
3
 10
91.920
 20
-334.717
  0
POINT
  8
2
 10
106.959
 20
-378.807
  0
TEXT
  8
14
 10
106.959
 20
-378.807
 40
3.0
  1
# 15
  0
POINT
  8
3
 10
114.904
 20
-400.453
  0
POINT
  8
2
 10
118.929
 20
-411.010
  0
TEXT
  8
14
 10
118.929
 20
-411.010
 40
3.0
  1
# 16
  0
POINT
  8
2
 10
78.580
 20
-427.139
  0
TEXT
  8
14
 10
78.580
 20
-427.139
 40
3.0
  1
# 17
  0
POINT
  8
4
 10
65.289
 20
-392.143
 30
5.000
 50
22.604
  0
POINT
  8
2
 10
65.289
 20
-392.143
  0
TEXT
  8
14
 10
65.289
 20
-392.143
 40
3.0
  1
# 18
  0
POINT
  8
3
 10
50.107
 20
-347.403
  0
POINT
  8
3
 10
36.255
 20
-302.228
  0
POINT
  8
3
 10
23.757
 20
-256.692
  0
POINT
  8
4
 10
12.612
 20
-210.811
 30
5.000
 50
15.970
  0
POINT
  8
2
 10
12.612
 20
-210.811
  0
TEXT
  8
14
 10
12.612
 20
-210.811
 40
3.0
  1
# 19
  0
POINT
  8
3
 10
6.487
 20
-161.553
  0
POINT
  8
3
 10
1.586
 20
-112.155
  0
POINT
  8
3
 10
-2.083
 20
-62.659
  0
POINT
  8
4
 10
-4.522
 20
-13.090
 30
5.000
 50
0.000
  0
POINT
  8
2
 10
-4.522
 20
-13.090
  0
TEXT
  8
14
 10
-4.522
 20
-13.090
 40
3.0
  1
# 20
  0
POINT
  8
3
 10
0.030
 20
36.409
  0
POINT
  8
3
 10
5.728
 20
85.794
  0
POINT
  8
3
 10
12.572
 20
135.043
  0
POINT
  8
4
 10
20.556
 20
184.117
 30
5.000
 50
342.667
  0
POINT
  8
2
 10
20.556
 20
184.117
  0
TEXT
  8
14
 10
20.556
 20
184.117
 40
3.0
  1
# 21
  0
POINT
  8
3
 10
34.909
 20
227.643
  0
POINT
  8
3
 10
50.761
 20
270.652
  0
POINT
  8
3
 10
68.113
 20
313.124
  0
POINT
  8
2
 10
86.923
 20
354.963
  0
TEXT
  8
14
 10
86.923
 20
354.963
 40
3.0
  1
# 22
  0
POINT
  8
2
 10
126.618
 20
336.527
  0
TEXT
  8
14
 10
126.618
 20
336.527
 40
3.0
  1
# 23
  0
POINT
  8
3
 10
108.594
 20
296.152
  0
POINT
  8
3
 10
91.977
 20
255.170
  0
POINT
  8
3
 10
76.908
 20
213.967
  0
POINT
  8
2
 10
63.266
 20
172.277
  0
TEXT
  8
14
 10
63.266
 20
172.277
 40
3.0
  1
# 24
  0
POINT
  8
3
 10
57.063
 20
141.723
  0
POINT
  8
3
 10
51.774
 20
110.990
  0
POINT
  8
3
 10
47.407
 20
80.109
  0
POINT
  8
3
 10
43.974
 20
49.118
  0
POINT
  8
3
 10
41.470
 20
18.041
  0
POINT
  8
4
 10
39.896
 20
-13.090
 30
5.000
 50
180.000
  0
POINT
  8
2
 10
39.896
 20
-13.090
  0
TEXT
  8
14
 10
39.896
 20
-13.090
 40
3.0
  1
# 25
  0
POINT
  8
3
 10
41.482
 20
-59.946
  0
POINT
  8
3
 10
44.651
 20
-106.728
  0
POINT
  8
3
 10
49.403
 20
-153.380
  0
POINT
  8
2
 10
55.728
 20
-199.840
  0
TEXT
  8
14
 10
55.728
 20
-199.840
 40
3.0
  1
# 26
  0
LINE
  8
7
 10
0.000
 20
0.000
 11
34.519
 21
0.000
  0
POINT
  8
2
 10
0.000
 20
0.000
  0
TEXT
  8
7
 10
0.000
 20
0.000
 40
3.0
  1
# 29
  0
POINT
  8
2
 10
34.519
 20
0.000
  0
TEXT
  8
7
 10
34.519
 20
0.000
 40
3.0
  1
# 30
  0
TEXT
  8
15
 10
33.219
 20
129.665
 40
0.092
 50
-0.776
  1
Main Fabric
  0
TEXT
  8
15
 10
33.219
 20
129.665
 40
3.0
  1
# 31
  0
TEXT
  8
15
 10
72.476
 20
240.695
 40
0.126
 50
-8.715
  1
2 Pieces
  0
TEXT
  8
15
 10
72.476
 20
240.695
 40
3.0
  1
# 32
  0
TEXT
  8
15
 10
44.735
 20
183.279
 40
0.112
 50
-8.692
  1
Waistband
  0
TEXT
  8
15
 10
44.735
 20
183.279
 40
3.0
  1
# 33
  0
TEXT
  8
1
 10
0.000
 20
0.000
 40
3.0
  1
Piece Name: 910588V20000.CIN
  0
TEXT
  8
1
 10
0.000
 20
5.000
 40
3.0
  1
Size: T38
  0
TEXT
  8
1
 10
0.000
 20
10.000
 40
3.0
  1
Annotation:2S WAIST
  0
TEXT
  8
1
 10
0.000
 20
15.000
 40
3.0
  1
Quantity: 1
  0
TEXT
  8
1
 10
0.000
 20
20.000
 40
3.0
  1
Category: Cinturilla
  0
ENDBLK
  0
BLOCK
  8
1
  2
910588V20000DED
 70
0
 10
0.0
 20
0.0
  0
POLYLINE
  8
1
 66
1
 70
    1
  0
VERTEX
  8
1
 10
-509.061
 20
124.568
  0
VERTEX
  8
1
 10
-366.082
 20
126.549
  0
VERTEX
  8
1
 10
-346.436
 20
128.003
  0
VERTEX
  8
1
 10
-103.924
 20
145.957
  0
VERTEX
  8
1
 10
-46.550
 20
150.201
  0
VERTEX
  8
1
 10
-30.197
 20
151.998
  0
VERTEX
  8
1
 10
-13.585
 20
153.613
  0
VERTEX
  8
1
 10
3.045
 20
155.022
  0
VERTEX
  8
1
 10
19.788
 20
156.229
  0
VERTEX
  8
1
 10
20.351
 20
156.259
  0
VERTEX
  8
1
 10
36.567
 20
157.047
  0
VERTEX
  8
1
 10
52.794
 20
157.567
  0
VERTEX
  8
1
 10
69.333
 20
157.650
  0
VERTEX
  8
1
 10
85.871
 20
157.329
  0
VERTEX
  8
1
 10
107.991
 20
156.352
  0
VERTEX
  8
1
 10
119.051
 20
155.574
  0
VERTEX
  8
1
 10
130.094
 20
154.569
  0
VERTEX
  8
1
 10
141.146
 20
153.308
  0
VERTEX
  8
1
 10
152.164
 20
151.773
  0
VERTEX
  8
1
 10
163.153
 20
149.943
  0
VERTEX
  8
1
 10
174.089
 20
147.818
  0
VERTEX
  8
1
 10
184.958
 20
145.410
  0
VERTEX
  8
1
 10
195.770
 20
142.755
  0
VERTEX
  8
1
 10
210.057
 20
138.895
  0
VERTEX
  8
1
 10
224.235
 20
134.657
  0
VERTEX
  8
1
 10
223.540
 20
11.119
  0
VERTEX
  8
1
 10
223.818
 20
-72.153
  0
VERTEX
  8
1
 10
50.778
 20
-93.974
  0
VERTEX
  8
1
 10
49.482
 20
-94.149
  0
VERTEX
  8
1
 10
35.893
 20
-95.988
  0
VERTEX
  8
1
 10
35.270
 20
-91.141
  0
VERTEX
  8
1
 10
21.799
 20
-93.066
  0
VERTEX
  8
1
 10
0.386
 20
-96.276
  0
VERTEX
  8
1
 10
-4.849
 20
-97.969
  0
VERTEX
  8
1
 10
-10.302
 20
-100.280
  0
VERTEX
  8
1
 10
-16.094
 20
-103.353
  0
VERTEX
  8
1
 10
-18.520
 20
-104.996
  0
VERTEX
  8
1
 10
-20.762
 20
-106.872
  0
VERTEX
  8
1
 10
-22.478
 20
-108.677
  0
VERTEX
  8
1
 10
-24.018
 20
-110.638
  0
VERTEX
  8
1
 10
-25.516
 20
-112.911
  0
VERTEX
  8
1
 10
-26.836
 20
-115.289
  0
VERTEX
  8
1
 10
-29.223
 20
-120.759
  0
VERTEX
  8
1
 10
-31.703
 20
-128.210
  0
VERTEX
  8
1
 10
-33.467
 20
-135.852
  0
VERTEX
  8
1
 10
-55.693
 20
-131.678
  0
VERTEX
  8
1
 10
-77.982
 20
-127.859
  0
VERTEX
  8
1
 10
-95.759
 20
-125.068
  0
VERTEX
  8
1
 10
-113.574
 20
-122.538
  0
VERTEX
  8
1
 10
-131.392
 20
-120.317
  0
VERTEX
  8
1
 10
-149.248
 20
-118.417
  0
VERTEX
  8
1
 10
-176.270
 20
-116.148
  0
VERTEX
  8
1
 10
-203.337
 20
-114.455
  0
VERTEX
  8
1
 10
-257.715
 20
-112.040
  0
VERTEX
  8
1
 10
-311.789
 20
-110.017
  0
VERTEX
  8
1
 10
-365.838
 20
-108.538
  0
VERTEX
  8
1
 10
-509.061
 20
-106.554
  0
VERTEX
  8
1
 10
-509.061
 20
39.705
  0
VERTEX
  8
1
 10
-509.061
 20
124.568
  0
SEQEND
  0
POINT
  8
2
 10
-509.061
 20
124.568
  0
TEXT
  8
1
 10
-509.061
 20
124.568
 40
3.0
  1
# 1
  0
POINT
  8
4
 10
-366.082
 20
126.549
 30
5.000
 50
270.003
  0
POINT
  8
2
 10
-366.082
 20
126.549
  0
TEXT
  8
1
 10
-366.082
 20
126.549
 40
3.0
  1
# 2
  0
POINT
  8
2
 10
-346.436
 20
128.003
  0
TEXT
  8
1
 10
-346.436
 20
128.003
 40
3.0
  1
# 3
  0
POINT
  8
2
 10
-103.924
 20
145.957
  0
TEXT
  8
1
 10
-103.924
 20
145.957
 40
3.0
  1
# 4
  0
POINT
  8
2
 10
-46.550
 20
150.201
  0
TEXT
  8
1
 10
-46.550
 20
150.201
 40
3.0
  1
# 5
  0
POINT
  8
3
 10
-30.197
 20
151.998
  0
POINT
  8
3
 10
-13.585
 20
153.613
  0
POINT
  8
3
 10
3.045
 20
155.022
  0
POINT
  8
2
 10
19.788
 20
156.229
  0
TEXT
  8
1
 10
19.788
 20
156.229
 40
3.0
  1
# 6
  0
POINT
  8
4
 10
20.351
 20
156.259
 30
5.000
 50
270.000
  0
POINT
  8
3
 10
20.351
 20
156.259
  0
POINT
  8
3
 10
36.567
 20
157.047
  0
POINT
  8
3
 10
52.794
 20
157.567
  0
POINT
  8
3
 10
69.333
 20
157.650
  0
POINT
  8
3
 10
85.871
 20
157.329
  0
POINT
  8
3
 10
107.991
 20
156.352
  0
POINT
  8
3
 10
119.051
 20
155.574
  0
POINT
  8
3
 10
130.094
 20
154.569
  0
POINT
  8
3
 10
141.146
 20
153.308
  0
POINT
  8
3
 10
152.164
 20
151.773
  0
POINT
  8
3
 10
163.153
 20
149.943
  0
POINT
  8
3
 10
174.089
 20
147.818
  0
POINT
  8
3
 10
184.958
 20
145.410
  0
POINT
  8
3
 10
195.770
 20
142.755
  0
POINT
  8
3
 10
210.057
 20
138.895
  0
POINT
  8
2
 10
224.235
 20
134.657
  0
TEXT
  8
1
 10
224.235
 20
134.657
 40
3.0
  1
# 7
  0
POINT
  8
4
 10
223.540
 20
11.119
 30
5.000
 50
180.000
  0
POINT
  8
2
 10
223.540
 20
11.119
  0
TEXT
  8
1
 10
223.540
 20
11.119
 40
3.0
  1
# 8
  0
POINT
  8
2
 10
223.818
 20
-72.153
  0
TEXT
  8
1
 10
223.818
 20
-72.153
 40
3.0
  1
# 9
  0
POINT
  8
2
 10
50.778
 20
-93.974
  0
TEXT
  8
1
 10
50.778
 20
-93.974
 40
3.0
  1
# 10
  0
POINT
  8
4
 10
49.482
 20
-94.149
 30
5.000
 50
90.000
  0
POINT
  8
3
 10
49.482
 20
-94.149
  0
POINT
  8
2
 10
35.893
 20
-95.988
  0
TEXT
  8
1
 10
35.893
 20
-95.988
 40
3.0
  1
# 11
  0
POINT
  8
2
 10
35.270
 20
-91.141
  0
TEXT
  8
1
 10
35.270
 20
-91.141
 40
3.0
  1
# 12
  0
POINT
  8
2
 10
21.799
 20
-93.066
  0
TEXT
  8
1
 10
21.799
 20
-93.066
 40
3.0
  1
# 13
  0
POINT
  8
2
 10
0.386
 20
-96.276
  0
TEXT
  8
1
 10
0.386
 20
-96.276
 40
3.0
  1
# 14
  0
POINT
  8
3
 10
-4.849
 20
-97.969
  0
POINT
  8
3
 10
-10.302
 20
-100.280
  0
POINT
  8
3
 10
-16.094
 20
-103.353
  0
POINT
  8
3
 10
-18.520
 20
-104.996
  0
POINT
  8
3
 10
-20.762
 20
-106.872
  0
POINT
  8
3
 10
-22.478
 20
-108.677
  0
POINT
  8
3
 10
-24.018
 20
-110.638
  0
POINT
  8
3
 10
-25.516
 20
-112.911
  0
POINT
  8
3
 10
-26.836
 20
-115.289
  0
POINT
  8
3
 10
-29.223
 20
-120.759
  0
POINT
  8
3
 10
-31.703
 20
-128.210
  0
POINT
  8
2
 10
-33.467
 20
-135.852
  0
TEXT
  8
1
 10
-33.467
 20
-135.852
 40
3.0
  1
# 15
  0
POINT
  8
3
 10
-55.693
 20
-131.678
  0
POINT
  8
3
 10
-77.982
 20
-127.859
  0
POINT
  8
3
 10
-95.759
 20
-125.068
  0
POINT
  8
3
 10
-113.574
 20
-122.538
  0
POINT
  8
3
 10
-131.392
 20
-120.317
  0
POINT
  8
3
 10
-149.248
 20
-118.417
  0
POINT
  8
3
 10
-176.270
 20
-116.148
  0
POINT
  8
3
 10
-203.337
 20
-114.455
  0
POINT
  8
3
 10
-257.715
 20
-112.040
  0
POINT
  8
3
 10
-311.789
 20
-110.017
  0
POINT
  8
4
 10
-365.838
 20
-108.538
 30
5.000
 50
90.003
  0
POINT
  8
2
 10
-365.838
 20
-108.538
  0
TEXT
  8
1
 10
-365.838
 20
-108.538
 40
3.0
  1
# 16
  0
POINT
  8
2
 10
-509.061
 20
-106.554
  0
TEXT
  8
1
 10
-509.061
 20
-106.554
 40
3.0
  1
# 17
  0
POINT
  8
4
 10
-509.061
 20
39.705
 30
5.000
 50
360.000
  0
POINT
  8
2
 10
-509.061
 20
39.705
  0
TEXT
  8
1
 10
-509.061
 20
39.705
 40
3.0
  1
# 18
  0
POINT
  8
2
 10
-509.061
 20
124.568
  0
TEXT
  8
1
 10
-509.061
 20
124.568
 40
3.0
  1
# 19
  0
POLYLINE
  8
14
 66
1
 70
    1
  0
VERTEX
  8
14
 10
-499.061
 20
114.705
  0
VERTEX
  8
14
 10
-365.643
 20
116.554
  0
VERTEX
  8
14
 10
-345.698
 20
118.031
  0
VERTEX
  8
14
 10
-103.186
 20
135.985
  0
VERTEX
  8
14
 10
-45.636
 20
140.245
  0
VERTEX
  8
14
 10
-29.168
 20
142.051
  0
VERTEX
  8
14
 10
-12.680
 20
143.654
  0
VERTEX
  8
14
 10
3.828
 20
145.052
  0
VERTEX
  8
14
 10
20.351
 20
146.246
  0
VERTEX
  8
14
 10
52.960
 20
147.566
  0
VERTEX
  8
14
 10
85.615
 20
147.330
  0
VERTEX
  8
14
 10
107.368
 20
146.370
  0
VERTEX
  8
14
 10
129.062
 20
144.619
  0
VERTEX
  8
14
 10
150.647
 20
141.885
  0
VERTEX
  8
14
 10
172.063
 20
138.022
  0
VERTEX
  8
14
 10
193.263
 20
133.071
  0
VERTEX
  8
14
 10
214.192
 20
127.117
  0
VERTEX
  8
14
 10
213.540
 20
11.130
  0
VERTEX
  8
14
 10
213.788
 20
-63.339
  0
VERTEX
  8
14
 10
49.482
 20
-84.058
  0
VERTEX
  8
14
 10
44.528
 20
-84.729
  0
VERTEX
  8
14
 10
43.895
 20
-79.807
  0
VERTEX
  8
14
 10
20.350
 20
-83.171
  0
VERTEX
  8
14
 10
-1.908
 20
-86.508
  0
VERTEX
  8
14
 10
-8.346
 20
-88.589
  0
VERTEX
  8
14
 10
-14.604
 20
-91.243
  0
VERTEX
  8
14
 10
-21.481
 20
-94.891
  0
VERTEX
  8
14
 10
-27.631
 20
-99.527
  0
VERTEX
  8
14
 10
-32.134
 20
-104.735
  0
VERTEX
  8
14
 10
-35.735
 20
-110.678
  0
VERTEX
  8
14
 10
-38.663
 20
-117.390
  0
VERTEX
  8
14
 10
-40.636
 20
-124.405
  0
VERTEX
  8
14
 10
-76.359
 20
-117.990
  0
VERTEX
  8
14
 10
-112.261
 20
-112.623
  0
VERTEX
  8
14
 10
-148.309
 20
-108.459
  0
VERTEX
  8
14
 10
-202.749
 20
-104.471
  0
VERTEX
  8
14
 10
-257.307
 20
-102.048
  0
VERTEX
  8
14
 10
-311.466
 20
-100.022
  0
VERTEX
  8
14
 10
-365.632
 20
-98.541
  0
VERTEX
  8
14
 10
-499.061
 20
-96.692
  0
VERTEX
  8
14
 10
-499.061
 20
39.705
  0
VERTEX
  8
14
 10
-499.061
 20
114.705
  0
SEQEND
  0
POINT
  8
2
 10
-499.061
 20
114.705
  0
TEXT
  8
14
 10
-499.061
 20
114.705
 40
3.0
  1
# 20
  0
POINT
  8
4
 10
-365.643
 20
116.554
 30
5.000
 50
270.003
  0
POINT
  8
2
 10
-365.643
 20
116.554
  0
TEXT
  8
14
 10
-365.643
 20
116.554
 40
3.0
  1
# 21
  0
POINT
  8
2
 10
-345.698
 20
118.031
  0
TEXT
  8
14
 10
-345.698
 20
118.031
 40
3.0
  1
# 22
  0
POINT
  8
2
 10
-103.186
 20
135.985
  0
TEXT
  8
14
 10
-103.186
 20
135.985
 40
3.0
  1
# 23
  0
POINT
  8
2
 10
-45.636
 20
140.245
  0
TEXT
  8
14
 10
-45.636
 20
140.245
 40
3.0
  1
# 24
  0
POINT
  8
3
 10
-29.168
 20
142.051
  0
POINT
  8
3
 10
-12.680
 20
143.654
  0
POINT
  8
3
 10
3.828
 20
145.052
  0
POINT
  8
4
 10
20.351
 20
146.246
 30
5.000
 50
270.000
  0
POINT
  8
2
 10
20.351
 20
146.246
  0
TEXT
  8
14
 10
20.351
 20
146.246
 40
3.0
  1
# 25
  0
POINT
  8
3
 10
52.960
 20
147.566
  0
POINT
  8
3
 10
85.615
 20
147.330
  0
POINT
  8
3
 10
107.368
 20
146.370
  0
POINT
  8
3
 10
129.062
 20
144.619
  0
POINT
  8
3
 10
150.647
 20
141.885
  0
POINT
  8
3
 10
172.063
 20
138.022
  0
POINT
  8
3
 10
193.263
 20
133.071
  0
POINT
  8
2
 10
214.192
 20
127.117
  0
TEXT
  8
14
 10
214.192
 20
127.117
 40
3.0
  1
# 26
  0
POINT
  8
4
 10
213.540
 20
11.130
 30
5.000
 50
180.000
  0
POINT
  8
2
 10
213.540
 20
11.130
  0
TEXT
  8
14
 10
213.540
 20
11.130
 40
3.0
  1
# 27
  0
POINT
  8
2
 10
213.788
 20
-63.339
  0
TEXT
  8
14
 10
213.788
 20
-63.339
 40
3.0
  1
# 28
  0
POINT
  8
4
 10
49.482
 20
-84.058
 30
5.000
 50
90.000
  0
POINT
  8
2
 10
49.482
 20
-84.058
  0
TEXT
  8
14
 10
49.482
 20
-84.058
 40
3.0
  1
# 29
  0
POINT
  8
2
 10
44.528
 20
-84.729
  0
TEXT
  8
14
 10
44.528
 20
-84.729
 40
3.0
  1
# 30
  0
POINT
  8
2
 10
43.895
 20
-79.807
  0
TEXT
  8
14
 10
43.895
 20
-79.807
 40
3.0
  1
# 31
  0
POINT
  8
2
 10
20.350
 20
-83.171
  0
TEXT
  8
14
 10
20.350
 20
-83.171
 40
3.0
  1
# 32
  0
POINT
  8
2
 10
-1.908
 20
-86.508
  0
TEXT
  8
14
 10
-1.908
 20
-86.508
 40
3.0
  1
# 33
  0
POINT
  8
3
 10
-8.346
 20
-88.589
  0
POINT
  8
3
 10
-14.604
 20
-91.243
  0
POINT
  8
3
 10
-21.481
 20
-94.891
  0
POINT
  8
3
 10
-27.631
 20
-99.527
  0
POINT
  8
3
 10
-32.134
 20
-104.735
  0
POINT
  8
3
 10
-35.735
 20
-110.678
  0
POINT
  8
3
 10
-38.663
 20
-117.390
  0
POINT
  8
2
 10
-40.636
 20
-124.405
  0
TEXT
  8
14
 10
-40.636
 20
-124.405
 40
3.0
  1
# 34
  0
POINT
  8
3
 10
-76.359
 20
-117.990
  0
POINT
  8
3
 10
-112.261
 20
-112.623
  0
POINT
  8
3
 10
-148.309
 20
-108.459
  0
POINT
  8
3
 10
-202.749
 20
-104.471
  0
POINT
  8
3
 10
-257.307
 20
-102.048
  0
POINT
  8
3
 10
-311.466
 20
-100.022
  0
POINT
  8
4
 10
-365.632
 20
-98.541
 30
5.000
 50
90.003
  0
POINT
  8
2
 10
-365.632
 20
-98.541
  0
TEXT
  8
14
 10
-365.632
 20
-98.541
 40
3.0
  1
# 35
  0
POINT
  8
2
 10
-499.061
 20
-96.692
  0
TEXT
  8
14
 10
-499.061
 20
-96.692
 40
3.0
  1
# 36
  0
POINT
  8
4
 10
-499.061
 20
39.705
 30
5.000
 50
360.000
  0
POINT
  8
2
 10
-499.061
 20
39.705
  0
TEXT
  8
14
 10
-499.061
 20
39.705
 40
3.0
  1
# 37
  0
POINT
  8
2
 10
-499.061
 20
114.705
  0
TEXT
  8
14
 10
-499.061
 20
114.705
 40
3.0
  1
# 38
  0
LINE
  8
7
 10
0.000
 20
0.000
 11
92.643
 21
0.000
  0
POINT
  8
2
 10
0.000
 20
0.000
  0
TEXT
  8
7
 10
0.000
 20
0.000
 40
3.0
  1
# 47
  0
POINT
  8
2
 10
92.643
 20
0.000
  0
TEXT
  8
7
 10
92.643
 20
0.000
 40
3.0
  1
# 48
  0
POINT
  8
13
 10
-86.893
 20
37.373
  0
POINT
  8
2
 10
-86.893
 20
37.373
  0
TEXT
  8
13
 10
-86.893
 20
37.373
 40
3.0
  1
# 39
  0
POINT
  8
13
 10
-101.893
 20
42.401
  0
POINT
  8
2
 10
-101.893
 20
42.401
  0
TEXT
  8
13
 10
-101.893
 20
42.401
 40
3.0
  1
# 40
  0
POINT
  8
13
 10
-350.698
 20
75.531
  0
POINT
  8
2
 10
-350.698
 20
75.531
  0
TEXT
  8
13
 10
-350.698
 20
75.531
 40
3.0
  1
# 41
  0
POINT
  8
13
 10
-365.698
 20
78.031
  0
POINT
  8
2
 10
-365.698
 20
78.031
  0
TEXT
  8
13
 10
-365.698
 20
78.031
 40
3.0
  1
# 42
  0
POINT
  8
13
 10
202.279
 20
39.616
  0
POINT
  8
2
 10
202.279
 20
39.616
  0
TEXT
  8
13
 10
202.279
 20
39.616
 40
3.0
  1
# 43
  0
POINT
  8
13
 10
111.173
 20
132.378
  0
POINT
  8
2
 10
111.173
 20
132.378
  0
TEXT
  8
13
 10
111.173
 20
132.378
 40
3.0
  1
# 44
  0
TEXT
  8
15
 10
-63.334
 20
-31.948
 40
0.093
 50
0.000
  1
Main Fabric
  0
TEXT
  8
15
 10
-63.334
 20
-31.948
 40
3.0
  1
# 49
  0
TEXT
  8
15
 10
40.565
 20
-41.282
 40
0.204
 50
0.000
  1
Front
  0
TEXT
  8
15
 10
40.565
 20
-41.282
 40
3.0
  1
# 50
  0
TEXT
  8
15
 10
-290.359
 20
-37.168
 40
0.067
 50
0.000
  1
1 Piece Face Up
  0
TEXT
  8
15
 10
-290.359
 20
-37.168
 40
3.0
  1
# 51
  0
TEXT
  8
1
 10
0.000
 20
0.000
 40
3.0
  1
Piece Name: 910588V20000.DED
  0
TEXT
  8
1
 10
0.000
 20
5.000
 40
3.0
  1
Size: T38
  0
TEXT
  8
1
 10
0.000
 20
10.000
 40
3.0
  1
Annotation: FRONT RIGHT 1S
  0
TEXT
  8
1
 10
0.000
 20
15.000
 40
3.0
  1
Quantity: 1
  0
TEXT
  8
1
 10
0.000
 20
20.000
 40
3.0
  1
Category: Delantero
  0
ENDBLK
  0
BLOCK
  8
1
  2
910588V20000DEL
 70
0
 10
0.0
 20
0.0
  0
POLYLINE
  8
1
 66
1
 70
    1
  0
VERTEX
  8
1
 10
231.063
 20
-115.838
  0
VERTEX
  8
1
 10
-150.590
 20
-110.549
  0
VERTEX
  8
1
 10
-180.590
 20
-110.964
  0
VERTEX
  8
1
 10
-180.590
 20
110.964
  0
VERTEX
  8
1
 10
-150.590
 20
110.549
  0
VERTEX
  8
1
 10
231.063
 20
115.838
  0
VERTEX
  8
1
 10
231.063
 20
-30.698
  0
VERTEX
  8
1
 10
231.063
 20
-115.838
  0
SEQEND
  0
POINT
  8
2
 10
231.063
 20
-115.838
  0
TEXT
  8
1
 10
231.063
 20
-115.838
 40
3.0
  1
# 1
  0
POINT
  8
4
 10
-150.590
 20
-110.549
 30
5.000
 50
90.000
  0
POINT
  8
2
 10
-150.590
 20
-110.549
  0
TEXT
  8
1
 10
-150.590
 20
-110.549
 40
3.0
  1
# 2
  0
POINT
  8
2
 10
-180.590
 20
-110.964
  0
TEXT
  8
1
 10
-180.590
 20
-110.964
 40
3.0
  1
# 3
  0
POINT
  8
2
 10
-180.590
 20
110.964
  0
TEXT
  8
1
 10
-180.590
 20
110.964
 40
3.0
  1
# 4
  0
POINT
  8
4
 10
-150.590
 20
110.549
 30
5.000
 50
270.000
  0
POINT
  8
2
 10
-150.590
 20
110.549
  0
TEXT
  8
1
 10
-150.590
 20
110.549
 40
3.0
  1
# 5
  0
POINT
  8
2
 10
231.063
 20
115.838
  0
TEXT
  8
1
 10
231.063
 20
115.838
 40
3.0
  1
# 6
  0
POINT
  8
4
 10
231.063
 20
-30.698
 30
5.000
 50
180.000
  0
POINT
  8
2
 10
231.063
 20
-30.698
  0
TEXT
  8
1
 10
231.063
 20
-30.698
 40
3.0
  1
# 7
  0
POINT
  8
2
 10
231.063
 20
-115.838
  0
TEXT
  8
1
 10
231.063
 20
-115.838
 40
3.0
  1
# 8
  0
POLYLINE
  8
14
 66
1
 70
    1
  0
VERTEX
  8
14
 10
221.063
 20
-105.698
  0
VERTEX
  8
14
 10
-150.590
 20
-100.548
  0
VERTEX
  8
14
 10
-150.590
 20
100.548
  0
VERTEX
  8
14
 10
221.063
 20
105.698
  0
VERTEX
  8
14
 10
221.063
 20
-30.698
  0
VERTEX
  8
14
 10
221.063
 20
-105.698
  0
SEQEND
  0
POINT
  8
2
 10
221.063
 20
-105.698
  0
TEXT
  8
14
 10
221.063
 20
-105.698
 40
3.0
  1
# 9
  0
POINT
  8
4
 10
-150.590
 20
-100.548
 30
5.000
 50
90.000
  0
POINT
  8
2
 10
-150.590
 20
-100.548
  0
TEXT
  8
14
 10
-150.590
 20
-100.548
 40
3.0
  1
# 10
  0
POINT
  8
4
 10
-150.590
 20
100.548
 30
5.000
 50
270.000
  0
POINT
  8
2
 10
-150.590
 20
100.548
  0
TEXT
  8
14
 10
-150.590
 20
100.548
 40
3.0
  1
# 11
  0
POINT
  8
2
 10
221.063
 20
105.698
  0
TEXT
  8
14
 10
221.063
 20
105.698
 40
3.0
  1
# 12
  0
POINT
  8
4
 10
221.063
 20
-30.698
 30
5.000
 50
180.000
  0
POINT
  8
2
 10
221.063
 20
-30.698
  0
TEXT
  8
14
 10
221.063
 20
-30.698
 40
3.0
  1
# 13
  0
POINT
  8
2
 10
221.063
 20
-105.698
  0
TEXT
  8
14
 10
221.063
 20
-105.698
 40
3.0
  1
# 14
  0
LINE
  8
7
 10
0.000
 20
0.000
 11
70.472
 21
0.000
  0
POINT
  8
2
 10
0.000
 20
0.000
  0
TEXT
  8
7
 10
0.000
 20
0.000
 40
3.0
  1
# 17
  0
POINT
  8
2
 10
70.472
 20
0.000
  0
TEXT
  8
7
 10
70.472
 20
0.000
 40
3.0
  1
# 18
  0
TEXT
  8
15
 10
-42.579
 20
36.334
 40
0.125
 50
0.000
  1
2 Pieces
  0
TEXT
  8
15
 10
-42.579
 20
36.334
 40
3.0
  1
# 19
  0
TEXT
  8
15
 10
85.057
 20
44.704
 40
0.091
 50
0.000
  1
Main Fabric
  0
TEXT
  8
15
 10
85.057
 20
44.704
 40
3.0
  1
# 20
  0
TEXT
  8
15
 10
16.008
 20
-54.685
 40
0.200
 50
0.000
  1
Front
  0
TEXT
  8
15
 10
16.008
 20
-54.685
 40
3.0
  1
# 21
  0
TEXT
  8
1
 10
0.000
 20
0.000
 40
3.0
  1
Piece Name: 910588V20000.DEL
  0
TEXT
  8
1
 10
0.000
 20
5.000
 40
3.0
  1
Size: T38
  0
TEXT
  8
1
 10
0.000
 20
10.000
 40
3.0
  1
Annotation: FRONT 2S
  0
TEXT
  8
1
 10
0.000
 20
15.000
 40
3.0
  1
Quantity: 1
  0
TEXT
  8
1
 10
0.000
 20
20.000
 40
3.0
  1
Category: Delantero
  0
ENDBLK
  0
BLOCK
  8
1
  2
910588V20000DEZ
 70
0
 10
0.0
 20
0.0
  0
POLYLINE
  8
1
 66
1
 70
    1
  0
VERTEX
  8
1
 10
-509.061
 20
-124.567
  0
VERTEX
  8
1
 10
-509.061
 20
-39.705
  0
VERTEX
  8
1
 10
-509.061
 20
106.555
  0
VERTEX
  8
1
 10
-365.838
 20
108.539
  0
VERTEX
  8
1
 10
-311.789
 20
110.017
  0
VERTEX
  8
1
 10
-257.715
 20
112.040
  0
VERTEX
  8
1
 10
-203.337
 20
114.455
  0
VERTEX
  8
1
 10
-176.270
 20
116.148
  0
VERTEX
  8
1
 10
-149.248
 20
118.417
  0
VERTEX
  8
1
 10
-131.392
 20
120.317
  0
VERTEX
  8
1
 10
-113.574
 20
122.537
  0
VERTEX
  8
1
 10
-95.759
 20
125.068
  0
VERTEX
  8
1
 10
-77.982
 20
127.859
  0
VERTEX
  8
1
 10
-55.692
 20
131.678
  0
VERTEX
  8
1
 10
-33.467
 20
135.852
  0
VERTEX
  8
1
 10
-31.703
 20
128.209
  0
VERTEX
  8
1
 10
-29.223
 20
120.759
  0
VERTEX
  8
1
 10
-26.836
 20
115.290
  0
VERTEX
  8
1
 10
-25.516
 20
112.911
  0
VERTEX
  8
1
 10
-24.018
 20
110.638
  0
VERTEX
  8
1
 10
-22.478
 20
108.677
  0
VERTEX
  8
1
 10
-20.762
 20
106.872
  0
VERTEX
  8
1
 10
-18.520
 20
104.996
  0
VERTEX
  8
1
 10
-16.094
 20
103.353
  0
VERTEX
  8
1
 10
-10.301
 20
100.280
  0
VERTEX
  8
1
 10
-4.849
 20
97.969
  0
VERTEX
  8
1
 10
0.387
 20
96.276
  0
VERTEX
  8
1
 10
21.799
 20
93.066
  0
VERTEX
  8
1
 10
48.845
 20
89.200
  0
VERTEX
  8
1
 10
50.178
 20
89.010
  0
VERTEX
  8
1
 10
223.102
 20
67.204
  0
VERTEX
  8
1
 10
223.540
 20
-11.075
  0
VERTEX
  8
1
 10
224.234
 20
-134.657
  0
VERTEX
  8
1
 10
210.057
 20
-138.896
  0
VERTEX
  8
1
 10
195.769
 20
-142.755
  0
VERTEX
  8
1
 10
184.958
 20
-145.411
  0
VERTEX
  8
1
 10
174.089
 20
-147.818
  0
VERTEX
  8
1
 10
163.153
 20
-149.943
  0
VERTEX
  8
1
 10
152.164
 20
-151.773
  0
VERTEX
  8
1
 10
141.146
 20
-153.308
  0
VERTEX
  8
1
 10
130.094
 20
-154.569
  0
VERTEX
  8
1
 10
119.051
 20
-155.575
  0
VERTEX
  8
1
 10
107.991
 20
-156.352
  0
VERTEX
  8
1
 10
85.871
 20
-157.329
  0
VERTEX
  8
1
 10
69.333
 20
-157.650
  0
VERTEX
  8
1
 10
52.794
 20
-157.567
  0
VERTEX
  8
1
 10
36.567
 20
-157.047
  0
VERTEX
  8
1
 10
20.351
 20
-156.259
  0
VERTEX
  8
1
 10
19.788
 20
-156.229
  0
VERTEX
  8
1
 10
3.045
 20
-155.022
  0
VERTEX
  8
1
 10
-13.585
 20
-153.613
  0
VERTEX
  8
1
 10
-30.197
 20
-151.998
  0
VERTEX
  8
1
 10
-46.550
 20
-150.201
  0
VERTEX
  8
1
 10
-103.924
 20
-145.957
  0
VERTEX
  8
1
 10
-346.436
 20
-128.003
  0
VERTEX
  8
1
 10
-366.082
 20
-126.549
  0
VERTEX
  8
1
 10
-509.061
 20
-124.567
  0
SEQEND
  0
POINT
  8
2
 10
-509.061
 20
-124.567
  0
TEXT
  8
1
 10
-509.061
 20
-124.567
 40
3.0
  1
# 1
  0
POINT
  8
4
 10
-509.061
 20
-39.705
 30
5.000
 50
0.000
  0
POINT
  8
2
 10
-509.061
 20
-39.705
  0
TEXT
  8
1
 10
-509.061
 20
-39.705
 40
3.0
  1
# 2
  0
POINT
  8
2
 10
-509.061
 20
106.555
  0
TEXT
  8
1
 10
-509.061
 20
106.555
 40
3.0
  1
# 3
  0
POINT
  8
4
 10
-365.838
 20
108.539
 30
5.000
 50
269.997
  0
POINT
  8
2
 10
-365.838
 20
108.539
  0
TEXT
  8
1
 10
-365.838
 20
108.539
 40
3.0
  1
# 4
  0
POINT
  8
3
 10
-311.789
 20
110.017
  0
POINT
  8
3
 10
-257.715
 20
112.040
  0
POINT
  8
3
 10
-203.337
 20
114.455
  0
POINT
  8
3
 10
-176.270
 20
116.148
  0
POINT
  8
3
 10
-149.248
 20
118.417
  0
POINT
  8
3
 10
-131.392
 20
120.317
  0
POINT
  8
3
 10
-113.574
 20
122.537
  0
POINT
  8
3
 10
-95.759
 20
125.068
  0
POINT
  8
3
 10
-77.982
 20
127.859
  0
POINT
  8
3
 10
-55.692
 20
131.678
  0
POINT
  8
2
 10
-33.467
 20
135.852
  0
TEXT
  8
1
 10
-33.467
 20
135.852
 40
3.0
  1
# 5
  0
POINT
  8
3
 10
-31.703
 20
128.209
  0
POINT
  8
3
 10
-29.223
 20
120.759
  0
POINT
  8
3
 10
-26.836
 20
115.290
  0
POINT
  8
3
 10
-25.516
 20
112.911
  0
POINT
  8
3
 10
-24.018
 20
110.638
  0
POINT
  8
3
 10
-22.478
 20
108.677
  0
POINT
  8
3
 10
-20.762
 20
106.872
  0
POINT
  8
3
 10
-18.520
 20
104.996
  0
POINT
  8
3
 10
-16.094
 20
103.353
  0
POINT
  8
3
 10
-10.301
 20
100.280
  0
POINT
  8
3
 10
-4.849
 20
97.969
  0
POINT
  8
2
 10
0.387
 20
96.276
  0
TEXT
  8
1
 10
0.387
 20
96.276
 40
3.0
  1
# 6
  0
POINT
  8
2
 10
21.799
 20
93.066
  0
TEXT
  8
1
 10
21.799
 20
93.066
 40
3.0
  1
# 7
  0
POINT
  8
4
 10
48.845
 20
89.200
 30
5.000
 50
270.000
  0
POINT
  8
3
 10
48.845
 20
89.200
  0
POINT
  8
2
 10
50.178
 20
89.010
  0
TEXT
  8
1
 10
50.178
 20
89.010
 40
3.0
  1
# 8
  0
POINT
  8
2
 10
223.102
 20
67.204
  0
TEXT
  8
1
 10
223.102
 20
67.204
 40
3.0
  1
# 9
  0
POINT
  8
4
 10
223.540
 20
-11.075
 30
5.000
 50
180.000
  0
POINT
  8
2
 10
223.540
 20
-11.075
  0
TEXT
  8
1
 10
223.540
 20
-11.075
 40
3.0
  1
# 10
  0
POINT
  8
2
 10
224.234
 20
-134.657
  0
TEXT
  8
1
 10
224.234
 20
-134.657
 40
3.0
  1
# 11
  0
POINT
  8
3
 10
210.057
 20
-138.896
  0
POINT
  8
3
 10
195.769
 20
-142.755
  0
POINT
  8
3
 10
184.958
 20
-145.411
  0
POINT
  8
3
 10
174.089
 20
-147.818
  0
POINT
  8
3
 10
163.153
 20
-149.943
  0
POINT
  8
3
 10
152.164
 20
-151.773
  0
POINT
  8
3
 10
141.146
 20
-153.308
  0
POINT
  8
3
 10
130.094
 20
-154.569
  0
POINT
  8
3
 10
119.051
 20
-155.575
  0
POINT
  8
3
 10
107.991
 20
-156.352
  0
POINT
  8
3
 10
85.871
 20
-157.329
  0
POINT
  8
3
 10
69.333
 20
-157.650
  0
POINT
  8
3
 10
52.794
 20
-157.567
  0
POINT
  8
3
 10
36.567
 20
-157.047
  0
POINT
  8
4
 10
20.351
 20
-156.259
 30
5.000
 50
90.000
  0
POINT
  8
3
 10
20.351
 20
-156.259
  0
POINT
  8
2
 10
19.788
 20
-156.229
  0
TEXT
  8
1
 10
19.788
 20
-156.229
 40
3.0
  1
# 12
  0
POINT
  8
3
 10
3.045
 20
-155.022
  0
POINT
  8
3
 10
-13.585
 20
-153.613
  0
POINT
  8
3
 10
-30.197
 20
-151.998
  0
POINT
  8
2
 10
-46.550
 20
-150.201
  0
TEXT
  8
1
 10
-46.550
 20
-150.201
 40
3.0
  1
# 13
  0
POINT
  8
3
 10
-103.924
 20
-145.957
  0
POINT
  8
3
 10
-346.436
 20
-128.003
  0
POINT
  8
4
 10
-366.082
 20
-126.549
 30
5.000
 50
89.997
  0
POINT
  8
2
 10
-366.082
 20
-126.549
  0
TEXT
  8
1
 10
-366.082
 20
-126.549
 40
3.0
  1
# 14
  0
POINT
  8
2
 10
-509.061
 20
-124.567
  0
TEXT
  8
1
 10
-509.061
 20
-124.567
 40
3.0
  1
# 15
  0
POLYLINE
  8
14
 66
1
 70
    1
  0
VERTEX
  8
14
 10
-499.061
 20
-114.705
  0
VERTEX
  8
14
 10
-499.061
 20
-39.705
  0
VERTEX
  8
14
 10
-499.061
 20
96.692
  0
VERTEX
  8
14
 10
-365.632
 20
98.541
  0
VERTEX
  8
14
 10
-311.466
 20
100.022
  0
VERTEX
  8
14
 10
-257.307
 20
102.048
  0
VERTEX
  8
14
 10
-202.749
 20
104.471
  0
VERTEX
  8
14
 10
-148.309
 20
108.459
  0
VERTEX
  8
14
 10
-112.261
 20
112.623
  0
VERTEX
  8
14
 10
-76.359
 20
117.990
  0
VERTEX
  8
14
 10
-40.636
 20
124.405
  0
VERTEX
  8
14
 10
-38.663
 20
117.390
  0
VERTEX
  8
14
 10
-35.734
 20
110.678
  0
VERTEX
  8
14
 10
-32.134
 20
104.735
  0
VERTEX
  8
14
 10
-27.631
 20
99.528
  0
VERTEX
  8
14
 10
-21.481
 20
94.891
  0
VERTEX
  8
14
 10
-14.604
 20
91.243
  0
VERTEX
  8
14
 10
-8.346
 20
88.589
  0
VERTEX
  8
14
 10
-1.908
 20
86.508
  0
VERTEX
  8
14
 10
20.351
 20
83.171
  0
VERTEX
  8
14
 10
48.845
 20
79.099
  0
VERTEX
  8
14
 10
213.151
 20
58.379
  0
VERTEX
  8
14
 10
213.540
 20
-11.131
  0
VERTEX
  8
14
 10
214.192
 20
-127.117
  0
VERTEX
  8
14
 10
193.263
 20
-133.071
  0
VERTEX
  8
14
 10
172.063
 20
-138.023
  0
VERTEX
  8
14
 10
150.647
 20
-141.885
  0
VERTEX
  8
14
 10
129.062
 20
-144.619
  0
VERTEX
  8
14
 10
107.368
 20
-146.370
  0
VERTEX
  8
14
 10
85.615
 20
-147.330
  0
VERTEX
  8
14
 10
52.960
 20
-147.566
  0
VERTEX
  8
14
 10
20.351
 20
-146.246
  0
VERTEX
  8
14
 10
3.828
 20
-145.052
  0
VERTEX
  8
14
 10
-12.680
 20
-143.654
  0
VERTEX
  8
14
 10
-29.168
 20
-142.051
  0
VERTEX
  8
14
 10
-45.636
 20
-140.245
  0
VERTEX
  8
14
 10
-103.186
 20
-135.984
  0
VERTEX
  8
14
 10
-345.698
 20
-118.031
  0
VERTEX
  8
14
 10
-365.643
 20
-116.554
  0
VERTEX
  8
14
 10
-499.061
 20
-114.705
  0
SEQEND
  0
POINT
  8
2
 10
-499.061
 20
-114.705
  0
TEXT
  8
14
 10
-499.061
 20
-114.705
 40
3.0
  1
# 16
  0
POINT
  8
4
 10
-499.061
 20
-39.705
 30
5.000
 50
0.000
  0
POINT
  8
2
 10
-499.061
 20
-39.705
  0
TEXT
  8
14
 10
-499.061
 20
-39.705
 40
3.0
  1
# 17
  0
POINT
  8
2
 10
-499.061
 20
96.692
  0
TEXT
  8
14
 10
-499.061
 20
96.692
 40
3.0
  1
# 18
  0
POINT
  8
4
 10
-365.632
 20
98.541
 30
5.000
 50
269.997
  0
POINT
  8
2
 10
-365.632
 20
98.541
  0
TEXT
  8
14
 10
-365.632
 20
98.541
 40
3.0
  1
# 19
  0
POINT
  8
3
 10
-311.466
 20
100.022
  0
POINT
  8
3
 10
-257.307
 20
102.048
  0
POINT
  8
3
 10
-202.749
 20
104.471
  0
POINT
  8
3
 10
-148.309
 20
108.459
  0
POINT
  8
3
 10
-112.261
 20
112.623
  0
POINT
  8
3
 10
-76.359
 20
117.990
  0
POINT
  8
2
 10
-40.636
 20
124.405
  0
TEXT
  8
14
 10
-40.636
 20
124.405
 40
3.0
  1
# 20
  0
POINT
  8
3
 10
-38.663
 20
117.390
  0
POINT
  8
3
 10
-35.734
 20
110.678
  0
POINT
  8
3
 10
-32.134
 20
104.735
  0
POINT
  8
3
 10
-27.631
 20
99.528
  0
POINT
  8
3
 10
-21.481
 20
94.891
  0
POINT
  8
3
 10
-14.604
 20
91.243
  0
POINT
  8
3
 10
-8.346
 20
88.589
  0
POINT
  8
2
 10
-1.908
 20
86.508
  0
TEXT
  8
14
 10
-1.908
 20
86.508
 40
3.0
  1
# 21
  0
POINT
  8
2
 10
20.351
 20
83.171
  0
TEXT
  8
14
 10
20.351
 20
83.171
 40
3.0
  1
# 22
  0
POINT
  8
4
 10
48.845
 20
79.099
 30
5.000
 50
270.000
  0
POINT
  8
2
 10
48.845
 20
79.099
  0
TEXT
  8
14
 10
48.845
 20
79.099
 40
3.0
  1
# 23
  0
POINT
  8
2
 10
213.151
 20
58.379
  0
TEXT
  8
14
 10
213.151
 20
58.379
 40
3.0
  1
# 24
  0
POINT
  8
4
 10
213.540
 20
-11.131
 30
5.000
 50
180.000
  0
POINT
  8
2
 10
213.540
 20
-11.131
  0
TEXT
  8
14
 10
213.540
 20
-11.131
 40
3.0
  1
# 25
  0
POINT
  8
2
 10
214.192
 20
-127.117
  0
TEXT
  8
14
 10
214.192
 20
-127.117
 40
3.0
  1
# 26
  0
POINT
  8
3
 10
193.263
 20
-133.071
  0
POINT
  8
3
 10
172.063
 20
-138.023
  0
POINT
  8
3
 10
150.647
 20
-141.885
  0
POINT
  8
3
 10
129.062
 20
-144.619
  0
POINT
  8
3
 10
107.368
 20
-146.370
  0
POINT
  8
3
 10
85.615
 20
-147.330
  0
POINT
  8
3
 10
52.960
 20
-147.566
  0
POINT
  8
4
 10
20.351
 20
-146.246
 30
5.000
 50
90.000
  0
POINT
  8
2
 10
20.351
 20
-146.246
  0
TEXT
  8
14
 10
20.351
 20
-146.246
 40
3.0
  1
# 27
  0
POINT
  8
3
 10
3.828
 20
-145.052
  0
POINT
  8
3
 10
-12.680
 20
-143.654
  0
POINT
  8
3
 10
-29.168
 20
-142.051
  0
POINT
  8
2
 10
-45.636
 20
-140.245
  0
TEXT
  8
14
 10
-45.636
 20
-140.245
 40
3.0
  1
# 28
  0
POINT
  8
3
 10
-103.186
 20
-135.984
  0
POINT
  8
3
 10
-345.698
 20
-118.031
  0
POINT
  8
4
 10
-365.643
 20
-116.554
 30
5.000
 50
89.997
  0
POINT
  8
2
 10
-365.643
 20
-116.554
  0
TEXT
  8
14
 10
-365.643
 20
-116.554
 40
3.0
  1
# 29
  0
POINT
  8
2
 10
-499.061
 20
-114.705
  0
TEXT
  8
14
 10
-499.061
 20
-114.705
 40
3.0
  1
# 30
  0
LINE
  8
7
 10
0.000
 20
0.000
 11
92.643
 21
0.000
  0
POINT
  8
2
 10
0.000
 20
0.000
  0
TEXT
  8
7
 10
0.000
 20
0.000
 40
3.0
  1
# 37
  0
POINT
  8
2
 10
92.643
 20
0.000
  0
TEXT
  8
7
 10
92.643
 20
0.000
 40
3.0
  1
# 38
  0
POINT
  8
13
 10
-134.929
 20
-24.004
  0
POINT
  8
2
 10
-134.929
 20
-24.004
  0
TEXT
  8
13
 10
-134.929
 20
-24.004
 40
3.0
  1
# 31
  0
POINT
  8
13
 10
-149.929
 20
-29.032
  0
POINT
  8
2
 10
-149.929
 20
-29.032
  0
TEXT
  8
13
 10
-149.929
 20
-29.032
 40
3.0
  1
# 32
  0
POINT
  8
13
 10
202.279
 20
-39.617
  0
POINT
  8
2
 10
202.279
 20
-39.617
  0
TEXT
  8
13
 10
202.279
 20
-39.617
 40
3.0
  1
# 33
  0
POINT
  8
13
 10
111.173
 20
-132.378
  0
POINT
  8
2
 10
111.173
 20
-132.378
  0
TEXT
  8
13
 10
111.173
 20
-132.378
 40
3.0
  1
# 34
  0
TEXT
  8
15
 10
-63.334
 20
31.948
 40
0.093
 50
0.000
  1
Main Fabric
  0
TEXT
  8
15
 10
-63.334
 20
31.948
 40
3.0
  1
# 39
  0
TEXT
  8
15
 10
40.565
 20
41.282
 40
0.204
 50
0.000
  1
Front
  0
TEXT
  8
15
 10
40.565
 20
41.282
 40
3.0
  1
# 40
  0
TEXT
  8
15
 10
-310.178
 20
-0.137
 40
0.067
 50
0.000
  1
1 Piece Face Up
  0
TEXT
  8
15
 10
-310.178
 20
-0.137
 40
3.0
  1
# 41
  0
TEXT
  8
1
 10
0.000
 20
0.000
 40
3.0
  1
Piece Name: 910588V20000.DEZ
  0
TEXT
  8
1
 10
0.000
 20
5.000
 40
3.0
  1
Size: T38
  0
TEXT
  8
1
 10
0.000
 20
10.000
 40
3.0
  1
Annotation: FRONT LEFT 1S
  0
TEXT
  8
1
 10
0.000
 20
15.000
 40
3.0
  1
Quantity: 1
  0
TEXT
  8
1
 10
0.000
 20
20.000
 40
3.0
  1
Category: Delantero
  0
ENDBLK
  0
BLOCK
  8
1
  2
910588V20000PAS
 70
0
 10
0.0
 20
0.0
  0
POLYLINE
  8
1
 66
1
 70
    1
  0
VERTEX
  8
1
 10
-299.771
 20
20.448
  0
VERTEX
  8
1
 10
427.109
 20
20.448
  0
VERTEX
  8
1
 10
503.206
 20
-15.227
  0
VERTEX
  8
1
 10
-299.771
 20
-15.227
  0
VERTEX
  8
1
 10
-299.771
 20
20.448
  0
SEQEND
  0
POINT
  8
2
 10
-299.771
 20
20.448
  0
TEXT
  8
1
 10
-299.771
 20
20.448
 40
3.0
  1
# 1
  0
POINT
  8
2
 10
427.109
 20
20.448
  0
TEXT
  8
1
 10
427.109
 20
20.448
 40
3.0
  1
# 2
  0
POINT
  8
2
 10
503.206
 20
-15.227
  0
TEXT
  8
1
 10
503.206
 20
-15.227
 40
3.0
  1
# 3
  0
POINT
  8
2
 10
-299.771
 20
-15.227
  0
TEXT
  8
1
 10
-299.771
 20
-15.227
 40
3.0
  1
# 4
  0
POINT
  8
2
 10
-299.771
 20
20.448
  0
TEXT
  8
1
 10
-299.771
 20
20.448
 40
3.0
  1
# 5
  0
LINE
  8
7
 10
0.000
 20
0.000
 11
48.245
 21
0.000
  0
POINT
  8
2
 10
0.000
 20
0.000
  0
TEXT
  8
7
 10
0.000
 20
0.000
 40
3.0
  1
# 8
  0
POINT
  8
2
 10
48.245
 20
0.000
  0
TEXT
  8
7
 10
48.245
 20
0.000
 40
3.0
  1
# 9
  0
TEXT
  8
15
 10
199.268
 20
3.849
 40
0.143
 50
0.000
  1
1 Piece
  0
TEXT
  8
15
 10
199.268
 20
3.849
 40
3.0
  1
# 10
  0
TEXT
  8
15
 10
344.197
 20
5.583
 40
0.091
 50
0.000
  1
Main Fabric
  0
TEXT
  8
15
 10
344.197
 20
5.583
 40
3.0
  1
# 11
  0
TEXT
  8
1
 10
0.000
 20
0.000
 40
3.0
  1
Piece Name: 910588V20000.PAS
  0
TEXT
  8
1
 10
0.000
 20
5.000
 40
3.0
  1
Size: T38
  0
TEXT
  8
1
 10
0.000
 20
10.000
 40
3.0
  1
Annotation:1S LOOP BELT
  0
TEXT
  8
1
 10
0.000
 20
15.000
 40
3.0
  1
Quantity: 1
  0
TEXT
  8
1
 10
0.000
 20
20.000
 40
3.0
  1
Category: Pasador
  0
ENDBLK
  0
BLOCK
  8
1
  2
910588V20000TRD
 70
0
 10
0.0
 20
0.0
  0
POLYLINE
  8
1
 66
1
 70
    1
  0
VERTEX
  8
1
 10
-240.115
 20
121.290
  0
VERTEX
  8
1
 10
-220.101
 20
122.625
  0
VERTEX
  8
1
 10
-200.117
 20
124.354
  0
VERTEX
  8
1
 10
-180.113
 20
126.483
  0
VERTEX
  8
1
 10
-160.155
 20
129.010
  0
VERTEX
  8
1
 10
-139.849
 20
132.001
  0
VERTEX
  8
1
 10
-119.606
 20
135.398
  0
VERTEX
  8
1
 10
-99.426
 20
139.191
  0
VERTEX
  8
1
 10
-79.322
 20
143.367
  0
VERTEX
  8
1
 10
-59.297
 20
147.915
  0
VERTEX
  8
1
 10
-39.356
 20
152.819
  0
VERTEX
  8
1
 10
-19.492
 20
158.070
  0
VERTEX
  8
1
 10
0.278
 20
163.664
  0
VERTEX
  8
1
 10
19.468
 20
169.447
  0
VERTEX
  8
1
 10
38.573
 20
175.511
  0
VERTEX
  8
1
 10
66.519
 20
184.868
  0
VERTEX
  8
1
 10
94.280
 20
194.755
  0
VERTEX
  8
1
 10
94.210
 20
182.470
  0
VERTEX
  8
1
 10
95.239
 20
170.212
  0
VERTEX
  8
1
 10
95.839
 20
165.990
  0
VERTEX
  8
1
 10
96.669
 20
161.813
  0
VERTEX
  8
1
 10
97.775
 20
157.886
  0
VERTEX
  8
1
 10
99.196
 20
154.059
  0
VERTEX
  8
1
 10
101.251
 20
149.727
  0
VERTEX
  8
1
 10
103.677
 20
145.591
  0
VERTEX
  8
1
 10
106.537
 20
141.513
  0
VERTEX
  8
1
 10
109.688
 20
137.654
  0
VERTEX
  8
1
 10
113.244
 20
133.836
  0
VERTEX
  8
1
 10
117.023
 20
130.239
  0
VERTEX
  8
1
 10
120.529
 20
127.230
  0
VERTEX
  8
1
 10
124.175
 20
124.394
  0
VERTEX
  8
1
 10
127.943
 20
121.749
  0
VERTEX
  8
1
 10
131.841
 20
119.299
  0
VERTEX
  8
1
 10
135.650
 20
117.173
  0
VERTEX
  8
1
 10
139.559
 20
115.240
  0
VERTEX
  8
1
 10
391.436
 20
30.345
  0
VERTEX
  8
1
 10
384.119
 20
-7.602
  0
VERTEX
  8
1
 10
379.634
 20
-32.040
  0
VERTEX
  8
1
 10
375.367
 20
-56.518
  0
VERTEX
  8
1
 10
371.313
 20
-81.077
  0
VERTEX
  8
1
 10
370.387
 20
-88.938
  0
VERTEX
  8
1
 10
367.902
 20
-95.970
  0
VERTEX
  8
1
 10
362.466
 20
-122.380
  0
VERTEX
  8
1
 10
357.534
 20
-147.595
  0
VERTEX
  8
1
 10
357.172
 20
-149.451
  0
VERTEX
  8
1
 10
347.822
 20
-200.795
  0
VERTEX
  8
1
 10
331.359
 20
-203.209
  0
VERTEX
  8
1
 10
314.849
 20
-205.291
  0
VERTEX
  8
1
 10
301.819
 20
-206.698
  0
VERTEX
  8
1
 10
288.767
 20
-207.881
  0
VERTEX
  8
1
 10
275.694
 20
-208.821
  0
VERTEX
  8
1
 10
262.606
 20
-209.516
  0
VERTEX
  8
1
 10
249.509
 20
-209.971
  0
VERTEX
  8
1
 10
236.406
 20
-210.182
  0
VERTEX
  8
1
 10
223.315
 20
-210.150
  0
VERTEX
  8
1
 10
210.226
 20
-209.891
  0
VERTEX
  8
1
 10
184.112
 20
-208.773
  0
VERTEX
  8
1
 10
158.057
 20
-206.949
  0
VERTEX
  8
1
 10
132.179
 20
-204.414
  0
VERTEX
  8
1
 10
105.334
 20
-201.664
  0
VERTEX
  8
1
 10
78.691
 20
-198.220
  0
VERTEX
  8
1
 10
21.838
 20
-192.001
  0
VERTEX
  8
1
 10
-219.721
 20
-165.573
  0
VERTEX
  8
1
 10
-238.467
 20
-163.522
  0
VERTEX
  8
1
 10
-239.129
 20
-163.449
  0
VERTEX
  8
1
 10
-743.589
 20
-156.458
  0
VERTEX
  8
1
 10
-773.590
 20
-156.837
  0
VERTEX
  8
1
 10
-773.583
 20
-146.438
  0
VERTEX
  8
1
 10
-773.579
 20
-139.338
  0
VERTEX
  8
1
 10
-773.420
 20
104.315
  0
VERTEX
  8
1
 10
-773.413
 20
114.753
  0
VERTEX
  8
1
 10
-743.413
 20
114.296
  0
VERTEX
  8
1
 10
-240.115
 20
121.290
  0
SEQEND
  0
POINT
  8
4
 10
-240.115
 20
121.290
 30
5.000
 50
270.271
  0
POINT
  8
2
 10
-240.115
 20
121.290
  0
TEXT
  8
1
 10
-240.115
 20
121.290
 40
3.0
  1
# 1
  0
POINT
  8
3
 10
-220.101
 20
122.625
  0
POINT
  8
3
 10
-200.117
 20
124.354
  0
POINT
  8
3
 10
-180.113
 20
126.483
  0
POINT
  8
3
 10
-160.155
 20
129.010
  0
POINT
  8
3
 10
-139.849
 20
132.001
  0
POINT
  8
3
 10
-119.606
 20
135.398
  0
POINT
  8
3
 10
-99.426
 20
139.191
  0
POINT
  8
3
 10
-79.322
 20
143.367
  0
POINT
  8
3
 10
-59.297
 20
147.915
  0
POINT
  8
3
 10
-39.356
 20
152.819
  0
POINT
  8
3
 10
-19.492
 20
158.070
  0
POINT
  8
3
 10
0.278
 20
163.664
  0
POINT
  8
3
 10
19.468
 20
169.447
  0
POINT
  8
3
 10
38.573
 20
175.511
  0
POINT
  8
3
 10
66.519
 20
184.868
  0
POINT
  8
2
 10
94.280
 20
194.755
  0
TEXT
  8
1
 10
94.280
 20
194.755
 40
3.0
  1
# 2
  0
POINT
  8
3
 10
94.210
 20
182.470
  0
POINT
  8
3
 10
95.239
 20
170.212
  0
POINT
  8
3
 10
95.839
 20
165.990
  0
POINT
  8
3
 10
96.669
 20
161.813
  0
POINT
  8
3
 10
97.775
 20
157.886
  0
POINT
  8
3
 10
99.196
 20
154.059
  0
POINT
  8
3
 10
101.251
 20
149.727
  0
POINT
  8
3
 10
103.677
 20
145.591
  0
POINT
  8
3
 10
106.537
 20
141.513
  0
POINT
  8
3
 10
109.688
 20
137.654
  0
POINT
  8
3
 10
113.244
 20
133.836
  0
POINT
  8
3
 10
117.023
 20
130.239
  0
POINT
  8
3
 10
120.529
 20
127.230
  0
POINT
  8
3
 10
124.175
 20
124.394
  0
POINT
  8
3
 10
127.943
 20
121.749
  0
POINT
  8
3
 10
131.841
 20
119.299
  0
POINT
  8
3
 10
135.650
 20
117.173
  0
POINT
  8
2
 10
139.559
 20
115.240
  0
TEXT
  8
1
 10
139.559
 20
115.240
 40
3.0
  1
# 3
  0
POINT
  8
2
 10
391.436
 20
30.345
  0
TEXT
  8
1
 10
391.436
 20
30.345
 40
3.0
  1
# 4
  0
POINT
  8
3
 10
384.119
 20
-7.602
  0
POINT
  8
3
 10
379.634
 20
-32.040
  0
POINT
  8
3
 10
375.367
 20
-56.518
  0
POINT
  8
4
 10
371.313
 20
-81.077
 30
5.000
 50
171.003
  0
POINT
  8
2
 10
371.313
 20
-81.077
  0
TEXT
  8
1
 10
371.313
 20
-81.077
 40
3.0
  1
# 5
  0
POINT
  8
2
 10
370.387
 20
-88.938
  0
TEXT
  8
1
 10
370.387
 20
-88.938
 40
3.0
  1
# 6
  0
POINT
  8
4
 10
367.902
 20
-95.970
 30
5.000
 50
162.780
  0
POINT
  8
2
 10
367.902
 20
-95.970
  0
TEXT
  8
1
 10
367.902
 20
-95.970
 40
3.0
  1
# 7
  0
POINT
  8
3
 10
362.466
 20
-122.380
  0
POINT
  8
4
 10
357.534
 20
-147.595
 30
5.000
 50
-180.000
  0
POINT
  8
3
 10
357.534
 20
-147.595
  0
POINT
  8
2
 10
357.172
 20
-149.451
  0
TEXT
  8
1
 10
357.172
 20
-149.451
 40
3.0
  1
# 8
  0
POINT
  8
2
 10
347.822
 20
-200.795
  0
TEXT
  8
1
 10
347.822
 20
-200.795
 40
3.0
  1
# 9
  0
POINT
  8
3
 10
331.359
 20
-203.209
  0
POINT
  8
3
 10
314.849
 20
-205.291
  0
POINT
  8
3
 10
301.819
 20
-206.698
  0
POINT
  8
3
 10
288.767
 20
-207.881
  0
POINT
  8
3
 10
275.694
 20
-208.821
  0
POINT
  8
3
 10
262.606
 20
-209.516
  0
POINT
  8
3
 10
249.509
 20
-209.971
  0
POINT
  8
3
 10
236.406
 20
-210.182
  0
POINT
  8
3
 10
223.315
 20
-210.150
  0
POINT
  8
3
 10
210.226
 20
-209.891
  0
POINT
  8
3
 10
184.112
 20
-208.773
  0
POINT
  8
3
 10
158.057
 20
-206.949
  0
POINT
  8
2
 10
132.179
 20
-204.414
  0
TEXT
  8
1
 10
132.179
 20
-204.414
 40
3.0
  1
# 10
  0
POINT
  8
3
 10
105.334
 20
-201.664
  0
POINT
  8
2
 10
78.691
 20
-198.220
  0
TEXT
  8
1
 10
78.691
 20
-198.220
 40
3.0
  1
# 11
  0
POINT
  8
2
 10
21.838
 20
-192.001
  0
TEXT
  8
1
 10
21.838
 20
-192.001
 40
3.0
  1
# 12
  0
POINT
  8
2
 10
-219.721
 20
-165.573
  0
TEXT
  8
1
 10
-219.721
 20
-165.573
 40
3.0
  1
# 13
  0
POINT
  8
4
 10
-238.467
 20
-163.522
 30
5.000
 50
90.271
  0
POINT
  8
3
 10
-238.467
 20
-163.522
  0
POINT
  8
2
 10
-239.129
 20
-163.449
  0
TEXT
  8
1
 10
-239.129
 20
-163.449
 40
3.0
  1
# 14
  0
POINT
  8
4
 10
-743.589
 20
-156.458
 30
5.000
 50
89.965
  0
POINT
  8
2
 10
-743.589
 20
-156.458
  0
TEXT
  8
1
 10
-743.589
 20
-156.458
 40
3.0
  1
# 15
  0
POINT
  8
2
 10
-773.590
 20
-156.837
  0
TEXT
  8
1
 10
-773.590
 20
-156.837
 40
3.0
  1
# 16
  0
POINT
  8
3
 10
-773.583
 20
-146.438
  0
POINT
  8
3
 10
-773.579
 20
-139.338
  0
POINT
  8
3
 10
-773.420
 20
104.315
  0
POINT
  8
2
 10
-773.413
 20
114.753
  0
TEXT
  8
1
 10
-773.413
 20
114.753
 40
3.0
  1
# 17
  0
POINT
  8
4
 10
-743.413
 20
114.296
 30
5.000
 50
269.965
  0
POINT
  8
2
 10
-743.413
 20
114.296
  0
TEXT
  8
1
 10
-743.413
 20
114.296
 40
3.0
  1
# 18
  0
POINT
  8
4
 10
-240.115
 20
121.290
 30
5.000
 50
270.271
  0
POINT
  8
2
 10
-240.115
 20
121.290
  0
TEXT
  8
1
 10
-240.115
 20
121.290
 40
3.0
  1
# 19
  0
POLYLINE
  8
14
 66
1
 70
    1
  0
VERTEX
  8
14
 10
-239.663
 20
111.295
  0
VERTEX
  8
14
 10
-199.156
 20
114.399
  0
VERTEX
  8
14
 10
-158.798
 20
119.101
  0
VERTEX
  8
14
 10
-117.857
 20
125.551
  0
VERTEX
  8
14
 10
-77.201
 20
133.593
  0
VERTEX
  8
14
 10
-36.885
 20
143.128
  0
VERTEX
  8
14
 10
3.076
 20
154.063
  0
VERTEX
  8
14
 10
41.684
 20
166.005
  0
VERTEX
  8
14
 10
79.876
 20
179.199
  0
VERTEX
  8
14
 10
80.289
 20
168.653
  0
VERTEX
  8
14
 10
82.067
 20
158.211
  0
VERTEX
  8
14
 10
85.334
 20
148.185
  0
VERTEX
  8
14
 10
90.986
 20
137.504
  0
VERTEX
  8
14
 10
98.327
 20
127.809
  0
VERTEX
  8
14
 10
106.917
 20
119.126
  0
VERTEX
  8
14
 10
115.256
 20
112.311
  0
VERTEX
  8
14
 10
124.179
 20
106.381
  0
VERTEX
  8
14
 10
133.636
 20
101.408
  0
VERTEX
  8
14
 10
379.008
 20
18.704
  0
VERTEX
  8
14
 10
374.280
 20
-5.830
  0
VERTEX
  8
14
 10
369.771
 20
-30.406
  0
VERTEX
  8
14
 10
365.482
 20
-55.022
  0
VERTEX
  8
14
 10
361.414
 20
-79.675
  0
VERTEX
  8
14
 10
360.587
 20
-86.656
  0
VERTEX
  8
14
 10
358.245
 20
-93.283
  0
VERTEX
  8
14
 10
352.661
 20
-120.412
  0
VERTEX
  8
14
 10
347.345
 20
-147.595
  0
VERTEX
  8
14
 10
339.283
 20
-191.867
  0
VERTEX
  8
14
 10
313.679
 20
-195.358
  0
VERTEX
  8
14
 10
287.961
 20
-197.912
  0
VERTEX
  8
14
 10
262.167
 20
-199.524
  0
VERTEX
  8
14
 10
236.334
 20
-200.181
  0
VERTEX
  8
14
 10
210.496
 20
-199.894
  0
VERTEX
  8
14
 10
184.675
 20
-198.788
  0
VERTEX
  8
14
 10
158.894
 20
-196.983
  0
VERTEX
  8
14
 10
133.176
 20
-194.464
  0
VERTEX
  8
14
 10
106.485
 20
-191.729
  0
VERTEX
  8
14
 10
79.876
 20
-188.291
  0
VERTEX
  8
14
 10
22.925
 20
-182.060
  0
VERTEX
  8
14
 10
-218.633
 20
-155.632
  0
VERTEX
  8
14
 10
-238.515
 20
-153.457
  0
VERTEX
  8
14
 10
-743.583
 20
-146.457
  0
VERTEX
  8
14
 10
-743.579
 20
-139.357
  0
VERTEX
  8
14
 10
-743.420
 20
104.295
  0
VERTEX
  8
14
 10
-239.663
 20
111.295
  0
SEQEND
  0
POINT
  8
4
 10
-239.663
 20
111.295
 30
5.000
 50
270.271
  0
POINT
  8
2
 10
-239.663
 20
111.295
  0
TEXT
  8
14
 10
-239.663
 20
111.295
 40
3.0
  1
# 20
  0
POINT
  8
3
 10
-199.156
 20
114.399
  0
POINT
  8
3
 10
-158.798
 20
119.101
  0
POINT
  8
3
 10
-117.857
 20
125.551
  0
POINT
  8
3
 10
-77.201
 20
133.593
  0
POINT
  8
3
 10
-36.885
 20
143.128
  0
POINT
  8
3
 10
3.076
 20
154.063
  0
POINT
  8
3
 10
41.684
 20
166.005
  0
POINT
  8
2
 10
79.876
 20
179.199
  0
TEXT
  8
14
 10
79.876
 20
179.199
 40
3.0
  1
# 21
  0
POINT
  8
3
 10
80.289
 20
168.653
  0
POINT
  8
3
 10
82.067
 20
158.211
  0
POINT
  8
3
 10
85.334
 20
148.185
  0
POINT
  8
3
 10
90.986
 20
137.504
  0
POINT
  8
3
 10
98.327
 20
127.809
  0
POINT
  8
3
 10
106.917
 20
119.126
  0
POINT
  8
3
 10
115.256
 20
112.311
  0
POINT
  8
3
 10
124.179
 20
106.381
  0
POINT
  8
2
 10
133.636
 20
101.408
  0
TEXT
  8
14
 10
133.636
 20
101.408
 40
3.0
  1
# 22
  0
POINT
  8
2
 10
379.008
 20
18.704
  0
TEXT
  8
14
 10
379.008
 20
18.704
 40
3.0
  1
# 23
  0
POINT
  8
3
 10
374.280
 20
-5.830
  0
POINT
  8
3
 10
369.771
 20
-30.406
  0
POINT
  8
3
 10
365.482
 20
-55.022
  0
POINT
  8
4
 10
361.414
 20
-79.675
 30
5.000
 50
171.003
  0
POINT
  8
2
 10
361.414
 20
-79.675
  0
TEXT
  8
14
 10
361.414
 20
-79.675
 40
3.0
  1
# 24
  0
POINT
  8
2
 10
360.587
 20
-86.656
  0
TEXT
  8
14
 10
360.587
 20
-86.656
 40
3.0
  1
# 25
  0
POINT
  8
4
 10
358.245
 20
-93.283
 30
5.000
 50
162.780
  0
POINT
  8
2
 10
358.245
 20
-93.283
  0
TEXT
  8
14
 10
358.245
 20
-93.283
 40
3.0
  1
# 26
  0
POINT
  8
3
 10
352.661
 20
-120.412
  0
POINT
  8
4
 10
347.345
 20
-147.595
 30
5.000
 50
-180.000
  0
POINT
  8
2
 10
347.345
 20
-147.595
  0
TEXT
  8
14
 10
347.345
 20
-147.595
 40
3.0
  1
# 27
  0
POINT
  8
2
 10
339.283
 20
-191.867
  0
TEXT
  8
14
 10
339.283
 20
-191.867
 40
3.0
  1
# 28
  0
POINT
  8
3
 10
313.679
 20
-195.358
  0
POINT
  8
3
 10
287.961
 20
-197.912
  0
POINT
  8
3
 10
262.167
 20
-199.524
  0
POINT
  8
3
 10
236.334
 20
-200.181
  0
POINT
  8
3
 10
210.496
 20
-199.894
  0
POINT
  8
3
 10
184.675
 20
-198.788
  0
POINT
  8
3
 10
158.894
 20
-196.983
  0
POINT
  8
2
 10
133.176
 20
-194.464
  0
TEXT
  8
14
 10
133.176
 20
-194.464
 40
3.0
  1
# 29
  0
POINT
  8
3
 10
106.485
 20
-191.729
  0
POINT
  8
2
 10
79.876
 20
-188.291
  0
TEXT
  8
14
 10
79.876
 20
-188.291
 40
3.0
  1
# 30
  0
POINT
  8
2
 10
22.925
 20
-182.060
  0
TEXT
  8
14
 10
22.925
 20
-182.060
 40
3.0
  1
# 31
  0
POINT
  8
2
 10
-218.633
 20
-155.632
  0
TEXT
  8
14
 10
-218.633
 20
-155.632
 40
3.0
  1
# 32
  0
POINT
  8
4
 10
-238.515
 20
-153.457
 30
5.000
 50
90.271
  0
POINT
  8
2
 10
-238.515
 20
-153.457
  0
TEXT
  8
14
 10
-238.515
 20
-153.457
 40
3.0
  1
# 33
  0
POINT
  8
4
 10
-743.583
 20
-146.457
 30
5.000
 50
89.965
  0
POINT
  8
2
 10
-743.583
 20
-146.457
  0
TEXT
  8
14
 10
-743.583
 20
-146.457
 40
3.0
  1
# 34
  0
POINT
  8
3
 10
-743.579
 20
-139.357
  0
POINT
  8
4
 10
-743.420
 20
104.295
 30
5.000
 50
269.965
  0
POINT
  8
2
 10
-743.420
 20
104.295
  0
TEXT
  8
14
 10
-743.420
 20
104.295
 40
3.0
  1
# 35
  0
POINT
  8
4
 10
-239.663
 20
111.295
 30
5.000
 50
270.271
  0
POINT
  8
2
 10
-239.663
 20
111.295
  0
TEXT
  8
14
 10
-239.663
 20
111.295
 40
3.0
  1
# 36
  0
LINE
  8
7
 10
0.000
 20
0.000
 11
47.767
 21
0.000
  0
POINT
  8
2
 10
0.000
 20
0.000
  0
TEXT
  8
7
 10
0.000
 20
0.000
 40
3.0
  1
# 46
  0
POINT
  8
2
 10
47.767
 20
0.000
  0
TEXT
  8
7
 10
47.767
 20
0.000
 40
3.0
  1
# 47
  0
POINT
  8
13
 10
294.097
 20
6.030
  0
POINT
  8
2
 10
294.097
 20
6.030
  0
TEXT
  8
13
 10
294.097
 20
6.030
 40
3.0
  1
# 37
  0
POINT
  8
13
 10
266.095
 20
-144.838
  0
POINT
  8
2
 10
266.095
 20
-144.838
  0
TEXT
  8
13
 10
266.095
 20
-144.838
 40
3.0
  1
# 38
  0
POINT
  8
13
 10
275.766
 20
-67.885
  0
POINT
  8
2
 10
275.766
 20
-67.885
  0
TEXT
  8
13
 10
275.766
 20
-67.885
 40
3.0
  1
# 39
  0
POINT
  8
13
 10
40.236
 20
-85.848
  0
POINT
  8
2
 10
40.236
 20
-85.848
  0
TEXT
  8
13
 10
40.236
 20
-85.848
 40
3.0
  1
# 40
  0
POINT
  8
13
 10
25.236
 20
-90.876
  0
POINT
  8
2
 10
25.236
 20
-90.876
  0
TEXT
  8
13
 10
25.236
 20
-90.876
 40
3.0
  1
# 41
  0
POINT
  8
13
 10
-223.633
 20
-113.132
  0
POINT
  8
2
 10
-223.633
 20
-113.132
  0
TEXT
  8
13
 10
-223.633
 20
-113.132
 40
3.0
  1
# 42
  0
POINT
  8
13
 10
-238.633
 20
-115.632
  0
POINT
  8
2
 10
-238.633
 20
-115.632
  0
TEXT
  8
13
 10
-238.633
 20
-115.632
 40
3.0
  1
# 43
  0
TEXT
  8
15
 10
90.367
 20
-84.365
 40
0.093
 50
0.014
  1
Main Fabric
  0
TEXT
  8
15
 10
90.367
 20
-84.365
 40
3.0
  1
# 48
  0
TEXT
  8
15
 10
198.595
 20
-46.182
 40
0.255
 50
0.000
  1
Back
  0
TEXT
  8
15
 10
198.595
 20
-46.182
 40
3.0
  1
# 49
  0
TEXT
  8
15
 10
130.337
 20
80.278
 40
5.346
 50
-13.055
  1
flat-felled seam
  0
TEXT
  8
15
 10
130.337
 20
80.278
 40
3.0
  1
# 50
  0
TEXT
  8
15
 10
-200.415
 20
-5.953
 40
0.067
 50
0.000
  1
1 Piece Face Up
  0
TEXT
  8
15
 10
-200.415
 20
-5.953
 40
3.0
  1
# 51
  0
TEXT
  8
1
 10
0.000
 20
0.000
 40
3.0
  1
Piece Name: 910588V20000.TRD
  0
TEXT
  8
1
 10
0.000
 20
5.000
 40
3.0
  1
Size: T38
  0
TEXT
  8
1
 10
0.000
 20
10.000
 40
3.0
  1
Annotation: BACK RIGHT 1S
  0
TEXT
  8
1
 10
0.000
 20
15.000
 40
3.0
  1
Quantity: 1
  0
TEXT
  8
1
 10
0.000
 20
20.000
 40
3.0
  1
Category: Trasero
  0
ENDBLK
  0
BLOCK
  8
1
  2
910588V20000TRZ
 70
0
 10
0.0
 20
0.0
  0
POLYLINE
  8
1
 66
1
 70
    1
  0
VERTEX
  8
1
 10
-240.115
 20
-121.290
  0
VERTEX
  8
1
 10
-743.413
 20
-114.296
  0
VERTEX
  8
1
 10
-773.413
 20
-114.753
  0
VERTEX
  8
1
 10
-773.420
 20
-104.315
  0
VERTEX
  8
1
 10
-773.579
 20
139.337
  0
VERTEX
  8
1
 10
-773.590
 20
156.837
  0
VERTEX
  8
1
 10
-743.589
 20
156.458
  0
VERTEX
  8
1
 10
-239.129
 20
163.449
  0
VERTEX
  8
1
 10
-238.467
 20
163.522
  0
VERTEX
  8
1
 10
-219.721
 20
165.573
  0
VERTEX
  8
1
 10
21.838
 20
192.001
  0
VERTEX
  8
1
 10
78.691
 20
198.220
  0
VERTEX
  8
1
 10
105.334
 20
201.664
  0
VERTEX
  8
1
 10
132.179
 20
204.414
  0
VERTEX
  8
1
 10
158.057
 20
206.949
  0
VERTEX
  8
1
 10
184.112
 20
208.773
  0
VERTEX
  8
1
 10
210.226
 20
209.891
  0
VERTEX
  8
1
 10
223.315
 20
210.150
  0
VERTEX
  8
1
 10
236.406
 20
210.182
  0
VERTEX
  8
1
 10
249.509
 20
209.971
  0
VERTEX
  8
1
 10
262.606
 20
209.516
  0
VERTEX
  8
1
 10
275.694
 20
208.821
  0
VERTEX
  8
1
 10
288.767
 20
207.881
  0
VERTEX
  8
1
 10
301.819
 20
206.698
  0
VERTEX
  8
1
 10
314.849
 20
205.291
  0
VERTEX
  8
1
 10
331.359
 20
203.209
  0
VERTEX
  8
1
 10
347.822
 20
200.795
  0
VERTEX
  8
1
 10
357.172
 20
149.451
  0
VERTEX
  8
1
 10
357.534
 20
147.595
  0
VERTEX
  8
1
 10
362.466
 20
122.380
  0
VERTEX
  8
1
 10
367.902
 20
95.970
  0
VERTEX
  8
1
 10
370.387
 20
88.938
  0
VERTEX
  8
1
 10
371.313
 20
81.077
  0
VERTEX
  8
1
 10
375.367
 20
56.518
  0
VERTEX
  8
1
 10
379.634
 20
32.040
  0
VERTEX
  8
1
 10
384.119
 20
7.602
  0
VERTEX
  8
1
 10
391.436
 20
-30.345
  0
VERTEX
  8
1
 10
139.559
 20
-115.241
  0
VERTEX
  8
1
 10
135.650
 20
-117.173
  0
VERTEX
  8
1
 10
131.841
 20
-119.299
  0
VERTEX
  8
1
 10
127.943
 20
-121.749
  0
VERTEX
  8
1
 10
124.175
 20
-124.394
  0
VERTEX
  8
1
 10
120.529
 20
-127.230
  0
VERTEX
  8
1
 10
117.023
 20
-130.239
  0
VERTEX
  8
1
 10
113.244
 20
-133.836
  0
VERTEX
  8
1
 10
109.688
 20
-137.654
  0
VERTEX
  8
1
 10
106.537
 20
-141.513
  0
VERTEX
  8
1
 10
103.677
 20
-145.591
  0
VERTEX
  8
1
 10
101.251
 20
-149.727
  0
VERTEX
  8
1
 10
99.196
 20
-154.059
  0
VERTEX
  8
1
 10
97.775
 20
-157.886
  0
VERTEX
  8
1
 10
96.669
 20
-161.813
  0
VERTEX
  8
1
 10
95.839
 20
-165.990
  0
VERTEX
  8
1
 10
95.239
 20
-170.212
  0
VERTEX
  8
1
 10
94.210
 20
-182.470
  0
VERTEX
  8
1
 10
94.280
 20
-194.755
  0
VERTEX
  8
1
 10
66.519
 20
-184.868
  0
VERTEX
  8
1
 10
38.573
 20
-175.511
  0
VERTEX
  8
1
 10
19.468
 20
-169.447
  0
VERTEX
  8
1
 10
0.278
 20
-163.664
  0
VERTEX
  8
1
 10
-19.492
 20
-158.070
  0
VERTEX
  8
1
 10
-39.356
 20
-152.819
  0
VERTEX
  8
1
 10
-59.297
 20
-147.915
  0
VERTEX
  8
1
 10
-79.322
 20
-143.367
  0
VERTEX
  8
1
 10
-99.426
 20
-139.191
  0
VERTEX
  8
1
 10
-119.606
 20
-135.398
  0
VERTEX
  8
1
 10
-139.849
 20
-132.001
  0
VERTEX
  8
1
 10
-160.155
 20
-129.010
  0
VERTEX
  8
1
 10
-180.113
 20
-126.483
  0
VERTEX
  8
1
 10
-200.117
 20
-124.354
  0
VERTEX
  8
1
 10
-220.101
 20
-122.625
  0
VERTEX
  8
1
 10
-240.115
 20
-121.290
  0
SEQEND
  0
POINT
  8
4
 10
-240.115
 20
-121.290
 30
5.000
 50
89.729
  0
POINT
  8
2
 10
-240.115
 20
-121.290
  0
TEXT
  8
1
 10
-240.115
 20
-121.290
 40
3.0
  1
# 1
  0
POINT
  8
4
 10
-743.413
 20
-114.296
 30
5.000
 50
90.035
  0
POINT
  8
2
 10
-743.413
 20
-114.296
  0
TEXT
  8
1
 10
-743.413
 20
-114.296
 40
3.0
  1
# 2
  0
POINT
  8
2
 10
-773.413
 20
-114.753
  0
TEXT
  8
1
 10
-773.413
 20
-114.753
 40
3.0
  1
# 3
  0
POINT
  8
3
 10
-773.420
 20
-104.315
  0
POINT
  8
3
 10
-773.579
 20
139.337
  0
POINT
  8
2
 10
-773.590
 20
156.837
  0
TEXT
  8
1
 10
-773.590
 20
156.837
 40
3.0
  1
# 4
  0
POINT
  8
4
 10
-743.589
 20
156.458
 30
5.000
 50
270.035
  0
POINT
  8
2
 10
-743.589
 20
156.458
  0
TEXT
  8
1
 10
-743.589
 20
156.458
 40
3.0
  1
# 5
  0
POINT
  8
2
 10
-239.129
 20
163.449
  0
TEXT
  8
1
 10
-239.129
 20
163.449
 40
3.0
  1
# 6
  0
POINT
  8
4
 10
-238.467
 20
163.522
 30
5.000
 50
269.729
  0
POINT
  8
3
 10
-238.467
 20
163.522
  0
POINT
  8
3
 10
-219.721
 20
165.573
  0
POINT
  8
3
 10
21.838
 20
192.001
  0
POINT
  8
2
 10
78.691
 20
198.220
  0
TEXT
  8
1
 10
78.691
 20
198.220
 40
3.0
  1
# 7
  0
POINT
  8
3
 10
105.334
 20
201.664
  0
POINT
  8
2
 10
132.179
 20
204.414
  0
TEXT
  8
1
 10
132.179
 20
204.414
 40
3.0
  1
# 8
  0
POINT
  8
3
 10
158.057
 20
206.949
  0
POINT
  8
3
 10
184.112
 20
208.773
  0
POINT
  8
3
 10
210.226
 20
209.891
  0
POINT
  8
3
 10
223.315
 20
210.150
  0
POINT
  8
3
 10
236.406
 20
210.182
  0
POINT
  8
3
 10
249.509
 20
209.971
  0
POINT
  8
3
 10
262.606
 20
209.516
  0
POINT
  8
3
 10
275.694
 20
208.821
  0
POINT
  8
3
 10
288.767
 20
207.881
  0
POINT
  8
3
 10
301.819
 20
206.698
  0
POINT
  8
3
 10
314.849
 20
205.291
  0
POINT
  8
3
 10
331.359
 20
203.209
  0
POINT
  8
2
 10
347.822
 20
200.795
  0
TEXT
  8
1
 10
347.822
 20
200.795
 40
3.0
  1
# 9
  0
POINT
  8
2
 10
357.172
 20
149.451
  0
TEXT
  8
1
 10
357.172
 20
149.451
 40
3.0
  1
# 10
  0
POINT
  8
4
 10
357.534
 20
147.595
 30
5.000
 50
180.000
  0
POINT
  8
3
 10
357.534
 20
147.595
  0
POINT
  8
3
 10
362.466
 20
122.380
  0
POINT
  8
4
 10
367.902
 20
95.970
 30
5.000
 50
197.220
  0
POINT
  8
2
 10
367.902
 20
95.970
  0
TEXT
  8
1
 10
367.902
 20
95.970
 40
3.0
  1
# 11
  0
POINT
  8
2
 10
370.387
 20
88.938
  0
TEXT
  8
1
 10
370.387
 20
88.938
 40
3.0
  1
# 12
  0
POINT
  8
4
 10
371.313
 20
81.077
 30
5.000
 50
188.997
  0
POINT
  8
2
 10
371.313
 20
81.077
  0
TEXT
  8
1
 10
371.313
 20
81.077
 40
3.0
  1
# 13
  0
POINT
  8
3
 10
375.367
 20
56.518
  0
POINT
  8
3
 10
379.634
 20
32.040
  0
POINT
  8
3
 10
384.119
 20
7.602
  0
POINT
  8
2
 10
391.436
 20
-30.345
  0
TEXT
  8
1
 10
391.436
 20
-30.345
 40
3.0
  1
# 14
  0
POINT
  8
2
 10
139.559
 20
-115.241
  0
TEXT
  8
1
 10
139.559
 20
-115.241
 40
3.0
  1
# 15
  0
POINT
  8
3
 10
135.650
 20
-117.173
  0
POINT
  8
3
 10
131.841
 20
-119.299
  0
POINT
  8
3
 10
127.943
 20
-121.749
  0
POINT
  8
3
 10
124.175
 20
-124.394
  0
POINT
  8
3
 10
120.529
 20
-127.230
  0
POINT
  8
3
 10
117.023
 20
-130.239
  0
POINT
  8
3
 10
113.244
 20
-133.836
  0
POINT
  8
3
 10
109.688
 20
-137.654
  0
POINT
  8
3
 10
106.537
 20
-141.513
  0
POINT
  8
3
 10
103.677
 20
-145.591
  0
POINT
  8
3
 10
101.251
 20
-149.727
  0
POINT
  8
3
 10
99.196
 20
-154.059
  0
POINT
  8
3
 10
97.775
 20
-157.886
  0
POINT
  8
3
 10
96.669
 20
-161.813
  0
POINT
  8
3
 10
95.839
 20
-165.990
  0
POINT
  8
3
 10
95.239
 20
-170.212
  0
POINT
  8
3
 10
94.210
 20
-182.470
  0
POINT
  8
2
 10
94.280
 20
-194.755
  0
TEXT
  8
1
 10
94.280
 20
-194.755
 40
3.0
  1
# 16
  0
POINT
  8
3
 10
66.519
 20
-184.868
  0
POINT
  8
3
 10
38.573
 20
-175.511
  0
POINT
  8
3
 10
19.468
 20
-169.447
  0
POINT
  8
3
 10
0.278
 20
-163.664
  0
POINT
  8
3
 10
-19.492
 20
-158.070
  0
POINT
  8
3
 10
-39.356
 20
-152.819
  0
POINT
  8
3
 10
-59.297
 20
-147.915
  0
POINT
  8
3
 10
-79.322
 20
-143.367
  0
POINT
  8
3
 10
-99.426
 20
-139.191
  0
POINT
  8
3
 10
-119.606
 20
-135.398
  0
POINT
  8
3
 10
-139.849
 20
-132.001
  0
POINT
  8
3
 10
-160.155
 20
-129.010
  0
POINT
  8
3
 10
-180.113
 20
-126.483
  0
POINT
  8
3
 10
-200.117
 20
-124.354
  0
POINT
  8
3
 10
-220.101
 20
-122.625
  0
POINT
  8
4
 10
-240.115
 20
-121.290
 30
5.000
 50
89.729
  0
POINT
  8
2
 10
-240.115
 20
-121.290
  0
TEXT
  8
1
 10
-240.115
 20
-121.290
 40
3.0
  1
# 17
  0
POLYLINE
  8
14
 66
1
 70
    1
  0
VERTEX
  8
14
 10
-239.663
 20
-111.295
  0
VERTEX
  8
14
 10
-743.420
 20
-104.295
  0
VERTEX
  8
14
 10
-743.579
 20
139.357
  0
VERTEX
  8
14
 10
-743.583
 20
146.457
  0
VERTEX
  8
14
 10
-238.515
 20
153.457
  0
VERTEX
  8
14
 10
-218.633
 20
155.632
  0
VERTEX
  8
14
 10
22.925
 20
182.060
  0
VERTEX
  8
14
 10
79.876
 20
188.291
  0
VERTEX
  8
14
 10
106.485
 20
191.729
  0
VERTEX
  8
14
 10
133.176
 20
194.464
  0
VERTEX
  8
14
 10
158.894
 20
196.983
  0
VERTEX
  8
14
 10
184.675
 20
198.788
  0
VERTEX
  8
14
 10
210.495
 20
199.894
  0
VERTEX
  8
14
 10
236.334
 20
200.181
  0
VERTEX
  8
14
 10
262.167
 20
199.524
  0
VERTEX
  8
14
 10
287.961
 20
197.912
  0
VERTEX
  8
14
 10
313.679
 20
195.358
  0
VERTEX
  8
14
 10
339.283
 20
191.867
  0
VERTEX
  8
14
 10
347.345
 20
147.595
  0
VERTEX
  8
14
 10
352.661
 20
120.412
  0
VERTEX
  8
14
 10
358.245
 20
93.283
  0
VERTEX
  8
14
 10
360.587
 20
86.656
  0
VERTEX
  8
14
 10
361.414
 20
79.675
  0
VERTEX
  8
14
 10
365.482
 20
55.022
  0
VERTEX
  8
14
 10
369.771
 20
30.406
  0
VERTEX
  8
14
 10
374.280
 20
5.830
  0
VERTEX
  8
14
 10
379.008
 20
-18.704
  0
VERTEX
  8
14
 10
133.636
 20
-101.408
  0
VERTEX
  8
14
 10
124.179
 20
-106.381
  0
VERTEX
  8
14
 10
115.256
 20
-112.311
  0
VERTEX
  8
14
 10
106.917
 20
-119.126
  0
VERTEX
  8
14
 10
98.327
 20
-127.809
  0
VERTEX
  8
14
 10
90.986
 20
-137.504
  0
VERTEX
  8
14
 10
85.334
 20
-148.185
  0
VERTEX
  8
14
 10
82.067
 20
-158.211
  0
VERTEX
  8
14
 10
80.289
 20
-168.653
  0
VERTEX
  8
14
 10
79.876
 20
-179.199
  0
VERTEX
  8
14
 10
41.684
 20
-166.005
  0
VERTEX
  8
14
 10
3.076
 20
-154.063
  0
VERTEX
  8
14
 10
-36.885
 20
-143.128
  0
VERTEX
  8
14
 10
-77.201
 20
-133.593
  0
VERTEX
  8
14
 10
-117.857
 20
-125.551
  0
VERTEX
  8
14
 10
-158.798
 20
-119.101
  0
VERTEX
  8
14
 10
-199.156
 20
-114.399
  0
VERTEX
  8
14
 10
-239.663
 20
-111.295
  0
SEQEND
  0
POINT
  8
4
 10
-239.663
 20
-111.295
 30
5.000
 50
89.729
  0
POINT
  8
2
 10
-239.663
 20
-111.295
  0
TEXT
  8
14
 10
-239.663
 20
-111.295
 40
3.0
  1
# 18
  0
POINT
  8
4
 10
-743.420
 20
-104.295
 30
5.000
 50
90.035
  0
POINT
  8
2
 10
-743.420
 20
-104.295
  0
TEXT
  8
14
 10
-743.420
 20
-104.295
 40
3.0
  1
# 19
  0
POINT
  8
3
 10
-743.579
 20
139.357
  0
POINT
  8
4
 10
-743.583
 20
146.457
 30
5.000
 50
270.035
  0
POINT
  8
2
 10
-743.583
 20
146.457
  0
TEXT
  8
14
 10
-743.583
 20
146.457
 40
3.0
  1
# 20
  0
POINT
  8
4
 10
-238.515
 20
153.457
 30
5.000
 50
269.729
  0
POINT
  8
2
 10
-238.515
 20
153.457
  0
TEXT
  8
14
 10
-238.515
 20
153.457
 40
3.0
  1
# 21
  0
POINT
  8
3
 10
-218.633
 20
155.632
  0
POINT
  8
3
 10
22.925
 20
182.060
  0
POINT
  8
2
 10
79.876
 20
188.291
  0
TEXT
  8
14
 10
79.876
 20
188.291
 40
3.0
  1
# 22
  0
POINT
  8
3
 10
106.485
 20
191.729
  0
POINT
  8
2
 10
133.176
 20
194.464
  0
TEXT
  8
14
 10
133.176
 20
194.464
 40
3.0
  1
# 23
  0
POINT
  8
3
 10
158.894
 20
196.983
  0
POINT
  8
3
 10
184.675
 20
198.788
  0
POINT
  8
3
 10
210.495
 20
199.894
  0
POINT
  8
3
 10
236.334
 20
200.181
  0
POINT
  8
3
 10
262.167
 20
199.524
  0
POINT
  8
3
 10
287.961
 20
197.912
  0
POINT
  8
3
 10
313.679
 20
195.358
  0
POINT
  8
2
 10
339.283
 20
191.867
  0
TEXT
  8
14
 10
339.283
 20
191.867
 40
3.0
  1
# 24
  0
POINT
  8
4
 10
347.345
 20
147.595
 30
5.000
 50
180.000
  0
POINT
  8
2
 10
347.345
 20
147.595
  0
TEXT
  8
14
 10
347.345
 20
147.595
 40
3.0
  1
# 25
  0
POINT
  8
3
 10
352.661
 20
120.412
  0
POINT
  8
4
 10
358.245
 20
93.283
 30
5.000
 50
197.220
  0
POINT
  8
2
 10
358.245
 20
93.283
  0
TEXT
  8
14
 10
358.245
 20
93.283
 40
3.0
  1
# 26
  0
POINT
  8
2
 10
360.587
 20
86.656
  0
TEXT
  8
14
 10
360.587
 20
86.656
 40
3.0
  1
# 27
  0
POINT
  8
4
 10
361.414
 20
79.675
 30
5.000
 50
188.997
  0
POINT
  8
2
 10
361.414
 20
79.675
  0
TEXT
  8
14
 10
361.414
 20
79.675
 40
3.0
  1
# 28
  0
POINT
  8
3
 10
365.482
 20
55.022
  0
POINT
  8
3
 10
369.771
 20
30.406
  0
POINT
  8
3
 10
374.280
 20
5.830
  0
POINT
  8
2
 10
379.008
 20
-18.704
  0
TEXT
  8
14
 10
379.008
 20
-18.704
 40
3.0
  1
# 29
  0
POINT
  8
2
 10
133.636
 20
-101.408
  0
TEXT
  8
14
 10
133.636
 20
-101.408
 40
3.0
  1
# 30
  0
POINT
  8
3
 10
124.179
 20
-106.381
  0
POINT
  8
3
 10
115.256
 20
-112.311
  0
POINT
  8
3
 10
106.917
 20
-119.126
  0
POINT
  8
3
 10
98.327
 20
-127.809
  0
POINT
  8
3
 10
90.986
 20
-137.504
  0
POINT
  8
3
 10
85.334
 20
-148.185
  0
POINT
  8
3
 10
82.067
 20
-158.211
  0
POINT
  8
3
 10
80.289
 20
-168.653
  0
POINT
  8
2
 10
79.876
 20
-179.199
  0
TEXT
  8
14
 10
79.876
 20
-179.199
 40
3.0
  1
# 31
  0
POINT
  8
3
 10
41.684
 20
-166.005
  0
POINT
  8
3
 10
3.076
 20
-154.063
  0
POINT
  8
3
 10
-36.885
 20
-143.128
  0
POINT
  8
3
 10
-77.201
 20
-133.593
  0
POINT
  8
3
 10
-117.857
 20
-125.551
  0
POINT
  8
3
 10
-158.798
 20
-119.101
  0
POINT
  8
3
 10
-199.156
 20
-114.399
  0
POINT
  8
4
 10
-239.663
 20
-111.295
 30
5.000
 50
89.729
  0
POINT
  8
2
 10
-239.663
 20
-111.295
  0
TEXT
  8
14
 10
-239.663
 20
-111.295
 40
3.0
  1
# 32
  0
LINE
  8
7
 10
0.000
 20
0.000
 11
47.767
 21
0.000
  0
POINT
  8
2
 10
0.000
 20
0.000
  0
TEXT
  8
7
 10
0.000
 20
0.000
 40
3.0
  1
# 40
  0
POINT
  8
2
 10
47.767
 20
0.000
  0
TEXT
  8
7
 10
47.767
 20
0.000
 40
3.0
  1
# 41
  0
POINT
  8
13
 10
294.097
 20
-6.030
  0
POINT
  8
2
 10
294.097
 20
-6.030
  0
TEXT
  8
13
 10
294.097
 20
-6.030
 40
3.0
  1
# 33
  0
POINT
  8
13
 10
266.095
 20
144.838
  0
POINT
  8
2
 10
266.095
 20
144.838
  0
TEXT
  8
13
 10
266.095
 20
144.838
 40
3.0
  1
# 34
  0
POINT
  8
13
 10
275.766
 20
67.885
  0
POINT
  8
2
 10
275.766
 20
67.885
  0
TEXT
  8
13
 10
275.766
 20
67.885
 40
3.0
  1
# 35
  0
POINT
  8
13
 10
-7.801
 20
69.245
  0
POINT
  8
2
 10
-7.801
 20
69.245
  0
TEXT
  8
13
 10
-7.801
 20
69.245
 40
3.0
  1
# 36
  0
POINT
  8
13
 10
-22.801
 20
74.273
  0
POINT
  8
2
 10
-22.801
 20
74.273
  0
TEXT
  8
13
 10
-22.801
 20
74.273
 40
3.0
  1
# 37
  0
TEXT
  8
15
 10
90.367
 20
84.365
 40
0.093
 50
-0.014
  1
Main Fabric
  0
TEXT
  8
15
 10
90.367
 20
84.365
 40
3.0
  1
# 42
  0
TEXT
  8
15
 10
198.595
 20
46.182
 40
0.255
 50
0.000
  1
Back
  0
TEXT
  8
15
 10
198.595
 20
46.182
 40
3.0
  1
# 43
  0
TEXT
  8
15
 10
130.337
 20
-80.278
 40
5.346
 50
13.055
  1
flat-felled seam
  0
TEXT
  8
15
 10
130.337
 20
-80.278
 40
3.0
  1
# 44
  0
TEXT
  8
15
 10
-226.668
 20
54.355
 40
0.067
 50
0.000
  1
1 Piece Face Up
  0
TEXT
  8
15
 10
-226.668
 20
54.355
 40
3.0
  1
# 45
  0
TEXT
  8
1
 10
0.000
 20
0.000
 40
3.0
  1
Piece Name: 910588V20000.TRZ
  0
TEXT
  8
1
 10
0.000
 20
5.000
 40
3.0
  1
Size: T38
  0
TEXT
  8
1
 10
0.000
 20
10.000
 40
3.0
  1
Annotation: BACK LEFT 1S
  0
TEXT
  8
1
 10
0.000
 20
15.000
 40
3.0
  1
Quantity: 1
  0
TEXT
  8
1
 10
0.000
 20
20.000
 40
3.0
  1
Category: Trasero
  0
ENDBLK
  0
BLOCK
  8
1
  2
910588V20000VBR
 70
0
 10
0.0
 20
0.0
  0
POLYLINE
  8
1
 66
1
 70
    1
  0
VERTEX
  8
1
 10
181.806
 20
37.999
  0
VERTEX
  8
1
 10
173.454
 20
-16.768
  0
VERTEX
  8
1
 10
-0.322
 20
-16.768
  0
VERTEX
  8
1
 10
-22.670
 20
-16.672
  0
VERTEX
  8
1
 10
-21.406
 20
-7.204
  0
VERTEX
  8
1
 10
-19.330
 20
2.127
  0
VERTEX
  8
1
 10
-16.988
 20
9.634
  0
VERTEX
  8
1
 10
-15.449
 20
13.395
  0
VERTEX
  8
1
 10
-13.635
 20
17.035
  0
VERTEX
  8
1
 10
-11.378
 20
20.718
  0
VERTEX
  8
1
 10
-8.746
 20
24.137
  0
VERTEX
  8
1
 10
-5.644
 20
27.288
  0
VERTEX
  8
1
 10
-2.190
 20
30.057
  0
VERTEX
  8
1
 10
1.488
 20
32.401
  0
VERTEX
  8
1
 10
5.387
 20
34.354
  0
VERTEX
  8
1
 10
9.383
 20
35.882
  0
VERTEX
  8
1
 10
13.510
 20
37.016
  0
VERTEX
  8
1
 10
17.535
 20
37.723
  0
VERTEX
  8
1
 10
21.604
 20
38.063
  0
VERTEX
  8
1
 10
181.806
 20
37.999
  0
SEQEND
  0
POINT
  8
2
 10
181.806
 20
37.999
  0
TEXT
  8
1
 10
181.806
 20
37.999
 40
3.0
  1
# 1
  0
POINT
  8
2
 10
173.454
 20
-16.768
  0
TEXT
  8
1
 10
173.454
 20
-16.768
 40
3.0
  1
# 2
  0
POINT
  8
4
 10
-0.322
 20
-16.768
 30
5.000
 50
90.000
  0
POINT
  8
2
 10
-0.322
 20
-16.768
  0
TEXT
  8
1
 10
-0.322
 20
-16.768
 40
3.0
  1
# 3
  0
POINT
  8
2
 10
-22.670
 20
-16.672
  0
TEXT
  8
1
 10
-22.670
 20
-16.672
 40
3.0
  1
# 4
  0
POINT
  8
3
 10
-21.406
 20
-7.204
  0
POINT
  8
3
 10
-19.330
 20
2.127
  0
POINT
  8
3
 10
-16.988
 20
9.634
  0
POINT
  8
3
 10
-15.449
 20
13.395
  0
POINT
  8
3
 10
-13.635
 20
17.035
  0
POINT
  8
3
 10
-11.378
 20
20.718
  0
POINT
  8
3
 10
-8.746
 20
24.137
  0
POINT
  8
3
 10
-5.644
 20
27.288
  0
POINT
  8
3
 10
-2.190
 20
30.057
  0
POINT
  8
3
 10
1.488
 20
32.401
  0
POINT
  8
3
 10
5.387
 20
34.354
  0
POINT
  8
3
 10
9.383
 20
35.882
  0
POINT
  8
3
 10
13.510
 20
37.016
  0
POINT
  8
3
 10
17.535
 20
37.723
  0
POINT
  8
2
 10
21.604
 20
38.063
  0
TEXT
  8
1
 10
21.604
 20
38.063
 40
3.0
  1
# 5
  0
POINT
  8
2
 10
181.806
 20
37.999
  0
TEXT
  8
1
 10
181.806
 20
37.999
 40
3.0
  1
# 6
  0
POLYLINE
  8
14
 66
1
 70
    1
  0
VERTEX
  8
14
 10
170.166
 20
28.003
  0
VERTEX
  8
14
 10
164.863
 20
-6.768
  0
VERTEX
  8
14
 10
-0.301
 20
-6.768
  0
VERTEX
  8
14
 10
-10.746
 20
-6.723
  0
VERTEX
  8
14
 10
-9.595
 20
-0.246
  0
VERTEX
  8
14
 10
-7.625
 20
6.068
  0
VERTEX
  8
14
 10
-4.894
 20
12.097
  0
VERTEX
  8
14
 10
-1.174
 20
17.500
  0
VERTEX
  8
14
 10
3.698
 20
21.900
  0
VERTEX
  8
14
 10
9.451
 20
25.163
  0
VERTEX
  8
14
 10
15.728
 20
27.220
  0
VERTEX
  8
14
 10
22.246
 20
28.063
  0
VERTEX
  8
14
 10
170.166
 20
28.003
  0
SEQEND
  0
POINT
  8
2
 10
170.166
 20
28.003
  0
TEXT
  8
14
 10
170.166
 20
28.003
 40
3.0
  1
# 7
  0
POINT
  8
2
 10
164.863
 20
-6.768
  0
TEXT
  8
14
 10
164.863
 20
-6.768
 40
3.0
  1
# 8
  0
POINT
  8
4
 10
-0.301
 20
-6.768
 30
5.000
 50
90.000
  0
POINT
  8
2
 10
-0.301
 20
-6.768
  0
TEXT
  8
14
 10
-0.301
 20
-6.768
 40
3.0
  1
# 9
  0
POINT
  8
2
 10
-10.746
 20
-6.723
  0
TEXT
  8
14
 10
-10.746
 20
-6.723
 40
3.0
  1
# 10
  0
POINT
  8
3
 10
-9.595
 20
-0.246
  0
POINT
  8
3
 10
-7.625
 20
6.068
  0
POINT
  8
3
 10
-4.894
 20
12.097
  0
POINT
  8
3
 10
-1.174
 20
17.500
  0
POINT
  8
3
 10
3.698
 20
21.900
  0
POINT
  8
3
 10
9.451
 20
25.163
  0
POINT
  8
3
 10
15.728
 20
27.220
  0
POINT
  8
2
 10
22.246
 20
28.063
  0
TEXT
  8
14
 10
22.246
 20
28.063
 40
3.0
  1
# 11
  0
POINT
  8
2
 10
170.166
 20
28.003
  0
TEXT
  8
14
 10
170.166
 20
28.003
 40
3.0
  1
# 12
  0
LINE
  8
7
 10
0.000
 20
0.000
 11
49.142
 21
0.000
  0
POINT
  8
2
 10
0.000
 20
0.000
  0
TEXT
  8
7
 10
0.000
 20
0.000
 40
3.0
  1
# 15
  0
POINT
  8
2
 10
49.142
 20
0.000
  0
TEXT
  8
7
 10
49.142
 20
0.000
 40
3.0
  1
# 16
  0
TEXT
  8
15
 10
117.292
 20
12.222
 40
0.093
 50
0.000
  1
Main Fabric
  0
TEXT
  8
15
 10
117.292
 20
12.222
 40
3.0
  1
# 17
  0
TEXT
  8
15
 10
26.130
 20
15.974
 40
0.068
 50
0.000
  1
1 Piece Face Up
  0
TEXT
  8
15
 10
26.130
 20
15.974
 40
3.0
  1
# 18
  0
TEXT
  8
15
 10
100.854
 20
-0.001
 40
0.093
 50
0.000
  1
Main Fabric
  0
TEXT
  8
15
 10
100.854
 20
-0.001
 40
3.0
  1
# 19
  0
TEXT
  8
1
 10
0.000
 20
0.000
 40
3.0
  1
Piece Name: 910588V20000.VBR
  0
TEXT
  8
1
 10
0.000
 20
5.000
 40
3.0
  1
Size: T38
  0
TEXT
  8
1
 10
0.000
 20
10.000
 40
3.0
  1
Annotation:1S FLY FACING
  0
TEXT
  8
1
 10
0.000
 20
15.000
 40
3.0
  1
Quantity: 1
  0
TEXT
  8
1
 10
0.000
 20
20.000
 40
3.0
  1
Category: Bragueta
  0
ENDBLK
  0
BLOCK
  8
1
  2
910588V20000XBD
 70
0
 10
0.0
 20
0.0
  0
POLYLINE
  8
1
 66
1
 70
    1
  0
VERTEX
  8
1
 10
-64.292
 20
-69.170
  0
VERTEX
  8
1
 10
-64.292
 20
130.774
  0
VERTEX
  8
1
 10
-44.292
 20
130.774
  0
VERTEX
  8
1
 10
136.539
 20
130.774
  0
VERTEX
  8
1
 10
136.539
 20
80.788
  0
VERTEX
  8
1
 10
136.539
 20
30.802
  0
VERTEX
  8
1
 10
136.539
 20
10.807
  0
VERTEX
  8
1
 10
136.539
 20
-9.187
  0
VERTEX
  8
1
 10
136.539
 20
-29.181
  0
VERTEX
  8
1
 10
136.539
 20
-49.176
  0
VERTEX
  8
1
 10
136.539
 20
-69.170
  0
VERTEX
  8
1
 10
-44.292
 20
-69.170
  0
VERTEX
  8
1
 10
-64.292
 20
-69.170
  0
SEQEND
  0
POINT
  8
2
 10
-64.292
 20
-69.170
  0
TEXT
  8
1
 10
-64.292
 20
-69.170
 40
3.0
  1
# 1
  0
POINT
  8
2
 10
-64.292
 20
130.774
  0
TEXT
  8
1
 10
-64.292
 20
130.774
 40
3.0
  1
# 2
  0
POINT
  8
3
 10
-44.292
 20
130.774
  0
POINT
  8
2
 10
136.539
 20
130.774
  0
TEXT
  8
1
 10
136.539
 20
130.774
 40
3.0
  1
# 3
  0
POINT
  8
3
 10
136.539
 20
80.788
  0
POINT
  8
2
 10
136.539
 20
30.802
  0
TEXT
  8
1
 10
136.539
 20
30.802
 40
3.0
  1
# 4
  0
POINT
  8
3
 10
136.539
 20
10.807
  0
POINT
  8
3
 10
136.539
 20
-9.187
  0
POINT
  8
3
 10
136.539
 20
-29.181
  0
POINT
  8
3
 10
136.539
 20
-49.176
  0
POINT
  8
2
 10
136.539
 20
-69.170
  0
TEXT
  8
1
 10
136.539
 20
-69.170
 40
3.0
  1
# 5
  0
POINT
  8
3
 10
-44.292
 20
-69.170
  0
POINT
  8
2
 10
-64.292
 20
-69.170
  0
TEXT
  8
1
 10
-64.292
 20
-69.170
 40
3.0
  1
# 6
  0
POLYLINE
  8
8
 66
1
 70
    0
  0
VERTEX
  8
8
 10
111.539
 20
130.774
  0
VERTEX
  8
8
 10
111.539
 20
91.581
  0
VERTEX
  8
8
 10
111.539
 20
52.387
  0
VERTEX
  8
8
 10
111.539
 20
30.802
  0
VERTEX
  8
8
 10
111.539
 20
9.216
  0
VERTEX
  8
8
 10
111.539
 20
-29.977
  0
VERTEX
  8
8
 10
111.539
 20
-69.170
  0
SEQEND
  0
POINT
  8
2
 10
111.539
 20
130.774
  0
TEXT
  8
8
 10
111.539
 20
130.774
 40
3.0
  1
# 7
  0
POINT
  8
3
 10
111.539
 20
91.581
  0
POINT
  8
3
 10
111.539
 20
52.387
  0
POINT
  8
3
 10
111.539
 20
30.802
  0
POINT
  8
3
 10
111.539
 20
9.216
  0
POINT
  8
3
 10
111.539
 20
-29.977
  0
POINT
  8
2
 10
111.539
 20
-69.170
  0
TEXT
  8
8
 10
111.539
 20
-69.170
 40
3.0
  1
# 8
  0
POLYLINE
  8
8
 66
1
 70
    1
  0
VERTEX
  8
8
 10
135.039
 20
-62.170
  0
VERTEX
  8
8
 10
-44.392
 20
-62.170
  0
VERTEX
  8
8
 10
-57.292
 20
-62.170
  0
VERTEX
  8
8
 10
-57.292
 20
123.774
  0
VERTEX
  8
8
 10
-44.392
 20
123.774
  0
VERTEX
  8
8
 10
135.039
 20
123.774
  0
VERTEX
  8
8
 10
135.039
 20
129.274
  0
VERTEX
  8
8
 10
-44.431
 20
129.274
  0
VERTEX
  8
8
 10
-62.792
 20
129.274
  0
VERTEX
  8
8
 10
-62.792
 20
-67.670
  0
VERTEX
  8
8
 10
-44.431
 20
-67.670
  0
VERTEX
  8
8
 10
135.039
 20
-67.670
  0
VERTEX
  8
8
 10
135.039
 20
-62.170
  0
SEQEND
  0
POINT
  8
2
 10
135.039
 20
-62.170
  0
TEXT
  8
8
 10
135.039
 20
-62.170
 40
3.0
  1
# 9
  0
POINT
  8
3
 10
-44.392
 20
-62.170
  0
POINT
  8
2
 10
-57.292
 20
-62.170
  0
TEXT
  8
8
 10
-57.292
 20
-62.170
 40
3.0
  1
# 10
  0
POINT
  8
2
 10
-57.292
 20
123.774
  0
TEXT
  8
8
 10
-57.292
 20
123.774
 40
3.0
  1
# 11
  0
POINT
  8
3
 10
-44.392
 20
123.774
  0
POINT
  8
2
 10
135.039
 20
123.774
  0
TEXT
  8
8
 10
135.039
 20
123.774
 40
3.0
  1
# 12
  0
POINT
  8
2
 10
135.039
 20
129.274
  0
TEXT
  8
8
 10
135.039
 20
129.274
 40
3.0
  1
# 13
  0
POINT
  8
3
 10
-44.431
 20
129.274
  0
POINT
  8
2
 10
-62.792
 20
129.274
  0
TEXT
  8
8
 10
-62.792
 20
129.274
 40
3.0
  1
# 14
  0
POINT
  8
2
 10
-62.792
 20
-67.670
  0
TEXT
  8
8
 10
-62.792
 20
-67.670
 40
3.0
  1
# 15
  0
POINT
  8
3
 10
-44.431
 20
-67.670
  0
POINT
  8
2
 10
135.039
 20
-67.670
  0
TEXT
  8
8
 10
135.039
 20
-67.670
 40
3.0
  1
# 16
  0
POINT
  8
2
 10
135.039
 20
-62.170
  0
TEXT
  8
8
 10
135.039
 20
-62.170
 40
3.0
  1
# 17
  0
LINE
  8
7
 10
0.000
 20
0.000
 11
29.188
 21
0.000
  0
POINT
  8
2
 10
0.000
 20
0.000
  0
TEXT
  8
7
 10
0.000
 20
0.000
 40
3.0
  1
# 20
  0
POINT
  8
2
 10
29.188
 20
0.000
  0
TEXT
  8
7
 10
29.188
 20
0.000
 40
3.0
  1
# 21
  0
TEXT
  8
15
 10
53.874
 20
-37.410
 40
0.167
 50
0.000
  1
Pocket
  0
TEXT
  8
15
 10
53.874
 20
-37.410
 40
3.0
  1
# 22
  0
TEXT
  8
15
 10
57.171
 20
29.380
 40
0.125
 50
0.000
  1
Template
  0
TEXT
  8
15
 10
57.171
 20
29.380
 40
3.0
  1
# 23
  0
TEXT
  8
1
 10
0.000
 20
0.000
 40
3.0
  1
Piece Name: 910588V20000.XBD
  0
TEXT
  8
1
 10
0.000
 20
5.000
 40
3.0
  1
Size: T38
  0
TEXT
  8
1
 10
0.000
 20
10.000
 40
3.0
  1
Annotation:TEMPLATE RIGHT FRONT
  0
TEXT
  8
1
 10
0.000
 20
15.000
 40
3.0
  1
Quantity: 1
  0
TEXT
  8
1
 10
0.000
 20
20.000
 40
3.0
  1
Category: Plantilla
  0
ENDBLK
  0
BLOCK
  8
1
  2
910588V20000XBL
 70
0
 10
0.0
 20
0.0
  0
POLYLINE
  8
1
 66
1
 70
    1
  0
VERTEX
  8
1
 10
-138.026
 20
81.371
  0
VERTEX
  8
1
 10
-111.919
 20
81.371
  0
VERTEX
  8
1
 10
156.965
 20
81.371
  0
VERTEX
  8
1
 10
156.965
 20
66.028
  0
VERTEX
  8
1
 10
21.310
 20
-72.653
  0
VERTEX
  8
1
 10
-2.626
 20
-72.296
  0
VERTEX
  8
1
 10
-35.783
 20
-71.420
  0
VERTEX
  8
1
 10
-36.333
 20
-71.405
  0
VERTEX
  8
1
 10
-87.783
 20
-67.097
  0
VERTEX
  8
1
 10
-138.026
 20
-62.583
  0
VERTEX
  8
1
 10
-138.026
 20
14.414
  0
VERTEX
  8
1
 10
-138.026
 20
81.371
  0
SEQEND
  0
POINT
  8
2
 10
-138.026
 20
81.371
  0
TEXT
  8
1
 10
-138.026
 20
81.371
 40
3.0
  1
# 1
  0
POINT
  8
3
 10
-111.919
 20
81.371
  0
POINT
  8
2
 10
156.965
 20
81.371
  0
TEXT
  8
1
 10
156.965
 20
81.371
 40
3.0
  1
# 2
  0
POINT
  8
2
 10
156.965
 20
66.028
  0
TEXT
  8
1
 10
156.965
 20
66.028
 40
3.0
  1
# 3
  0
POINT
  8
2
 10
21.310
 20
-72.653
  0
TEXT
  8
1
 10
21.310
 20
-72.653
 40
3.0
  1
# 4
  0
POINT
  8
3
 10
-2.626
 20
-72.296
  0
POINT
  8
4
 10
-35.783
 20
-71.420
 30
5.000
 50
90.000
  0
POINT
  8
3
 10
-35.783
 20
-71.420
  0
POINT
  8
2
 10
-36.333
 20
-71.405
  0
TEXT
  8
1
 10
-36.333
 20
-71.405
 40
3.0
  1
# 5
  0
POINT
  8
3
 10
-87.783
 20
-67.097
  0
POINT
  8
2
 10
-138.026
 20
-62.583
  0
TEXT
  8
1
 10
-138.026
 20
-62.583
 40
3.0
  1
# 6
  0
POINT
  8
3
 10
-138.026
 20
14.414
  0
POINT
  8
2
 10
-138.026
 20
81.371
  0
TEXT
  8
1
 10
-138.026
 20
81.371
 40
3.0
  1
# 7
  0
POLYLINE
  8
8
 66
1
 70
    0
  0
VERTEX
  8
8
 10
156.839
 20
68.942
  0
VERTEX
  8
8
 10
28.496
 20
-62.429
  0
SEQEND
  0
POINT
  8
2
 10
156.839
 20
68.942
  0
TEXT
  8
8
 10
156.839
 20
68.942
 40
3.0
  1
# 8
  0
POINT
  8
2
 10
28.496
 20
-62.429
  0
TEXT
  8
8
 10
28.496
 20
-62.429
 40
3.0
  1
# 9
  0
POLYLINE
  8
8
 66
1
 70
    0
  0
VERTEX
  8
8
 10
156.839
 20
76.139
  0
VERTEX
  8
8
 10
21.026
 20
-62.702
  0
SEQEND
  0
POINT
  8
2
 10
156.839
 20
76.139
  0
TEXT
  8
8
 10
156.839
 20
76.139
 40
3.0
  1
# 10
  0
POINT
  8
2
 10
21.026
 20
-62.702
  0
TEXT
  8
8
 10
21.026
 20
-62.702
 40
3.0
  1
# 11
  0
POLYLINE
  8
8
 66
1
 70
    0
  0
VERTEX
  8
8
 10
-131.026
 20
-52.543
  0
VERTEX
  8
8
 10
-131.026
 20
14.414
  0
VERTEX
  8
8
 10
-131.026
 20
74.371
  0
VERTEX
  8
8
 10
-112.148
 20
74.371
  0
VERTEX
  8
8
 10
156.965
 20
74.371
  0
SEQEND
  0
POINT
  8
2
 10
-131.026
 20
-52.543
  0
TEXT
  8
8
 10
-131.026
 20
-52.543
 40
3.0
  1
# 12
  0
POINT
  8
3
 10
-131.026
 20
14.414
  0
POINT
  8
2
 10
-131.026
 20
74.371
  0
TEXT
  8
8
 10
-131.026
 20
74.371
 40
3.0
  1
# 13
  0
POINT
  8
3
 10
-112.148
 20
74.371
  0
POINT
  8
2
 10
156.965
 20
74.371
  0
TEXT
  8
8
 10
156.965
 20
74.371
 40
3.0
  1
# 14
  0
POLYLINE
  8
8
 66
1
 70
    0
  0
VERTEX
  8
8
 10
-136.026
 20
-52.543
  0
VERTEX
  8
8
 10
-136.026
 20
14.414
  0
VERTEX
  8
8
 10
-136.026
 20
79.371
  0
VERTEX
  8
8
 10
-111.983
 20
79.371
  0
VERTEX
  8
8
 10
156.965
 20
79.371
  0
SEQEND
  0
POINT
  8
2
 10
-136.026
 20
-52.543
  0
TEXT
  8
8
 10
-136.026
 20
-52.543
 40
3.0
  1
# 15
  0
POINT
  8
3
 10
-136.026
 20
14.414
  0
POINT
  8
2
 10
-136.026
 20
79.371
  0
TEXT
  8
8
 10
-136.026
 20
79.371
 40
3.0
  1
# 16
  0
POINT
  8
3
 10
-111.983
 20
79.371
  0
POINT
  8
2
 10
156.965
 20
79.371
  0
TEXT
  8
8
 10
156.965
 20
79.371
 40
3.0
  1
# 17
  0
POLYLINE
  8
14
 66
1
 70
    1
  0
VERTEX
  8
14
 10
-138.026
 20
81.371
  0
VERTEX
  8
14
 10
-111.919
 20
81.371
  0
VERTEX
  8
14
 10
156.965
 20
81.371
  0
VERTEX
  8
14
 10
156.965
 20
66.028
  0
VERTEX
  8
14
 10
30.952
 20
-62.796
  0
VERTEX
  8
14
 10
-2.420
 20
-62.298
  0
VERTEX
  8
14
 10
-35.783
 20
-61.416
  0
VERTEX
  8
14
 10
-86.918
 20
-57.135
  0
VERTEX
  8
14
 10
-138.026
 20
-52.543
  0
VERTEX
  8
14
 10
-138.026
 20
14.414
  0
VERTEX
  8
14
 10
-138.026
 20
81.371
  0
SEQEND
  0
POINT
  8
2
 10
-138.026
 20
81.371
  0
TEXT
  8
14
 10
-138.026
 20
81.371
 40
3.0
  1
# 18
  0
POINT
  8
3
 10
-111.919
 20
81.371
  0
POINT
  8
2
 10
156.965
 20
81.371
  0
TEXT
  8
14
 10
156.965
 20
81.371
 40
3.0
  1
# 19
  0
POINT
  8
2
 10
156.965
 20
66.028
  0
TEXT
  8
14
 10
156.965
 20
66.028
 40
3.0
  1
# 20
  0
POINT
  8
2
 10
30.952
 20
-62.796
  0
TEXT
  8
14
 10
30.952
 20
-62.796
 40
3.0
  1
# 21
  0
POINT
  8
3
 10
-2.420
 20
-62.298
  0
POINT
  8
4
 10
-35.783
 20
-61.416
 30
5.000
 50
90.000
  0
POINT
  8
2
 10
-35.783
 20
-61.416
  0
TEXT
  8
14
 10
-35.783
 20
-61.416
 40
3.0
  1
# 22
  0
POINT
  8
3
 10
-86.918
 20
-57.135
  0
POINT
  8
2
 10
-138.026
 20
-52.543
  0
TEXT
  8
14
 10
-138.026
 20
-52.543
 40
3.0
  1
# 23
  0
POINT
  8
3
 10
-138.026
 20
14.414
  0
POINT
  8
2
 10
-138.026
 20
81.371
  0
TEXT
  8
14
 10
-138.026
 20
81.371
 40
3.0
  1
# 24
  0
POLYLINE
  8
14
 66
1
 70
    0
  0
VERTEX
  8
14
 10
156.839
 20
68.942
  0
VERTEX
  8
14
 10
28.496
 20
-62.429
  0
SEQEND
  0
POINT
  8
2
 10
156.839
 20
68.942
  0
TEXT
  8
14
 10
156.839
 20
68.942
 40
3.0
  1
# 25
  0
POINT
  8
2
 10
28.496
 20
-62.429
  0
TEXT
  8
14
 10
28.496
 20
-62.429
 40
3.0
  1
# 26
  0
POLYLINE
  8
14
 66
1
 70
    0
  0
VERTEX
  8
14
 10
156.839
 20
76.139
  0
VERTEX
  8
14
 10
21.026
 20
-62.702
  0
SEQEND
  0
POINT
  8
2
 10
156.839
 20
76.139
  0
TEXT
  8
14
 10
156.839
 20
76.139
 40
3.0
  1
# 27
  0
POINT
  8
2
 10
21.026
 20
-62.702
  0
TEXT
  8
14
 10
21.026
 20
-62.702
 40
3.0
  1
# 28
  0
POLYLINE
  8
14
 66
1
 70
    0
  0
VERTEX
  8
14
 10
-131.026
 20
-52.543
  0
VERTEX
  8
14
 10
-131.026
 20
14.414
  0
VERTEX
  8
14
 10
-131.026
 20
74.371
  0
VERTEX
  8
14
 10
-112.148
 20
74.371
  0
VERTEX
  8
14
 10
156.965
 20
74.371
  0
SEQEND
  0
POINT
  8
2
 10
-131.026
 20
-52.543
  0
TEXT
  8
14
 10
-131.026
 20
-52.543
 40
3.0
  1
# 29
  0
POINT
  8
3
 10
-131.026
 20
14.414
  0
POINT
  8
2
 10
-131.026
 20
74.371
  0
TEXT
  8
14
 10
-131.026
 20
74.371
 40
3.0
  1
# 30
  0
POINT
  8
3
 10
-112.148
 20
74.371
  0
POINT
  8
2
 10
156.965
 20
74.371
  0
TEXT
  8
14
 10
156.965
 20
74.371
 40
3.0
  1
# 31
  0
POLYLINE
  8
14
 66
1
 70
    0
  0
VERTEX
  8
14
 10
-136.026
 20
-52.543
  0
VERTEX
  8
14
 10
-136.026
 20
14.414
  0
VERTEX
  8
14
 10
-136.026
 20
79.371
  0
VERTEX
  8
14
 10
-111.983
 20
79.371
  0
VERTEX
  8
14
 10
156.965
 20
79.371
  0
SEQEND
  0
POINT
  8
2
 10
-136.026
 20
-52.543
  0
TEXT
  8
14
 10
-136.026
 20
-52.543
 40
3.0
  1
# 32
  0
POINT
  8
3
 10
-136.026
 20
14.414
  0
POINT
  8
2
 10
-136.026
 20
79.371
  0
TEXT
  8
14
 10
-136.026
 20
79.371
 40
3.0
  1
# 33
  0
POINT
  8
3
 10
-111.983
 20
79.371
  0
POINT
  8
2
 10
156.965
 20
79.371
  0
TEXT
  8
14
 10
156.965
 20
79.371
 40
3.0
  1
# 34
  0
LINE
  8
7
 10
0.000
 20
0.000
 11
17.602
 21
0.000
  0
POINT
  8
2
 10
0.000
 20
0.000
  0
TEXT
  8
7
 10
0.000
 20
0.000
 40
3.0
  1
# 37
  0
POINT
  8
2
 10
17.602
 20
0.000
  0
TEXT
  8
7
 10
17.602
 20
0.000
 40
3.0
  1
# 38
  0
TEXT
  8
15
 10
14.413
 20
39.447
 40
0.125
 50
0.000
  1
Template
  0
TEXT
  8
15
 10
14.413
 20
39.447
 40
3.0
  1
# 39
  0
TEXT
  8
1
 10
0.000
 20
0.000
 40
3.0
  1
Piece Name: 910588V20000.XBL
  0
TEXT
  8
1
 10
0.000
 20
5.000
 40
3.0
  1
Size: T38
  0
TEXT
  8
1
 10
0.000
 20
10.000
 40
3.0
  1
Annotation:TEMPLATE FRONT POCKET
  0
TEXT
  8
1
 10
0.000
 20
15.000
 40
3.0
  1
Quantity: 1
  0
TEXT
  8
1
 10
0.000
 20
20.000
 40
3.0
  1
Category: P PLANTILLA
  0
ENDBLK
  0
BLOCK
  8
1
  2
910588V20000XBT
 70
0
 10
0.0
 20
0.0
  0
POLYLINE
  8
1
 66
1
 70
    1
  0
VERTEX
  8
1
 10
119.195
 20
-79.394
  0
VERTEX
  8
1
 10
-19.919
 20
-64.494
  0
VERTEX
  8
1
 10
-49.730
 20
0.594
  0
VERTEX
  8
1
 10
-19.919
 20
65.682
  0
VERTEX
  8
1
 10
119.195
 20
80.582
  0
VERTEX
  8
1
 10
119.195
 20
-79.394
  0
SEQEND
  0
POINT
  8
2
 10
119.195
 20
-79.394
  0
TEXT
  8
1
 10
119.195
 20
-79.394
 40
3.0
  1
# 1
  0
POINT
  8
2
 10
-19.919
 20
-64.494
  0
TEXT
  8
1
 10
-19.919
 20
-64.494
 40
3.0
  1
# 2
  0
POINT
  8
2
 10
-49.730
 20
0.594
  0
TEXT
  8
1
 10
-49.730
 20
0.594
 40
3.0
  1
# 3
  0
POINT
  8
2
 10
-19.919
 20
65.682
  0
TEXT
  8
1
 10
-19.919
 20
65.682
 40
3.0
  1
# 4
  0
POINT
  8
2
 10
119.195
 20
80.582
  0
TEXT
  8
1
 10
119.195
 20
80.582
 40
3.0
  1
# 5
  0
POINT
  8
2
 10
119.195
 20
-79.394
  0
TEXT
  8
1
 10
119.195
 20
-79.394
 40
3.0
  1
# 6
  0
POLYLINE
  8
8
 66
1
 70
    1
  0
VERTEX
  8
8
 10
115.412
 20
77.604
  0
VERTEX
  8
8
 10
115.412
 20
65.664
  0
VERTEX
  8
8
 10
-15.151
 20
59.296
  0
VERTEX
  8
8
 10
-41.788
 20
0.594
  0
VERTEX
  8
8
 10
-15.152
 20
-58.107
  0
VERTEX
  8
8
 10
115.412
 20
-64.475
  0
VERTEX
  8
8
 10
115.412
 20
-76.416
  0
VERTEX
  8
8
 10
-18.558
 20
-62.669
  0
VERTEX
  8
8
 10
-47.461
 20
0.594
  0
VERTEX
  8
8
 10
-18.557
 20
63.857
  0
VERTEX
  8
8
 10
115.412
 20
77.604
  0
SEQEND
  0
POINT
  8
2
 10
115.412
 20
77.604
  0
TEXT
  8
8
 10
115.412
 20
77.604
 40
3.0
  1
# 7
  0
POINT
  8
2
 10
115.412
 20
65.664
  0
TEXT
  8
8
 10
115.412
 20
65.664
 40
3.0
  1
# 8
  0
POINT
  8
2
 10
-15.151
 20
59.296
  0
TEXT
  8
8
 10
-15.151
 20
59.296
 40
3.0
  1
# 9
  0
POINT
  8
2
 10
-41.788
 20
0.594
  0
TEXT
  8
8
 10
-41.788
 20
0.594
 40
3.0
  1
# 10
  0
POINT
  8
2
 10
-15.152
 20
-58.107
  0
TEXT
  8
8
 10
-15.152
 20
-58.107
 40
3.0
  1
# 11
  0
POINT
  8
2
 10
115.412
 20
-64.475
  0
TEXT
  8
8
 10
115.412
 20
-64.475
 40
3.0
  1
# 12
  0
POINT
  8
2
 10
115.412
 20
-76.416
  0
TEXT
  8
8
 10
115.412
 20
-76.416
 40
3.0
  1
# 13
  0
POINT
  8
2
 10
-18.558
 20
-62.669
  0
TEXT
  8
8
 10
-18.558
 20
-62.669
 40
3.0
  1
# 14
  0
POINT
  8
2
 10
-47.461
 20
0.594
  0
TEXT
  8
8
 10
-47.461
 20
0.594
 40
3.0
  1
# 15
  0
POINT
  8
2
 10
-18.557
 20
63.857
  0
TEXT
  8
8
 10
-18.557
 20
63.857
 40
3.0
  1
# 16
  0
POINT
  8
2
 10
115.412
 20
77.604
  0
TEXT
  8
8
 10
115.412
 20
77.604
 40
3.0
  1
# 17
  0
POLYLINE
  8
8
 66
1
 70
    0
  0
VERTEX
  8
8
 10
109.195
 20
78.582
  0
VERTEX
  8
8
 10
109.195
 20
-77.394
  0
SEQEND
  0
POINT
  8
2
 10
109.195
 20
78.582
  0
TEXT
  8
8
 10
109.195
 20
78.582
 40
3.0
  1
# 18
  0
POINT
  8
2
 10
109.195
 20
-77.394
  0
TEXT
  8
8
 10
109.195
 20
-77.394
 40
3.0
  1
# 19
  0
LINE
  8
7
 10
0.000
 20
0.000
 11
68.992
 21
0.000
  0
POINT
  8
2
 10
0.000
 20
0.000
  0
TEXT
  8
7
 10
0.000
 20
0.000
 40
3.0
  1
# 22
  0
POINT
  8
2
 10
68.992
 20
0.000
  0
TEXT
  8
7
 10
68.992
 20
0.000
 40
3.0
  1
# 23
  0
TEXT
  8
15
 10
41.364
 20
27.635
 40
0.128
 50
0.000
  1
Template
  0
TEXT
  8
15
 10
41.364
 20
27.635
 40
3.0
  1
# 24
  0
TEXT
  8
1
 10
0.000
 20
0.000
 40
3.0
  1
Piece Name: 910588V20000.XBT
  0
TEXT
  8
1
 10
0.000
 20
5.000
 40
3.0
  1
Size: T38
  0
TEXT
  8
1
 10
0.000
 20
10.000
 40
3.0
  1
Annotation: TEMPLATE BACK POCKET
  0
TEXT
  8
1
 10
0.000
 20
15.000
 40
3.0
  1
Quantity: 1
  0
TEXT
  8
1
 10
0.000
 20
20.000
 40
3.0
  1
Category: Plantilla
  0
ENDBLK
  0
BLOCK
  8
1
  2
910588V20000XBZ
 70
0
 10
0.0
 20
0.0
  0
POLYLINE
  8
1
 66
1
 70
    1
  0
VERTEX
  8
1
 10
-114.292
 20
-79.170
  0
VERTEX
  8
1
 10
-114.292
 20
140.774
  0
VERTEX
  8
1
 10
-89.312
 20
140.774
  0
VERTEX
  8
1
 10
136.538
 20
140.774
  0
VERTEX
  8
1
 10
136.538
 20
85.788
  0
VERTEX
  8
1
 10
136.538
 20
30.802
  0
VERTEX
  8
1
 10
136.538
 20
8.807
  0
VERTEX
  8
1
 10
136.538
 20
-13.187
  0
VERTEX
  8
1
 10
136.538
 20
-35.181
  0
VERTEX
  8
1
 10
136.538
 20
-57.176
  0
VERTEX
  8
1
 10
136.538
 20
-79.170
  0
VERTEX
  8
1
 10
-89.312
 20
-79.170
  0
VERTEX
  8
1
 10
-114.292
 20
-79.170
  0
SEQEND
  0
POINT
  8
2
 10
-114.292
 20
-79.170
  0
TEXT
  8
1
 10
-114.292
 20
-79.170
 40
3.0
  1
# 1
  0
POINT
  8
2
 10
-114.292
 20
140.774
  0
TEXT
  8
1
 10
-114.292
 20
140.774
 40
3.0
  1
# 2
  0
POINT
  8
3
 10
-89.312
 20
140.774
  0
POINT
  8
2
 10
136.538
 20
140.774
  0
TEXT
  8
1
 10
136.538
 20
140.774
 40
3.0
  1
# 3
  0
POINT
  8
3
 10
136.538
 20
85.788
  0
POINT
  8
2
 10
136.538
 20
30.802
  0
TEXT
  8
1
 10
136.538
 20
30.802
 40
3.0
  1
# 4
  0
POINT
  8
3
 10
136.538
 20
8.807
  0
POINT
  8
3
 10
136.538
 20
-13.187
  0
POINT
  8
3
 10
136.538
 20
-35.181
  0
POINT
  8
3
 10
136.538
 20
-57.176
  0
POINT
  8
2
 10
136.538
 20
-79.170
  0
TEXT
  8
1
 10
136.538
 20
-79.170
 40
3.0
  1
# 5
  0
POINT
  8
3
 10
-89.312
 20
-79.170
  0
POINT
  8
2
 10
-114.292
 20
-79.170
  0
TEXT
  8
1
 10
-114.292
 20
-79.170
 40
3.0
  1
# 6
  0
POLYLINE
  8
8
 66
1
 70
    0
  0
VERTEX
  8
8
 10
111.538
 20
140.774
  0
VERTEX
  8
8
 10
111.538
 20
97.660
  0
VERTEX
  8
8
 10
111.538
 20
54.546
  0
VERTEX
  8
8
 10
111.538
 20
30.802
  0
VERTEX
  8
8
 10
111.538
 20
7.057
  0
VERTEX
  8
8
 10
111.538
 20
-36.057
  0
VERTEX
  8
8
 10
111.538
 20
-79.170
  0
SEQEND
  0
POINT
  8
2
 10
111.538
 20
140.774
  0
TEXT
  8
8
 10
111.538
 20
140.774
 40
3.0
  1
# 7
  0
POINT
  8
3
 10
111.538
 20
97.660
  0
POINT
  8
3
 10
111.538
 20
54.546
  0
POINT
  8
3
 10
111.538
 20
30.802
  0
POINT
  8
3
 10
111.538
 20
7.057
  0
POINT
  8
3
 10
111.538
 20
-36.057
  0
POINT
  8
2
 10
111.538
 20
-79.170
  0
TEXT
  8
8
 10
111.538
 20
-79.170
 40
3.0
  1
# 8
  0
POLYLINE
  8
8
 66
1
 70
    1
  0
VERTEX
  8
8
 10
135.038
 20
-72.170
  0
VERTEX
  8
8
 10
-91.039
 20
-72.170
  0
VERTEX
  8
8
 10
-107.292
 20
-72.170
  0
VERTEX
  8
8
 10
-107.292
 20
133.774
  0
VERTEX
  8
8
 10
-91.039
 20
133.774
  0
VERTEX
  8
8
 10
135.038
 20
133.774
  0
VERTEX
  8
8
 10
135.038
 20
139.274
  0
VERTEX
  8
8
 10
-89.790
 20
139.274
  0
VERTEX
  8
8
 10
-112.792
 20
139.274
  0
VERTEX
  8
8
 10
-112.792
 20
-77.670
  0
VERTEX
  8
8
 10
-89.790
 20
-77.670
  0
VERTEX
  8
8
 10
135.038
 20
-77.670
  0
VERTEX
  8
8
 10
135.038
 20
-72.170
  0
SEQEND
  0
POINT
  8
2
 10
135.038
 20
-72.170
  0
TEXT
  8
8
 10
135.038
 20
-72.170
 40
3.0
  1
# 9
  0
POINT
  8
3
 10
-91.039
 20
-72.170
  0
POINT
  8
2
 10
-107.292
 20
-72.170
  0
TEXT
  8
8
 10
-107.292
 20
-72.170
 40
3.0
  1
# 10
  0
POINT
  8
2
 10
-107.292
 20
133.774
  0
TEXT
  8
8
 10
-107.292
 20
133.774
 40
3.0
  1
# 11
  0
POINT
  8
3
 10
-91.039
 20
133.774
  0
POINT
  8
2
 10
135.038
 20
133.774
  0
TEXT
  8
8
 10
135.038
 20
133.774
 40
3.0
  1
# 12
  0
POINT
  8
2
 10
135.038
 20
139.274
  0
TEXT
  8
8
 10
135.038
 20
139.274
 40
3.0
  1
# 13
  0
POINT
  8
3
 10
-89.790
 20
139.274
  0
POINT
  8
2
 10
-112.792
 20
139.274
  0
TEXT
  8
8
 10
-112.792
 20
139.274
 40
3.0
  1
# 14
  0
POINT
  8
2
 10
-112.792
 20
-77.670
  0
TEXT
  8
8
 10
-112.792
 20
-77.670
 40
3.0
  1
# 15
  0
POINT
  8
3
 10
-89.790
 20
-77.670
  0
POINT
  8
2
 10
135.038
 20
-77.670
  0
TEXT
  8
8
 10
135.038
 20
-77.670
 40
3.0
  1
# 16
  0
POINT
  8
2
 10
135.038
 20
-72.170
  0
TEXT
  8
8
 10
135.038
 20
-72.170
 40
3.0
  1
# 17
  0
LINE
  8
7
 10
0.000
 20
0.000
 11
29.188
 21
0.000
  0
POINT
  8
2
 10
0.000
 20
0.000
  0
TEXT
  8
7
 10
0.000
 20
0.000
 40
3.0
  1
# 20
  0
POINT
  8
2
 10
29.188
 20
0.000
  0
TEXT
  8
7
 10
29.188
 20
0.000
 40
3.0
  1
# 21
  0
TEXT
  8
15
 10
53.874
 20
-37.410
 40
0.167
 50
0.000
  1
Pocket
  0
TEXT
  8
15
 10
53.874
 20
-37.410
 40
3.0
  1
# 22
  0
TEXT
  8
15
 10
57.171
 20
29.380
 40
0.125
 50
0.000
  1
Template
  0
TEXT
  8
15
 10
57.171
 20
29.380
 40
3.0
  1
# 23
  0
TEXT
  8
1
 10
0.000
 20
0.000
 40
3.0
  1
Piece Name: 910588V20000.XBZ
  0
TEXT
  8
1
 10
0.000
 20
5.000
 40
3.0
  1
Size: T38
  0
TEXT
  8
1
 10
0.000
 20
10.000
 40
3.0
  1
Annotation:TEMPLATE LEFT POCKET
  0
TEXT
  8
1
 10
0.000
 20
15.000
 40
3.0
  1
Quantity: 1
  0
TEXT
  8
1
 10
0.000
 20
20.000
 40
3.0
  1
Category: Plantilla
  0
ENDBLK
  0
BLOCK
  8
1
  2
910588V20000XCA
 70
0
 10
0.0
 20
0.0
  0
POLYLINE
  8
1
 66
1
 70
    1
  0
VERTEX
  8
1
 10
-8.500
 20
-70.500
  0
VERTEX
  8
1
 10
-28.500
 20
0.000
  0
VERTEX
  8
1
 10
-8.500
 20
70.500
  0
VERTEX
  8
1
 10
31.500
 20
70.500
  0
VERTEX
  8
1
 10
31.500
 20
0.000
  0
VERTEX
  8
1
 10
31.500
 20
-70.500
  0
VERTEX
  8
1
 10
-8.500
 20
-70.500
  0
SEQEND
  0
POINT
  8
2
 10
-8.500
 20
-70.500
  0
TEXT
  8
1
 10
-8.500
 20
-70.500
 40
3.0
  1
# 1
  0
POINT
  8
2
 10
-28.500
 20
0.000
  0
TEXT
  8
1
 10
-28.500
 20
0.000
 40
3.0
  1
# 2
  0
POINT
  8
2
 10
-8.500
 20
70.500
  0
TEXT
  8
1
 10
-8.500
 20
70.500
 40
3.0
  1
# 3
  0
POINT
  8
2
 10
31.500
 20
70.500
  0
TEXT
  8
1
 10
31.500
 20
70.500
 40
3.0
  1
# 4
  0
POINT
  8
2
 10
31.500
 20
0.000
  0
TEXT
  8
1
 10
31.500
 20
0.000
 40
3.0
  1
# 5
  0
POINT
  8
2
 10
31.500
 20
-70.500
  0
TEXT
  8
1
 10
31.500
 20
-70.500
 40
3.0
  1
# 6
  0
POINT
  8
2
 10
-8.500
 20
-70.500
  0
TEXT
  8
1
 10
-8.500
 20
-70.500
 40
3.0
  1
# 7
  0
POLYLINE
  8
8
 66
1
 70
    0
  0
VERTEX
  8
8
 10
31.500
 20
-64.500
  0
VERTEX
  8
8
 10
-2.500
 20
-64.500
  0
VERTEX
  8
8
 10
-22.500
 20
0.000
  0
VERTEX
  8
8
 10
-2.500
 20
64.500
  0
VERTEX
  8
8
 10
31.500
 20
64.500
  0
SEQEND
  0
POINT
  8
2
 10
31.500
 20
-64.500
  0
TEXT
  8
8
 10
31.500
 20
-64.500
 40
3.0
  1
# 8
  0
POINT
  8
2
 10
-2.500
 20
-64.500
  0
TEXT
  8
8
 10
-2.500
 20
-64.500
 40
3.0
  1
# 9
  0
POINT
  8
2
 10
-22.500
 20
0.000
  0
TEXT
  8
8
 10
-22.500
 20
0.000
 40
3.0
  1
# 10
  0
POINT
  8
2
 10
-2.500
 20
64.500
  0
TEXT
  8
8
 10
-2.500
 20
64.500
 40
3.0
  1
# 11
  0
POINT
  8
2
 10
31.500
 20
64.500
  0
TEXT
  8
8
 10
31.500
 20
64.500
 40
3.0
  1
# 12
  0
POLYLINE
  8
8
 66
1
 70
    0
  0
VERTEX
  8
8
 10
23.500
 20
70.500
  0
VERTEX
  8
8
 10
23.500
 20
0.000
  0
VERTEX
  8
8
 10
23.500
 20
-70.500
  0
SEQEND
  0
POINT
  8
2
 10
23.500
 20
70.500
  0
TEXT
  8
8
 10
23.500
 20
70.500
 40
3.0
  1
# 13
  0
POINT
  8
2
 10
23.500
 20
0.000
  0
TEXT
  8
8
 10
23.500
 20
0.000
 40
3.0
  1
# 14
  0
POINT
  8
2
 10
23.500
 20
-70.500
  0
TEXT
  8
8
 10
23.500
 20
-70.500
 40
3.0
  1
# 15
  0
LINE
  8
7
 10
0.000
 20
0.000
 11
21.000
 21
0.000
  0
POINT
  8
2
 10
0.000
 20
0.000
  0
TEXT
  8
7
 10
0.000
 20
0.000
 40
3.0
  1
# 18
  0
POINT
  8
2
 10
21.000
 20
0.000
  0
TEXT
  8
7
 10
21.000
 20
0.000
 40
3.0
  1
# 19
  0
TEXT
  8
15
 10
12.795
 20
19.314
 40
0.125
 50
0.000
  1
Template
  0
TEXT
  8
15
 10
12.795
 20
19.314
 40
3.0
  1
# 20
  0
TEXT
  8
1
 10
0.000
 20
0.000
 40
3.0
  1
Piece Name: 910588V20000.XCA
  0
TEXT
  8
1
 10
0.000
 20
5.000
 40
3.0
  1
Size: T38
  0
TEXT
  8
1
 10
0.000
 20
10.000
 40
3.0
  1
Annotation:TEMPLATE FRONT FLAP
  0
TEXT
  8
1
 10
0.000
 20
15.000
 40
3.0
  1
Quantity: 1
  0
TEXT
  8
1
 10
0.000
 20
20.000
 40
3.0
  1
Category: Plantilla
  0
ENDBLK
  0
BLOCK
  8
1
  2
910588V20000XCD
 70
0
 10
0.0
 20
0.0
  0
POLYLINE
  8
1
 66
1
 70
    1
  0
VERTEX
  8
1
 10
-24.035
 20
-78.082
  0
VERTEX
  8
1
 10
-24.035
 20
26.918
  0
VERTEX
  8
1
 10
-24.035
 20
131.918
  0
VERTEX
  8
1
 10
37.965
 20
131.918
  0
VERTEX
  8
1
 10
37.965
 20
79.418
  0
VERTEX
  8
1
 10
37.965
 20
26.918
  0
VERTEX
  8
1
 10
37.965
 20
-25.582
  0
VERTEX
  8
1
 10
37.965
 20
-78.082
  0
VERTEX
  8
1
 10
-24.035
 20
-78.082
  0
SEQEND
  0
POINT
  8
2
 10
-24.035
 20
-78.082
  0
TEXT
  8
1
 10
-24.035
 20
-78.082
 40
3.0
  1
# 1
  0
POINT
  8
3
 10
-24.035
 20
26.918
  0
POINT
  8
2
 10
-24.035
 20
131.918
  0
TEXT
  8
1
 10
-24.035
 20
131.918
 40
3.0
  1
# 2
  0
POINT
  8
2
 10
37.965
 20
131.918
  0
TEXT
  8
1
 10
37.965
 20
131.918
 40
3.0
  1
# 3
  0
POINT
  8
3
 10
37.965
 20
79.418
  0
POINT
  8
2
 10
37.965
 20
26.918
  0
TEXT
  8
1
 10
37.965
 20
26.918
 40
3.0
  1
# 4
  0
POINT
  8
3
 10
37.965
 20
-25.582
  0
POINT
  8
2
 10
37.965
 20
-78.082
  0
TEXT
  8
1
 10
37.965
 20
-78.082
 40
3.0
  1
# 5
  0
POINT
  8
2
 10
-24.035
 20
-78.082
  0
TEXT
  8
1
 10
-24.035
 20
-78.082
 40
3.0
  1
# 6
  0
POLYLINE
  8
8
 66
1
 70
    0
  0
VERTEX
  8
8
 10
29.965
 20
131.918
  0
VERTEX
  8
8
 10
29.965
 20
67.954
  0
VERTEX
  8
8
 10
29.965
 20
26.918
  0
VERTEX
  8
8
 10
29.965
 20
-14.116
  0
VERTEX
  8
8
 10
29.965
 20
-78.082
  0
SEQEND
  0
POINT
  8
2
 10
29.965
 20
131.918
  0
TEXT
  8
8
 10
29.965
 20
131.918
 40
3.0
  1
# 7
  0
POINT
  8
3
 10
29.965
 20
67.954
  0
POINT
  8
3
 10
29.965
 20
26.918
  0
POINT
  8
3
 10
29.965
 20
-14.116
  0
POINT
  8
2
 10
29.965
 20
-78.082
  0
TEXT
  8
8
 10
29.965
 20
-78.082
 40
3.0
  1
# 8
  0
POLYLINE
  8
8
 66
1
 70
    0
  0
VERTEX
  8
8
 10
37.965
 20
-72.082
  0
VERTEX
  8
8
 10
-18.035
 20
-72.082
  0
VERTEX
  8
8
 10
-18.035
 20
26.918
  0
VERTEX
  8
8
 10
-18.035
 20
125.918
  0
VERTEX
  8
8
 10
37.965
 20
125.918
  0
SEQEND
  0
POINT
  8
2
 10
37.965
 20
-72.082
  0
TEXT
  8
8
 10
37.965
 20
-72.082
 40
3.0
  1
# 9
  0
POINT
  8
2
 10
-18.035
 20
-72.082
  0
TEXT
  8
8
 10
-18.035
 20
-72.082
 40
3.0
  1
# 10
  0
POINT
  8
3
 10
-18.035
 20
26.918
  0
POINT
  8
2
 10
-18.035
 20
125.918
  0
TEXT
  8
8
 10
-18.035
 20
125.918
 40
3.0
  1
# 11
  0
POINT
  8
2
 10
37.965
 20
125.918
  0
TEXT
  8
8
 10
37.965
 20
125.918
 40
3.0
  1
# 12
  0
LINE
  8
7
 10
0.000
 20
0.000
 11
11.217
 21
0.000
  0
POINT
  8
2
 10
0.000
 20
0.000
  0
TEXT
  8
7
 10
0.000
 20
0.000
 40
3.0
  1
# 15
  0
POINT
  8
2
 10
11.217
 20
0.000
  0
TEXT
  8
7
 10
11.217
 20
0.000
 40
3.0
  1
# 16
  0
TEXT
  8
15
 10
14.619
 20
26.139
 40
0.125
 50
0.000
  1
Template
  0
TEXT
  8
15
 10
14.619
 20
26.139
 40
3.0
  1
# 17
  0
TEXT
  8
1
 10
0.000
 20
0.000
 40
3.0
  1
Piece Name: 910588V20000.XCD
  0
TEXT
  8
1
 10
0.000
 20
5.000
 40
3.0
  1
Size: T38
  0
TEXT
  8
1
 10
0.000
 20
10.000
 40
3.0
  1
Annotation:TEMPLATE RIGHT FLAP
  0
TEXT
  8
1
 10
0.000
 20
15.000
 40
3.0
  1
Quantity: 1
  0
TEXT
  8
1
 10
0.000
 20
20.000
 40
3.0
  1
Category: Plantilla
  0
ENDBLK
  0
BLOCK
  8
1
  2
910588V20000XCF
 70
0
 10
0.0
 20
0.0
  0
POLYLINE
  8
1
 66
1
 70
    1
  0
VERTEX
  8
1
 10
-10.500
 20
-47.500
  0
VERTEX
  8
1
 10
-10.500
 20
47.500
  0
VERTEX
  8
1
 10
31.500
 20
47.500
  0
VERTEX
  8
1
 10
31.500
 20
0.000
  0
VERTEX
  8
1
 10
31.500
 20
-47.500
  0
VERTEX
  8
1
 10
-10.500
 20
-47.500
  0
SEQEND
  0
POINT
  8
2
 10
-10.500
 20
-47.500
  0
TEXT
  8
1
 10
-10.500
 20
-47.500
 40
3.0
  1
# 1
  0
POINT
  8
2
 10
-10.500
 20
47.500
  0
TEXT
  8
1
 10
-10.500
 20
47.500
 40
3.0
  1
# 2
  0
POINT
  8
2
 10
31.500
 20
47.500
  0
TEXT
  8
1
 10
31.500
 20
47.500
 40
3.0
  1
# 3
  0
POINT
  8
2
 10
31.500
 20
0.000
  0
TEXT
  8
1
 10
31.500
 20
0.000
 40
3.0
  1
# 4
  0
POINT
  8
2
 10
31.500
 20
-47.500
  0
TEXT
  8
1
 10
31.500
 20
-47.500
 40
3.0
  1
# 5
  0
POINT
  8
2
 10
-10.500
 20
-47.500
  0
TEXT
  8
1
 10
-10.500
 20
-47.500
 40
3.0
  1
# 6
  0
POLYLINE
  8
8
 66
1
 70
    0
  0
VERTEX
  8
8
 10
31.500
 20
-41.500
  0
VERTEX
  8
8
 10
-4.500
 20
-41.500
  0
VERTEX
  8
8
 10
-4.500
 20
41.500
  0
VERTEX
  8
8
 10
31.500
 20
41.500
  0
SEQEND
  0
POINT
  8
2
 10
31.500
 20
-41.500
  0
TEXT
  8
8
 10
31.500
 20
-41.500
 40
3.0
  1
# 7
  0
POINT
  8
2
 10
-4.500
 20
-41.500
  0
TEXT
  8
8
 10
-4.500
 20
-41.500
 40
3.0
  1
# 8
  0
POINT
  8
2
 10
-4.500
 20
41.500
  0
TEXT
  8
8
 10
-4.500
 20
41.500
 40
3.0
  1
# 9
  0
POINT
  8
2
 10
31.500
 20
41.500
  0
TEXT
  8
8
 10
31.500
 20
41.500
 40
3.0
  1
# 10
  0
POLYLINE
  8
8
 66
1
 70
    0
  0
VERTEX
  8
8
 10
23.500
 20
47.500
  0
VERTEX
  8
8
 10
23.500
 20
0.000
  0
VERTEX
  8
8
 10
23.500
 20
-47.500
  0
SEQEND
  0
POINT
  8
2
 10
23.500
 20
47.500
  0
TEXT
  8
8
 10
23.500
 20
47.500
 40
3.0
  1
# 11
  0
POINT
  8
2
 10
23.500
 20
0.000
  0
TEXT
  8
8
 10
23.500
 20
0.000
 40
3.0
  1
# 12
  0
POINT
  8
2
 10
23.500
 20
-47.500
  0
TEXT
  8
8
 10
23.500
 20
-47.500
 40
3.0
  1
# 13
  0
LINE
  8
7
 10
0.000
 20
0.000
 11
21.000
 21
0.000
  0
POINT
  8
2
 10
0.000
 20
0.000
  0
TEXT
  8
7
 10
0.000
 20
0.000
 40
3.0
  1
# 16
  0
POINT
  8
2
 10
21.000
 20
0.000
  0
TEXT
  8
7
 10
21.000
 20
0.000
 40
3.0
  1
# 17
  0
TEXT
  8
15
 10
12.795
 20
19.314
 40
0.125
 50
0.000
  1
Template
  0
TEXT
  8
15
 10
12.795
 20
19.314
 40
3.0
  1
# 18
  0
TEXT
  8
1
 10
0.000
 20
0.000
 40
3.0
  1
Piece Name: 910588V20000.XCF
  0
TEXT
  8
1
 10
0.000
 20
5.000
 40
3.0
  1
Size: T38
  0
TEXT
  8
1
 10
0.000
 20
10.000
 40
3.0
  1
Annotation:TEMPLATE FLAP
  0
TEXT
  8
1
 10
0.000
 20
15.000
 40
3.0
  1
Quantity: 1
  0
TEXT
  8
1
 10
0.000
 20
20.000
 40
3.0
  1
Category: Plantilla
  0
ENDBLK
  0
BLOCK
  8
1
  2
910588V20000XCZ
 70
0
 10
0.0
 20
0.0
  0
POLYLINE
  8
1
 66
1
 70
    1
  0
VERTEX
  8
1
 10
-27.035
 20
-88.082
  0
VERTEX
  8
1
 10
-27.035
 20
26.918
  0
VERTEX
  8
1
 10
-27.035
 20
141.918
  0
VERTEX
  8
1
 10
37.965
 20
141.918
  0
VERTEX
  8
1
 10
37.965
 20
84.418
  0
VERTEX
  8
1
 10
37.965
 20
26.918
  0
VERTEX
  8
1
 10
37.965
 20
-30.582
  0
VERTEX
  8
1
 10
37.965
 20
-88.082
  0
VERTEX
  8
1
 10
-27.035
 20
-88.082
  0
SEQEND
  0
POINT
  8
2
 10
-27.035
 20
-88.082
  0
TEXT
  8
1
 10
-27.035
 20
-88.082
 40
3.0
  1
# 1
  0
POINT
  8
3
 10
-27.035
 20
26.918
  0
POINT
  8
2
 10
-27.035
 20
141.918
  0
TEXT
  8
1
 10
-27.035
 20
141.918
 40
3.0
  1
# 2
  0
POINT
  8
2
 10
37.965
 20
141.918
  0
TEXT
  8
1
 10
37.965
 20
141.918
 40
3.0
  1
# 3
  0
POINT
  8
3
 10
37.965
 20
84.418
  0
POINT
  8
2
 10
37.965
 20
26.918
  0
TEXT
  8
1
 10
37.965
 20
26.918
 40
3.0
  1
# 4
  0
POINT
  8
3
 10
37.965
 20
-30.582
  0
POINT
  8
2
 10
37.965
 20
-88.082
  0
TEXT
  8
1
 10
37.965
 20
-88.082
 40
3.0
  1
# 5
  0
POINT
  8
2
 10
-27.035
 20
-88.082
  0
TEXT
  8
1
 10
-27.035
 20
-88.082
 40
3.0
  1
# 6
  0
POLYLINE
  8
8
 66
1
 70
    0
  0
VERTEX
  8
8
 10
29.965
 20
141.918
  0
VERTEX
  8
8
 10
29.965
 20
71.862
  0
VERTEX
  8
8
 10
29.965
 20
26.918
  0
VERTEX
  8
8
 10
29.965
 20
-18.024
  0
VERTEX
  8
8
 10
29.965
 20
-88.082
  0
SEQEND
  0
POINT
  8
2
 10
29.965
 20
141.918
  0
TEXT
  8
8
 10
29.965
 20
141.918
 40
3.0
  1
# 7
  0
POINT
  8
3
 10
29.965
 20
71.862
  0
POINT
  8
3
 10
29.965
 20
26.918
  0
POINT
  8
3
 10
29.965
 20
-18.024
  0
POINT
  8
2
 10
29.965
 20
-88.082
  0
TEXT
  8
8
 10
29.965
 20
-88.082
 40
3.0
  1
# 8
  0
POLYLINE
  8
8
 66
1
 70
    0
  0
VERTEX
  8
8
 10
37.965
 20
-82.082
  0
VERTEX
  8
8
 10
-21.035
 20
-82.082
  0
VERTEX
  8
8
 10
-21.035
 20
26.918
  0
VERTEX
  8
8
 10
-21.035
 20
135.918
  0
VERTEX
  8
8
 10
37.965
 20
135.918
  0
SEQEND
  0
POINT
  8
2
 10
37.965
 20
-82.082
  0
TEXT
  8
8
 10
37.965
 20
-82.082
 40
3.0
  1
# 9
  0
POINT
  8
2
 10
-21.035
 20
-82.082
  0
TEXT
  8
8
 10
-21.035
 20
-82.082
 40
3.0
  1
# 10
  0
POINT
  8
3
 10
-21.035
 20
26.918
  0
POINT
  8
2
 10
-21.035
 20
135.918
  0
TEXT
  8
8
 10
-21.035
 20
135.918
 40
3.0
  1
# 11
  0
POINT
  8
2
 10
37.965
 20
135.918
  0
TEXT
  8
8
 10
37.965
 20
135.918
 40
3.0
  1
# 12
  0
LINE
  8
7
 10
0.000
 20
0.000
 11
11.217
 21
0.000
  0
POINT
  8
2
 10
0.000
 20
0.000
  0
TEXT
  8
7
 10
0.000
 20
0.000
 40
3.0
  1
# 15
  0
POINT
  8
2
 10
11.217
 20
0.000
  0
TEXT
  8
7
 10
11.217
 20
0.000
 40
3.0
  1
# 16
  0
TEXT
  8
15
 10
14.619
 20
26.139
 40
0.125
 50
0.000
  1
Template
  0
TEXT
  8
15
 10
14.619
 20
26.139
 40
3.0
  1
# 17
  0
TEXT
  8
1
 10
0.000
 20
0.000
 40
3.0
  1
Piece Name: 910588V20000.XCZ
  0
TEXT
  8
1
 10
0.000
 20
5.000
 40
3.0
  1
Size: T38
  0
TEXT
  8
1
 10
0.000
 20
10.000
 40
3.0
  1
Annotation:TEMPLATE LEFT FLAP
  0
TEXT
  8
1
 10
0.000
 20
15.000
 40
3.0
  1
Quantity: 1
  0
TEXT
  8
1
 10
0.000
 20
20.000
 40
3.0
  1
Category: Plantilla
  0
ENDBLK
  0
BLOCK
  8
1
  2
910588V20000XPB
 70
0
 10
0.0
 20
0.0
  0
POLYLINE
  8
1
 66
1
 70
    1
  0
VERTEX
  8
1
 10
75.013
 20
-20.727
  0
VERTEX
  8
1
 10
-81.201
 20
-20.682
  0
VERTEX
  8
1
 10
-84.553
 20
-20.377
  0
VERTEX
  8
1
 10
-87.876
 20
-19.826
  0
VERTEX
  8
1
 10
-91.157
 20
-19.030
  0
VERTEX
  8
1
 10
-94.368
 20
-17.990
  0
VERTEX
  8
1
 10
-97.478
 20
-16.714
  0
VERTEX
  8
1
 10
-100.478
 20
-15.198
  0
VERTEX
  8
1
 10
-103.338
 20
-13.444
  0
VERTEX
  8
1
 10
-106.037
 20
-11.452
  0
VERTEX
  8
1
 10
-108.534
 20
-9.240
  0
VERTEX
  8
1
 10
-110.831
 20
-6.820
  0
VERTEX
  8
1
 10
-112.917
 20
-4.212
  0
VERTEX
  8
1
 10
-114.779
 20
-1.439
  0
VERTEX
  8
1
 10
-116.398
 20
1.456
  0
VERTEX
  8
1
 10
-117.784
 20
4.470
  0
VERTEX
  8
1
 10
-118.936
 20
7.576
  0
VERTEX
  8
1
 10
-119.856
 20
10.758
  0
VERTEX
  8
1
 10
-120.735
 20
15.171
  0
VERTEX
  8
1
 10
-121.183
 20
19.646
  0
VERTEX
  8
1
 10
-115.780
 20
19.646
  0
VERTEX
  8
1
 10
-110.376
 20
19.646
  0
VERTEX
  8
1
 10
-104.972
 20
19.646
  0
VERTEX
  8
1
 10
70.195
 20
19.646
  0
VERTEX
  8
1
 10
74.166
 20
-14.479
  0
VERTEX
  8
1
 10
74.335
 20
-15.728
  0
VERTEX
  8
1
 10
75.013
 20
-20.727
  0
SEQEND
  0
POINT
  8
2
 10
75.013
 20
-20.727
  0
TEXT
  8
1
 10
75.013
 20
-20.727
 40
3.0
  1
# 1
  0
POINT
  8
2
 10
-81.201
 20
-20.682
  0
TEXT
  8
1
 10
-81.201
 20
-20.682
 40
3.0
  1
# 2
  0
POINT
  8
3
 10
-84.553
 20
-20.377
  0
POINT
  8
3
 10
-87.876
 20
-19.826
  0
POINT
  8
3
 10
-91.157
 20
-19.030
  0
POINT
  8
3
 10
-94.368
 20
-17.990
  0
POINT
  8
3
 10
-97.478
 20
-16.714
  0
POINT
  8
3
 10
-100.478
 20
-15.198
  0
POINT
  8
3
 10
-103.338
 20
-13.444
  0
POINT
  8
3
 10
-106.037
 20
-11.452
  0
POINT
  8
3
 10
-108.534
 20
-9.240
  0
POINT
  8
3
 10
-110.831
 20
-6.820
  0
POINT
  8
3
 10
-112.917
 20
-4.212
  0
POINT
  8
3
 10
-114.779
 20
-1.439
  0
POINT
  8
3
 10
-116.398
 20
1.456
  0
POINT
  8
3
 10
-117.784
 20
4.470
  0
POINT
  8
3
 10
-118.936
 20
7.576
  0
POINT
  8
3
 10
-119.856
 20
10.758
  0
POINT
  8
3
 10
-120.735
 20
15.171
  0
POINT
  8
2
 10
-121.183
 20
19.646
  0
TEXT
  8
1
 10
-121.183
 20
19.646
 40
3.0
  1
# 3
  0
POINT
  8
3
 10
-115.780
 20
19.646
  0
POINT
  8
3
 10
-110.376
 20
19.646
  0
POINT
  8
2
 10
-104.972
 20
19.646
  0
TEXT
  8
1
 10
-104.972
 20
19.646
 40
3.0
  1
# 4
  0
POINT
  8
2
 10
70.195
 20
19.646
  0
TEXT
  8
1
 10
70.195
 20
19.646
 40
3.0
  1
# 5
  0
POINT
  8
2
 10
74.166
 20
-14.479
  0
TEXT
  8
1
 10
74.166
 20
-14.479
 40
3.0
  1
# 6
  0
POINT
  8
4
 10
74.335
 20
-15.728
 30
5.000
 50
180.000
  0
POINT
  8
3
 10
74.335
 20
-15.728
  0
POINT
  8
2
 10
75.013
 20
-20.727
  0
TEXT
  8
1
 10
75.013
 20
-20.727
 40
3.0
  1
# 7
  0
POLYLINE
  8
8
 66
1
 70
    0
  0
VERTEX
  8
8
 10
-121.183
 20
17.647
  0
VERTEX
  8
8
 10
-115.780
 20
17.647
  0
VERTEX
  8
8
 10
-110.376
 20
17.647
  0
VERTEX
  8
8
 10
-104.972
 20
17.647
  0
VERTEX
  8
8
 10
-104.972
 20
10.523
  0
VERTEX
  8
8
 10
-119.305
 20
10.523
  0
SEQEND
  0
POINT
  8
2
 10
-121.183
 20
17.647
  0
TEXT
  8
8
 10
-121.183
 20
17.647
 40
3.0
  1
# 8
  0
POINT
  8
3
 10
-115.780
 20
17.647
  0
POINT
  8
3
 10
-110.376
 20
17.647
  0
POINT
  8
2
 10
-104.972
 20
17.647
  0
TEXT
  8
8
 10
-104.972
 20
17.647
 40
3.0
  1
# 9
  0
POINT
  8
2
 10
-104.972
 20
10.523
  0
TEXT
  8
8
 10
-104.972
 20
10.523
 40
3.0
  1
# 10
  0
POINT
  8
2
 10
-119.305
 20
10.523
  0
TEXT
  8
8
 10
-119.305
 20
10.523
 40
3.0
  1
# 11
  0
POLYLINE
  8
14
 66
1
 70
    1
  0
VERTEX
  8
14
 10
64.916
 20
-20.682
  0
VERTEX
  8
14
 10
-81.201
 20
-20.682
  0
VERTEX
  8
14
 10
-87.876
 20
-19.826
  0
VERTEX
  8
14
 10
-94.368
 20
-17.990
  0
VERTEX
  8
14
 10
-100.478
 20
-15.198
  0
VERTEX
  8
14
 10
-106.037
 20
-11.452
  0
VERTEX
  8
14
 10
-110.831
 20
-6.820
  0
VERTEX
  8
14
 10
-114.779
 20
-1.439
  0
VERTEX
  8
14
 10
-117.784
 20
4.470
  0
VERTEX
  8
14
 10
-119.856
 20
10.758
  0
VERTEX
  8
14
 10
-120.735
 20
15.171
  0
VERTEX
  8
14
 10
-121.183
 20
19.646
  0
VERTEX
  8
14
 10
-115.780
 20
19.646
  0
VERTEX
  8
14
 10
-110.376
 20
19.646
  0
VERTEX
  8
14
 10
-104.972
 20
19.646
  0
VERTEX
  8
14
 10
60.127
 20
19.646
  0
VERTEX
  8
14
 10
64.245
 20
-15.728
  0
VERTEX
  8
14
 10
64.916
 20
-20.682
  0
SEQEND
  0
POINT
  8
2
 10
64.916
 20
-20.682
  0
TEXT
  8
14
 10
64.916
 20
-20.682
 40
3.0
  1
# 12
  0
POINT
  8
2
 10
-81.201
 20
-20.682
  0
TEXT
  8
14
 10
-81.201
 20
-20.682
 40
3.0
  1
# 13
  0
POINT
  8
3
 10
-87.876
 20
-19.826
  0
POINT
  8
3
 10
-94.368
 20
-17.990
  0
POINT
  8
3
 10
-100.478
 20
-15.198
  0
POINT
  8
3
 10
-106.037
 20
-11.452
  0
POINT
  8
3
 10
-110.831
 20
-6.820
  0
POINT
  8
3
 10
-114.779
 20
-1.439
  0
POINT
  8
3
 10
-117.784
 20
4.470
  0
POINT
  8
3
 10
-119.856
 20
10.758
  0
POINT
  8
3
 10
-120.735
 20
15.171
  0
POINT
  8
2
 10
-121.183
 20
19.646
  0
TEXT
  8
14
 10
-121.183
 20
19.646
 40
3.0
  1
# 14
  0
POINT
  8
3
 10
-115.780
 20
19.646
  0
POINT
  8
3
 10
-110.376
 20
19.646
  0
POINT
  8
2
 10
-104.972
 20
19.646
  0
TEXT
  8
14
 10
-104.972
 20
19.646
 40
3.0
  1
# 15
  0
POINT
  8
2
 10
60.127
 20
19.646
  0
TEXT
  8
14
 10
60.127
 20
19.646
 40
3.0
  1
# 16
  0
POINT
  8
4
 10
64.245
 20
-15.728
 30
5.000
 50
180.000
  0
POINT
  8
2
 10
64.245
 20
-15.728
  0
TEXT
  8
14
 10
64.245
 20
-15.728
 40
3.0
  1
# 17
  0
POINT
  8
2
 10
64.916
 20
-20.682
  0
TEXT
  8
14
 10
64.916
 20
-20.682
 40
3.0
  1
# 18
  0
POLYLINE
  8
14
 66
1
 70
    0
  0
VERTEX
  8
14
 10
-121.183
 20
17.647
  0
VERTEX
  8
14
 10
-115.780
 20
17.647
  0
VERTEX
  8
14
 10
-110.376
 20
17.647
  0
VERTEX
  8
14
 10
-104.972
 20
17.647
  0
VERTEX
  8
14
 10
-104.972
 20
10.523
  0
VERTEX
  8
14
 10
-119.305
 20
10.523
  0
SEQEND
  0
POINT
  8
2
 10
-121.183
 20
17.647
  0
TEXT
  8
14
 10
-121.183
 20
17.647
 40
3.0
  1
# 19
  0
POINT
  8
3
 10
-115.780
 20
17.647
  0
POINT
  8
3
 10
-110.376
 20
17.647
  0
POINT
  8
2
 10
-104.972
 20
17.647
  0
TEXT
  8
14
 10
-104.972
 20
17.647
 40
3.0
  1
# 20
  0
POINT
  8
2
 10
-104.972
 20
10.523
  0
TEXT
  8
14
 10
-104.972
 20
10.523
 40
3.0
  1
# 21
  0
POINT
  8
2
 10
-119.305
 20
10.523
  0
TEXT
  8
14
 10
-119.305
 20
10.523
 40
3.0
  1
# 22
  0
LINE
  8
7
 10
0.000
 20
0.000
 11
19.207
 21
0.000
  0
POINT
  8
2
 10
0.000
 20
0.000
  0
TEXT
  8
7
 10
0.000
 20
0.000
 40
3.0
  1
# 25
  0
POINT
  8
2
 10
19.207
 20
0.000
  0
TEXT
  8
7
 10
19.207
 20
0.000
 40
3.0
  1
# 26
  0
TEXT
  8
15
 10
-37.852
 20
-6.038
 40
0.128
 50
0.000
  1
Template
  0
TEXT
  8
15
 10
-37.852
 20
-6.038
 40
3.0
  1
# 27
  0
TEXT
  8
1
 10
0.000
 20
0.000
 40
3.0
  1
Piece Name: 910588V20000.XPB
  0
TEXT
  8
1
 10
0.000
 20
5.000
 40
3.0
  1
Size: T38
  0
TEXT
  8
1
 10
0.000
 20
10.000
 40
3.0
  1
Annotation:TEMPLATE FLY STITCHING
  0
TEXT
  8
1
 10
0.000
 20
15.000
 40
3.0
  1
Quantity: 1
  0
TEXT
  8
1
 10
0.000
 20
20.000
 40
3.0
  1
Category: Plantilla
  0
ENDBLK
  0
ENDSEC
  0
SECTION
  2
ENTITIES
  0
INSERT
  8
1
  2
910588V20000BFD
 10
62.500
 20
0.00
  0
INSERT
  8
1
  2
910588V20000BOD
 10
272.951
 20
0.00
  0
INSERT
  8
1
  2
910588V20000BOL
 10
592.924
 20
0.00
  0
INSERT
  8
1
  2
910588V20000BOT
 10
862.591
 20
0.00
  0
INSERT
  8
1
  2
910588V20000BOZ
 10
1150.059
 20
0.00
  0
INSERT
  8
1
  2
910588V20000BRA
 10
1391.966
 20
0.00
  0
INSERT
  8
1
  2
910588V20000CAD
 10
1586.746
 20
0.00
  0
INSERT
  8
1
  2
910588V20000CAF
 10
1693.496
 20
0.00
  0
INSERT
  8
1
  2
910588V20000CAR
 10
1785.941
 20
0.00
  0
INSERT
  8
1
  2
910588V20000CAZ
 10
1874.014
 20
0.00
  0
INSERT
  8
1
  2
910588V20000CIN
 10
1974.809
 20
0.00
  0
INSERT
  8
1
  2
910588V20000DED
 10
2643.635
 20
0.00
  0
INSERT
  8
1
  2
910588V20000DEL
 10
3068.460
 20
0.00
  0
INSERT
  8
1
  2
910588V20000DEZ
 10
3828.584
 20
0.00
  0
INSERT
  8
1
  2
910588V20000PAS
 10
4372.589
 20
0.00
  0
INSERT
  8
1
  2
910588V20000TRD
 10
5669.385
 20
0.00
  0
INSERT
  8
1
  2
910588V20000TRZ
 10
6854.411
 20
0.00
  0
INSERT
  8
1
  2
910588V20000VBR
 10
7288.517
 20
0.00
  0
INSERT
  8
1
  2
910588V20000XBD
 10
7554.615
 20
0.00
  0
INSERT
  8
1
  2
910588V20000XBL
 10
7849.179
 20
0.00
  0
INSERT
  8
1
  2
910588V20000XBT
 10
8075.874
 20
0.00
  0
INSERT
  8
1
  2
910588V20000XBZ
 10
8329.361
 20
0.00
  0
INSERT
  8
1
  2
910588V20000XCA
 10
8514.399
 20
0.00
  0
INSERT
  8
1
  2
910588V20000XCD
 10
8589.934
 20
0.00
  0
INSERT
  8
1
  2
910588V20000XCF
 10
8658.398
 20
0.00
  0
INSERT
  8
1
  2
910588V20000XCZ
 10
8736.934
 20
0.00
  0
INSERT
  8
1
  2
910588V20000XPB
 10
8916.082
 20
0.00
  0
TEXT
  8
1
 10
0.000
 20
0.000
 40
3.0
  1
Style Name:
  0
TEXT
  8
1
 10
0.000
 20
5.000
 40
3.0
  1
Creation Date: 2-11-2022
  0
TEXT
  8
1
 10
0.000
 20
10.000
 40
3.0
  1
Creation Time: 14:59:54
  0
TEXT
  8
1
 10
0.000
 20
15.000
 40
3.0
  1
Author: LECTRA SISTEMAS (SA) MADRID-SPAIN Ver.
  0
TEXT
  8
1
 10
0.000
 20
20.000
 40
3.0
  1
Sample Size: T38
  0
TEXT
  8
1
 10
0.000
 20
25.000
 40
3.0
  1
Grade Rule Table:
  0
TEXT
  8
1
 10
0.000
 20
30.000
 40
3.0
  1
Units: METRIC
  0
ENDSEC
  0
EOF
