  0
SECTION
  2
BLOCKS
  0
BLOCK
  8
1
  2
1
 70
64
 10
0.0
 20
0.0
  0
LINE
  8
7
 10
-79.54261302947998
 20
678.3958435058594
 11
561.8925857543945
 21
678.3958435058594
  0
TEXT
  8
1
 10
178.1749649047852
 20
691.5958435058593
 40
10.00000000000000
 50
0.0000000000000000
 51
0.0000000000000000
 71
0
  1
Size: 36
  0
TEXT
  8
1
 10
178.1749649047852
 20
702.5958435058592
 40
10.00000000000000
 50
0.0000000000000000
 51
0.0000000000000000
 71
0
  1
Piece Name: FRONT  1X2
  0
TEXT
  8
1
 10
178.1749649047852
 20
680.5958435058594
 40
10.00000000000000
 50
0.0000000000000000
 51
0.0000000000000000
 71
0
  1
Sample Size
  0
TEXT
  8
1
 10
178.1749649047852
 20
669.5958435058593
 40
10.00000000000000
 50
0.0000000000000000
 51
0.0000000000000000
 71
0
  1
Quantity: 2
  0
TEXT
  8
1
 10
178.1749649047852
 20
658.5958435058593
 40
10.00000000000000
 50
0.0000000000000000
 51
0.0000000000000000
 71
0
  1
Material: SHELL
  0
TEXT
  8
1
 10
178.1749649047852
 20
647.5958435058592
 40
10.00000000000000
 50
0.0000000000000000
 51
0.0000000000000000
 71
0
  1
Quality: 19.10.2022
  0
TEXT
  8
1
 10
178.1749649047852
 20
636.5958435058593
 40
10.00000000000000
 50
0.0000000000000000
 51
0.0000000000000000
 71
0
  1
Area: 0.263
  0
POLYLINE
  8
1
 66
1
 70
1
  0
VERTEX
  8
1
 10
761.6675861445290
 20
778.0864308851761
  0
VERTEX
  8
1
 10
760.7445197525391
 20
741.0964993017876
 70
8
  0
VERTEX
  8
1
 10
761.0162526000090
 20
717.9912334148520
 70
8
  0
VERTEX
  8
1
 10
761.5771392481122
 20
703.3683151563827
 70
8
  0
VERTEX
  8
1
 10
761.8751975961369
 20
691.0879272880537
 70
8
  0
VERTEX
  8
1
 10
762.7665473188614
 20
674.4037409846601
  0
VERTEX
  8
1
 10
743.5903846680196
 20
670.7851743955698
 70
8
  0
VERTEX
  8
1
 10
729.3830136097530
 20
667.3464384494690
 70
8
  0
VERTEX
  8
1
 10
719.6536859468447
 20
664.1077555169102
 70
8
  0
VERTEX
  8
1
 10
715.7540612708329
 20
662.3239692097065
 70
8
  0
VERTEX
  8
1
 10
712.0571459347802
 20
660.1576632592994
 70
8
  0
VERTEX
  8
1
 10
708.1332804145113
 20
657.0734642222212
 70
8
  0
VERTEX
  8
1
 10
704.7120744979670
 20
653.4363241382687
 70
8
  0
VERTEX
  8
1
 10
702.6912231150366
 20
650.6613641843280
 70
8
  0
VERTEX
  8
1
 10
699.4208511020169
 20
644.6253328213111
 70
8
  0
VERTEX
  8
1
 10
696.7310111294341
 20
637.1384080478559
 70
8
  0
VERTEX
  8
1
 10
695.7469666121485
 20
633.2813679903556
 70
8
  0
VERTEX
  8
1
 10
694.1836841958103
 20
624.3200040959964
 70
8
  0
VERTEX
  8
1
 10
693.6890257808702
 20
619.7978101905032
 70
8
  0
VERTEX
  8
1
 10
693.0136642415857
 20
605.7001537293212
 70
8
  0
VERTEX
  8
1
 10
693.5160644107359
 20
586.8618462842043
 70
8
  0
VERTEX
  8
1
 10
695.5653834577043
 20
559.2765621090573
 70
8
  0
VERTEX
  8
1
 10
697.3028396245239
 20
540.9306473325149
  0
VERTEX
  8
1
 10
686.1253969266772
 20
538.1888997982253
  0
VERTEX
  8
1
 10
670.5038841985220
 20
534.5993972880325
 70
8
  0
VERTEX
  8
1
 10
646.1524034253632
 20
529.9050369086974
 70
8
  0
VERTEX
  8
1
 10
636.3559407283884
 20
528.3217645779071
 70
8
  0
VERTEX
  8
1
 10
612.6797447990449
 20
525.1182107478998
 70
8
  0
VERTEX
  8
1
 10
588.9024598185217
 20
522.8340250957671
 70
8
  0
VERTEX
  8
1
 10
584.1376175111476
 20
522.4955089867830
 70
8
  0
VERTEX
  8
1
 10
572.9019627877027
 20
521.8515347244505
 70
8
  0
VERTEX
  8
1
 10
543.0451804678846
 20
520.9567726239370
 70
8
  0
VERTEX
  8
1
 10
523.1290258949331
 20
520.8660838303281
 70
8
  0
VERTEX
  8
1
 10
473.4618492276013
 20
521.6168219924828
 70
8
  0
VERTEX
  8
1
 10
311.4559826299226
 20
525.5813249089923
 70
8
  0
VERTEX
  8
1
 10
282.0038606069512
 20
526.4450519078127
 70
8
  0
VERTEX
  8
1
 10
159.3457634309318
 20
530.7077746721761
 70
8
  0
VERTEX
  8
1
 10
90.67993444115588
 20
533.6615754403883
 70
8
  0
VERTEX
  8
1
 10
-22.83639602343980
 20
539.5379456142404
 70
8
  0
VERTEX
  8
1
 10
-101.7730441995106
 20
544.2066137593572
 70
8
  0
VERTEX
  8
1
 10
-293.3543395996094
 20
556.6251624173433
  0
VERTEX
  8
1
 10
-330.3543400764465
 20
554.1645793426592
  0
VERTEX
  8
1
 10
-330.3543400764454
 20
677.6494534234001
  0
VERTEX
  8
1
 10
-330.3543830047527
 20
801.4399200158639
  0
VERTEX
  8
1
 10
-293.3543815717611
 20
798.6827068319870
  0
VERTEX
  8
1
 10
-59.12518340551870
 20
815.7585668402389
 70
8
  0
VERTEX
  8
1
 10
85.46181171395546
 20
825.3190202007297
 70
8
  0
VERTEX
  8
1
 10
90.44895559087742
 20
825.6270957785013
 70
8
  0
VERTEX
  8
1
 10
249.8965232255830
 20
834.7812763653988
 70
8
  0
VERTEX
  8
1
 10
289.7665203521864
 20
836.9330716771366
 70
8
  0
VERTEX
  8
1
 10
481.3151299194532
 20
847.0509767833993
  0
VERTEX
  8
1
 10
487.1831370606634
 20
829.1763140552463
 70
8
  0
VERTEX
  8
1
 10
490.7096924611275
 20
820.4701939457060
 70
8
  0
VERTEX
  8
1
 10
494.4123475058684
 20
813.3420926225790
 70
8
  0
VERTEX
  8
1
 10
496.3887860000281
 20
810.5078499169988
 70
8
  0
VERTEX
  8
1
 10
498.6589386288235
 20
807.9077344215206
 70
8
  0
VERTEX
  8
1
 10
502.3803692374208
 20
804.7309286738077
 70
8
  0
VERTEX
  8
1
 10
506.5414687508854
 20
802.1277841175367
 70
8
  0
VERTEX
  8
1
 10
513.1773276172372
 20
799.1713298019300
 70
8
  0
VERTEX
  8
1
 10
516.6183158713862
 20
798.0068269548552
 70
8
  0
VERTEX
  8
1
 10
525.0882841205525
 20
795.7864687128799
 70
8
  0
VERTEX
  8
1
 10
538.0631826728105
 20
793.5888256251377
 70
8
  0
VERTEX
  8
1
 10
542.4215470486746
 20
793.0487990645106
 70
8
  0
VERTEX
  8
1
 10
568.9106034670906
 20
790.6170428213784
 70
8
  0
VERTEX
  8
1
 10
573.3262945157896
 20
790.2808738210592
  0
SEQEND
  0
POLYLINE
  8
14
 66
1
 70
1
  0
VERTEX
  8
14
 10
750.5552673339844
 20
767.7829742431641
  0
VERTEX
  8
14
 10
749.7881106978659
 20
732.8176742491964
 70
8
  0
VERTEX
  8
14
 10
750.0205230712891
 20
717.8415679931641
 70
8
  0
VERTEX
  8
14
 10
750.5827331542969
 20
703.0255126953125
 70
8
  0
VERTEX
  8
14
 10
750.8846282958984
 20
690.6610107421875
 70
8
  0
VERTEX
  8
14
 10
751.2812042236328
 20
683.2188415527344
  0
VERTEX
  8
14
 10
731.2644362650356
 20
679.1952705102688
 70
8
  0
VERTEX
  8
14
 10
721.8931007614635
 20
676.6248648186552
 70
8
  0
VERTEX
  8
14
 10
713.2862234287637
 20
673.3841149225851
 70
8
  0
VERTEX
  8
14
 10
709.3490876359565
 20
671.4425333765813
 70
8
  0
VERTEX
  8
14
 10
705.6986236572266
 20
669.2495727539063
 70
8
  0
VERTEX
  8
14
 10
702.2962431910058
 20
666.7321642106554
 70
8
  0
VERTEX
  8
14
 10
699.2118870408817
 20
663.9358839576173
 70
8
  0
VERTEX
  8
14
 10
696.4323041936832
 20
660.8723516493670
 70
8
  0
VERTEX
  8
14
 10
693.9442436362400
 20
657.5531869404786
 70
8
  0
VERTEX
  8
14
 10
691.7344543553813
 20
653.9900094855270
 70
8
  0
VERTEX
  8
14
 10
689.7896853379364
 20
650.1944389390860
 70
8
  0
VERTEX
  8
14
 10
686.6422040406052
 20
641.9525971900350
 70
8
  0
VERTEX
  8
14
 10
684.3957916388807
 20
632.9206189299213
 70
8
  0
VERTEX
  8
14
 10
682.9444400273976
 20
623.1914613953403
 70
8
  0
VERTEX
  8
14
 10
682.1821411007908
 20
612.8580818228878
 70
8
  0
VERTEX
  8
14
 10
682.0987737645352
 20
596.4284400982528
 70
8
  0
VERTEX
  8
14
 10
682.9694793765692
 20
579.1621832442576
 70
8
  0
VERTEX
  8
14
 10
685.5690765380859
 20
549.3780517578125
  0
VERTEX
  8
14
 10
683.5815429687500
 20
548.8904190063477
  0
VERTEX
  8
14
 10
668.2769775390625
 20
545.3688430786133
 70
8
  0
VERTEX
  8
14
 10
644.3680667741943
 20
540.7642808359303
 70
8
  0
VERTEX
  8
14
 10
634.7496414184570
 20
539.2107391357422
 70
8
  0
VERTEX
  8
14
 10
611.3834143631373
 20
536.0420864706142
 70
8
  0
VERTEX
  8
14
 10
587.9171213196478
 20
533.7848353860252
 70
8
  0
VERTEX
  8
14
 10
583.2143020629883
 20
533.4526062011719
 70
8
  0
VERTEX
  8
14
 10
572.4805450439453
 20
532.8415679931641
 70
8
  0
VERTEX
  8
14
 10
542.8627521323749
 20
531.9548759050745
 70
8
  0
VERTEX
  8
14
 10
503.3377286563411
 20
532.0502337350487
 70
8
  0
VERTEX
  8
14
 10
473.6839675903320
 20
532.6144409179688
 70
8
  0
VERTEX
  8
14
 10
309.6717324630179
 20
536.6370850588202
 70
8
  0
VERTEX
  8
14
 10
185.5087102131420
 20
540.7043674373086
 70
8
  0
VERTEX
  8
14
 10
91.18815422058105
 20
544.6494293212891
 70
8
  0
VERTEX
  8
14
 10
-22.23398319708837
 20
550.5214325049935
 70
8
  0
VERTEX
  8
14
 10
-170.1290126522601
 20
559.5394457749414
 70
8
  0
VERTEX
  8
14
 10
-293.3543395996094
 20
567.6494598388672
  0
VERTEX
  8
14
 10
-293.3543395996094
 20
677.6494598388672
  0
VERTEX
  8
14
 10
-293.3543777465820
 20
787.6522064208984
  0
VERTEX
  8
14
 10
-56.77940789401127
 20
804.8959122560740
 70
8
  0
VERTEX
  8
14
 10
91.14564895629883
 20
814.6494293212891
 70
8
  0
VERTEX
  8
14
 10
250.5171110364234
 20
823.7993010471635
 70
8
  0
VERTEX
  8
14
 10
290.3680992126465
 20
825.9495544433594
 70
8
  0
VERTEX
  8
14
 10
473.6839675903320
 20
835.6325531005859
  0
VERTEX
  8
14
 10
478.6794384786552
 20
820.7824283965244
 70
8
  0
VERTEX
  8
14
 10
482.7229639806337
 20
811.5921768967092
 70
8
  0
VERTEX
  8
14
 10
485.1191628092485
 20
807.3697127558203
 70
8
  0
VERTEX
  8
14
 10
487.8363068472567
 20
803.4666728512329
 70
8
  0
VERTEX
  8
14
 10
490.9278869628906
 20
799.9362945556641
 70
8
  0
VERTEX
  8
14
 10
494.3305736442717
 20
796.8965481863067
 70
8
  0
VERTEX
  8
14
 10
498.0940534442008
 20
794.2302950641447
 70
8
  0
VERTEX
  8
14
 10
502.1740139331638
 20
791.9078427008516
 70
8
  0
VERTEX
  8
14
 10
506.5261426816468
 20
789.8994986081010
 70
8
  0
VERTEX
  8
14
 10
511.1061272601353
 20
788.1755702975674
 70
8
  0
VERTEX
  8
14
 10
520.7724141890735
 20
785.4621910698451
 70
8
  0
VERTEX
  8
14
 10
530.8183752838655
 20
783.5301651110751
 70
8
  0
VERTEX
  8
14
 10
540.8895111083984
 20
782.1419525146484
 70
8
  0
VERTEX
  8
14
 10
563.6103473532380
 20
779.9772734393866
 70
8
  0
VERTEX
  8
14
 10
572.4805450439453
 20
779.3142700195313
  0
SEQEND
  0
POINT
  8
2
 10
750.5552673339844
 20
767.7829742431641
  0
POINT
  8
2
 10
750.0205230712891
 20
717.8415679931641
  0
POINT
  8
2
 10
751.2812042236328
 20
683.2188415527344
  0
POINT
  8
2
 10
685.5690765380859
 20
549.3780517578125
  0
POINT
  8
2
 10
583.2143020629883
 20
533.4526062011719
  0
POINT
  8
2
 10
572.4805450439453
 20
532.8415679931641
  0
POINT
  8
2
 10
473.6839675903320
 20
532.6144409179688
  0
POINT
  8
2
 10
91.18815422058105
 20
544.6494293212891
  0
POINT
  8
2
 10
-293.3543395996094
 20
567.6494598388672
  0
POINT
  8
2
 10
-293.3543395996094
 20
677.6494598388672
  0
POINT
  8
2
 10
-293.3543777465820
 20
787.6522064208984
  0
POINT
  8
2
 10
91.14564895629883
 20
814.6494293212891
  0
POINT
  8
2
 10
473.6839675903320
 20
835.6325531005859
  0
POINT
  8
2
 10
572.4805450439453
 20
779.3142700195313
  0
POINT
  8
2
 10
761.6675861445290
 20
778.0864308851761
  0
POINT
  8
2
 10
761.0162526000090
 20
717.9912334148520
  0
POINT
  8
2
 10
762.7665473188614
 20
674.4037409846601
  0
POINT
  8
2
 10
697.3028396245239
 20
540.9306473325149
  0
POINT
  8
2
 10
584.1376175111476
 20
522.4955089867830
  0
POINT
  8
2
 10
572.9019627877027
 20
521.8515347244505
  0
POINT
  8
2
 10
473.4618492276013
 20
521.6168219924828
  0
POINT
  8
2
 10
90.67993444115588
 20
533.6615754403883
  0
POINT
  8
2
 10
-293.3543395996094
 20
556.6251624173433
  0
POINT
  8
2
 10
-330.3543400764465
 20
554.1645793426592
  0
POINT
  8
2
 10
-330.3543400764454
 20
677.6494534234001
  0
POINT
  8
2
 10
-330.3543830047527
 20
801.4399200158639
  0
POINT
  8
2
 10
-293.3543815717611
 20
798.6827068319870
  0
POINT
  8
2
 10
90.44895559087742
 20
825.6270957785013
  0
POINT
  8
2
 10
481.3151299194532
 20
847.0509767833993
  0
POINT
  8
2
 10
573.3262945157896
 20
790.2808738210592
  0
POINT
  8
3
 10
760.7445197525391
 20
741.0964993017876
  0
POINT
  8
3
 10
761.0162526000090
 20
717.9912334148520
  0
POINT
  8
3
 10
761.5771392481122
 20
703.3683151563827
  0
POINT
  8
3
 10
761.8751975961369
 20
691.0879272880537
  0
POINT
  8
3
 10
762.5039221239920
 20
678.5733052958560
  0
POINT
  8
3
 10
743.5903846680196
 20
670.7851743955698
  0
POINT
  8
3
 10
729.3830136097530
 20
667.3464384494690
  0
POINT
  8
3
 10
719.6536859468447
 20
664.1077555169102
  0
POINT
  8
3
 10
715.7540612708329
 20
662.3239692097065
  0
POINT
  8
3
 10
712.0571459347802
 20
660.1576632592994
  0
POINT
  8
3
 10
708.1332804145113
 20
657.0734642222212
  0
POINT
  8
3
 10
704.7120744979670
 20
653.4363241382687
  0
POINT
  8
3
 10
702.6912231150366
 20
650.6613641843280
  0
POINT
  8
3
 10
699.4208511020169
 20
644.6253328213111
  0
POINT
  8
3
 10
696.7310111294341
 20
637.1384080478559
  0
POINT
  8
3
 10
695.7469666121485
 20
633.2813679903556
  0
POINT
  8
3
 10
694.1836841958103
 20
624.3200040959964
  0
POINT
  8
3
 10
693.6890257808702
 20
619.7978101905032
  0
POINT
  8
3
 10
693.0136642415857
 20
605.7001537293212
  0
POINT
  8
3
 10
693.5160644107359
 20
586.8618462842043
  0
POINT
  8
3
 10
695.5653834577043
 20
559.2765621090573
  0
POINT
  8
3
 10
696.8585315613320
 20
545.5159400978946
  0
POINT
  8
3
 10
670.5038841985220
 20
534.5993972880325
  0
POINT
  8
3
 10
646.1524034253632
 20
529.9050369086974
  0
POINT
  8
3
 10
636.3559407283884
 20
528.3217645779071
  0
POINT
  8
3
 10
612.6797447990449
 20
525.1182107478998
  0
POINT
  8
3
 10
588.9024598185217
 20
522.8340250957671
  0
POINT
  8
3
 10
584.1376175111476
 20
522.4955089867830
  0
POINT
  8
3
 10
572.9019627877027
 20
521.8515347244505
  0
POINT
  8
3
 10
543.0451804678846
 20
520.9567726239370
  0
POINT
  8
3
 10
523.1290258949331
 20
520.8660838303281
  0
POINT
  8
3
 10
473.4618492276013
 20
521.6168219924828
  0
POINT
  8
3
 10
311.4559826299226
 20
525.5813249089923
  0
POINT
  8
3
 10
282.0038606069512
 20
526.4450519078127
  0
POINT
  8
3
 10
159.3457634309318
 20
530.7077746721761
  0
POINT
  8
3
 10
90.67993444115588
 20
533.6615754403883
  0
POINT
  8
3
 10
-22.83639602343980
 20
539.5379456142404
  0
POINT
  8
3
 10
-101.7730441995106
 20
544.2066137593572
  0
POINT
  8
3
 10
-288.4425399644234
 20
556.2985848453255
  0
POINT
  8
3
 10
-59.12518340551870
 20
815.7585668402389
  0
POINT
  8
3
 10
85.46181171395546
 20
825.3190202007297
  0
POINT
  8
3
 10
90.44895559087742
 20
825.6270957785013
  0
POINT
  8
3
 10
249.8965232255830
 20
834.7812763653988
  0
POINT
  8
3
 10
289.7665203521864
 20
836.9330716771366
  0
POINT
  8
3
 10
476.4035421063468
 20
846.7935523599454
  0
POINT
  8
3
 10
487.1831370606634
 20
829.1763140552463
  0
POINT
  8
3
 10
490.7096924611275
 20
820.4701939457060
  0
POINT
  8
3
 10
494.4123475058684
 20
813.3420926225790
  0
POINT
  8
3
 10
496.3887860000281
 20
810.5078499169988
  0
POINT
  8
3
 10
498.6589386288235
 20
807.9077344215206
  0
POINT
  8
3
 10
502.3803692374208
 20
804.7309286738077
  0
POINT
  8
3
 10
506.5414687508854
 20
802.1277841175367
  0
POINT
  8
3
 10
513.1773276172372
 20
799.1713298019300
  0
POINT
  8
3
 10
516.6183158713862
 20
798.0068269548552
  0
POINT
  8
3
 10
525.0882841205525
 20
795.7864687128799
  0
POINT
  8
3
 10
538.0631826728105
 20
793.5888256251377
  0
POINT
  8
3
 10
542.4215470486746
 20
793.0487990645106
  0
POINT
  8
3
 10
568.9106034670906
 20
790.6170428213784
  0
POLYLINE
  8
8
 66
1
 70
0
  0
VERTEX
  8
8
 10
473.6839675903320
 20
835.6325531005859
  0
VERTEX
  8
8
 10
473.6839675903320
 20
532.6144409179688
  0
SEQEND
  0
POINT
  8
2
 10
473.6839675903320
 20
835.6325531005859
  0
POINT
  8
2
 10
473.6839675903320
 20
532.6144409179688
  0
POLYLINE
  8
8
 66
1
 70
0
  0
VERTEX
  8
8
 10
572.4805450439453
 20
779.3142700195313
  0
VERTEX
  8
8
 10
572.4805450439453
 20
532.8415679931641
  0
SEQEND
  0
POINT
  8
2
 10
572.4805450439453
 20
779.3142700195313
  0
POINT
  8
2
 10
572.4805450439453
 20
532.8415679931641
  0
POLYLINE
  8
8
 66
1
 70
0
  0
VERTEX
  8
8
 10
91.14564895629883
 20
814.6494293212891
  0
VERTEX
  8
8
 10
91.18815422058105
 20
544.6494293212891
  0
SEQEND
  0
POINT
  8
2
 10
91.14564895629883
 20
814.6494293212891
  0
POINT
  8
2
 10
91.18815422058105
 20
544.6494293212891
  0
POLYLINE
  8
8
 66
1
 70
0
  0
VERTEX
  8
8
 10
583.2143020629883
 20
533.4526062011719
  0
VERTEX
  8
8
 10
582.5908279418945
 20
538.3097076416016
 70
8
  0
VERTEX
  8
8
 10
581.1671387049657
 20
542.1621783838734
 70
8
  0
VERTEX
  8
8
 10
578.9101235352150
 20
545.6314810940770
 70
8
  0
VERTEX
  8
8
 10
576.0208933579275
 20
548.8169324583478
 70
8
  0
VERTEX
  8
8
 10
565.5710220336914
 20
557.6633453369141
 70
8
  0
VERTEX
  8
8
 10
558.1296636686110
 20
564.5566533243310
 70
8
  0
VERTEX
  8
8
 10
551.4996606291061
 20
571.9569240191380
 70
8
  0
VERTEX
  8
8
 10
545.6364258038609
 20
579.8074680993514
 70
8
  0
VERTEX
  8
8
 10
540.4953720815597
 20
588.0515962429872
 70
8
  0
VERTEX
  8
8
 10
536.0319123508870
 20
596.6326191280614
 70
8
  0
VERTEX
  8
8
 10
532.2014595005267
 20
605.4938474325904
 70
8
  0
VERTEX
  8
8
 10
527.5451338195693
 20
619.1870671590216
 70
8
  0
VERTEX
  8
8
 10
524.0622711181641
 20
633.1918716430664
 70
8
  0
VERTEX
  8
8
 10
521.5145708613035
 20
647.9447979772267
 70
8
  0
VERTEX
  8
8
 10
519.8818985403118
 20
662.8052919482982
 70
8
  0
VERTEX
  8
8
 10
518.7894796659450
 20
682.7467714793997
 70
8
  0
VERTEX
  8
8
 10
518.5306553846731
 20
712.8211959428224
 70
8
  0
VERTEX
  8
8
 10
518.5552978515625
 20
717.8415679931641
  0
VERTEX
  8
8
 10
750.0205230712891
 20
717.8415679931641
  0
SEQEND
  0
POINT
  8
2
 10
583.2143020629883
 20
533.4526062011719
  0
POINT
  8
2
 10
518.5552978515625
 20
717.8415679931641
  0
POINT
  8
2
 10
750.0205230712891
 20
717.8415679931641
  0
POINT
  8
3
 10
582.5908279418945
 20
538.3097076416016
  0
POINT
  8
3
 10
578.9101235352150
 20
545.6314810940770
  0
POINT
  8
3
 10
576.0208933579275
 20
548.8169324583478
  0
POINT
  8
3
 10
565.5710220336914
 20
557.6633453369141
  0
POINT
  8
3
 10
554.7160294276189
 20
568.1969614159348
  0
POINT
  8
3
 10
548.4749838841582
 20
575.8294549686930
  0
POINT
  8
3
 10
542.9784129992995
 20
583.8838772458656
  0
POINT
  8
3
 10
538.1817296617270
 20
592.3035389254685
  0
POINT
  8
3
 10
534.0403467601250
 20
601.0317506855180
  0
POINT
  8
3
 10
530.5096771831777
 20
610.0118232040303
  0
POINT
  8
3
 10
526.2612259954810
 20
623.8301630120767
  0
POINT
  8
3
 10
524.0622711181641
 20
633.1918716430664
  0
POINT
  8
3
 10
520.8783598189543
 20
652.8874822897991
  0
POINT
  8
3
 10
519.5071240510680
 20
667.7787098714168
  0
POINT
  8
3
 10
518.6616174768563
 20
687.7492155902562
  0
ENDBLK
  0
BLOCK
  8
1
  2
2
 70
64
 10
0.0
 20
0.0
  0
LINE
  8
7
 10
-38.62881183624268
 20
1082.043838500977
 11
615.7711410522461
 21
1082.043838500977
  0
TEXT
  8
1
 10
231.5512682881219
 20
1095.157615675311
 40
10.00000000000000
 50
0.0866551035878410
 51
0.0000000000000000
 71
0
  1
Size: 36
  0
TEXT
  8
1
 10
231.5346317088804
 20
1106.157603094587
 40
10.00000000000000
 50
0.0866551035878410
 51
0.0000000000000000
 71
0
  1
Piece Name: BACK 1X2
  0
TEXT
  8
1
 10
231.5679048673633
 20
1084.157628256035
 40
10.00000000000000
 50
0.0866551035878410
 51
0.0000000000000000
 71
0
  1
Sample Size
  0
TEXT
  8
1
 10
231.5845414466048
 20
1073.157640836759
 40
10.00000000000000
 50
0.0866551035878410
 51
0.0000000000000000
 71
0
  1
Quantity: 2
  0
TEXT
  8
1
 10
231.6011780258463
 20
1062.157653417483
 40
10.00000000000000
 50
0.0866551035878410
 51
0.0000000000000000
 71
0
  1
Material: SHELL
  0
TEXT
  8
1
 10
231.6178146050878
 20
1051.157665998207
 40
10.00000000000000
 50
0.0866551035878410
 51
0.0000000000000000
 71
0
  1
Quality: 19.10.2022
  0
TEXT
  8
1
 10
231.6344511843292
 20
1040.157678578931
 40
10.00000000000000
 50
0.0866551035878410
 51
0.0000000000000000
 71
0
  1
Area: 0.3048
  0
POLYLINE
  8
1
 66
1
 70
1
  0
VERTEX
  8
1
 10
778.1577784550445
 20
1160.890676340763
  0
VERTEX
  8
1
 10
770.5879375624921
 20
917.2985447175033
  0
VERTEX
  8
1
 10
732.3118298152747
 20
908.0994417308705
 70
8
  0
VERTEX
  8
1
 10
704.3290180725423
 20
902.3231394592211
 70
8
  0
VERTEX
  8
1
 10
676.1528830455394
 20
897.5615775853045
 70
8
  0
VERTEX
  8
1
 10
671.4398156769184
 20
896.8731785998991
 70
8
  0
VERTEX
  8
1
 10
643.0303462596999
 20
893.3971865990577
 70
8
  0
VERTEX
  8
1
 10
614.5065118770143
 20
891.0718899065033
 70
8
  0
VERTEX
  8
1
 10
609.7449579239790
 20
890.7978890288296
 70
8
  0
VERTEX
  8
1
 10
579.7642602133145
 20
889.7606830033026
 70
8
  0
VERTEX
  8
1
 10
559.7641106417728
 20
889.5987419944356
 70
8
  0
VERTEX
  8
1
 10
510.0652652737850
 20
890.2027738364191
  0
VERTEX
  8
1
 10
318.6152197422447
 20
895.2075867738063
 70
8
  0
VERTEX
  8
1
 10
195.9225523798926
 20
899.3543557665766
 70
8
  0
VERTEX
  8
1
 10
127.2367915119010
 20
902.2388548380593
 70
8
  0
VERTEX
  8
1
 10
18.65405768508835
 20
907.7796539919570
 70
8
  0
VERTEX
  8
1
 10
-65.21568476103785
 20
912.7220108105854
 70
8
  0
VERTEX
  8
1
 10
-256.7621231079102
 20
925.2024120726662
  0
VERTEX
  8
1
 10
-293.7621235847473
 20
922.7253571841241
  0
VERTEX
  8
1
 10
-293.7621235847465
 20
1066.227030093853
  0
VERTEX
  8
1
 10
-293.7621682816416
 20
1218.548324150486
  0
VERTEX
  8
1
 10
-256.7621671348115
 20
1216.265080075179
  0
VERTEX
  8
1
 10
-70.70984332552872
 20
1228.124089007424
 70
8
  0
VERTEX
  8
1
 10
-65.81499027766060
 20
1228.456433959269
 70
8
  0
VERTEX
  8
1
 10
47.33950786869507
 20
1236.667613209153
 70
8
  0
VERTEX
  8
1
 10
125.9950485024190
 20
1243.149754438521
 70
8
  0
VERTEX
  8
1
 10
219.1295689912545
 20
1251.848567763150
 70
8
  0
VERTEX
  8
1
 10
302.3752072169506
 20
1260.500615736265
 70
8
  0
VERTEX
  8
1
 10
425.6691962351419
 20
1274.520439378403
 70
8
  0
VERTEX
  8
1
 10
524.2428109255536
 20
1286.279074029739
  0
VERTEX
  8
1
 10
527.3503365809723
 20
1262.144373176463
 70
8
  0
VERTEX
  8
1
 10
529.8974145433547
 20
1247.803137589814
 70
8
  0
VERTEX
  8
1
 10
532.0986376429562
 20
1238.345213009044
 70
8
  0
VERTEX
  8
1
 10
534.1457418537088
 20
1231.424200595935
 70
8
  0
VERTEX
  8
1
 10
535.4386999908932
 20
1228.052548248488
 70
8
  0
VERTEX
  8
1
 10
537.4581692185849
 20
1223.937410808644
 70
8
  0
VERTEX
  8
1
 10
539.9885249859529
 20
1220.127262802980
 70
8
  0
VERTEX
  8
1
 10
543.8639029070625
 20
1216.052407643584
 70
8
  0
VERTEX
  8
1
 10
548.9716301160694
 20
1212.344610221218
 70
8
  0
VERTEX
  8
1
 10
556.7576924461653
 20
1208.243363021898
 70
8
  0
VERTEX
  8
1
 10
564.9655042301873
 20
1205.007826641110
 70
8
  0
VERTEX
  8
1
 10
578.8096551926478
 20
1200.846089888439
 70
8
  0
VERTEX
  8
1
 10
597.6264051319796
 20
1196.645921899059
 70
8
  0
VERTEX
  8
1
 10
607.0939692106139
 20
1194.792222855243
 70
8
  0
VERTEX
  8
1
 10
639.9022806718519
 20
1188.254267877125
  0
SEQEND
  0
POLYLINE
  8
14
 66
1
 70
1
  0
VERTEX
  8
14
 10
766.5900421142578
 20
1142.792205810547
  0
VERTEX
  8
14
 10
759.8539733886719
 20
926.0302734375000
  0
VERTEX
  8
14
 10
730.0286865234375
 20
918.8558197021484
 70
8
  0
VERTEX
  8
14
 10
701.2898946992102
 20
912.9261253695603
 70
8
  0
VERTEX
  8
14
 10
672.3235146801005
 20
908.1229507634920
 70
8
  0
VERTEX
  8
14
 10
643.1905062546781
 20
904.4891606157018
 70
8
  0
VERTEX
  8
14
 10
618.8296931224294
 20
902.3852067409143
 70
8
  0
VERTEX
  8
14
 10
609.0727233886719
 20
901.7848968505859
 70
8
  0
VERTEX
  8
14
 10
579.4571072927773
 20
900.7566280305532
 70
8
  0
VERTEX
  8
14
 10
539.9329984651569
 20
900.7235564018106
 70
8
  0
VERTEX
  8
14
 10
510.2761840820313
 20
901.2004852294922
  0
VERTEX
  8
14
 10
311.5083011270343
 20
906.4246998369938
 70
8
  0
VERTEX
  8
14
 10
187.3243742755947
 20
910.6981809445437
 70
8
  0
VERTEX
  8
14
 10
127.7378749847412
 20
913.2270050048828
 70
8
  0
VERTEX
  8
14
 10
19.24578811653749
 20
918.7635090626605
 70
8
  0
VERTEX
  8
14
 10
-118.7754682019171
 20
927.1160306278990
 70
8
  0
VERTEX
  8
14
 10
-256.7621231079102
 20
936.2270355224609
  0
VERTEX
  8
14
 10
-256.7621231079102
 20
1066.227035522461
  0
VERTEX
  8
14
 10
-256.7621612548828
 20
1196.227035522461
  0
VERTEX
  8
14
 10
-69.34443076419902
 20
1208.171044587889
 70
8
  0
VERTEX
  8
14
 10
48.94263312653976
 20
1216.735622605091
 70
8
  0
VERTEX
  8
14
 10
127.7378749847412
 20
1223.227005004883
 70
8
  0
VERTEX
  8
14
 10
221.0783241743690
 20
1231.936454881100
 70
8
  0
VERTEX
  8
14
 10
304.5082092285156
 20
1240.615463256836
 70
8
  0
VERTEX
  8
14
 10
428.3686359876279
 20
1254.756037072537
 70
8
  0
VERTEX
  8
14
 10
507.5928497314453
 20
1264.210128784180
  0
VERTEX
  8
14
 10
510.5518759726388
 20
1243.500062872094
 70
8
  0
VERTEX
  8
14
 10
512.6071780307702
 20
1233.614225328261
 70
8
  0
VERTEX
  8
14
 10
515.3534268139431
 20
1224.291422279082
 70
8
  0
VERTEX
  8
14
 10
517.0576298446119
 20
1219.899808116513
 70
8
  0
VERTEX
  8
14
 10
519.0209378971714
 20
1215.719331889440
 70
8
  0
VERTEX
  8
14
 10
521.2721404184980
 20
1211.773453368471
 70
8
  0
VERTEX
  8
14
 10
523.8400268554688
 20
1208.085632324219
 70
8
  0
VERTEX
  8
14
 10
526.6693206635166
 20
1204.753275770481
 70
8
  0
VERTEX
  8
14
 10
529.8043601745578
 20
1201.674529261870
 70
8
  0
VERTEX
  8
14
 10
533.2221488340881
 20
1198.835119338008
 70
8
  0
VERTEX
  8
14
 10
536.8996900876023
 20
1196.220772538517
 70
8
  0
VERTEX
  8
14
 10
544.9420441585631
 20
1191.610174471135
 70
8
  0
VERTEX
  8
14
 10
553.7474499514025
 20
1187.728547376698
 70
8
  0
VERTEX
  8
14
 10
563.1319350300812
 20
1184.461703572179
 70
8
  0
VERTEX
  8
14
 10
577.8919966052143
 20
1180.464370977379
 70
8
  0
VERTEX
  8
14
 10
602.7812194824219
 20
1175.258407592773
 70
8
  0
VERTEX
  8
14
 10
636.0063934326172
 20
1168.637390136719
  0
SEQEND
  0
POINT
  8
2
 10
766.5900421142578
 20
1142.792205810547
  0
POINT
  8
2
 10
759.8539733886719
 20
926.0302734375000
  0
POINT
  8
2
 10
609.0727233886719
 20
901.7848968505859
  0
POINT
  8
2
 10
510.2761840820313
 20
901.2004852294922
  0
POINT
  8
2
 10
127.7378749847412
 20
913.2270050048828
  0
POINT
  8
2
 10
-256.7621231079102
 20
936.2270355224609
  0
POINT
  8
2
 10
-256.7621231079102
 20
1066.227035522461
  0
POINT
  8
2
 10
-256.7621612548828
 20
1196.227035522461
  0
POINT
  8
2
 10
127.7378749847412
 20
1223.227005004883
  0
POINT
  8
2
 10
507.5928497314453
 20
1264.210128784180
  0
POINT
  8
2
 10
636.0063934326172
 20
1168.637390136719
  0
POINT
  8
2
 10
778.1577784550445
 20
1160.890676340763
  0
POINT
  8
2
 10
770.5879375624921
 20
917.2985447175033
  0
POINT
  8
2
 10
609.7449579239790
 20
890.7978890288296
  0
POINT
  8
2
 10
510.0652652737850
 20
890.2027738364191
  0
POINT
  8
2
 10
127.2367915119010
 20
902.2388548380593
  0
POINT
  8
2
 10
-256.7621231079102
 20
925.2024120726662
  0
POINT
  8
2
 10
-293.7621235847473
 20
922.7253571841241
  0
POINT
  8
2
 10
-293.7621235847465
 20
1066.227030093853
  0
POINT
  8
2
 10
-293.7621682816416
 20
1218.548324150486
  0
POINT
  8
2
 10
-256.7621671348115
 20
1216.265080075179
  0
POINT
  8
2
 10
125.9950485024190
 20
1243.149754438521
  0
POINT
  8
2
 10
524.2428109255536
 20
1286.279074029739
  0
POINT
  8
2
 10
639.9022806718519
 20
1188.254267877125
  0
POINT
  8
3
 10
732.3118298152747
 20
908.0994417308705
  0
POINT
  8
3
 10
704.3290180725423
 20
902.3231394592211
  0
POINT
  8
3
 10
676.1528830455394
 20
897.5615775853045
  0
POINT
  8
3
 10
671.4398156769184
 20
896.8731785998991
  0
POINT
  8
3
 10
643.0303462596999
 20
893.3971865990577
  0
POINT
  8
3
 10
614.5065118770143
 20
891.0718899065033
  0
POINT
  8
3
 10
609.7449579239790
 20
890.7978890288296
  0
POINT
  8
3
 10
579.7642602133145
 20
889.7606830033026
  0
POINT
  8
3
 10
559.7641106417728
 20
889.5987419944356
  0
POINT
  8
3
 10
515.0347180839366
 20
890.1127589102371
  0
POINT
  8
3
 10
318.6152197422447
 20
895.2075867738063
  0
POINT
  8
3
 10
195.9225523798926
 20
899.3543557665766
  0
POINT
  8
3
 10
127.2367915119010
 20
902.2388548380593
  0
POINT
  8
3
 10
18.65405768508835
 20
907.7796539919570
  0
POINT
  8
3
 10
-65.21568476103785
 20
912.7220108105854
  0
POINT
  8
3
 10
-251.8512577244333
 20
924.8737111715893
  0
POINT
  8
3
 10
-70.70984332552872
 20
1228.124089007424
  0
POINT
  8
3
 10
-65.81499027766060
 20
1228.456433959269
  0
POINT
  8
3
 10
47.33950786869507
 20
1236.667613209153
  0
POINT
  8
3
 10
125.9950485024190
 20
1243.149754438521
  0
POINT
  8
3
 10
219.1295689912545
 20
1251.848567763150
  0
POINT
  8
3
 10
302.3752072169506
 20
1260.500615736265
  0
POINT
  8
3
 10
425.6691962351419
 20
1274.520439378403
  0
POINT
  8
3
 10
519.3145501745055
 20
1285.687440288295
  0
POINT
  8
3
 10
527.3503365809723
 20
1262.144373176463
  0
POINT
  8
3
 10
529.8974145433547
 20
1247.803137589814
  0
POINT
  8
3
 10
532.0986376429562
 20
1238.345213009044
  0
POINT
  8
3
 10
534.1457418537088
 20
1231.424200595935
  0
POINT
  8
3
 10
535.4386999908932
 20
1228.052548248488
  0
POINT
  8
3
 10
537.4581692185849
 20
1223.937410808644
  0
POINT
  8
3
 10
539.9885249859529
 20
1220.127262802980
  0
POINT
  8
3
 10
543.8639029070625
 20
1216.052407643584
  0
POINT
  8
3
 10
548.9716301160694
 20
1212.344610221218
  0
POINT
  8
3
 10
556.7576924461653
 20
1208.243363021898
  0
POINT
  8
3
 10
564.9655042301873
 20
1205.007826641110
  0
POINT
  8
3
 10
578.8096551926478
 20
1200.846089888439
  0
POINT
  8
3
 10
597.6264051319796
 20
1196.645921899059
  0
POINT
  8
3
 10
607.0939692106139
 20
1194.792222855243
  0
POINT
  8
3
 10
635.2199796881824
 20
1189.197344906413
  0
POLYLINE
  8
8
 66
1
 70
0
  0
VERTEX
  8
8
 10
507.5928497314453
 20
1264.210128784180
  0
VERTEX
  8
8
 10
510.2761840820313
 20
901.2004852294922
  0
SEQEND
  0
POINT
  8
2
 10
507.5928497314453
 20
1264.210128784180
  0
POINT
  8
2
 10
510.2761840820313
 20
901.2004852294922
  0
POLYLINE
  8
8
 66
1
 70
0
  0
VERTEX
  8
8
 10
636.0063934326172
 20
1168.637390136719
  0
VERTEX
  8
8
 10
609.0727233886719
 20
901.7848968505859
  0
SEQEND
  0
POINT
  8
2
 10
636.0063934326172
 20
1168.637390136719
  0
POINT
  8
2
 10
609.0727233886719
 20
901.7848968505859
  0
POLYLINE
  8
8
 66
1
 70
0
  0
VERTEX
  8
8
 10
127.7378749847412
 20
1223.227005004883
  0
VERTEX
  8
8
 10
127.7378749847412
 20
913.2270050048828
  0
SEQEND
  0
POINT
  8
2
 10
127.7378749847412
 20
1223.227005004883
  0
POINT
  8
2
 10
127.7378749847412
 20
913.2270050048828
  0
POLYLINE
  8
8
 66
1
 70
1
  0
VERTEX
  8
8
 10
740.7682800292969
 20
1116.736831665039
  0
VERTEX
  8
8
 10
719.5864868164063
 20
958.1451416015625
  0
VERTEX
  8
8
 10
580.4789352416992
 20
983.2823181152344
  0
VERTEX
  8
8
 10
570.4251040439699
 20
985.3977208880889
 70
8
  0
VERTEX
  8
8
 10
565.8633742591559
 20
986.8211204828895
 70
8
  0
VERTEX
  8
8
 10
561.8598674512026
 20
988.6833579277380
 70
8
  0
VERTEX
  8
8
 10
558.6006579457304
 20
991.1307125059840
 70
8
  0
VERTEX
  8
8
 10
556.2718200683594
 20
994.3094635009766
 70
8
  0
VERTEX
  8
8
 10
555.0825669549736
 20
997.7190319687452
 70
8
  0
VERTEX
  8
8
 10
554.4531080073383
 20
1001.568673450973
 70
8
  0
VERTEX
  8
8
 10
554.1035461425781
 20
1005.638351440430
  0
VERTEX
  8
8
 10
551.7617034912109
 20
1061.270446777344
  0
VERTEX
  8
8
 10
568.6216354370117
 20
1114.337997436523
  0
VERTEX
  8
8
 10
570.0270058012886
 20
1118.173268406115
 70
8
  0
VERTEX
  8
8
 10
571.6447134436274
 20
1121.722761502517
 70
8
  0
VERTEX
  8
8
 10
573.6870956420898
 20
1124.700698852539
 70
8
  0
VERTEX
  8
8
 10
576.7685454528174
 20
1127.156848021014
 70
8
  0
VERTEX
  8
8
 10
580.5558039117066
 20
1128.663072163644
 70
8
  0
VERTEX
  8
8
 10
584.9077092891245
 20
1129.409356285599
 70
8
  0
VERTEX
  8
8
 10
589.6830998554392
 20
1129.585685392048
 70
8
  0
VERTEX
  8
8
 10
599.9396896362305
 20
1128.988418579102
  0
SEQEND
  0
POINT
  8
2
 10
740.7682800292969
 20
1116.736831665039
  0
POINT
  8
2
 10
719.5864868164063
 20
958.1451416015625
  0
POINT
  8
2
 10
580.4789352416992
 20
983.2823181152344
  0
POINT
  8
2
 10
551.7617034912109
 20
1061.270446777344
  0
POINT
  8
2
 10
599.9396896362305
 20
1128.988418579102
  0
POINT
  8
3
 10
570.4251040439699
 20
985.3977208880889
  0
POINT
  8
3
 10
565.8633742591559
 20
986.8211204828895
  0
POINT
  8
3
 10
561.8598674512026
 20
988.6833579277380
  0
POINT
  8
3
 10
558.6006579457304
 20
991.1307125059840
  0
POINT
  8
3
 10
556.2718200683594
 20
994.3094635009766
  0
POINT
  8
3
 10
571.6447134436274
 20
1121.722761502517
  0
POINT
  8
3
 10
573.6870956420898
 20
1124.700698852539
  0
POINT
  8
3
 10
580.5558039117066
 20
1128.663072163644
  0
POINT
  8
3
 10
584.9077092891245
 20
1129.409356285599
  0
POINT
  8
3
 10
589.6830998554392
 20
1129.585685392048
  0
ENDBLK
  0
BLOCK
  8
1
  2
3
 70
64
 10
0.0
 20
0.0
  0
LINE
  8
7
 10
1556.126861572266
 20
817.3992919921875
 11
1648.663635253906
 21
817.3992919921875
  0
TEXT
  8
1
 10
1524.395172119141
 20
830.5992919921874
 40
10.00000000000000
 50
0.0000000000000000
 51
0.0000000000000000
 71
0
  1
Size: 36
  0
TEXT
  8
1
 10
1524.395172119141
 20
841.5992919921873
 40
10.00000000000000
 50
0.0000000000000000
 51
0.0000000000000000
 71
0
  1
Piece Name: BACK PKT FINISH
  0
TEXT
  8
1
 10
1524.395172119141
 20
819.5992919921875
 40
10.00000000000000
 50
0.0000000000000000
 51
0.0000000000000000
 71
0
  1
Sample Size
  0
TEXT
  8
1
 10
1524.395172119141
 20
808.5992919921874
 40
10.00000000000000
 50
0.0000000000000000
 51
0.0000000000000000
 71
0
  1
Quantity: 0
  0
TEXT
  8
1
 10
1524.395172119141
 20
797.5992919921874
 40
10.00000000000000
 50
0.0000000000000000
 51
0.0000000000000000
 71
0
  1
Material: FINISH
  0
TEXT
  8
1
 10
1524.395172119141
 20
786.5992919921873
 40
10.00000000000000
 50
0.0000000000000000
 51
0.0000000000000000
 71
0
  1
Quality: 19.10.2022
  0
TEXT
  8
1
 10
1524.395172119141
 20
775.5992919921874
 40
10.00000000000000
 50
0.0000000000000000
 51
0.0000000000000000
 71
0
  1
Area: 0.0263
  0
POLYLINE
  8
1
 66
1
 70
1
  0
VERTEX
  8
1
 10
1679.509124755859
 20
858.6492919921875
  0
VERTEX
  8
1
 10
1679.509124755859
 20
778.6492919921875
  0
VERTEX
  8
1
 10
1538.298187255859
 20
785.1493072509766
  0
VERTEX
  8
1
 10
1528.052776629053
 20
785.9151154742545
 70
8
  0
VERTEX
  8
1
 10
1523.342749667666
 20
786.7220839560940
 70
8
  0
VERTEX
  8
1
 10
1519.127936728699
 20
788.0379296821739
 70
8
  0
VERTEX
  8
1
 10
1515.573409152958
 20
790.0322784005741
 70
8
  0
VERTEX
  8
1
 10
1512.844238281250
 20
792.8747558593750
 70
8
  0
VERTEX
  8
1
 10
1511.214074569972
 20
796.0968623746907
 70
8
  0
VERTEX
  8
1
 10
1510.080512585665
 20
799.8292721263151
 70
8
  0
VERTEX
  8
1
 10
1509.195251464844
 20
803.8168334960938
  0
VERTEX
  8
1
 10
1499.509124755859
 20
858.6492919921875
  0
SEQEND
  0
POINT
  8
2
 10
1679.509124755859
 20
858.6492919921875
  0
POINT
  8
2
 10
1679.509124755859
 20
778.6492919921875
  0
POINT
  8
2
 10
1538.298187255859
 20
785.1493072509766
  0
POINT
  8
2
 10
1499.509124755859
 20
858.6492919921875
  0
POINT
  8
3
 10
1528.052776629053
 20
785.9151154742545
  0
POINT
  8
3
 10
1523.342749667666
 20
786.7220839560940
  0
POINT
  8
3
 10
1519.127936728699
 20
788.0379296821739
  0
POINT
  8
3
 10
1515.573409152958
 20
790.0322784005741
  0
POINT
  8
3
 10
1512.844238281250
 20
792.8747558593750
  0
POINT
  8
3
 10
1511.214074569972
 20
796.0968623746907
  0
LINE
  8
6
 10
1679.509124755859
 20
858.6492919921875
 11
1499.509124755859
 21
858.6492919921875
  0
ENDBLK
  0
BLOCK
  8
1
  2
4
 70
64
 10
0.0
 20
0.0
  0
LINE
  8
7
 10
-139.5055007934570
 20
308.6542129516602
 11
323.9945220947266
 21
308.6542129516602
  0
TEXT
  8
1
 10
35.24449157714844
 20
321.8542129516601
 40
10.00000000000000
 50
0.0000000000000000
 51
0.0000000000000000
 71
0
  1
Size: 36
  0
TEXT
  8
1
 10
35.24449157714844
 20
332.8542129516602
 40
10.00000000000000
 50
0.0000000000000000
 51
0.0000000000000000
 71
0
  1
Piece Name: LOOP 1X1
  0
TEXT
  8
1
 10
35.24449157714844
 20
310.8542129516601
 40
10.00000000000000
 50
0.0000000000000000
 51
0.0000000000000000
 71
0
  1
Sample Size
  0
TEXT
  8
1
 10
35.24449157714844
 20
299.8542129516601
 40
10.00000000000000
 50
0.0000000000000000
 51
0.0000000000000000
 71
0
  1
Quantity: 1
  0
TEXT
  8
1
 10
35.24449157714844
 20
288.8542129516601
 40
10.00000000000000
 50
0.0000000000000000
 51
0.0000000000000000
 71
0
  1
Material: SHELL
  0
TEXT
  8
1
 10
35.24449157714844
 20
277.8542129516602
 40
10.00000000000000
 50
0.0000000000000000
 51
0.0000000000000000
 71
0
  1
Quality: 19.10.2022
  0
TEXT
  8
1
 10
35.24449157714844
 20
266.8542129516601
 40
10.00000000000000
 50
0.0000000000000000
 51
0.0000000000000000
 71
0
  1
Area: 0.0216
  0
POLYLINE
  8
1
 66
1
 70
1
  0
VERTEX
  8
1
 10
-294.0055084228516
 20
294.6540260314941
  0
VERTEX
  8
1
 10
-294.0055084228516
 20
322.6544189453125
  0
VERTEX
  8
1
 10
478.4944915771484
 20
322.6544189453125
  0
VERTEX
  8
1
 10
478.4944915771484
 20
294.6540260314941
  0
SEQEND
  0
POINT
  8
2
 10
-294.0055084228516
 20
294.6540260314941
  0
POINT
  8
2
 10
-294.0055084228516
 20
322.6544189453125
  0
POINT
  8
2
 10
478.4944915771484
 20
322.6544189453125
  0
POINT
  8
2
 10
478.4944915771484
 20
294.6540260314941
  0
ENDBLK
  0
BLOCK
  8
1
  2
5
 70
64
 10
0.0
 20
0.0
  0
LINE
  8
7
 10
1607.765808105469
 20
477.6089096069336
 11
1714.239196777344
 21
477.6089096069336
  0
TEXT
  8
1
 10
1589.002502441406
 20
490.8089096069336
 40
10.00000000000000
 50
0.0000000000000000
 51
0.0000000000000000
 71
0
  1
Size: 36
  0
TEXT
  8
1
 10
1589.002502441406
 20
501.8089096069336
 40
10.00000000000000
 50
0.0000000000000000
 51
0.0000000000000000
 71
0
  1
Piece Name: S/FLY  FINISH
  0
TEXT
  8
1
 10
1589.002502441406
 20
479.8089096069336
 40
10.00000000000000
 50
0.0000000000000000
 51
0.0000000000000000
 71
0
  1
Sample Size
  0
TEXT
  8
1
 10
1589.002502441406
 20
468.8089096069336
 40
10.00000000000000
 50
0.0000000000000000
 51
0.0000000000000000
 71
0
  1
Quantity: 0
  0
TEXT
  8
1
 10
1589.002502441406
 20
457.8089096069336
 40
10.00000000000000
 50
0.0000000000000000
 51
0.0000000000000000
 71
0
  1
Material: FINISH
  0
TEXT
  8
1
 10
1589.002502441406
 20
446.8089096069336
 40
10.00000000000000
 50
0.0000000000000000
 51
0.0000000000000000
 71
0
  1
Quality: 19.10.2022
  0
TEXT
  8
1
 10
1589.002502441406
 20
435.8089096069336
 40
10.00000000000000
 50
0.0000000000000000
 51
0.0000000000000000
 71
0
  1
Area: 0.0056
  0
POLYLINE
  8
1
 66
1
 70
1
  0
VERTEX
  8
1
 10
1569.180297851563
 20
492.6091384887695
  0
VERTEX
  8
1
 10
1734.230499267578
 20
492.6091384887695
  0
VERTEX
  8
1
 10
1744.234579213852
 20
492.6091384887675
  0
VERTEX
  8
1
 10
1745.234487661116
 20
457.6086807250977
  0
VERTEX
  8
1
 10
1735.230407714844
 20
457.6086807250977
  0
VERTEX
  8
1
 10
1627.417755126953
 20
457.6086807250977
  0
VERTEX
  8
1
 10
1609.363629616470
 20
457.7289075829866
 70
8
  0
VERTEX
  8
1
 10
1598.149720149071
 20
458.5295304278478
 70
8
  0
VERTEX
  8
1
 10
1592.974406873656
 20
459.3080894435695
 70
8
  0
VERTEX
  8
1
 10
1588.169071991057
 20
460.4108606821121
 70
8
  0
VERTEX
  8
1
 10
1583.795378566743
 20
461.8918795139457
 70
8
  0
VERTEX
  8
1
 10
1579.914989666182
 20
463.8051813095406
 70
8
  0
VERTEX
  8
1
 10
1576.589568354845
 20
466.2048014393668
 70
8
  0
VERTEX
  8
1
 10
1573.880777698201
 20
469.1447752738944
 70
8
  0
VERTEX
  8
1
 10
1571.850280761719
 20
472.6791381835938
 70
8
  0
VERTEX
  8
1
 10
1570.692428003998
 20
476.1184528128076
 70
8
  0
VERTEX
  8
1
 10
1569.950479363403
 20
479.9222243965692
 70
8
  0
VERTEX
  8
1
 10
1569.298390316467
 20
488.2586814731869
 70
8
  0
SEQEND
  0
POLYLINE
  8
14
 66
1
 70
1
  0
VERTEX
  8
14
 10
1627.417755126953
 20
457.6086807250977
  0
VERTEX
  8
14
 10
1609.363629616470
 20
457.7289075829866
 70
8
  0
VERTEX
  8
14
 10
1598.149720149071
 20
458.5295304278478
 70
8
  0
VERTEX
  8
14
 10
1592.974406873656
 20
459.3080894435695
 70
8
  0
VERTEX
  8
14
 10
1588.169071991057
 20
460.4108606821121
 70
8
  0
VERTEX
  8
14
 10
1583.795378566743
 20
461.8918795139457
 70
8
  0
VERTEX
  8
14
 10
1579.914989666182
 20
463.8051813095406
 70
8
  0
VERTEX
  8
14
 10
1576.589568354845
 20
466.2048014393668
 70
8
  0
VERTEX
  8
14
 10
1573.880777698201
 20
469.1447752738944
 70
8
  0
VERTEX
  8
14
 10
1571.850280761719
 20
472.6791381835938
 70
8
  0
VERTEX
  8
14
 10
1570.692428003998
 20
476.1184528128076
 70
8
  0
VERTEX
  8
14
 10
1569.950479363403
 20
479.9222243965692
 70
8
  0
VERTEX
  8
14
 10
1569.298390316467
 20
488.2586814731869
 70
8
  0
VERTEX
  8
14
 10
1569.180297851563
 20
492.6091384887695
  0
VERTEX
  8
14
 10
1734.230499267578
 20
492.6091384887695
  0
VERTEX
  8
14
 10
1735.230407714844
 20
457.6086807250977
  0
SEQEND
  0
POINT
  8
2
 10
1627.417755126953
 20
457.6086807250977
  0
POINT
  8
2
 10
1569.180297851563
 20
492.6091384887695
  0
POINT
  8
2
 10
1734.230499267578
 20
492.6091384887695
  0
POINT
  8
2
 10
1735.230407714844
 20
457.6086807250977
  0
POINT
  8
2
 10
1569.180297851563
 20
492.6091384887695
  0
POINT
  8
2
 10
1734.230499267578
 20
492.6091384887695
  0
POINT
  8
2
 10
1744.234579213852
 20
492.6091384887675
  0
POINT
  8
2
 10
1745.234487661116
 20
457.6086807250977
  0
POINT
  8
2
 10
1735.230407714844
 20
457.6086807250977
  0
POINT
  8
2
 10
1627.417755126953
 20
457.6086807250977
  0
POINT
  8
3
 10
1609.363629616470
 20
457.7289075829866
  0
POINT
  8
3
 10
1598.149720149071
 20
458.5295304278478
  0
POINT
  8
3
 10
1592.974406873656
 20
459.3080894435695
  0
POINT
  8
3
 10
1588.169071991057
 20
460.4108606821121
  0
POINT
  8
3
 10
1583.795378566743
 20
461.8918795139457
  0
POINT
  8
3
 10
1579.914989666182
 20
463.8051813095406
  0
POINT
  8
3
 10
1576.589568354845
 20
466.2048014393668
  0
POINT
  8
3
 10
1573.880777698201
 20
469.1447752738944
  0
POINT
  8
3
 10
1571.850280761719
 20
472.6791381835938
  0
POINT
  8
3
 10
1570.692428003998
 20
476.1184528128076
  0
POINT
  8
3
 10
1569.950479363403
 20
479.9222243965692
  0
ENDBLK
  0
BLOCK
  8
1
  2
6
 70
64
 10
0.0
 20
0.0
  0
LINE
  8
7
 10
1120.628356933594
 20
398.4675598144531
 11
1227.101669311523
 21
398.4674835205078
  0
TEXT
  8
1
 10
1113.864974975586
 20
411.6675216674805
 40
10.00000000000000
 50
0.0000000000000000
 51
0.0000000000000000
 71
0
  1
Size: 36
  0
TEXT
  8
1
 10
1113.864974975586
 20
422.6675216674805
 40
10.00000000000000
 50
0.0000000000000000
 51
0.0000000000000000
 71
0
  1
Piece Name: S/FLY 1X1
  0
TEXT
  8
1
 10
1113.864974975586
 20
400.6675216674805
 40
10.00000000000000
 50
0.0000000000000000
 51
0.0000000000000000
 71
0
  1
Sample Size
  0
TEXT
  8
1
 10
1113.864974975586
 20
389.6675216674805
 40
10.00000000000000
 50
0.0000000000000000
 51
0.0000000000000000
 71
0
  1
Quantity: 1
  0
TEXT
  8
1
 10
1113.864974975586
 20
378.6675216674805
 40
10.00000000000000
 50
0.0000000000000000
 51
0.0000000000000000
 71
0
  1
Material: SHELL
  0
TEXT
  8
1
 10
1113.864974975586
 20
367.6675216674805
 40
10.00000000000000
 50
0.0000000000000000
 51
0.0000000000000000
 71
0
  1
Quality: 19.10.2022
  0
TEXT
  8
1
 10
1113.864974975586
 20
356.6675216674805
 40
10.00000000000000
 50
0.0000000000000000
 51
0.0000000000000000
 71
0
  1
Area: 0.0056
  0
POLYLINE
  8
1
 66
1
 70
1
  0
VERTEX
  8
1
 10
1076.547318779190
 20
373.4701156616212
  0
VERTEX
  8
1
 10
1077.178309154322
 20
390.5580876807055
 70
8
  0
VERTEX
  8
1
 10
1077.593454496059
 20
394.8398749160216
 70
8
  0
VERTEX
  8
1
 10
1078.864427380513
 20
401.9850617003981
 70
8
  0
VERTEX
  8
1
 10
1080.041545772793
 20
405.3891645622584
 70
8
  0
VERTEX
  8
1
 10
1081.878636855132
 20
408.8066984687300
 70
8
  0
VERTEX
  8
1
 10
1084.267061887697
 20
411.8800021842788
 70
8
  0
VERTEX
  8
1
 10
1087.123747104328
 20
414.5252453714986
 70
8
  0
VERTEX
  8
1
 10
1090.333626988178
 20
416.7205577658357
 70
8
  0
VERTEX
  8
1
 10
1093.759368763570
 20
418.4663378453902
 70
8
  0
VERTEX
  8
1
 10
1097.362809341443
 20
419.8392676361367
 70
8
  0
VERTEX
  8
1
 10
1104.880866231992
 20
421.7298538668302
 70
8
  0
VERTEX
  8
1
 10
1113.648000284304
 20
422.9728778529366
 70
8
  0
VERTEX
  8
1
 10
1126.877496720001
 20
423.6098670680045
 70
8
  0
VERTEX
  8
1
 10
1140.157051382643
 20
423.4670030447079
  0
VERTEX
  8
1
 10
1258.239728401108
 20
423.4700393676758
  0
VERTEX
  8
1
 10
1256.811286828030
 20
373.4701156616211
  0
SEQEND
  0
POLYLINE
  8
14
 66
1
 70
1
  0
VERTEX
  8
14
 10
1140.280227661133
 20
418.4700393676758
  0
VERTEX
  8
14
 10
1248.092803955078
 20
418.4700393676758
  0
VERTEX
  8
14
 10
1247.092895507813
 20
383.4701156616211
  0
VERTEX
  8
14
 10
1082.042846679688
 20
383.4701156616211
  0
VERTEX
  8
14
 10
1082.383003669470
 20
392.0799244691096
 70
8
  0
VERTEX
  8
14
 10
1082.813023655176
 20
396.1570400566330
 70
8
  0
VERTEX
  8
14
 10
1083.554973429858
 20
399.9608090646916
 70
8
  0
VERTEX
  8
14
 10
1084.712829589844
 20
403.4001159667969
 70
8
  0
VERTEX
  8
14
 10
1086.743325265270
 20
406.9344496845218
 70
8
  0
VERTEX
  8
14
 10
1089.452113331266
 20
409.8743903324243
 70
8
  0
VERTEX
  8
14
 10
1092.777530843233
 20
412.2739736441250
 70
8
  0
VERTEX
  8
14
 10
1096.657914856575
 20
414.1872353532440
 70
8
  0
VERTEX
  8
14
 10
1101.031602426694
 20
415.6682111934014
 70
8
  0
VERTEX
  8
14
 10
1105.836930608993
 20
416.7709368982174
 70
8
  0
VERTEX
  8
14
 10
1111.012236458876
 20
417.5494482013124
 70
8
  0
VERTEX
  8
14
 10
1122.226129383001
 20
418.3499705368192
 70
8
  0
SEQEND
  0
POINT
  8
2
 10
1140.280227661133
 20
418.4700393676758
  0
POINT
  8
2
 10
1248.092803955078
 20
418.4700393676758
  0
POINT
  8
2
 10
1247.092895507813
 20
383.4701156616211
  0
POINT
  8
2
 10
1082.042846679688
 20
383.4701156616211
  0
POINT
  8
2
 10
1076.547318779190
 20
373.4701156616212
  0
POINT
  8
2
 10
1140.157051382643
 20
423.4670030447079
  0
POINT
  8
2
 10
1258.239728401108
 20
423.4700393676758
  0
POINT
  8
2
 10
1256.811286828030
 20
373.4701156616211
  0
POINT
  8
3
 10
1077.178309154322
 20
390.5580876807055
  0
POINT
  8
3
 10
1077.593454496059
 20
394.8398749160216
  0
POINT
  8
3
 10
1078.864427380513
 20
401.9850617003981
  0
POINT
  8
3
 10
1080.041545772793
 20
405.3891645622584
  0
POINT
  8
3
 10
1081.878636855132
 20
408.8066984687300
  0
POINT
  8
3
 10
1084.267061887697
 20
411.8800021842788
  0
POINT
  8
3
 10
1087.123747104328
 20
414.5252453714986
  0
POINT
  8
3
 10
1090.333626988178
 20
416.7205577658357
  0
POINT
  8
3
 10
1093.759368763570
 20
418.4663378453902
  0
POINT
  8
3
 10
1097.362809341443
 20
419.8392676361367
  0
POINT
  8
3
 10
1104.880866231992
 20
421.7298538668302
  0
POINT
  8
3
 10
1113.648000284304
 20
422.9728778529366
  0
POINT
  8
3
 10
1126.877496720001
 20
423.6098670680045
  0
POINT
  8
3
 10
1135.728061150555
 20
423.5531356568371
  0
ENDBLK
  0
BLOCK
  8
1
  2
7
 70
64
 10
0.0
 20
0.0
  0
LINE
  8
7
 10
498.1130218505859
 20
372.8780364990234
 11
610.7779693603516
 21
372.8780364990234
  0
TEXT
  8
1
 10
494.4454956054688
 20
386.0780364990234
 40
10.00000000000000
 50
0.0000000000000000
 51
0.0000000000000000
 71
0
  1
Size: 36
  0
TEXT
  8
1
 10
494.4454956054688
 20
397.0780364990235
 40
10.00000000000000
 50
0.0000000000000000
 51
0.0000000000000000
 71
0
  1
Piece Name: D/FLY 1X1
  0
TEXT
  8
1
 10
494.4454956054688
 20
375.0780364990234
 40
10.00000000000000
 50
0.0000000000000000
 51
0.0000000000000000
 71
0
  1
Sample Size
  0
TEXT
  8
1
 10
494.4454956054688
 20
364.0780364990234
 40
10.00000000000000
 50
0.0000000000000000
 51
0.0000000000000000
 71
0
  1
Quantity: 1
  0
TEXT
  8
1
 10
494.4454956054688
 20
353.0780364990235
 40
10.00000000000000
 50
0.0000000000000000
 51
0.0000000000000000
 71
0
  1
Material: SHELL
  0
TEXT
  8
1
 10
494.4454956054688
 20
342.0780364990235
 40
10.00000000000000
 50
0.0000000000000000
 51
0.0000000000000000
 71
0
  1
Quality: 19.10.2022
  0
TEXT
  8
1
 10
494.4454956054688
 20
331.0780364990234
 40
10.00000000000000
 50
0.0000000000000000
 51
0.0000000000000000
 71
0
  1
Area: 0.0139
  0
POLYLINE
  8
1
 66
1
 70
1
  0
VERTEX
  8
1
 10
643.3329772949219
 20
395.4779815673828
  0
VERTEX
  8
1
 10
643.3329772949219
 20
345.2780914306641
  0
VERTEX
  8
1
 10
438.2766166078541
 20
345.2780914306641
  0
VERTEX
  8
1
 10
457.5698878279263
 20
395.4779815673828
  0
SEQEND
  0
POLYLINE
  8
14
 66
1
 70
1
  0
VERTEX
  8
14
 10
633.3329772949219
 20
395.4779815673828
  0
VERTEX
  8
14
 10
633.3329772949219
 20
355.2780914306641
  0
VERTEX
  8
14
 10
452.8330230712891
 20
355.2780914306641
  0
VERTEX
  8
14
 10
468.2830047607422
 20
395.4779815673828
  0
SEQEND
  0
POINT
  8
2
 10
633.3329772949219
 20
395.4779815673828
  0
POINT
  8
2
 10
633.3329772949219
 20
355.2780914306641
  0
POINT
  8
2
 10
452.8330230712891
 20
355.2780914306641
  0
POINT
  8
2
 10
468.2830047607422
 20
395.4779815673828
  0
POINT
  8
2
 10
643.3329772949219
 20
395.4779815673828
  0
POINT
  8
2
 10
643.3329772949219
 20
345.2780914306641
  0
POINT
  8
2
 10
438.2766166078541
 20
345.2780914306641
  0
POINT
  8
2
 10
457.5698878279263
 20
395.4779815673828
  0
LINE
  8
6
 10
643.3329772949219
 20
395.4779815673828
 11
457.5698878279263
 21
395.4779815673828
  0
ENDBLK
  0
BLOCK
  8
1
  2
8
 70
64
 10
0.0
 20
0.0
  0
LINE
  8
7
 10
-931.2650299072266
 20
882.7866363525391
 11
-757.4521636962891
 21
881.6679382324219
  0
TEXT
  8
1
 10
-925.3585968017578
 20
895.4272491455077
 40
10.00000000000000
 50
0.0000000000000000
 51
0.0000000000000000
 71
0
  1
Size: 36
  0
TEXT
  8
1
 10
-925.3585968017578
 20
906.4272491455076
 40
10.00000000000000
 50
0.0000000000000000
 51
0.0000000000000000
 71
0
  1
Piece Name: FRONT PKTING 1X2
  0
TEXT
  8
1
 10
-925.3585968017578
 20
884.4272491455079
 40
10.00000000000000
 50
0.0000000000000000
 51
0.0000000000000000
 71
0
  1
Sample Size
  0
TEXT
  8
1
 10
-925.3585968017578
 20
873.4272491455077
 40
10.00000000000000
 50
0.0000000000000000
 51
0.0000000000000000
 71
0
  1
Quantity: 0
  0
TEXT
  8
1
 10
-925.3585968017578
 20
862.4272491455077
 40
10.00000000000000
 50
0.0000000000000000
 51
0.0000000000000000
 71
0
  1
Material: POCKETING
  0
TEXT
  8
1
 10
-925.3585968017578
 20
851.4272491455076
 40
10.00000000000000
 50
0.0000000000000000
 51
0.0000000000000000
 71
0
  1
Quality: 19.10.2022
  0
TEXT
  8
1
 10
-925.3585968017578
 20
840.4272491455077
 40
10.00000000000000
 50
0.0000000000000000
 51
0.0000000000000000
 71
0
  1
Area: 0.0677
  0
POLYLINE
  8
1
 66
1
 70
1
  0
VERTEX
  8
1
 10
-674.7738662983737
 20
730.2579182010506
  0
VERTEX
  8
1
 10
-699.8671039670253
 20
720.7801417438952
 70
8
  0
VERTEX
  8
1
 10
-721.6376432778668
 20
713.2824017379639
 70
8
  0
VERTEX
  8
1
 10
-730.4228766161912
 20
710.5188280614208
 70
8
  0
VERTEX
  8
1
 10
-752.3062282293678
 20
704.3202158529301
 70
8
  0
VERTEX
  8
1
 10
-761.1233958996197
 20
702.0665202224491
 70
8
  0
VERTEX
  8
1
 10
-784.6564092984930
 20
696.6878020441809
 70
8
  0
VERTEX
  8
1
 10
-798.8736824947422
 20
693.9592317546090
 70
8
  0
VERTEX
  8
1
 10
-823.0549941589743
 20
690.2779360458235
 70
8
  0
VERTEX
  8
1
 10
-857.1195279264111
 20
686.4627158507789
 70
8
  0
VERTEX
  8
1
 10
-871.7535509018392
 20
685.0495821876517
  0
VERTEX
  8
1
 10
-872.2335907834582
 20
693.0165529322409
 70
8
  0
VERTEX
  8
1
 10
-872.8043250980782
 20
696.9343815456753
 70
8
  0
VERTEX
  8
1
 10
-873.7719166612703
 20
700.7734220484776
 70
8
  0
VERTEX
  8
1
 10
-875.4244542961344
 20
704.5541176086692
 70
8
  0
VERTEX
  8
1
 10
-878.4992987933276
 20
708.2047153792450
 70
8
  0
VERTEX
  8
1
 10
-888.7712515781959
 20
716.9000340575185
 70
8
  0
VERTEX
  8
1
 10
-895.7243646435769
 20
723.2678033821072
 70
8
  0
VERTEX
  8
1
 10
-902.1293709615885
 20
730.2100252018977
 70
8
  0
VERTEX
  8
1
 10
-905.1137037808907
 20
733.8720308869761
 70
8
  0
VERTEX
  8
1
 10
-910.5398479253145
 20
741.3966603337827
 70
8
  0
VERTEX
  8
1
 10
-915.3872008817324
 20
749.3015901539975
 70
8
  0
VERTEX
  8
1
 10
-917.5967345489324
 20
753.3776239986161
 70
8
  0
VERTEX
  8
1
 10
-923.3085741456757
 20
765.8016619006501
 70
8
  0
VERTEX
  8
1
 10
-926.4803125946007
 20
774.3512802196932
 70
8
  0
VERTEX
  8
1
 10
-930.3156138330128
 20
787.3053849175318
 70
8
  0
VERTEX
  8
1
 10
-932.3416254050597
 20
796.0815787758713
 70
8
  0
VERTEX
  8
1
 10
-934.6085555440128
 20
808.9932462194970
 70
8
  0
VERTEX
  8
1
 10
-935.7235977334636
 20
817.6622701617686
 70
8
  0
VERTEX
  8
1
 10
-937.1633058919610
 20
834.9547384117158
 70
8
  0
VERTEX
  8
1
 10
-937.3886644369355
 20
839.2868263138881
 70
8
  0
VERTEX
  8
1
 10
-937.9595317223116
 20
863.1145574973374
 70
8
  0
VERTEX
  8
1
 10
-937.9913720860466
 20
882.1905502872130
 70
8
  0
VERTEX
  8
1
 10
-937.7336237994870
 20
915.5667573151750
 70
8
  0
VERTEX
  8
1
 10
-937.3886817428387
 20
925.0943193670946
 70
8
  0
VERTEX
  8
1
 10
-936.1733013999536
 20
942.4034291463295
 70
8
  0
VERTEX
  8
1
 10
-935.7236125675618
 20
946.7188988237967
 70
8
  0
VERTEX
  8
1
 10
-933.9368497049857
 20
959.7062815064738
 70
8
  0
VERTEX
  8
1
 10
-932.3416241853897
 20
968.2996073073365
 70
8
  0
VERTEX
  8
1
 10
-929.1471040492587
 20
981.4256009553703
 70
8
  0
VERTEX
  8
1
 10
-926.4802908206105
 20
990.0298773829979
 70
8
  0
VERTEX
  8
1
 10
-921.5353428822158
 20
1002.780388168965
 70
8
  0
VERTEX
  8
1
 10
-917.5966972103561
 20
1011.003500685742
 70
8
  0
VERTEX
  8
1
 10
-913.0352541132107
 20
1019.075715993948
 70
8
  0
VERTEX
  8
1
 10
-907.8996704079404
 20
1026.798103096452
 70
8
  0
VERTEX
  8
1
 10
-905.1136721849663
 20
1030.509067750693
 70
8
  0
VERTEX
  8
1
 10
-898.9978881015463
 20
1037.709080174702
 70
8
  0
VERTEX
  8
1
 10
-892.3137936427870
 20
1044.373885664308
 70
8
  0
VERTEX
  8
1
 10
-888.7712599901981
 20
1047.481061301448
 70
8
  0
VERTEX
  8
1
 10
-878.4993107561543
 20
1056.176416053583
 70
8
  0
VERTEX
  8
1
 10
-875.4244611059470
 20
1059.827034635230
 70
8
  0
VERTEX
  8
1
 10
-873.7719142493132
 20
1063.607760936814
 70
8
  0
VERTEX
  8
1
 10
-872.8043271633993
 20
1067.446780628909
 70
8
  0
VERTEX
  8
1
 10
-871.9274172563162
 20
1075.334917644071
 70
8
  0
VERTEX
  8
1
 10
-871.7535283689613
 20
1079.331510559395
  0
VERTEX
  8
1
 10
-832.7556693168935
 20
1075.344538097838
 70
8
  0
VERTEX
  8
1
 10
-808.5183009913505
 20
1072.042164713057
 70
8
  0
VERTEX
  8
1
 10
-798.8736774452565
 20
1070.421948062046
 70
8
  0
VERTEX
  8
1
 10
-771.9717349789669
 20
1064.915684258897
 70
8
  0
VERTEX
  8
1
 10
-754.1104857006059
 20
1060.808468642577
  0
VERTEX
  8
1
 10
-757.4477231305841
 20
1022.783332650637
 70
8
  0
VERTEX
  8
1
 10
-758.0316400579612
 20
1013.247335292994
 70
8
  0
VERTEX
  8
1
 10
-758.5348384411820
 20
994.2751445656535
 70
8
  0
VERTEX
  8
1
 10
-757.8574496960005
 20
980.0773420745227
 70
8
  0
VERTEX
  8
1
 10
-756.6626620408936
 20
970.8519621852683
 70
8
  0
VERTEX
  8
1
 10
-755.7529528284865
 20
966.2887507207541
 70
8
  0
VERTEX
  8
1
 10
-753.4836793069331
 20
958.3908164470932
 70
8
  0
VERTEX
  8
1
 10
-751.9586940155217
 20
954.5731024328144
 70
8
  0
VERTEX
  8
1
 10
-748.5232515847058
 20
948.2319826639014
 70
8
  0
VERTEX
  8
1
 10
-746.4000064333380
 20
945.3167274217254
 70
8
  0
VERTEX
  8
1
 10
-744.0564404814440
 20
942.6966915854364
 70
8
  0
VERTEX
  8
1
 10
-741.4618199161248
 20
940.3221597581377
 70
8
  0
VERTEX
  8
1
 10
-738.6462210038347
 20
938.2213816797968
 70
8
  0
VERTEX
  8
1
 10
-734.7673410296851
 20
935.9479795696615
 70
8
  0
VERTEX
  8
1
 10
-730.6756489645957
 20
934.0767981126912
 70
8
  0
VERTEX
  8
1
 10
-720.6885993516926
 20
930.7523251122346
 70
8
  0
VERTEX
  8
1
 10
-707.7565822396616
 20
927.5673740388510
 70
8
  0
VERTEX
  8
1
 10
-685.9270206318688
 20
923.4037028913417
  0
VERTEX
  8
1
 10
-686.8885269218720
 20
903.9008824592139
 70
8
  0
VERTEX
  8
1
 10
-687.5302311507198
 20
882.1206112588919
  0
VERTEX
  8
1
 10
-687.1865382504325
 20
862.6112748991263
 70
8
  0
VERTEX
  8
1
 10
-685.7747956779211
 20
830.2725036943621
 70
8
  0
VERTEX
  8
1
 10
-683.6132279146215
 20
802.6120786128972
 70
8
  0
VERTEX
  8
1
 10
-679.8717513248441
 20
768.8051162763815
 70
8
  0
SEQEND
  0
POLYLINE
  8
14
 66
1
 70
1
  0
VERTEX
  8
14
 10
-687.8278350830078
 20
738.1548309326172
  0
VERTEX
  8
14
 10
-703.8978576660156
 20
732.0806884765625
 70
8
  0
VERTEX
  8
14
 10
-725.2904421984242
 20
724.7066425923358
 70
8
  0
VERTEX
  8
14
 10
-733.9275360107422
 20
722.0004272460938
 70
8
  0
VERTEX
  8
14
 10
-759.6596203491038
 20
714.8178951950465
 70
8
  0
VERTEX
  8
14
 10
-763.9781951904297
 20
713.7270355224609
 70
8
  0
VERTEX
  8
14
 10
-786.9714837936172
 20
708.4612729787423
 70
8
  0
VERTEX
  8
14
 10
-800.8656311035156
 20
705.8050537109375
 70
8
  0
VERTEX
  8
14
 10
-824.1474864069889
 20
702.3140937787402
 70
8
  0
VERTEX
  8
14
 10
-861.6380483779535
 20
698.2540842041078
 70
8
  0
VERTEX
  8
14
 10
-866.3330078125000
 20
697.8015899658203
  0
VERTEX
  8
14
 10
-866.9564819335938
 20
702.6586914062500
 70
8
  0
VERTEX
  8
14
 10
-868.3800263833059
 20
706.5111621831296
 70
8
  0
VERTEX
  8
14
 10
-870.6368163411000
 20
709.9804649471646
 70
8
  0
VERTEX
  8
14
 10
-873.5258446364105
 20
713.1659163596902
 70
8
  0
VERTEX
  8
14
 10
-883.9762878417969
 20
722.0123291015625
 70
8
  0
VERTEX
  8
14
 10
-891.4201434714578
 20
728.9056407772205
 70
8
  0
VERTEX
  8
14
 10
-898.0539810349333
 20
736.3059153113666
 70
8
  0
VERTEX
  8
14
 10
-903.9215474224410
 20
744.1564633762230
 70
8
  0
VERTEX
  8
14
 10
-909.0665895241971
 20
752.4005956440112
 70
8
  0
VERTEX
  8
14
 10
-913.5328542304188
 20
760.9816227869527
 70
8
  0
VERTEX
  8
14
 10
-917.3640884313227
 20
769.8428554772697
 70
8
  0
VERTEX
  8
14
 10
-922.0159538575574
 20
783.5360820095582
 70
8
  0
VERTEX
  8
14
 10
-925.4850769042969
 20
797.5408935546875
 70
8
  0
VERTEX
  8
14
 10
-928.0078441313383
 20
812.2938119804165
 70
8
  0
VERTEX
  8
14
 10
-929.6131558963978
 20
827.1542982599198
 70
8
  0
VERTEX
  8
14
 10
-930.6838616701634
 20
847.0957682793625
 70
8
  0
VERTEX
  8
14
 10
-930.9920501708984
 20
882.1905517578125
 70
8
  0
VERTEX
  8
14
 10
-930.6838774195570
 20
917.2853709649088
 70
8
  0
VERTEX
  8
14
 10
-929.6131732729895
 20
937.2268609734720
 70
8
  0
VERTEX
  8
14
 10
-928.0078563953157
 20
952.0873594972563
 70
8
  0
VERTEX
  8
14
 10
-925.4850769042969
 20
966.8402862548828
 70
8
  0
VERTEX
  8
14
 10
-922.0159414656860
 20
980.8450781547938
 70
8
  0
VERTEX
  8
14
 10
-917.3640631731146
 20
994.5382836640409
 70
8
  0
VERTEX
  8
14
 10
-913.5328221426220
 20
1003.399503110446
 70
8
  0
VERTEX
  8
14
 10
-909.0665534132791
 20
1011.980518702470
 70
8
  0
VERTEX
  8
14
 10
-903.9215113018056
 20
1020.224642034478
 70
8
  0
VERTEX
  8
14
 10
-898.0539501249211
 20
1028.075184700836
 70
8
  0
VERTEX
  8
14
 10
-891.4201241993451
 20
1035.475458295909
 70
8
  0
VERTEX
  8
14
 10
-883.9762878417969
 20
1042.368774414063
 70
8
  0
VERTEX
  8
14
 10
-873.5258462310513
 20
1051.215225564796
 70
8
  0
VERTEX
  8
14
 10
-870.6368182487931
 20
1054.400689951166
 70
8
  0
VERTEX
  8
14
 10
-868.3800278820111
 20
1057.870005415385
 70
8
  0
VERTEX
  8
14
 10
-866.9564819335938
 20
1061.722488403320
 70
8
  0
VERTEX
  8
14
 10
-866.3330078125000
 20
1066.579513549805
  0
VERTEX
  8
14
 10
-828.8027627459415
 20
1062.721645963561
 70
8
  0
VERTEX
  8
14
 10
-805.5018810593089
 20
1059.385617967716
 70
8
  0
VERTEX
  8
14
 10
-800.8656311035156
 20
1058.576126098633
 70
8
  0
VERTEX
  8
14
 10
-777.7780148562715
 20
1053.820899842684
 70
8
  0
VERTEX
  8
14
 10
-763.9781951904297
 20
1050.654067993164
  0
VERTEX
  8
14
 10
-766.5777923519464
 20
1020.869936506719
 70
8
  0
VERTEX
  8
14
 10
-767.4484979639805
 20
1003.603679652724
 70
8
  0
VERTEX
  8
14
 10
-767.3651306277250
 20
987.1740379280889
 70
8
  0
VERTEX
  8
14
 10
-766.6028317011180
 20
976.8406583556364
 70
8
  0
VERTEX
  8
14
 10
-765.1514800896349
 20
967.1115008210553
 70
8
  0
VERTEX
  8
14
 10
-762.9050676879106
 20
958.0795225609415
 70
8
  0
VERTEX
  8
14
 10
-759.7575863905793
 20
949.8376808118906
 70
8
  0
VERTEX
  8
14
 10
-757.8128173731345
 20
946.0421102654495
 70
8
  0
VERTEX
  8
14
 10
-755.6030280922756
 20
942.4789328104980
 70
8
  0
VERTEX
  8
14
 10
-753.1149675348325
 20
939.1597681016095
 70
8
  0
VERTEX
  8
14
 10
-750.3353846876339
 20
936.0962357933593
 70
8
  0
VERTEX
  8
14
 10
-747.2510285375098
 20
933.2999555403212
 70
8
  0
VERTEX
  8
14
 10
-743.8486480712891
 20
930.7825469970703
 70
8
  0
VERTEX
  8
14
 10
-740.1981840925591
 20
928.5895863743953
 70
8
  0
VERTEX
  8
14
 10
-736.2610482997519
 20
926.6480048283914
 70
8
  0
VERTEX
  8
14
 10
-727.6541709670521
 20
923.4072549323214
 70
8
  0
VERTEX
  8
14
 10
-718.2828354634801
 20
920.8368492407078
 70
8
  0
VERTEX
  8
14
 10
-698.2660675048828
 20
916.8132781982422
  0
VERTEX
  8
14
 10
-698.8787078857422
 20
904.3711853027344
 70
8
  0
VERTEX
  8
14
 10
-699.5267486572266
 20
882.1905517578125
  0
VERTEX
  8
14
 10
-699.1750335693359
 20
862.1498107910156
 70
8
  0
VERTEX
  8
14
 10
-697.7655558828270
 20
829.4734743379429
 70
8
  0
VERTEX
  8
14
 10
-695.5699157714844
 20
801.5272521972656
 70
8
  0
VERTEX
  8
14
 10
-691.7032203207541
 20
767.3708579715940
 70
8
  0
SEQEND
  0
POINT
  8
2
 10
-687.8278350830078
 20
738.1548309326172
  0
POINT
  8
2
 10
-866.3330078125000
 20
697.8015899658203
  0
POINT
  8
2
 10
-930.9920501708984
 20
882.1905517578125
  0
POINT
  8
2
 10
-866.3330078125000
 20
1066.579513549805
  0
POINT
  8
2
 10
-763.9781951904297
 20
1050.654067993164
  0
POINT
  8
2
 10
-698.2660675048828
 20
916.8132781982422
  0
POINT
  8
2
 10
-699.5267486572266
 20
882.1905517578125
  0
POINT
  8
2
 10
-674.7738662983737
 20
730.2579182010506
  0
POINT
  8
2
 10
-871.7535509018392
 20
685.0495821876517
  0
POINT
  8
2
 10
-937.9913720860466
 20
882.1905502872130
  0
POINT
  8
2
 10
-871.7535283689613
 20
1079.331510559395
  0
POINT
  8
2
 10
-754.1104857006059
 20
1060.808468642577
  0
POINT
  8
2
 10
-685.9270206318688
 20
923.4037028913417
  0
POINT
  8
2
 10
-687.5302311507198
 20
882.1206112588919
  0
POINT
  8
3
 10
-699.8671039670253
 20
720.7801417438952
  0
POINT
  8
3
 10
-721.6376432778668
 20
713.2824017379639
  0
POINT
  8
3
 10
-730.4228766161912
 20
710.5188280614208
  0
POINT
  8
3
 10
-752.3062282293678
 20
704.3202158529301
  0
POINT
  8
3
 10
-761.1233958996197
 20
702.0665202224491
  0
POINT
  8
3
 10
-784.6564092984930
 20
696.6878020441809
  0
POINT
  8
3
 10
-798.8736824947422
 20
693.9592317546090
  0
POINT
  8
3
 10
-823.0549941589743
 20
690.2779360458235
  0
POINT
  8
3
 10
-857.1195279264111
 20
686.4627158507789
  0
POINT
  8
3
 10
-866.8748265854124
 20
685.5160737019007
  0
POINT
  8
3
 10
-872.2335907834582
 20
693.0165529322409
  0
POINT
  8
3
 10
-872.8043250980782
 20
696.9343815456753
  0
POINT
  8
3
 10
-873.7719166612703
 20
700.7734220484776
  0
POINT
  8
3
 10
-875.4244542961344
 20
704.5541176086692
  0
POINT
  8
3
 10
-878.4992987933276
 20
708.2047153792450
  0
POINT
  8
3
 10
-888.7712515781959
 20
716.9000340575185
  0
POINT
  8
3
 10
-895.7243646435769
 20
723.2678033821072
  0
POINT
  8
3
 10
-902.1293709615885
 20
730.2100252018977
  0
POINT
  8
3
 10
-905.1137037808907
 20
733.8720308869761
  0
POINT
  8
3
 10
-910.5398479253145
 20
741.3966603337827
  0
POINT
  8
3
 10
-915.3872008817324
 20
749.3015901539975
  0
POINT
  8
3
 10
-917.5967345489324
 20
753.3776239986161
  0
POINT
  8
3
 10
-923.3085741456757
 20
765.8016619006501
  0
POINT
  8
3
 10
-926.4803125946007
 20
774.3512802196932
  0
POINT
  8
3
 10
-930.3156138330128
 20
787.3053849175318
  0
POINT
  8
3
 10
-932.3416254050597
 20
796.0815787758713
  0
POINT
  8
3
 10
-934.6085555440128
 20
808.9932462194970
  0
POINT
  8
3
 10
-935.7235977334636
 20
817.6622701617686
  0
POINT
  8
3
 10
-937.1633058919610
 20
834.9547384117158
  0
POINT
  8
3
 10
-937.3886644369355
 20
839.2868263138881
  0
POINT
  8
3
 10
-937.9595317223116
 20
863.1145574973374
  0
POINT
  8
3
 10
-937.9913720860466
 20
882.1905502872130
  0
POINT
  8
3
 10
-937.7336237994870
 20
915.5667573151750
  0
POINT
  8
3
 10
-937.3886817428387
 20
925.0943193670946
  0
POINT
  8
3
 10
-936.1733013999536
 20
942.4034291463295
  0
POINT
  8
3
 10
-935.7236125675618
 20
946.7188988237967
  0
POINT
  8
3
 10
-933.9368497049857
 20
959.7062815064738
  0
POINT
  8
3
 10
-932.3416241853897
 20
968.2996073073365
  0
POINT
  8
3
 10
-929.1471040492587
 20
981.4256009553703
  0
POINT
  8
3
 10
-926.4802908206105
 20
990.0298773829979
  0
POINT
  8
3
 10
-921.5353428822158
 20
1002.780388168965
  0
POINT
  8
3
 10
-917.5966972103561
 20
1011.003500685742
  0
POINT
  8
3
 10
-913.0352541132107
 20
1019.075715993948
  0
POINT
  8
3
 10
-907.8996704079404
 20
1026.798103096452
  0
POINT
  8
3
 10
-905.1136721849663
 20
1030.509067750693
  0
POINT
  8
3
 10
-898.9978881015463
 20
1037.709080174702
  0
POINT
  8
3
 10
-892.3137936427870
 20
1044.373885664308
  0
POINT
  8
3
 10
-888.7712599901981
 20
1047.481061301448
  0
POINT
  8
3
 10
-878.4993107561543
 20
1056.176416053583
  0
POINT
  8
3
 10
-875.4244611059470
 20
1059.827034635230
  0
POINT
  8
3
 10
-873.7719142493132
 20
1063.607760936814
  0
POINT
  8
3
 10
-872.8043271633993
 20
1067.446780628909
  0
POINT
  8
3
 10
-871.9274172563162
 20
1075.334917644071
  0
POINT
  8
3
 10
-832.7556693168935
 20
1075.344538097838
  0
POINT
  8
3
 10
-808.5183009913505
 20
1072.042164713057
  0
POINT
  8
3
 10
-798.8736774452565
 20
1070.421948062046
  0
POINT
  8
3
 10
-771.9717349789669
 20
1064.915684258897
  0
POINT
  8
3
 10
-758.5738325103969
 20
1061.846961111324
  0
POINT
  8
3
 10
-757.4477231305841
 20
1022.783332650637
  0
POINT
  8
3
 10
-758.0316400579612
 20
1013.247335292994
  0
POINT
  8
3
 10
-758.5348384411820
 20
994.2751445656535
  0
POINT
  8
3
 10
-757.8574496960005
 20
980.0773420745227
  0
POINT
  8
3
 10
-756.6626620408936
 20
970.8519621852683
  0
POINT
  8
3
 10
-755.7529528284865
 20
966.2887507207541
  0
POINT
  8
3
 10
-753.4836793069331
 20
958.3908164470932
  0
POINT
  8
3
 10
-751.9586940155217
 20
954.5731024328144
  0
POINT
  8
3
 10
-748.5232515847058
 20
948.2319826639014
  0
POINT
  8
3
 10
-746.4000064333380
 20
945.3167274217254
  0
POINT
  8
3
 10
-744.0564404814440
 20
942.6966915854364
  0
POINT
  8
3
 10
-741.4618199161248
 20
940.3221597581377
  0
POINT
  8
3
 10
-738.6462210038347
 20
938.2213816797968
  0
POINT
  8
3
 10
-734.7673410296851
 20
935.9479795696615
  0
POINT
  8
3
 10
-730.6756489645957
 20
934.0767981126912
  0
POINT
  8
3
 10
-720.6885993516926
 20
930.7523251122346
  0
POINT
  8
3
 10
-707.7565822396616
 20
927.5673740388510
  0
POINT
  8
3
 10
-690.3056806344000
 20
924.1836103220069
  0
POINT
  8
3
 10
-686.8885269218720
 20
903.9008824592139
  0
POINT
  8
3
 10
-687.4237239633102
 20
886.4775252624041
  0
POINT
  8
3
 10
-687.1865382504325
 20
862.6112748991263
  0
POINT
  8
3
 10
-685.7747956779211
 20
830.2725036943621
  0
POINT
  8
3
 10
-683.6132279146215
 20
802.6120786128972
  0
POINT
  8
3
 10
-679.8717513248441
 20
768.8051162763815
  0
POINT
  8
3
 10
-675.4298629564665
 20
735.0742788990600
  0
POLYLINE
  8
8
 66
1
 70
0
  0
VERTEX
  8
8
 10
-930.9920501708984
 20
882.1905517578125
  0
VERTEX
  8
8
 10
-699.5267486572266
 20
882.1905517578125
  0
SEQEND
  0
POINT
  8
2
 10
-930.9920501708984
 20
882.1905517578125
  0
POINT
  8
2
 10
-699.5267486572266
 20
882.1905517578125
  0
ENDBLK
  0
BLOCK
  8
1
  2
9
 70
64
 10
0.0
 20
0.0
  0
LINE
  8
7
 10
908.5222625732422
 20
684.3775177001953
 11
973.6019134521484
 21
684.3775177001953
  0
TEXT
  8
1
 10
854.0620880126953
 20
700.5775482177734
 40
10.00000000000000
 50
0.0000000000000000
 51
0.0000000000000000
 71
0
  1
Size: 36
  0
TEXT
  8
1
 10
854.0620880126953
 20
711.5775482177733
 40
10.00000000000000
 50
0.0000000000000000
 51
0.0000000000000000
 71
0
  1
Piece Name: FRONT PKT SEAM 1X2
  0
TEXT
  8
1
 10
854.0620880126953
 20
689.5775482177735
 40
10.00000000000000
 50
0.0000000000000000
 51
0.0000000000000000
 71
0
  1
Sample Size
  0
TEXT
  8
1
 10
854.0620880126953
 20
678.5775482177734
 40
10.00000000000000
 50
0.0000000000000000
 51
0.0000000000000000
 71
0
  1
Quantity: 2
  0
TEXT
  8
1
 10
854.0620880126953
 20
667.5775482177734
 40
10.00000000000000
 50
0.0000000000000000
 51
0.0000000000000000
 71
0
  1
Material: SHELL
  0
TEXT
  8
1
 10
854.0620880126953
 20
656.5775482177733
 40
10.00000000000000
 50
0.0000000000000000
 51
0.0000000000000000
 71
0
  1
Quality: 19.10.2022
  0
TEXT
  8
1
 10
854.0620880126953
 20
645.5775482177734
 40
10.00000000000000
 50
0.0000000000000000
 51
0.0000000000000000
 71
0
  1
Area: 0.0144
  0
POLYLINE
  8
1
 66
1
 70
1
  0
VERTEX
  8
1
 10
881.9954583356906
 20
773.5005246771425
  0
VERTEX
  8
1
 10
910.6374578464410
 20
767.8098665980608
 70
8
  0
VERTEX
  8
1
 10
927.9993634522059
 20
763.7768443757377
  0
VERTEX
  8
1
 10
958.5649860419830
 20
755.3341324407031
 70
8
  0
VERTEX
  8
1
 10
980.4430877333676
 20
748.1757327662946
 70
8
  0
VERTEX
  8
1
 10
989.1149777618687
 20
745.0747337807989
 70
8
  0
VERTEX
  8
1
 10
1014.266517120146
 20
735.5725217485225
  0
VERTEX
  8
1
 10
1008.193660523291
 20
692.3209569803231
 70
8
  0
VERTEX
  8
1
 10
1005.597547175606
 20
668.2160725727479
 70
8
  0
VERTEX
  8
1
 10
1003.708803744519
 20
640.7013276735306
 70
8
  0
VERTEX
  8
1
 10
1002.702365686974
 20
617.7295513388838
 70
8
  0
VERTEX
  8
1
 10
1001.718509811926
 20
590.1216636149131
  0
VERTEX
  8
1
 10
976.9343813793887
 20
592.5061547954115
 70
8
  0
VERTEX
  8
1
 10
962.1736321378950
 20
594.6250376028189
 70
8
  0
VERTEX
  8
1
 10
952.4140217401897
 20
596.5449442910743
 70
8
  0
VERTEX
  8
1
 10
939.1629965214372
 20
600.0852129423388
 70
8
  0
VERTEX
  8
1
 10
930.5623816262358
 20
603.1684876833039
 70
8
  0
VERTEX
  8
1
 10
926.3646194500449
 20
604.9643728875755
 70
8
  0
VERTEX
  8
1
 10
918.0325738031901
 20
609.2428783128785
 70
8
  0
VERTEX
  8
1
 10
914.0450542909432
 20
611.7045742806386
 70
8
  0
VERTEX
  8
1
 10
906.7196397959806
 20
617.1784582488426
 70
8
  0
VERTEX
  8
1
 10
903.3484131346519
 20
620.2653102747772
 70
8
  0
VERTEX
  8
1
 10
897.9730661693166
 20
626.2837083108084
 70
8
  0
VERTEX
  8
1
 10
895.5695345208439
 20
629.5282673918177
 70
8
  0
VERTEX
  8
1
 10
891.2871693208394
 20
636.4716938565236
 70
8
  0
VERTEX
  8
1
 10
889.4269211967809
 20
640.1031202532521
 70
8
  0
VERTEX
  8
1
 10
885.7347153412724
 20
648.9891508247216
 70
8
  0
VERTEX
  8
1
 10
882.9168512862318
 20
658.2076459633702
 70
8
  0
VERTEX
  8
1
 10
881.7951209465388
 20
662.8969738255735
 70
8
  0
VERTEX
  8
1
 10
880.0030304020029
 20
672.6733431103473
 70
8
  0
VERTEX
  8
1
 10
878.4280376311307
 20
687.4858885778447
 70
8
  0
VERTEX
  8
1
 10
877.8710720392623
 20
702.2102650949495
 70
8
  0
VERTEX
  8
1
 10
877.9083310974171
 20
712.0339703003618
 70
8
  0
VERTEX
  8
1
 10
878.8989411439751
 20
735.7003146467372
 70
8
  0
SEQEND
  0
POLYLINE
  8
14
 66
1
 70
1
  0
VERTEX
  8
14
 10
888.1165313720703
 20
760.0498199462891
  0
VERTEX
  8
14
 10
908.1121826171875
 20
756.0801696777344
 70
8
  0
VERTEX
  8
14
 10
925.0440216064453
 20
752.1491241455078
  0
VERTEX
  8
14
 10
955.0546264648438
 20
743.8544464111328
 70
8
  0
VERTEX
  8
14
 10
976.5648646475996
 20
736.8335222073484
 70
8
  0
VERTEX
  8
14
 10
985.0842285156250
 20
733.7741851806641
 70
8
  0
VERTEX
  8
14
 10
1001.154327392578
 20
727.7000427246094
  0
VERTEX
  8
14
 10
995.7469132119342
 20
688.8238365331206
 70
8
  0
VERTEX
  8
14
 10
993.6415100097656
 20
669.3267059326172
 70
8
  0
VERTEX
  8
14
 10
991.7127818152951
 20
641.5117723836006
 70
8
  0
VERTEX
  8
14
 10
990.7160186767578
 20
618.2870101928711
 70
8
  0
VERTEX
  8
14
 10
990.0167846679688
 20
598.7052917480469
  0
VERTEX
  8
14
 10
967.5338050813604
 20
601.0341075008411
 70
8
  0
VERTEX
  8
14
 10
953.9554595947266
 20
603.4032821655273
 70
8
  0
VERTEX
  8
14
 10
944.7537613675955
 20
605.7181415102012
 70
8
  0
VERTEX
  8
14
 10
935.7053267302965
 20
608.7053771737898
 70
8
  0
VERTEX
  8
14
 10
927.0193722821842
 20
612.4233038940170
 70
8
  0
VERTEX
  8
14
 10
918.9051146226116
 20
616.9302364086066
 70
8
  0
VERTEX
  8
14
 10
915.1277522758257
 20
619.4978031943260
 70
8
  0
VERTEX
  8
14
 10
911.5717703509329
 20
622.2844894552825
 70
8
  0
VERTEX
  8
14
 10
908.2633209228516
 20
625.2975845336914
 70
8
  0
VERTEX
  8
14
 10
904.9861055213098
 20
628.8149838654452
 70
8
  0
VERTEX
  8
14
 10
902.0152683999198
 20
632.5866011394369
 70
8
  0
VERTEX
  8
14
 10
899.3370398690072
 20
636.5932812286931
 70
8
  0
VERTEX
  8
14
 10
896.9376502388977
 20
640.8158690062406
 70
8
  0
VERTEX
  8
14
 10
894.8033298199176
 20
645.2352093451067
 70
8
  0
VERTEX
  8
14
 10
891.2748178566480
 20
654.5875271989023
 70
8
  0
VERTEX
  8
14
 10
888.6413464618046
 20
664.4969937742952
 70
8
  0
VERTEX
  8
14
 10
886.7927581179947
 20
674.8103680555015
 70
8
  0
VERTEX
  8
14
 10
885.6188953078243
 20
685.3744090267367
 70
8
  0
VERTEX
  8
14
 10
884.8822418988460
 20
701.3552558053658
 70
8
  0
VERTEX
  8
14
 10
884.9132537841797
 20
711.8755340576172
 70
8
  0
VERTEX
  8
14
 10
885.7599917452906
 20
731.5745656333909
 70
8
  0
SEQEND
  0
POINT
  8
2
 10
888.1165313720703
 20
760.0498199462891
  0
POINT
  8
2
 10
925.0440216064453
 20
752.1491241455078
  0
POINT
  8
2
 10
1001.154327392578
 20
727.7000427246094
  0
POINT
  8
2
 10
990.7160186767578
 20
618.2870101928711
  0
POINT
  8
2
 10
990.0167846679688
 20
598.7052917480469
  0
POINT
  8
2
 10
881.9954583356906
 20
773.5005246771425
  0
POINT
  8
2
 10
927.9993634522059
 20
763.7768443757377
  0
POINT
  8
2
 10
1014.266517120146
 20
735.5725217485225
  0
POINT
  8
2
 10
1002.702365686974
 20
617.7295513388838
  0
POINT
  8
2
 10
1001.718509811926
 20
590.1216636149131
  0
POINT
  8
3
 10
910.6374578464410
 20
767.8098665980608
  0
POINT
  8
3
 10
923.6642414319789
 20
764.8099544673424
  0
POINT
  8
3
 10
958.5649860419830
 20
755.3341324407031
  0
POINT
  8
3
 10
980.4430877333676
 20
748.1757327662946
  0
POINT
  8
3
 10
989.1149777618687
 20
745.0747337807989
  0
POINT
  8
3
 10
1008.193660523291
 20
692.3209569803231
  0
POINT
  8
3
 10
1005.597547175606
 20
668.2160725727479
  0
POINT
  8
3
 10
1003.708803744519
 20
640.7013276735306
  0
POINT
  8
3
 10
1002.702365686974
 20
617.7295513388838
  0
POINT
  8
3
 10
976.9343813793887
 20
592.5061547954115
  0
POINT
  8
3
 10
962.1736321378950
 20
594.6250376028189
  0
POINT
  8
3
 10
952.4140217401897
 20
596.5449442910743
  0
POINT
  8
3
 10
939.1629965214372
 20
600.0852129423388
  0
POINT
  8
3
 10
930.5623816262358
 20
603.1684876833039
  0
POINT
  8
3
 10
926.3646194500449
 20
604.9643728875755
  0
POINT
  8
3
 10
918.0325738031901
 20
609.2428783128785
  0
POINT
  8
3
 10
914.0450542909432
 20
611.7045742806386
  0
POINT
  8
3
 10
906.7196397959806
 20
617.1784582488426
  0
POINT
  8
3
 10
903.3484131346519
 20
620.2653102747772
  0
POINT
  8
3
 10
897.9730661693166
 20
626.2837083108084
  0
POINT
  8
3
 10
895.5695345208439
 20
629.5282673918177
  0
POINT
  8
3
 10
891.2871693208394
 20
636.4716938565236
  0
POINT
  8
3
 10
889.4269211967809
 20
640.1031202532521
  0
POINT
  8
3
 10
885.7347153412724
 20
648.9891508247216
  0
POINT
  8
3
 10
882.9168512862318
 20
658.2076459633702
  0
POINT
  8
3
 10
881.7951209465388
 20
662.8969738255735
  0
POINT
  8
3
 10
880.0030304020029
 20
672.6733431103473
  0
POINT
  8
3
 10
878.4280376311307
 20
687.4858885778447
  0
POINT
  8
3
 10
877.8710720392623
 20
702.2102650949495
  0
POINT
  8
3
 10
877.9083310974171
 20
712.0339703003618
  0
POINT
  8
3
 10
878.8989411439751
 20
735.7003146467372
  0
POINT
  8
3
 10
881.5647915391140
 20
768.7774005653744
  0
POLYLINE
  8
8
 66
1
 70
0
  0
VERTEX
  8
8
 10
990.7160186767578
 20
618.2870101928711
  0
VERTEX
  8
8
 10
970.6986133292687
 20
622.3105818815454
 70
8
  0
VERTEX
  8
8
 10
961.3271867701410
 20
624.8809876654743
 70
8
  0
VERTEX
  8
8
 10
952.7204915485529
 20
628.1217373769133
 70
8
  0
VERTEX
  8
8
 10
948.7835777036635
 20
630.0633186978982
 70
8
  0
VERTEX
  8
8
 10
945.1334381103516
 20
632.2562789916992
 70
8
  0
VERTEX
  8
8
 10
941.7311195326768
 20
634.7740021126804
 70
8
  0
VERTEX
  8
8
 10
938.6470142510248
 20
637.5706628685805
 70
8
  0
VERTEX
  8
8
 10
935.8678633780610
 20
640.6346388579447
 70
8
  0
VERTEX
  8
8
 10
933.3804080264514
 20
643.9543076793175
 70
8
  0
VERTEX
  8
8
 10
931.1713893088619
 20
647.5180469312447
 70
8
  0
VERTEX
  8
8
 10
929.2275483379575
 20
651.3142342122710
 70
8
  0
VERTEX
  8
8
 10
926.0823640868689
 20
659.5574632558008
 70
8
  0
VERTEX
  8
8
 10
923.8387841745109
 20
668.5910155982676
 70
8
  0
VERTEX
  8
8
 10
922.3907375022098
 20
678.3219120280318
 70
8
  0
VERTEX
  8
8
 10
921.6321529712911
 20
688.6571733334536
 70
8
  0
VERTEX
  8
8
 10
921.5549871616552
 20
705.0898574079828
 70
8
  0
VERTEX
  8
8
 10
922.4324612400875
 20
722.3593543872686
 70
8
  0
VERTEX
  8
8
 10
925.0440216064453
 20
752.1491241455078
  0
SEQEND
  0
POINT
  8
2
 10
990.7160186767578
 20
618.2870101928711
  0
POINT
  8
2
 10
925.0440216064453
 20
752.1491241455078
  0
POINT
  8
3
 10
970.6986133292687
 20
622.3105818815454
  0
POINT
  8
3
 10
961.3271867701410
 20
624.8809876654743
  0
POINT
  8
3
 10
952.7204915485529
 20
628.1217373769133
  0
POINT
  8
3
 10
948.7835777036635
 20
630.0633186978982
  0
POINT
  8
3
 10
945.1334381103516
 20
632.2562789916992
  0
POINT
  8
3
 10
938.6470142510248
 20
637.5706628685805
  0
POINT
  8
3
 10
935.8678633780610
 20
640.6346388579447
  0
POINT
  8
3
 10
933.3804080264514
 20
643.9543076793175
  0
POINT
  8
3
 10
931.1713893088619
 20
647.5180469312447
  0
POINT
  8
3
 10
929.2275483379575
 20
651.3142342122710
  0
POINT
  8
3
 10
926.0823640868689
 20
659.5574632558008
  0
POINT
  8
3
 10
923.8387841745109
 20
668.5910155982676
  0
POINT
  8
3
 10
922.3907375022098
 20
678.3219120280318
  0
POINT
  8
3
 10
921.6321529712911
 20
688.6571733334536
  0
POINT
  8
3
 10
921.5549871616552
 20
705.0898574079828
  0
POINT
  8
3
 10
922.4324612400875
 20
722.3593543872686
  0
POLYLINE
  8
8
 66
1
 70
0
  0
VERTEX
  8
8
 10
885.1517486572266
 20
720.0063323974609
  0
VERTEX
  8
8
 10
957.4124908447266
 20
712.3140716552734
  0
VERTEX
  8
8
 10
951.5151214599609
 20
603.9560699462891
  0
SEQEND
  0
POINT
  8
2
 10
885.1517486572266
 20
720.0063323974609
  0
POINT
  8
2
 10
957.4124908447266
 20
712.3140716552734
  0
POINT
  8
2
 10
951.5151214599609
 20
603.9560699462891
  0
ENDBLK
  0
BLOCK
  8
1
  2
10
 70
64
 10
0.0
 20
0.0
  0
LINE
  8
7
 10
1575.736846923828
 20
634.1258239746094
 11
1625.775909423828
 21
634.1118621826172
  0
TEXT
  8
1
 10
1504.756378173828
 20
647.3188430786132
 40
10.00000000000000
 50
0.0000000000000000
 51
0.0000000000000000
 71
0
  1
Size: 36
  0
TEXT
  8
1
 10
1504.756378173828
 20
658.3188430786131
 40
10.00000000000000
 50
0.0000000000000000
 51
0.0000000000000000
 71
0
  1
Piece Name: FRONT COIN PKT FINISH
  0
TEXT
  8
1
 10
1504.756378173828
 20
636.3188430786132
 40
10.00000000000000
 50
0.0000000000000000
 51
0.0000000000000000
 71
0
  1
Sample Size
  0
TEXT
  8
1
 10
1504.756378173828
 20
625.3188430786132
 40
10.00000000000000
 50
0.0000000000000000
 51
0.0000000000000000
 71
0
  1
Quantity: 0
  0
TEXT
  8
1
 10
1504.756378173828
 20
614.3188430786132
 40
10.00000000000000
 50
0.0000000000000000
 51
0.0000000000000000
 71
0
  1
Material: FINISH
  0
TEXT
  8
1
 10
1504.756378173828
 20
603.3188430786132
 40
10.00000000000000
 50
0.0000000000000000
 51
0.0000000000000000
 71
0
  1
Quality: 19.10.2022
  0
TEXT
  8
1
 10
1504.756378173828
 20
592.3188430786132
 40
10.00000000000000
 50
0.0000000000000000
 51
0.0000000000000000
 71
0
  1
Area: 0.0065
  0
POLYLINE
  8
1
 66
1
 70
1
  0
VERTEX
  8
1
 10
1568.573608398438
 20
671.9069671630859
  0
VERTEX
  8
1
 10
1641.201019287109
 20
669.4477844238281
  0
VERTEX
  8
1
 10
1643.136138916016
 20
560.9466552734375
  0
VERTEX
  8
1
 10
1629.353635461331
 20
563.9409555769761
 70
8
  0
VERTEX
  8
1
 10
1624.801940917969
 20
565.2248764038086
 70
8
  0
VERTEX
  8
1
 10
1615.378135950585
 20
568.7200492225885
 70
8
  0
VERTEX
  8
1
 10
1610.839550923742
 20
570.8866634097191
 70
8
  0
VERTEX
  8
1
 10
1606.476557906250
 20
573.3381519891451
 70
8
  0
VERTEX
  8
1
 10
1602.334192176697
 20
576.0786568662181
 70
8
  0
VERTEX
  8
1
 10
1598.457489013672
 20
579.1123199462891
 70
8
  0
VERTEX
  8
1
 10
1594.869173485552
 20
582.4517604062463
 70
8
  0
VERTEX
  8
1
 10
1591.580606656785
 20
586.0687514790312
 70
8
  0
VERTEX
  8
1
 10
1588.578544733016
 20
589.9413479690733
 70
8
  0
VERTEX
  8
1
 10
1585.849743919892
 20
594.0476046808012
 70
8
  0
VERTEX
  8
1
 10
1583.380960423061
 20
598.3655764186443
 70
8
  0
VERTEX
  8
1
 10
1579.170470200868
 20
607.5488841903926
 70
8
  0
VERTEX
  8
1
 10
1575.841123711613
 20
617.3157097197513
 70
8
  0
VERTEX
  8
1
 10
1573.286970600475
 20
627.4904914421535
 70
8
  0
VERTEX
  8
1
 10
1571.402060512630
 20
637.8976677930323
 70
8
  0
VERTEX
  8
1
 10
1569.597759648364
 20
653.5601313252538
 70
8
  0
VERTEX
  8
1
 10
1568.922424316406
 20
663.7802124023438
 70
8
  0
SEQEND
  0
POINT
  8
2
 10
1568.573608398438
 20
671.9069671630859
  0
POINT
  8
2
 10
1641.201019287109
 20
669.4477844238281
  0
POINT
  8
2
 10
1643.136138916016
 20
560.9466552734375
  0
POINT
  8
3
 10
1629.353635461331
 20
563.9409555769761
  0
POINT
  8
3
 10
1624.801940917969
 20
565.2248764038086
  0
POINT
  8
3
 10
1615.378135950585
 20
568.7200492225885
  0
POINT
  8
3
 10
1610.839550923742
 20
570.8866634097191
  0
POINT
  8
3
 10
1606.476557906250
 20
573.3381519891451
  0
POINT
  8
3
 10
1602.334192176697
 20
576.0786568662181
  0
POINT
  8
3
 10
1598.457489013672
 20
579.1123199462891
  0
POINT
  8
3
 10
1594.869173485552
 20
582.4517604062463
  0
POINT
  8
3
 10
1591.580606656785
 20
586.0687514790312
  0
POINT
  8
3
 10
1588.578544733016
 20
589.9413479690733
  0
POINT
  8
3
 10
1585.849743919892
 20
594.0476046808012
  0
POINT
  8
3
 10
1583.380960423061
 20
598.3655764186443
  0
POINT
  8
3
 10
1579.170470200868
 20
607.5488841903926
  0
POINT
  8
3
 10
1575.841123711613
 20
617.3157097197513
  0
POINT
  8
3
 10
1573.286970600475
 20
627.4904914421535
  0
POINT
  8
3
 10
1571.402060512630
 20
637.8976677930323
  0
POINT
  8
3
 10
1569.597759648364
 20
653.5601313252538
  0
POINT
  8
3
 10
1568.922424316406
 20
663.7802124023438
  0
POINT
  8
3
 10
1568.735585147663
 20
667.8595057872564
  0
ENDBLK
  0
BLOCK
  8
1
  2
11
 70
64
 10
0.0
 20
0.0
  0
LINE
  8
7
 10
855.6107330322266
 20
1016.735153198242
 11
884.7593688964844
 21
1016.725616455078
  0
TEXT
  8
1
 10
798.1850128173828
 20
1029.930422973633
 40
10.00000000000000
 50
0.0000000000000000
 51
0.0000000000000000
 71
0
  1
Size: 36
  0
TEXT
  8
1
 10
798.1850128173828
 20
1040.930422973633
 40
10.00000000000000
 50
0.0000000000000000
 51
0.0000000000000000
 71
0
  1
Piece Name: BACK YOKE 1X2
  0
TEXT
  8
1
 10
798.1850128173828
 20
1018.930422973633
 40
10.00000000000000
 50
0.0000000000000000
 51
0.0000000000000000
 71
0
  1
Sample Size
  0
TEXT
  8
1
 10
798.1850128173828
 20
1007.930422973633
 40
10.00000000000000
 50
0.0000000000000000
 51
0.0000000000000000
 71
0
  1
Quantity: 2
  0
TEXT
  8
1
 10
798.1850128173828
 20
996.9304229736327
 40
10.00000000000000
 50
0.0000000000000000
 51
0.0000000000000000
 71
0
  1
Material: SHELL
  0
TEXT
  8
1
 10
798.1850128173828
 20
985.9304229736326
 40
10.00000000000000
 50
0.0000000000000000
 51
0.0000000000000000
 71
0
  1
Quality: 19.10.2022
  0
TEXT
  8
1
 10
798.1850128173828
 20
974.9304229736327
 40
10.00000000000000
 50
0.0000000000000000
 51
0.0000000000000000
 71
0
  1
Area: 0.0105
  0
POLYLINE
  8
1
 66
1
 70
1
  0
VERTEX
  8
1
 10
811.0703025098938
 20
898.6664551754343
  0
VERTEX
  8
1
 10
819.0860235562084
 20
1156.606695120253
  0
VERTEX
  8
1
 10
916.2122653086687
 20
1137.383313936495
  0
VERTEX
  8
1
 10
879.7503096802968
 20
918.0727497527870
  0
VERTEX
  8
1
 10
842.4519124306860
 20
907.1939122589345
 70
8
  0
SEQEND
  0
POLYLINE
  8
14
 66
1
 70
1
  0
VERTEX
  8
14
 10
831.6075897216797
 20
915.6452941894531
  0
VERTEX
  8
14
 10
838.3436584472656
 20
1132.407226562500
  0
VERTEX
  8
14
 10
902.1348571777344
 20
1119.781570434570
  0
VERTEX
  8
14
 10
870.0331115722656
 20
926.6967010498047
  0
VERTEX
  8
14
 10
839.4696807861328
 20
917.7814483642578
 70
8
  0
SEQEND
  0
POINT
  8
2
 10
831.6075897216797
 20
915.6452941894531
  0
POINT
  8
2
 10
838.3436584472656
 20
1132.407226562500
  0
POINT
  8
2
 10
902.1348571777344
 20
1119.781570434570
  0
POINT
  8
2
 10
870.0331115722656
 20
926.6967010498047
  0
POINT
  8
2
 10
811.0703025098938
 20
898.6664551754343
  0
POINT
  8
2
 10
819.0860235562084
 20
1156.606695120253
  0
POINT
  8
2
 10
916.2122653086687
 20
1137.383313936495
  0
POINT
  8
2
 10
879.7503096802968
 20
918.0727497527870
  0
POINT
  8
3
 10
842.4519124306860
 20
907.1939122589345
  0
ENDBLK
  0
BLOCK
  8
1
  2
12
 70
64
 10
0.0
 20
0.0
  0
LINE
  8
7
 10
825.4377746582031
 20
426.7198562622070
 11
917.9744720458984
 21
426.7198562622070
  0
TEXT
  8
1
 10
802.7061614990234
 20
439.9198562622070
 40
10.00000000000000
 50
0.0000000000000000
 51
0.0000000000000000
 71
0
  1
Size: 36
  0
TEXT
  8
1
 10
802.7061614990234
 20
450.9198562622071
 40
10.00000000000000
 50
0.0000000000000000
 51
0.0000000000000000
 71
0
  1
Piece Name: BACK PKT 1X2
  0
TEXT
  8
1
 10
802.7061614990234
 20
428.9198562622070
 40
10.00000000000000
 50
0.0000000000000000
 51
0.0000000000000000
 71
0
  1
Sample Size
  0
TEXT
  8
1
 10
802.7061614990234
 20
417.9198562622070
 40
10.00000000000000
 50
0.0000000000000000
 51
0.0000000000000000
 71
0
  1
Quantity: 2
  0
TEXT
  8
1
 10
802.7061614990234
 20
406.9198562622071
 40
10.00000000000000
 50
0.0000000000000000
 51
0.0000000000000000
 71
0
  1
Material: SHELL
  0
TEXT
  8
1
 10
802.7061614990234
 20
395.9198562622071
 40
10.00000000000000
 50
0.0000000000000000
 51
0.0000000000000000
 71
0
  1
Quality: 19.10.2022
  0
TEXT
  8
1
 10
802.7061614990234
 20
384.9198562622070
 40
10.00000000000000
 50
0.0000000000000000
 51
0.0000000000000000
 71
0
  1
Area: 0.0263
  0
POLYLINE
  8
1
 66
1
 70
1
  0
VERTEX
  8
1
 10
970.8200383186340
 20
467.9698562622070
  0
VERTEX
  8
1
 10
970.8200383186335
 20
376.9697891290560
  0
VERTEX
  8
1
 10
948.8200378417969
 20
375.9571113538213
  0
VERTEX
  8
1
 10
806.7049000655136
 20
382.4987858279601
  0
VERTEX
  8
1
 10
794.0716459883020
 20
383.5113203014861
 70
8
  0
VERTEX
  8
1
 10
789.9311849090299
 20
384.2627859015569
 70
8
  0
VERTEX
  8
1
 10
783.4004803747778
 20
386.2813124643102
 70
8
  0
VERTEX
  8
1
 10
780.2993951589434
 20
387.7730078564495
 70
8
  0
VERTEX
  8
1
 10
777.0591455796316
 20
389.8774402598665
 70
8
  0
VERTEX
  8
1
 10
774.1711832814343
 20
392.4233422014634
 70
8
  0
VERTEX
  8
1
 10
771.7830151792309
 20
395.3659926682656
 70
8
  0
VERTEX
  8
1
 10
769.9512177914163
 20
398.7448374036780
 70
8
  0
VERTEX
  8
1
 10
768.6309311474392
 20
402.4018615699740
 70
8
  0
VERTEX
  8
1
 10
766.8428757658814
 20
410.1795422873718
  0
VERTEX
  8
1
 10
756.6342453476027
 20
467.9698562622070
  0
SEQEND
  0
POLYLINE
  8
14
 66
1
 70
1
  0
VERTEX
  8
14
 10
948.8200378417969
 20
467.9698562622070
  0
VERTEX
  8
14
 10
948.8200378417969
 20
387.9698181152344
  0
VERTEX
  8
14
 10
807.6091003417969
 20
394.4698715209961
  0
VERTEX
  8
14
 10
797.3637383842492
 20
395.2356804681827
 70
8
  0
VERTEX
  8
14
 10
792.6537303110989
 20
396.0426461620781
 70
8
  0
VERTEX
  8
14
 10
788.4389297246964
 20
397.3584853203359
 70
8
  0
VERTEX
  8
14
 10
784.8844057872913
 20
399.3528224310769
 70
8
  0
VERTEX
  8
14
 10
782.1552276611328
 20
402.1952819824219
 70
8
  0
VERTEX
  8
14
 10
780.5250370353565
 20
405.4173972356290
 70
8
  0
VERTEX
  8
14
 10
779.3914499163712
 20
409.1498204984642
 70
8
  0
VERTEX
  8
14
 10
778.5061645507813
 20
413.1373977661133
  0
VERTEX
  8
14
 10
768.8200378417969
 20
467.9698562622070
  0
SEQEND
  0
POINT
  8
2
 10
948.8200378417969
 20
467.9698562622070
  0
POINT
  8
2
 10
948.8200378417969
 20
387.9698181152344
  0
POINT
  8
2
 10
807.6091003417969
 20
394.4698715209961
  0
POINT
  8
2
 10
768.8200378417969
 20
467.9698562622070
  0
POINT
  8
2
 10
970.8200383186340
 20
467.9698562622070
  0
POINT
  8
2
 10
970.8200383186335
 20
376.9697891290560
  0
POINT
  8
2
 10
948.8200378417969
 20
375.9571113538213
  0
POINT
  8
2
 10
806.7049000655136
 20
382.4987858279601
  0
POINT
  8
2
 10
756.6342453476027
 20
467.9698562622070
  0
POINT
  8
3
 10
794.0716459883020
 20
383.5113203014861
  0
POINT
  8
3
 10
789.9311849090299
 20
384.2627859015569
  0
POINT
  8
3
 10
783.4004803747778
 20
386.2813124643102
  0
POINT
  8
3
 10
780.2993951589434
 20
387.7730078564495
  0
POINT
  8
3
 10
777.0591455796316
 20
389.8774402598665
  0
POINT
  8
3
 10
774.1711832814343
 20
392.4233422014634
  0
POINT
  8
3
 10
771.7830151792309
 20
395.3659926682656
  0
POINT
  8
3
 10
769.9512177914163
 20
398.7448374036780
  0
POINT
  8
3
 10
768.6309311474392
 20
402.4018615699740
  0
LINE
  8
6
 10
970.8200383186340
 20
467.9698562622070
 11
756.6342453476027
 21
467.9698562622070
  0
ENDBLK
  0
BLOCK
  8
1
  2
13
 70
64
 10
0.0
 20
0.0
  0
LINE
  8
7
 10
969.0628051757813
 20
897.4188232421875
 11
1019.101791381836
 21
897.4041748046875
  0
TEXT
  8
1
 10
925.0822601318359
 20
910.6114990234374
 40
10.00000000000000
 50
0.0000000000000000
 51
0.0000000000000000
 71
0
  1
Size: 36
  0
TEXT
  8
1
 10
925.0822601318359
 20
921.6114990234373
 40
10.00000000000000
 50
0.0000000000000000
 51
0.0000000000000000
 71
0
  1
Piece Name: COIN PKT 1X1
  0
TEXT
  8
1
 10
925.0822601318359
 20
899.6114990234375
 40
10.00000000000000
 50
0.0000000000000000
 51
0.0000000000000000
 71
0
  1
Sample Size
  0
TEXT
  8
1
 10
925.0822601318359
 20
888.6114990234374
 40
10.00000000000000
 50
0.0000000000000000
 51
0.0000000000000000
 71
0
  1
Quantity: 1
  0
TEXT
  8
1
 10
925.0822601318359
 20
877.6114990234374
 40
10.00000000000000
 50
0.0000000000000000
 51
0.0000000000000000
 71
0
  1
Material: SHELL
  0
TEXT
  8
1
 10
925.0822601318359
 20
866.6114990234373
 40
10.00000000000000
 50
0.0000000000000000
 51
0.0000000000000000
 71
0
  1
Quality: 19.10.2022
  0
TEXT
  8
1
 10
925.0822601318359
 20
855.6114990234374
 40
10.00000000000000
 50
0.0000000000000000
 51
0.0000000000000000
 71
0
  1
Area: 0.0065
  0
POLYLINE
  8
1
 66
1
 70
1
  0
VERTEX
  8
1
 10
955.6214352216566
 20
947.1333791857763
  0
VERTEX
  8
1
 10
1035.567206600758
 20
944.4263948854066
  0
VERTEX
  8
1
 10
1059.541253890773
 20
946.0956062253526
  0
VERTEX
  8
1
 10
1061.839192885978
 20
817.2513880314009
  0
VERTEX
  8
1
 10
1040.241169050288
 20
812.1775260440374
  0
VERTEX
  8
1
 10
1018.711076748291
 20
819.9633958419934
 70
8
  0
VERTEX
  8
1
 10
1006.194118700244
 20
825.5248294547246
 70
8
  0
VERTEX
  8
1
 10
1002.134929367938
 20
827.6296414044439
 70
8
  0
VERTEX
  8
1
 10
995.0956283653813
 20
831.8018196886106
 70
8
  0
VERTEX
  8
1
 10
988.5354006115894
 20
836.6640248475506
 70
8
  0
VERTEX
  8
1
 10
982.6142496642468
 20
842.4043729915808
 70
8
  0
VERTEX
  8
1
 10
979.9330097128232
 20
845.5447995685727
 70
8
  0
VERTEX
  8
1
 10
975.1085706022735
 20
852.2672173425707
 70
8
  0
VERTEX
  8
1
 10
972.9693489950530
 20
855.8084043957049
 70
8
  0
VERTEX
  8
1
 10
968.6327374079481
 20
864.4901703291682
 70
8
  0
VERTEX
  8
1
 10
965.1559266180641
 20
873.5709364907615
 70
8
  0
VERTEX
  8
1
 10
963.7014468187429
 20
878.2124462057475
 70
8
  0
VERTEX
  8
1
 10
961.2446643662032
 20
887.8183365615952
 70
8
  0
VERTEX
  8
1
 10
958.6677565968323
 20
902.4498619813386
 70
8
  0
VERTEX
  8
1
 10
957.1595998476447
 20
916.7274376523553
 70
8
  0
VERTEX
  8
1
 10
956.5202036898804
 20
926.2799222896014
 70
8
  0
SEQEND
  0
POLYLINE
  8
14
 66
1
 70
1
  0
VERTEX
  8
14
 10
963.1540679931641
 20
934.8714447021484
  0
VERTEX
  8
14
 10
1035.781478881836
 20
932.4122619628906
  0
VERTEX
  8
14
 10
1037.716598510742
 20
823.9111328125000
  0
VERTEX
  8
14
 10
1023.934096473887
 20
826.9054672161259
 70
8
  0
VERTEX
  8
14
 10
1019.382400512695
 20
828.1893920898438
 70
8
  0
VERTEX
  8
14
 10
1009.958576122329
 20
831.6845604297134
 70
8
  0
VERTEX
  8
14
 10
1005.419979017210
 20
833.8511668925373
 70
8
  0
VERTEX
  8
14
 10
1001.056972444616
 20
836.3026462209301
 70
8
  0
VERTEX
  8
14
 10
996.9145917589094
 20
839.0431419176241
 70
8
  0
VERTEX
  8
14
 10
993.0378723144531
 20
842.0767974853516
 70
8
  0
VERTEX
  8
14
 10
989.4495449967199
 20
845.4162275641315
 70
8
  0
VERTEX
  8
14
 10
986.1609646575914
 20
849.0332103768721
 70
8
  0
VERTEX
  8
14
 10
983.1588880854200
 20
852.9058005592865
 70
8
  0
VERTEX
  8
14
 10
980.4300720685576
 20
857.0120527470876
 70
8
  0
VERTEX
  8
14
 10
977.9612733953569
 20
861.3300215759891
 70
8
  0
VERTEX
  8
14
 10
973.7507552333483
 20
870.5133276999464
 70
8
  0
VERTEX
  8
14
 10
970.4213879062116
 20
880.2801560168652
 70
8
  0
VERTEX
  8
14
 10
967.8672257207650
 20
890.4549436124522
 70
8
  0
VERTEX
  8
14
 10
965.9823229838254
 20
900.8621275724136
 70
8
  0
VERTEX
  8
14
 10
964.1780741405312
 20
916.5246028205416
 70
8
  0
VERTEX
  8
14
 10
963.5028076171875
 20
926.7446899414063
 70
8
  0
SEQEND
  0
POINT
  8
2
 10
963.1540679931641
 20
934.8714447021484
  0
POINT
  8
2
 10
1035.781478881836
 20
932.4122619628906
  0
POINT
  8
2
 10
1037.716598510742
 20
823.9111328125000
  0
POINT
  8
2
 10
955.6214352216566
 20
947.1333791857763
  0
POINT
  8
2
 10
1035.567206600758
 20
944.4263948854066
  0
POINT
  8
2
 10
1059.541253890773
 20
946.0956062253526
  0
POINT
  8
2
 10
1061.839192885978
 20
817.2513880314009
  0
POINT
  8
2
 10
1040.241169050288
 20
812.1775260440374
  0
POINT
  8
3
 10
1018.711076748291
 20
819.9633958419934
  0
POINT
  8
3
 10
1006.194118700244
 20
825.5248294547246
  0
POINT
  8
3
 10
1002.134929367938
 20
827.6296414044439
  0
POINT
  8
3
 10
995.0956283653813
 20
831.8018196886106
  0
POINT
  8
3
 10
988.5354006115894
 20
836.6640248475506
  0
POINT
  8
3
 10
982.6142496642468
 20
842.4043729915808
  0
POINT
  8
3
 10
979.9330097128232
 20
845.5447995685727
  0
POINT
  8
3
 10
975.1085706022735
 20
852.2672173425707
  0
POINT
  8
3
 10
972.9693489950530
 20
855.8084043957049
  0
POINT
  8
3
 10
968.6327374079481
 20
864.4901703291682
  0
POINT
  8
3
 10
965.1559266180641
 20
873.5709364907615
  0
POINT
  8
3
 10
963.7014468187429
 20
878.2124462057475
  0
POINT
  8
3
 10
961.2446643662032
 20
887.8183365615952
  0
POINT
  8
3
 10
958.6677565968323
 20
902.4498619813386
  0
POINT
  8
3
 10
957.1595998476447
 20
916.7274376523553
  0
POINT
  8
3
 10
956.5202036898804
 20
926.2799222896014
  0
POINT
  8
3
 10
955.7751515300329
 20
942.9619304220289
  0
ENDBLK
  0
BLOCK
  8
1
  2
14
 70
64
 10
0.0
 20
0.0
  0
LINE
  8
7
 10
1156.329193115234
 20
885.3255462646484
 11
1156.329193115234
 21
657.3242950439453
  0
TEXT
  8
1
 10
1169.529192220868
 20
846.3249208117053
 40
9.999999999999998
 50
270.0000006832453
 51
0.0000000000000000
 71
0
  1
Size: 36
  0
TEXT
  8
1
 10
1180.529192220868
 20
846.3249209428790
 40
9.999999999999998
 50
270.0000006832453
 51
0.0000000000000000
 71
0
  1
Piece Name: WAIST BANT 1X1
  0
TEXT
  8
1
 10
1158.529192220868
 20
846.3249206805315
 40
9.999999999999998
 50
270.0000006832453
 51
0.0000000000000000
 71
0
  1
Sample Size
  0
TEXT
  8
1
 10
1147.529192220868
 20
846.3249205493580
 40
9.999999999999998
 50
270.0000006832453
 51
0.0000000000000000
 71
0
  1
Quantity: 1
  0
TEXT
  8
1
 10
1136.529192220868
 20
846.3249204181842
 40
9.999999999999998
 50
270.0000006832453
 51
0.0000000000000000
 71
0
  1
Material: SHELL
  0
TEXT
  8
1
 10
1125.529192220868
 20
846.3249202870105
 40
9.999999999999998
 50
270.0000006832453
 51
0.0000000000000000
 71
0
  1
Quality: 19.10.2022
  0
TEXT
  8
1
 10
1114.529192220868
 20
846.3249201558368
 40
9.999999999999998
 50
270.0000006832453
 51
0.0000000000000000
 71
0
  1
Area: 0.0532
  0
POLYLINE
  8
1
 66
1
 70
1
  0
VERTEX
  8
1
 10
1203.329193592072
 20
961.3231070381959
  0
VERTEX
  8
1
 10
1203.329193592072
 20
771.3238525390625
  0
VERTEX
  8
1
 10
1203.329193592072
 20
501.3238525390625
  0
VERTEX
  8
1
 10
1156.329193115234
 20
501.3238525390625
  0
VERTEX
  8
1
 10
1109.329192638397
 20
501.3238525390625
  0
VERTEX
  8
1
 10
1109.329192638397
 20
771.3238525390625
  0
VERTEX
  8
1
 10
1109.329192638397
 20
961.3289467948121
  0
SEQEND
  0
POLYLINE
  8
14
 66
1
 70
1
  0
VERTEX
  8
14
 10
1191.329193115234
 20
961.3238525390625
  0
VERTEX
  8
14
 10
1191.329193115234
 20
771.3238525390625
  0
VERTEX
  8
14
 10
1191.329193115234
 20
581.3238525390625
  0
VERTEX
  8
14
 10
1156.329193115234
 20
581.3238525390625
  0
VERTEX
  8
14
 10
1121.329193115234
 20
581.3238525390625
  0
VERTEX
  8
14
 10
1121.329193115234
 20
771.3238525390625
  0
VERTEX
  8
14
 10
1121.329193115234
 20
961.3282012939453
  0
SEQEND
  0
POINT
  8
2
 10
1191.329193115234
 20
961.3238525390625
  0
POINT
  8
2
 10
1191.329193115234
 20
771.3238525390625
  0
POINT
  8
2
 10
1191.329193115234
 20
581.3238525390625
  0
POINT
  8
2
 10
1156.329193115234
 20
581.3238525390625
  0
POINT
  8
2
 10
1121.329193115234
 20
581.3238525390625
  0
POINT
  8
2
 10
1121.329193115234
 20
771.3238525390625
  0
POINT
  8
2
 10
1121.329193115234
 20
961.3282012939453
  0
POINT
  8
2
 10
1203.329193592072
 20
961.3231070381959
  0
POINT
  8
2
 10
1203.329193592072
 20
771.3238525390625
  0
POINT
  8
2
 10
1203.329193592072
 20
501.3238525390625
  0
POINT
  8
2
 10
1156.329193115234
 20
501.3238525390625
  0
POINT
  8
2
 10
1109.329192638397
 20
501.3238525390625
  0
POINT
  8
2
 10
1109.329192638397
 20
771.3238525390625
  0
POINT
  8
2
 10
1109.329192638397
 20
961.3289467948121
  0
POLYLINE
  8
8
 66
1
 70
0
  0
VERTEX
  8
8
 10
1156.329193115234
 20
961.3282012939453
  0
VERTEX
  8
8
 10
1156.329193115234
 20
581.3238525390625
  0
SEQEND
  0
POINT
  8
2
 10
1156.329193115234
 20
961.3282012939453
  0
POINT
  8
2
 10
1156.329193115234
 20
581.3238525390625
  0
POLYLINE
  8
8
 66
1
 70
0
  0
VERTEX
  8
8
 10
1121.329193115234
 20
771.3238525390625
  0
VERTEX
  8
8
 10
1191.329193115234
 20
771.3238525390625
  0
SEQEND
  0
POINT
  8
2
 10
1121.329193115234
 20
771.3238525390625
  0
POINT
  8
2
 10
1191.329193115234
 20
771.3238525390625
  0
LINE
  8
6
 10
1203.329193592072
 20
961.3231070381959
 11
1109.329192638397
 21
961.3289467948121
  0
ENDBLK
  0
ENDSEC
  0
SECTION
  2
ENTITIES
  0
INSERT
  8
1
  2
1
 10
0.0
 20
0.0
  0
INSERT
  8
1
  2
2
 10
0.0
 20
0.0
  0
INSERT
  8
1
  2
3
 10
0.0
 20
0.0
  0
INSERT
  8
1
  2
4
 10
0.0
 20
0.0
  0
INSERT
  8
1
  2
5
 10
0.0
 20
0.0
  0
INSERT
  8
1
  2
6
 10
0.0
 20
0.0
  0
INSERT
  8
1
  2
7
 10
0.0
 20
0.0
  0
INSERT
  8
1
  2
8
 10
0.0
 20
0.0
  0
INSERT
  8
1
  2
9
 10
0.0
 20
0.0
  0
INSERT
  8
1
  2
10
 10
0.0
 20
0.0
  0
INSERT
  8
1
  2
11
 10
0.0
 20
0.0
  0
INSERT
  8
1
  2
12
 10
0.0
 20
0.0
  0
INSERT
  8
1
  2
13
 10
0.0
 20
0.0
  0
INSERT
  8
1
  2
14
 10
0.0
 20
0.0
  0
TEXT
  8
1
 10
-937.9930355202398
 20
294.6540260314941
 40
8.000000000000000
 50
0.0000000000000000
 51
0.0000000000000000
 71
0
  1
Style Name: NJ-009 1ST
  0
TEXT
  8
1
 10
-937.9930355202398
 20
278.6540260314941
 40
8.000000000000000
 50
0.0000000000000000
 51
0.0000000000000000
 71
0
  1
Sample Size: 36
  0
TEXT
  8
1
 10
-937.9930355202398
 20
270.6540260314941
 40
8.000000000000000
 50
0.0000000000000000
 51
0.0000000000000000
 71
0
  1
Units: METRIC
  0
TEXT
  8
1
 10
-937.9930355202398
 20
262.6540260314941
 40
8.000000000000000
 50
0.0000000000000000
 51
0.0000000000000000
 71
0
  1
Tolerance: 0.020000
  0
TEXT
  8
1
 10
-937.9930355202398
 20
254.6540260314941
 40
8.000000000000000
 50
0.0000000000000000
 51
0.0000000000000000
 71
0
  1
Creation Date: 06-11-2022
  0
TEXT
  8
1
 10
-937.9930355202398
 20
246.6540260314941
 40
8.000000000000000
 50
0.0000000000000000
 51
0.0000000000000000
 71
0
  1
Creation Time: 09:16
  0
TEXT
  8
1
 10
-937.9930355202398
 20
238.6540260314941
 40
8.000000000000000
 50
0.0000000000000000
 51
0.0000000000000000
 71
0
  1
Author: Optitex
  0
ENDSEC
  0
EOF
