  0
SECTION
  2
BLOCKS
  0
BLOCK
  8
1
  2
1
 70
64
 10
0.0
 20
0.0
  0
LINE
  8
7
 10
1237.673363461339
 20
440.9380407188639
 11
1237.673363461339
 21
922.0730744670858
  0
TEXT
  8
1
 10
1135.058380686917
 20
838.5163742523264
 40
9.999999999999998
 50
270.0000006832453
 51
0.0000000000000000
 71
0
  1
Size: 38
  0
TEXT
  8
1
 10
1146.058380686917
 20
838.5163743835001
 40
9.999999999999998
 50
270.0000006832453
 51
0.0000000000000000
 71
0
  1
Piece Name: BACK 1/2
  0
TEXT
  8
1
 10
1124.058380686917
 20
838.5163741211527
 40
9.999999999999998
 50
270.0000006832453
 51
0.0000000000000000
 71
0
  1
Sample Size
  0
TEXT
  8
1
 10
1113.058380686917
 20
838.5163739899791
 40
9.999999999999998
 50
270.0000006832453
 51
0.0000000000000000
 71
0
  1
Quantity: 2
  0
TEXT
  8
1
 10
1102.058380686917
 20
838.5163738588053
 40
9.999999999999998
 50
270.0000006832453
 51
0.0000000000000000
 71
0
  1
Material: MOKHLASIN 17-05-23
  0
TEXT
  8
1
 10
1091.058380686917
 20
838.5163737276316
 40
9.999999999999998
 50
270.0000006832453
 51
0.0000000000000000
 71
0
  1
Area: 0.2706 sq.m
  0
POLYLINE
  8
1
 66
1
 70
1
  0
VERTEX
  8
1
 10
1075.403750126040
 20
1068.561646227897
  0
VERTEX
  8
1
 10
1077.769992364965
 20
1068.561534708216
 70
8
  0
VERTEX
  8
1
 10
1086.477748340155
 20
1068.626547683395
 70
8
  0
VERTEX
  8
1
 10
1095.400000000000
 20
1068.813133018157
  0
VERTEX
  8
1
 10
1104.322251659845
 20
1068.626547683395
 70
8
  0
VERTEX
  8
1
 10
1113.030007635035
 20
1068.561534708216
 70
8
  0
VERTEX
  8
1
 10
1115.400000000000
 20
1068.561647106863
  0
VERTEX
  8
1
 10
1117.770142888998
 20
1068.561535833829
 70
8
  0
VERTEX
  8
1
 10
1126.472992691032
 20
1068.626199088547
 70
8
  0
VERTEX
  8
1
 10
1135.400000000000
 20
1068.814315930297
  0
VERTEX
  8
1
 10
1138.835605491524
 20
1068.923218989411
 70
8
  0
VERTEX
  8
1
 10
1141.400000000000
 20
1069.002533616152
  0
VERTEX
  8
1
 10
1143.964394508477
 20
1068.923218989411
 70
8
  0
VERTEX
  8
1
 10
1147.400000000000
 20
1068.809685935190
  0
VERTEX
  8
1
 10
1150.827768588494
 20
1068.922929651804
 70
8
  0
VERTEX
  8
1
 10
1154.309542384065
 20
1069.050187094999
 70
8
  0
VERTEX
  8
1
 10
1167.078771339992
 20
1069.850073193109
 70
8
  0
VERTEX
  8
1
 10
1175.552615669697
 20
1070.904210695838
 70
8
  0
VERTEX
  8
1
 10
1183.562823854710
 20
1072.515752368328
 70
8
  0
VERTEX
  8
1
 10
1191.348097355482
 20
1074.955898288688
 70
8
  0
VERTEX
  8
1
 10
1195.101891434817
 20
1076.564318386824
 70
8
  0
VERTEX
  8
1
 10
1199.751479938863
 20
1079.239146508859
 70
8
  0
VERTEX
  8
1
 10
1203.139298831627
 20
1082.250421982121
 70
8
  0
VERTEX
  8
1
 10
1206.199527772121
 20
1085.673383951231
  0
VERTEX
  8
1
 10
1215.853145606027
 20
1100.000000000001
  0
VERTEX
  8
1
 10
1396.971489032473
 20
1041.557385914186
  0
VERTEX
  8
1
 10
1392.294088552330
 20
1023.559162488786
  0
VERTEX
  8
1
 10
1387.046940663434
 20
968.4279325174447
 70
8
  0
VERTEX
  8
1
 10
1384.830818920769
 20
936.3886425932081
 70
8
  0
VERTEX
  8
1
 10
1383.947521416671
 20
913.4668887762416
 70
8
  0
VERTEX
  8
1
 10
1383.966595310793
 20
893.7543502749860
 70
8
  0
VERTEX
  8
1
 10
1384.700355058638
 20
881.6402425584479
 70
8
  0
VERTEX
  8
1
 10
1385.593322524233
 20
873.5970878538616
 70
8
  0
VERTEX
  8
1
 10
1387.179185009477
 20
863.9746403486056
 70
8
  0
VERTEX
  8
1
 10
1388.228961890558
 20
859.2143321002784
 70
8
  0
VERTEX
  8
1
 10
1390.841924396934
 20
850.2364465769456
 70
8
  0
VERTEX
  8
1
 10
1392.504644218041
 20
845.8565855687125
 70
8
  0
VERTEX
  8
1
 10
1394.205763576447
 20
842.0901123474753
 70
8
  0
VERTEX
  8
1
 10
1396.190320248981
 20
838.4724029333113
 70
8
  0
VERTEX
  8
1
 10
1398.525626104056
 20
835.0782472885546
 70
8
  0
VERTEX
  8
1
 10
1400.872533540120
 20
832.3684635286689
 70
8
  0
VERTEX
  8
1
 10
1403.484689336889
 20
829.9082801352391
 70
8
  0
VERTEX
  8
1
 10
1406.312636361302
 20
827.7227120674099
 70
8
  0
VERTEX
  8
1
 10
1409.887176277307
 20
825.5014542555352
 70
8
  0
VERTEX
  8
1
 10
1413.656866846587
 20
823.6317361923517
 70
8
  0
VERTEX
  8
1
 10
1421.625579422356
 20
820.6656875131048
 70
8
  0
VERTEX
  8
1
 10
1429.906533043366
 20
818.2621024317634
  0
VERTEX
  8
1
 10
1429.918248063735
 20
580.5939589135982
  0
VERTEX
  8
1
 10
1429.920269791699
 20
548.2809710359313
  0
VERTEX
  8
1
 10
1429.731051631582
 20
494.3544393086958
 70
8
  0
VERTEX
  8
1
 10
1428.734009566048
 20
460.0756450364736
 70
8
  0
VERTEX
  8
1
 10
1428.499449611559
 20
455.1826772692905
 70
8
  0
VERTEX
  8
1
 10
1426.637137161122
 20
427.7986385445437
 70
8
  0
VERTEX
  8
1
 10
1424.239920384774
 20
405.0314902370661
 70
8
  0
VERTEX
  8
1
 10
1421.348098425326
 20
385.5943785143083
 70
8
  0
VERTEX
  8
1
 10
1418.311712050870
 20
371.1915043686212
 70
8
  0
VERTEX
  8
1
 10
1417.076412428900
 20
366.4434972272816
 70
8
  0
VERTEX
  8
1
 10
1413.430114483606
 20
354.8267147940902
 70
8
  0
VERTEX
  8
1
 10
1410.478077639694
 20
347.2619541520336
 70
8
  0
VERTEX
  8
1
 10
1405.108598856935
 20
336.2035848182107
 70
8
  0
VERTEX
  8
1
 10
1400.879600797763
 20
329.1846264489369
 70
8
  0
VERTEX
  8
1
 10
1395.621038896426
 20
321.8909973792670
 70
8
  0
VERTEX
  8
1
 10
1389.766647345145
 20
315.0535659882579
 70
8
  0
VERTEX
  8
1
 10
1383.387242443054
 20
308.6963222303873
 70
8
  0
VERTEX
  8
1
 10
1376.536759814040
 20
302.8329529328828
 70
8
  0
VERTEX
  8
1
 10
1369.274641699801
 20
297.4968422045526
 70
8
  0
VERTEX
  8
1
 10
1361.645048524842
 20
292.7092962281241
 70
8
  0
VERTEX
  8
1
 10
1350.088696994417
 20
286.7924266922374
 70
8
  0
VERTEX
  8
1
 10
1342.092310230317
 20
283.4751977341649
 70
8
  0
VERTEX
  8
1
 10
1329.973231268963
 20
279.4413356510038
 70
8
  0
VERTEX
  8
1
 10
1321.736612679759
 20
277.2761788419135
 70
8
  0
VERTEX
  8
1
 10
1309.333741041823
 20
274.7480551082006
 70
8
  0
VERTEX
  8
1
 10
1300.991323956595
 20
273.4727357010723
 70
8
  0
VERTEX
  8
1
 10
1284.447603290372
 20
271.7728759954762
 70
8
  0
VERTEX
  8
1
 10
1280.299246563950
 20
271.4928912632132
 70
8
  0
VERTEX
  8
1
 10
1255.167779520286
 20
270.5623616267911
  0
VERTEX
  8
1
 10
1147.400000000000
 20
270.5634479316611
  0
VERTEX
  8
1
 10
1141.400000000000
 20
270.5631985699388
  0
VERTEX
  8
1
 10
1135.400000000000
 20
270.5634479143898
  0
VERTEX
  8
1
 10
1115.399992470171
 20
270.5642791370958
  0
VERTEX
  8
1
 10
1095.400000000000
 20
270.5634780503628
  0
VERTEX
  8
1
 10
1075.400007529829
 20
270.5642791370958
  0
VERTEX
  8
1
 10
1055.400415602870
 20
270.5634479316614
  0
VERTEX
  8
1
 10
1055.400000000000
 20
280.5634479230251
  0
VERTEX
  8
1
 10
1055.400000000000
 20
1060.811825515852
  0
VERTEX
  8
1
 10
1055.591399636849
 20
1068.809535693544
  0
VERTEX
  8
1
 10
1064.312668666547
 20
1068.626136298738
 70
8
  0
VERTEX
  8
1
 10
1073.059540599585
 20
1068.561425695077
  0
VERTEX
  8
1
 10
1073.000021362305
 20
1060.561646987654
  0
VERTEX
  8
1
 10
1075.400000000000
 20
1060.561646987654
  0
SEQEND
  0
POLYLINE
  8
14
 66
1
 70
1
  0
VERTEX
  8
14
 10
1115.400000000000
 20
1060.561646987654
  0
VERTEX
  8
14
 10
1117.799978637695
 20
1060.561646987654
 70
8
  0
VERTEX
  8
14
 10
1126.586608804296
 20
1060.627187732292
 70
8
  0
VERTEX
  8
14
 10
1135.400000000000
 20
1060.811825515852
  0
VERTEX
  8
14
 10
1138.402582562995
 20
1060.904347475353
 70
8
  0
VERTEX
  8
14
 10
1139.104387513378
 20
1060.927756898316
 70
8
  0
VERTEX
  8
14
 10
1141.400000000000
 20
1061.010257330753
  0
VERTEX
  8
14
 10
1143.695612486622
 20
1060.927756898315
 70
8
  0
VERTEX
  8
14
 10
1144.397417437005
 20
1060.904347475353
 70
8
  0
VERTEX
  8
14
 10
1147.400000000000
 20
1060.811825515851
  0
VERTEX
  8
14
 10
1150.402582562995
 20
1060.904347475353
 70
8
  0
VERTEX
  8
14
 10
1151.104387513378
 20
1060.927756898315
 70
8
  0
VERTEX
  8
14
 10
1154.807928913586
 20
1061.068126834099
 70
8
  0
VERTEX
  8
14
 10
1169.640525496439
 20
1062.050935777223
 70
8
  0
VERTEX
  8
14
 10
1179.465231617400
 20
1063.417068201947
 70
8
  0
VERTEX
  8
14
 10
1189.055538058013
 20
1065.687134975309
 70
8
  0
VERTEX
  8
14
 10
1193.713653969726
 20
1067.250927629832
 70
8
  0
VERTEX
  8
14
 10
1198.254205047197
 20
1069.148444536041
 70
8
  0
VERTEX
  8
14
 10
1201.558949595330
 20
1070.832061524140
 70
8
  0
VERTEX
  8
14
 10
1204.655347033275
 20
1072.830911184996
 70
8
  0
VERTEX
  8
14
 10
1207.420677140695
 20
1075.178528410099
 70
8
  0
VERTEX
  8
14
 10
1212.400000000000
 20
1080.558976699567
  0
VERTEX
  8
14
 10
1217.961143856867
 20
1088.812087004957
  0
VERTEX
  8
14
 10
1384.919230424575
 20
1034.938653551513
  0
VERTEX
  8
14
 10
1382.414648437500
 20
1025.301243545270
  0
VERTEX
  8
14
 10
1377.279325163484
 20
971.6131634846023
 70
8
  0
VERTEX
  8
14
 10
1374.898521837114
 20
937.7209313169478
 70
8
  0
VERTEX
  8
14
 10
1373.955431491375
 20
913.7452203898870
 70
8
  0
VERTEX
  8
14
 10
1373.901922288564
 20
895.6321383096492
 70
8
  0
VERTEX
  8
14
 10
1374.633506401461
 20
881.7856929141777
 70
8
  0
VERTEX
  8
14
 10
1375.666268926575
 20
872.2903331074741
 70
8
  0
VERTEX
  8
14
 10
1377.373238544274
 20
861.9505324165219
 70
8
  0
VERTEX
  8
14
 10
1379.859254864296
 20
851.6722298772139
 70
8
  0
VERTEX
  8
14
 10
1383.285989180641
 20
841.8541393632793
 70
8
  0
VERTEX
  8
14
 10
1385.402647866808
 20
837.2422717013673
 70
8
  0
VERTEX
  8
14
 10
1387.815112787306
 20
832.8949747484472
 70
8
  0
VERTEX
  8
14
 10
1390.543592853884
 20
828.8620877387348
 70
8
  0
VERTEX
  8
14
 10
1393.608296978292
 20
825.1934499064464
 70
8
  0
VERTEX
  8
14
 10
1397.029434072280
 20
821.9389004857983
 70
8
  0
VERTEX
  8
14
 10
1400.827213047597
 20
819.1482787110065
 70
8
  0
VERTEX
  8
14
 10
1404.307866191887
 20
817.1841247717788
 70
8
  0
VERTEX
  8
14
 10
1411.883847965345
 20
814.0515817289503
 70
8
  0
VERTEX
  8
14
 10
1419.906866455078
 20
811.4977767483954
  0
VERTEX
  8
14
 10
1419.918248086126
 20
580.5933085049248
  0
VERTEX
  8
14
 10
1419.920852472877
 20
548.3568973481572
  0
VERTEX
  8
14
 10
1419.720843519781
 20
494.5991082767425
 70
8
  0
VERTEX
  8
14
 10
1418.736587346045
 20
460.5340204545709
 70
8
  0
VERTEX
  8
14
 10
1418.505919262213
 20
455.6827558824507
 70
8
  0
VERTEX
  8
14
 10
1416.882863327039
 20
431.0997621826340
 70
8
  0
VERTEX
  8
14
 10
1414.317644808570
 20
406.3705140163401
 70
8
  0
VERTEX
  8
14
 10
1411.284570254787
 20
386.2895223564642
 70
8
  0
VERTEX
  8
14
 10
1408.030212990928
 20
371.4337870446610
 70
8
  0
VERTEX
  8
14
 10
1405.211107741432
 20
361.7752499653445
 70
8
  0
VERTEX
  8
14
 10
1401.758458609057
 20
352.4048215034944
 70
8
  0
VERTEX
  8
14
 10
1397.574622544656
 20
343.4012554716452
 70
8
  0
VERTEX
  8
14
 10
1392.561956499082
 20
334.8433056823322
 70
8
  0
VERTEX
  8
14
 10
1386.735711454280
 20
326.9021663230995
 70
8
  0
VERTEX
  8
14
 10
1380.111114698306
 20
319.5268064514061
 70
8
  0
VERTEX
  8
14
 10
1372.793466775315
 20
312.7715517214023
 70
8
  0
VERTEX
  8
14
 10
1364.888068229458
 20
306.6907277872388
 70
8
  0
VERTEX
  8
14
 10
1356.500219604887
 20
301.3386603030658
 70
8
  0
VERTEX
  8
14
 10
1347.654855933605
 20
296.7167796788917
 70
8
  0
VERTEX
  8
14
 10
1338.481384770809
 20
292.8289726522645
 70
8
  0
VERTEX
  8
14
 10
1329.034925407065
 20
289.6136124224186
 70
8
  0
VERTEX
  8
14
 10
1314.473956932780
 20
285.9166011949399
 70
8
  0
VERTEX
  8
14
 10
1299.608811015787
 20
283.3859445059125
 70
8
  0
VERTEX
  8
14
 10
1284.625515261742
 20
281.8136519027526
 70
8
  0
VERTEX
  8
14
 10
1279.636980743878
 20
281.4665751981121
 70
8
  0
VERTEX
  8
14
 10
1254.984036862756
 20
280.5589766995673
  0
VERTEX
  8
14
 10
1147.400000000000
 20
280.5634479230249
  0
VERTEX
  8
14
 10
1141.400000000000
 20
280.5631985613025
  0
VERTEX
  8
14
 10
1135.400000000000
 20
280.5634479230249
  0
VERTEX
  8
14
 10
1115.400000000000
 20
280.5642791287668
  0
VERTEX
  8
14
 10
1095.400000000000
 20
280.5634780423410
  0
VERTEX
  8
14
 10
1075.400000000000
 20
280.5642791287668
  0
VERTEX
  8
14
 10
1055.400000000000
 20
280.5634479230251
  0
VERTEX
  8
14
 10
1055.400000000000
 20
1060.811825515852
  0
VERTEX
  8
14
 10
1064.198964159438
 20
1060.627127825453
 70
8
  0
VERTEX
  8
14
 10
1073.000021362305
 20
1060.561646987654
 70
8
  0
VERTEX
  8
14
 10
1075.400000000000
 20
1060.561646987654
  0
VERTEX
  8
14
 10
1077.799978637695
 20
1060.561646987654
 70
8
  0
VERTEX
  8
14
 10
1086.592817687988
 20
1060.627564956404
 70
8
  0
VERTEX
  8
14
 10
1095.400000000000
 20
1060.814942886091
  0
VERTEX
  8
14
 10
1104.207182312012
 20
1060.627564956404
 70
8
  0
VERTEX
  8
14
 10
1113.000021362305
 20
1060.561646987654
 70
8
  0
SEQEND
  0
POINT
  8
2
 10
1115.400000000000
 20
1060.561646987654
  0
POINT
  8
2
 10
1135.400000000000
 20
1060.811825515852
  0
POINT
  8
2
 10
1141.400000000000
 20
1061.010257330753
  0
POINT
  8
2
 10
1147.400000000000
 20
1060.811825515851
  0
POINT
  8
2
 10
1212.400000000000
 20
1080.558976699567
  0
POINT
  8
2
 10
1217.961143856867
 20
1088.812087004957
  0
POINT
  8
2
 10
1384.919230424575
 20
1034.938653551513
  0
POINT
  8
2
 10
1382.414648437500
 20
1025.301243545270
  0
POINT
  8
2
 10
1373.955431491375
 20
913.7452203898870
  0
POINT
  8
2
 10
1419.906866455078
 20
811.4977767483954
  0
POINT
  8
2
 10
1419.918248086126
 20
580.5933085049248
  0
POINT
  8
2
 10
1419.920852472877
 20
548.3568973481572
  0
POINT
  8
2
 10
1392.561956499082
 20
334.8433056823322
  0
POINT
  8
2
 10
1254.984036862756
 20
280.5589766995673
  0
POINT
  8
2
 10
1147.400000000000
 20
280.5634479230249
  0
POINT
  8
2
 10
1141.400000000000
 20
280.5631985613025
  0
POINT
  8
2
 10
1135.400000000000
 20
280.5634479230249
  0
POINT
  8
2
 10
1115.400000000000
 20
280.5642791287668
  0
POINT
  8
2
 10
1095.400000000000
 20
280.5634780423410
  0
POINT
  8
2
 10
1075.400000000000
 20
280.5642791287668
  0
POINT
  8
2
 10
1055.400000000000
 20
280.5634479230251
  0
POINT
  8
2
 10
1055.400000000000
 20
1060.811825515852
  0
POINT
  8
2
 10
1075.400000000000
 20
1060.561646987654
  0
POINT
  8
2
 10
1095.400000000000
 20
1060.814942886091
  0
POINT
  8
2
 10
1075.403750126040
 20
1068.561646227897
  0
POINT
  8
2
 10
1095.400000000000
 20
1068.813133018157
  0
POINT
  8
2
 10
1115.400000000000
 20
1068.561647106863
  0
POINT
  8
2
 10
1135.400000000000
 20
1068.814315930297
  0
POINT
  8
2
 10
1141.400000000000
 20
1069.002533616152
  0
POINT
  8
2
 10
1147.400000000000
 20
1068.809685935190
  0
POINT
  8
2
 10
1206.199527772121
 20
1085.673383951231
  0
POINT
  8
2
 10
1215.853145606027
 20
1100.000000000001
  0
POINT
  8
2
 10
1396.971489032473
 20
1041.557385914186
  0
POINT
  8
2
 10
1392.294088552330
 20
1023.559162488786
  0
POINT
  8
2
 10
1383.947521416671
 20
913.4668887762416
  0
POINT
  8
2
 10
1429.906533043366
 20
818.2621024317634
  0
POINT
  8
2
 10
1429.918248063735
 20
580.5939589135982
  0
POINT
  8
2
 10
1429.920269791699
 20
548.2809710359313
  0
POINT
  8
2
 10
1400.879600797763
 20
329.1846264489369
  0
POINT
  8
2
 10
1255.167779520286
 20
270.5623616267911
  0
POINT
  8
2
 10
1147.400000000000
 20
270.5634479316611
  0
POINT
  8
2
 10
1141.400000000000
 20
270.5631985699388
  0
POINT
  8
2
 10
1135.400000000000
 20
270.5634479143898
  0
POINT
  8
2
 10
1115.399992470171
 20
270.5642791370958
  0
POINT
  8
2
 10
1095.400000000000
 20
270.5634780503628
  0
POINT
  8
2
 10
1075.400007529829
 20
270.5642791370958
  0
POINT
  8
2
 10
1055.400415602870
 20
270.5634479316614
  0
POINT
  8
2
 10
1055.400000000000
 20
280.5634479230251
  0
POINT
  8
2
 10
1055.400000000000
 20
1060.811825515852
  0
POINT
  8
2
 10
1055.591399636849
 20
1068.809535693544
  0
POINT
  8
2
 10
1073.059540599585
 20
1068.561425695077
  0
POINT
  8
2
 10
1073.000021362305
 20
1060.561646987654
  0
POINT
  8
2
 10
1075.400000000000
 20
1060.561646987654
  0
POINT
  8
3
 10
1077.769992364965
 20
1068.561534708216
  0
POINT
  8
3
 10
1086.477748340155
 20
1068.626547683395
  0
POINT
  8
3
 10
1090.939042783004
 20
1068.710002922358
  0
POINT
  8
3
 10
1104.322251659845
 20
1068.626547683395
  0
POINT
  8
3
 10
1113.030007635035
 20
1068.561534708216
  0
POINT
  8
3
 10
1117.770142888998
 20
1068.561535833829
  0
POINT
  8
3
 10
1126.472992691032
 20
1068.626199088547
  0
POINT
  8
3
 10
1130.936668636785
 20
1068.710211609257
  0
POINT
  8
3
 10
1138.835605491524
 20
1068.923218989411
  0
POINT
  8
3
 10
1143.964394508477
 20
1068.923218989411
  0
POINT
  8
3
 10
1150.827768588494
 20
1068.922929651804
  0
POINT
  8
3
 10
1154.309542384065
 20
1069.050187094999
  0
POINT
  8
3
 10
1167.078771339992
 20
1069.850073193109
  0
POINT
  8
3
 10
1175.552615669697
 20
1070.904210695838
  0
POINT
  8
3
 10
1183.562823854710
 20
1072.515752368328
  0
POINT
  8
3
 10
1191.348097355482
 20
1074.955898288688
  0
POINT
  8
3
 10
1195.101891434817
 20
1076.564318386824
  0
POINT
  8
3
 10
1199.751479938863
 20
1079.239146508859
  0
POINT
  8
3
 10
1203.139298831627
 20
1082.250421982121
  0
POINT
  8
3
 10
1387.046940663434
 20
968.4279325174447
  0
POINT
  8
3
 10
1384.830818920769
 20
936.3886425932081
  0
POINT
  8
3
 10
1383.947521416671
 20
913.4668887762416
  0
POINT
  8
3
 10
1383.966595310793
 20
893.7543502749860
  0
POINT
  8
3
 10
1384.700355058638
 20
881.6402425584479
  0
POINT
  8
3
 10
1385.593322524233
 20
873.5970878538616
  0
POINT
  8
3
 10
1387.179185009477
 20
863.9746403486056
  0
POINT
  8
3
 10
1388.228961890558
 20
859.2143321002784
  0
POINT
  8
3
 10
1390.841924396934
 20
850.2364465769456
  0
POINT
  8
3
 10
1392.504644218041
 20
845.8565855687125
  0
POINT
  8
3
 10
1394.205763576447
 20
842.0901123474753
  0
POINT
  8
3
 10
1396.190320248981
 20
838.4724029333113
  0
POINT
  8
3
 10
1398.525626104056
 20
835.0782472885546
  0
POINT
  8
3
 10
1400.872533540120
 20
832.3684635286689
  0
POINT
  8
3
 10
1403.484689336889
 20
829.9082801352391
  0
POINT
  8
3
 10
1406.312636361302
 20
827.7227120674099
  0
POINT
  8
3
 10
1409.887176277307
 20
825.5014542555352
  0
POINT
  8
3
 10
1413.656866846587
 20
823.6317361923517
  0
POINT
  8
3
 10
1421.625579422356
 20
820.6656875131048
  0
POINT
  8
3
 10
1425.746541167533
 20
819.4287409975651
  0
POINT
  8
3
 10
1429.731051631582
 20
494.3544393086958
  0
POINT
  8
3
 10
1428.734009566048
 20
460.0756450364736
  0
POINT
  8
3
 10
1428.499449611559
 20
455.1826772692905
  0
POINT
  8
3
 10
1426.637137161122
 20
427.7986385445437
  0
POINT
  8
3
 10
1424.239920384774
 20
405.0314902370661
  0
POINT
  8
3
 10
1421.348098425326
 20
385.5943785143083
  0
POINT
  8
3
 10
1418.311712050870
 20
371.1915043686212
  0
POINT
  8
3
 10
1417.076412428900
 20
366.4434972272816
  0
POINT
  8
3
 10
1413.430114483606
 20
354.8267147940902
  0
POINT
  8
3
 10
1410.478077639694
 20
347.2619541520336
  0
POINT
  8
3
 10
1405.108598856935
 20
336.2035848182107
  0
POINT
  8
3
 10
1400.879600797763
 20
329.1846264489369
  0
POINT
  8
3
 10
1395.621038896426
 20
321.8909973792670
  0
POINT
  8
3
 10
1389.766647345145
 20
315.0535659882579
  0
POINT
  8
3
 10
1383.387242443054
 20
308.6963222303873
  0
POINT
  8
3
 10
1376.536759814040
 20
302.8329529328828
  0
POINT
  8
3
 10
1369.274641699801
 20
297.4968422045526
  0
POINT
  8
3
 10
1361.645048524842
 20
292.7092962281241
  0
POINT
  8
3
 10
1350.088696994417
 20
286.7924266922374
  0
POINT
  8
3
 10
1342.092310230317
 20
283.4751977341649
  0
POINT
  8
3
 10
1329.973231268963
 20
279.4413356510038
  0
POINT
  8
3
 10
1321.736612679759
 20
277.2761788419135
  0
POINT
  8
3
 10
1309.333741041823
 20
274.7480551082006
  0
POINT
  8
3
 10
1300.991323956595
 20
273.4727357010723
  0
POINT
  8
3
 10
1284.447603290372
 20
271.7728759954762
  0
POINT
  8
3
 10
1280.299246563950
 20
271.4928912632132
  0
POINT
  8
3
 10
1064.312668666547
 20
1068.626136298738
  0
POINT
  8
3
 10
1068.685945597730
 20
1068.582591491488
  0
POINT
  8
4
 10
1392.294088552330
 20
1023.559162488786
 30
2.999999999999946
 39
3.000000000000000
 50
169.8194998920613
  0
POINT
  8
4
 10
1429.918248063735
 20
580.5939589135982
 30
3.000000000000099
 39
3.000000000000000
 50
-179.9967954887887
  0
POINT
  8
4
 10
1382.414648437500
 20
1025.301243545270
 30
3.000000000000038
 39
3.000000000000000
 50
169.8187498455990
  0
POINT
  8
4
 10
1419.918248086126
 20
580.5933085049248
 30
2.999999999999870
 39
3.000000000000000
 50
-179.9962734328029
  0
LINE
  8
8
 10
1135.400000000000
 20
1068.814315930297
 11
1135.400000000000
 21
270.5634479143898
  0
POINT
  8
2
 10
1135.400000000000
 20
1068.814315930297
  0
POINT
  8
2
 10
1135.400000000000
 20
270.5634479143898
  0
LINE
  8
8
 10
1141.400000000000
 20
1069.002533616152
 11
1141.400000000000
 21
270.5631985699388
  0
POINT
  8
2
 10
1141.400000000000
 20
1069.002533616152
  0
POINT
  8
2
 10
1141.400000000000
 20
270.5631985699388
  0
LINE
  8
8
 10
1147.400000000000
 20
1068.809685935190
 11
1147.400000000000
 21
270.5634479316611
  0
POINT
  8
2
 10
1147.400000000000
 20
1068.809685935190
  0
POINT
  8
2
 10
1147.400000000000
 20
270.5634479316611
  0
LINE
  8
8
 10
1135.400000000000
 20
1060.811825515852
 11
1135.400000000000
 21
280.5634479230249
  0
POINT
  8
2
 10
1135.400000000000
 20
1060.811825515852
  0
POINT
  8
2
 10
1135.400000000000
 20
280.5634479230249
  0
LINE
  8
8
 10
1141.400000000000
 20
1061.010257330753
 11
1141.400000000000
 21
280.5631985613025
  0
POINT
  8
2
 10
1141.400000000000
 20
1061.010257330753
  0
POINT
  8
2
 10
1141.400000000000
 20
280.5631985613025
  0
LINE
  8
8
 10
1147.400000000000
 20
1060.811825515851
 11
1147.400000000000
 21
280.5634479230249
  0
POINT
  8
2
 10
1147.400000000000
 20
1060.811825515851
  0
POINT
  8
2
 10
1147.400000000000
 20
280.5634479230249
  0
POLYLINE
  8
8
 66
1
 70
0
  0
VERTEX
  8
8
 10
1212.400000000000
 20
1080.558976699567
  0
VERTEX
  8
8
 10
1382.414648437500
 20
1025.301243545270
  0
SEQEND
  0
POINT
  8
2
 10
1212.400000000000
 20
1080.558976699567
  0
POINT
  8
2
 10
1382.414648437500
 20
1025.301243545270
  0
POLYLINE
  8
8
 66
1
 70
0
  0
VERTEX
  8
8
 10
1147.400000000000
 20
280.5634479230249
  0
VERTEX
  8
8
 10
1147.400000000000
 20
1060.811825515851
  0
SEQEND
  0
POINT
  8
2
 10
1147.400000000000
 20
280.5634479230249
  0
POINT
  8
2
 10
1147.400000000000
 20
1060.811825515851
  0
POLYLINE
  8
8
 66
1
 70
0
  0
VERTEX
  8
8
 10
1115.400000000000
 20
280.5642791287668
  0
VERTEX
  8
8
 10
1115.400000000000
 20
1060.561646987654
  0
SEQEND
  0
POINT
  8
2
 10
1115.400000000000
 20
280.5642791287668
  0
POINT
  8
2
 10
1115.400000000000
 20
1060.561646987654
  0
POLYLINE
  8
8
 66
1
 70
0
  0
VERTEX
  8
8
 10
1055.400000000000
 20
280.5634479230251
  0
VERTEX
  8
8
 10
1055.400000000000
 20
1060.811825515852
  0
SEQEND
  0
POINT
  8
2
 10
1055.400000000000
 20
280.5634479230251
  0
POINT
  8
2
 10
1055.400000000000
 20
1060.811825515852
  0
POLYLINE
  8
8
 66
1
 70
0
  0
VERTEX
  8
8
 10
1095.400000000000
 20
280.5634780423410
  0
VERTEX
  8
8
 10
1095.400000000000
 20
1060.814942886091
  0
SEQEND
  0
POINT
  8
2
 10
1095.400000000000
 20
280.5634780423410
  0
POINT
  8
2
 10
1095.400000000000
 20
1060.814942886091
  0
ENDBLK
  0
BLOCK
  8
1
  2
2
 70
64
 10
0.0
 20
0.0
  0
LINE
  8
7
 10
426.6370369978517
 20
859.3340109993751
 11
114.6618639359686
 21
859.3340122077756
  0
TEXT
  8
1
 10
262.9494540075327
 20
778.3340112669977
 40
9.999999999999998
 50
90.00000250447816
 51
0.0000000000000000
 71
0
  1
Size: 38
  0
TEXT
  8
1
 10
251.9494540075328
 20
778.3340107861725
 40
9.999999999999998
 50
90.00000250447816
 51
0.0000000000000000
 71
0
  1
Piece Name: SLV 1/2
  0
TEXT
  8
1
 10
273.9494540075327
 20
778.3340117478230
 40
9.999999999999998
 50
90.00000250447816
 51
0.0000000000000000
 71
0
  1
Sample Size
  0
TEXT
  8
1
 10
284.9494540075327
 20
778.3340122286482
 40
9.999999999999998
 50
90.00000250447816
 51
0.0000000000000000
 71
0
  1
Quantity: 2
  0
TEXT
  8
1
 10
295.9494540075327
 20
778.3340127094737
 40
9.999999999999998
 50
90.00000250447816
 51
0.0000000000000000
 71
0
  1
Material: MOKHLASIN 17-05-23
  0
TEXT
  8
1
 10
306.9494540075327
 20
778.3340131902989
 40
9.999999999999998
 50
90.00000250447816
 51
0.0000000000000000
 71
0
  1
Area: 0.1767 sq.m
  0
POLYLINE
  8
1
 66
1
 70
1
  0
VERTEX
  8
1
 10
540.6287613518138
 20
1033.333606270159
  0
VERTEX
  8
1
 10
540.6287613518128
 20
959.3028619070269
  0
VERTEX
  8
1
 10
540.6287613518128
 20
869.3400933523394
  0
VERTEX
  8
1
 10
540.6287613518128
 20
859.3400933523394
  0
VERTEX
  8
1
 10
540.6287613518128
 20
834.3400933523394
  0
VERTEX
  8
1
 10
540.6287613506252
 20
799.3399843723917
  0
VERTEX
  8
1
 10
540.6262756895671
 20
685.2978005333584
  0
VERTEX
  8
1
 10
133.9286869616994
 20
643.7875333175629
  0
VERTEX
  8
1
 10
126.4718281293166
 20
656.6856145278194
 70
8
  0
VERTEX
  8
1
 10
121.0729147212102
 20
665.0025592980382
 70
8
  0
VERTEX
  8
1
 10
113.2832337029257
 20
675.0917667248523
 70
8
  0
VERTEX
  8
1
 10
110.4831403083772
 20
678.2908266046114
 70
8
  0
VERTEX
  8
1
 10
101.3461778833811
 20
687.6683059364296
 70
8
  0
VERTEX
  8
1
 10
98.17693242676324
 20
690.6699307202899
 70
8
  0
VERTEX
  8
1
 10
70.43529696546810
 20
715.4696257114045
 70
8
  0
VERTEX
  8
1
 10
57.33071901166664
 20
728.0721727698119
 70
8
  0
VERTEX
  8
1
 10
51.03875963065253
 20
734.6355900887720
 70
8
  0
VERTEX
  8
1
 10
41.92235572326454
 20
744.9325737874864
 70
8
  0
VERTEX
  8
1
 10
33.38201772529438
 20
755.7117221975830
 70
8
  0
VERTEX
  8
1
 10
25.53396736466063
 20
767.0092225856837
 70
8
  0
VERTEX
  8
1
 10
18.52053549793612
 20
778.8438630569971
 70
8
  0
VERTEX
  8
1
 10
12.48365621005325
 20
791.2314322985251
 70
8
  0
VERTEX
  8
1
 10
7.579668201773861
 20
804.1038202737208
 70
8
  0
VERTEX
  8
1
 10
4.979879971253177
 20
813.0156112684136
 70
8
  0
VERTEX
  8
1
 10
2.167946604983438
 20
826.6541111514068
 70
8
  0
VERTEX
  8
1
 10
0.6764184826965215
 20
840.2998779282437
 70
8
  0
VERTEX
  8
1
 10
0.4001888302659829
 20
849.4424600255252
 70
8
  0
VERTEX
  8
1
 10
0.6808187562635746
 20
860.0613619917762
  0
VERTEX
  8
1
 10
1.846088848866380
 20
869.9069179758396
 70
8
  0
VERTEX
  8
1
 10
3.783202147549252
 20
881.9103534029953
 70
8
  0
VERTEX
  8
1
 10
5.488343966177505
 20
889.8374539276057
 70
8
  0
VERTEX
  8
1
 10
8.820589316390555
 20
901.7411138619217
 70
8
  0
VERTEX
  8
1
 10
11.58852475604292
 20
909.5009829458332
 70
8
  0
VERTEX
  8
1
 10
15.40904783391537
 20
918.3325689032114
 70
8
  0
VERTEX
  8
1
 10
19.80295101426472
 20
926.8965591401046
 70
8
  0
VERTEX
  8
1
 10
27.29339418957629
 20
939.2277930303469
 70
8
  0
VERTEX
  8
1
 10
29.99437240007161
 20
943.2072162317759
 70
8
  0
VERTEX
  8
1
 10
38.32106071524886
 20
954.4402307064465
 70
8
  0
VERTEX
  8
1
 10
50.27434235846145
 20
968.7665518430414
 70
8
  0
VERTEX
  8
1
 10
53.37204722981675
 20
972.2563819267205
 70
8
  0
VERTEX
  8
1
 10
76.10833947915482
 20
996.5423480835260
 70
8
  0
VERTEX
  8
1
 10
98.81733317558718
 20
1020.818205128639
 70
8
  0
VERTEX
  8
1
 10
108.1439948888533
 20
1031.586635076271
 70
8
  0
VERTEX
  8
1
 10
116.0457307281882
 20
1041.614539062248
 70
8
  0
VERTEX
  8
1
 10
118.4897174458995
 20
1045.099495377160
 70
8
  0
VERTEX
  8
1
 10
122.8655367482943
 20
1052.172377200839
 70
8
  0
VERTEX
  8
1
 10
126.6461278431820
 20
1059.574227080964
 70
8
  0
VERTEX
  8
1
 10
131.2479175988550
 20
1071.099074239201
 70
8
  0
VERTEX
  8
1
 10
132.6426802345542
 20
1075.000000000001
  0
SEQEND
  0
POLYLINE
  8
14
 66
1
 70
1
  0
VERTEX
  8
14
 10
530.6287613518128
 20
859.3400933523394
  0
VERTEX
  8
14
 10
530.6287613518128
 20
834.3400933523394
  0
VERTEX
  8
14
 10
530.6287613518128
 20
799.3400933523394
  0
VERTEX
  8
14
 10
530.6264725334535
 20
694.3291070242144
  0
VERTEX
  8
14
 10
139.2039391167054
 20
654.3779137869097
  0
VERTEX
  8
14
 10
131.9046060003215
 20
666.7574925636345
 70
8
  0
VERTEX
  8
14
 10
129.2929219580751
 20
670.7334062909734
 70
8
  0
VERTEX
  8
14
 10
123.4866798062051
 20
678.5134153613432
 70
8
  0
VERTEX
  8
14
 10
117.1410918613399
 20
685.8502183707376
 70
8
  0
VERTEX
  8
14
 10
106.8406972435857
 20
696.2433480230795
 70
8
  0
VERTEX
  8
14
 10
77.28301991216114
 20
722.7528865637289
 70
8
  0
VERTEX
  8
14
 10
62.75811308446589
 20
736.8355439203349
 70
8
  0
VERTEX
  8
14
 10
52.49220324700407
 20
747.9811934260586
 70
8
  0
VERTEX
  8
14
 10
42.95891827936088
 20
759.6513448616349
 70
8
  0
VERTEX
  8
14
 10
34.33334063153418
 20
771.8678006729805
 70
8
  0
VERTEX
  8
14
 10
26.79055275352183
 20
784.6523633060119
 70
8
  0
VERTEX
  8
14
 10
22.45003784276742
 20
793.5017866022617
 70
8
  0
VERTEX
  8
14
 10
18.72045353341046
 20
802.6198517791993
 70
8
  0
VERTEX
  8
14
 10
17.10097169221877
 20
807.2816438179183
 70
8
  0
VERTEX
  8
14
 10
14.46025673040615
 20
816.4699268477551
 70
8
  0
VERTEX
  8
14
 10
12.47110475242777
 20
825.8502021665511
 70
8
  0
VERTEX
  8
14
 10
11.14290460278771
 20
835.3549501766269
 70
8
  0
VERTEX
  8
14
 10
10.48504512599012
 20
844.9166512803019
 70
8
  0
VERTEX
  8
14
 10
10.41042715381479
 20
849.6977593679644
 70
8
  0
VERTEX
  8
14
 10
10.66524893115854
 20
859.3400933523394
  0
VERTEX
  8
14
 10
11.73977285693979
 20
868.4189202566363
 70
8
  0
VERTEX
  8
14
 10
14.15900263685182
 20
882.7257076922797
 70
8
  0
VERTEX
  8
14
 10
16.41552711050797
 20
892.1331065402416
 70
8
  0
VERTEX
  8
14
 10
19.26416889460687
 20
901.3512556842031
 70
8
  0
VERTEX
  8
14
 10
20.93119992471635
 20
905.8666253269975
 70
8
  0
VERTEX
  8
14
 10
24.75087405840177
 20
914.6440191658276
 70
8
  0
VERTEX
  8
14
 10
29.17885195483517
 20
923.1434143822046
 70
8
  0
VERTEX
  8
14
 10
36.79220005151529
 20
935.4105012172554
 70
8
  0
VERTEX
  8
14
 10
45.33917597777784
 20
947.1529976798620
 70
8
  0
VERTEX
  8
14
 10
57.73628502826307
 20
962.0982739686506
 70
8
  0
VERTEX
  8
14
 10
60.94988480912377
 20
965.7225090023052
 70
8
  0
VERTEX
  8
14
 10
83.75156057483733
 20
990.0601864997783
 70
8
  0
VERTEX
  8
14
 10
106.4490547937163
 20
1014.313319014156
 70
8
  0
VERTEX
  8
14
 10
115.8040906778994
 20
1025.141866166157
 70
8
  0
VERTEX
  8
14
 10
124.2378298796942
 20
1035.870084975864
 70
8
  0
VERTEX
  8
14
 10
129.3383386559276
 20
1043.365886092303
 70
8
  0
VERTEX
  8
14
 10
133.7889288403592
 20
1051.211864591957
 70
8
  0
VERTEX
  8
14
 10
135.7082728431945
 20
1055.286327464573
 70
8
  0
VERTEX
  8
14
 10
139.2036339409242
 20
1064.277935149214
  0
VERTEX
  8
14
 10
530.6287613518128
 20
1024.302861907027
  0
VERTEX
  8
14
 10
530.6287613518128
 20
959.3028619070269
  0
VERTEX
  8
14
 10
530.6287613518128
 20
869.3400933523394
  0
SEQEND
  0
POINT
  8
2
 10
530.6287613518128
 20
859.3400933523394
  0
POINT
  8
2
 10
530.6287613518128
 20
834.3400933523394
  0
POINT
  8
2
 10
530.6287613518128
 20
799.3400933523394
  0
POINT
  8
2
 10
530.6264725334535
 20
694.3291070242144
  0
POINT
  8
2
 10
139.2039391167054
 20
654.3779137869097
  0
POINT
  8
2
 10
77.28301991216114
 20
722.7528865637289
  0
POINT
  8
2
 10
10.41042715381479
 20
849.6977593679644
  0
POINT
  8
2
 10
10.66524893115854
 20
859.3400933523394
  0
POINT
  8
2
 10
139.2036339409242
 20
1064.277935149214
  0
POINT
  8
2
 10
530.6287613518128
 20
1024.302861907027
  0
POINT
  8
2
 10
530.6287613518128
 20
959.3028619070269
  0
POINT
  8
2
 10
530.6287613518128
 20
869.3400933523394
  0
POINT
  8
2
 10
540.6287613518138
 20
1033.333606270159
  0
POINT
  8
2
 10
540.6287613518128
 20
959.3028619070269
  0
POINT
  8
2
 10
540.6287613518128
 20
869.3400933523394
  0
POINT
  8
2
 10
540.6287613518128
 20
859.3400933523394
  0
POINT
  8
2
 10
540.6287613518128
 20
834.3400933523394
  0
POINT
  8
2
 10
540.6287613506252
 20
799.3399843723917
  0
POINT
  8
2
 10
540.6262756895671
 20
685.2978005333584
  0
POINT
  8
2
 10
133.9286869616994
 20
643.7875333175629
  0
POINT
  8
2
 10
70.43529696546808
 20
715.4696257114045
  0
POINT
  8
2
 10
0.4001888302659829
 20
849.4424600255252
  0
POINT
  8
2
 10
0.6808187562635746
 20
860.0613619917762
  0
POINT
  8
2
 10
132.6426802345542
 20
1075.000000000001
  0
POINT
  8
3
 10
126.4718281293166
 20
656.6856145278194
  0
POINT
  8
3
 10
121.0729147212102
 20
665.0025592980382
  0
POINT
  8
3
 10
113.2832337029257
 20
675.0917667248523
  0
POINT
  8
3
 10
110.4831403083772
 20
678.2908266046114
  0
POINT
  8
3
 10
101.3461778833811
 20
687.6683059364296
  0
POINT
  8
3
 10
98.17693242676324
 20
690.6699307202899
  0
POINT
  8
3
 10
70.43529696546810
 20
715.4696257114045
  0
POINT
  8
3
 10
57.33071901166664
 20
728.0721727698119
  0
POINT
  8
3
 10
51.03875963065253
 20
734.6355900887720
  0
POINT
  8
3
 10
41.92235572326454
 20
744.9325737874864
  0
POINT
  8
3
 10
33.38201772529438
 20
755.7117221975830
  0
POINT
  8
3
 10
25.53396736466063
 20
767.0092225856837
  0
POINT
  8
3
 10
18.52053549793612
 20
778.8438630569971
  0
POINT
  8
3
 10
12.48365621005325
 20
791.2314322985251
  0
POINT
  8
3
 10
7.579668201773861
 20
804.1038202737208
  0
POINT
  8
3
 10
4.979879971253177
 20
813.0156112684136
  0
POINT
  8
3
 10
2.167946604983438
 20
826.6541111514068
  0
POINT
  8
3
 10
0.6764184826965215
 20
840.2998779282437
  0
POINT
  8
3
 10
0.4001888302659829
 20
849.4424600255252
  0
POINT
  8
3
 10
0.5482595326373465
 20
856.5224656850176
  0
POINT
  8
3
 10
1.846088848866380
 20
869.9069179758396
  0
POINT
  8
3
 10
3.783202147549252
 20
881.9103534029953
  0
POINT
  8
3
 10
5.488343966177505
 20
889.8374539276057
  0
POINT
  8
3
 10
8.820589316390555
 20
901.7411138619217
  0
POINT
  8
3
 10
11.58852475604292
 20
909.5009829458332
  0
POINT
  8
3
 10
15.40904783391537
 20
918.3325689032114
  0
POINT
  8
3
 10
19.80295101426472
 20
926.8965591401046
  0
POINT
  8
3
 10
27.29339418957629
 20
939.2277930303469
  0
POINT
  8
3
 10
29.99437240007161
 20
943.2072162317759
  0
POINT
  8
3
 10
38.32106071524886
 20
954.4402307064465
  0
POINT
  8
3
 10
50.27434235846145
 20
968.7665518430414
  0
POINT
  8
3
 10
53.37204722981675
 20
972.2563819267205
  0
POINT
  8
3
 10
76.10833947915482
 20
996.5423480835260
  0
POINT
  8
3
 10
98.81733317558718
 20
1020.818205128639
  0
POINT
  8
3
 10
108.1439948888533
 20
1031.586635076271
  0
POINT
  8
3
 10
116.0457307281882
 20
1041.614539062248
  0
POINT
  8
3
 10
118.4897174458995
 20
1045.099495377160
  0
POINT
  8
3
 10
122.8655367482943
 20
1052.172377200839
  0
POINT
  8
3
 10
126.6461278431820
 20
1059.574227080964
  0
POINT
  8
3
 10
131.2479175988550
 20
1071.099074239201
  0
POINT
  8
4
 10
540.6287613518128
 20
869.3400933523394
 30
3.000000119209290
 39
3.000000119209290
 50
180.0000000000000
  0
POINT
  8
4
 10
540.6287613518128
 20
834.3400933523394
 30
3.000000119209290
 39
3.000000119209290
 50
179.9999999990284
  0
POINT
  8
4
 10
540.6287613506252
 20
799.3399843723917
 30
3.000000119209306
 39
3.000000119209290
 50
179.9993755902213
  0
POINT
  8
4
 10
70.43529696546808
 20
715.4696257114045
 30
2.999999999999954
 39
3.000000000000000
 50
47.50944733790854
  0
POINT
  8
4
 10
0.6808187562635746
 20
860.0613619917762
 30
3.000000119209284
 39
3.000000119209290
 50
-4.283465331698695
  0
POINT
  8
4
 10
530.6287613518128
 20
834.3400933523394
 30
3.000000119209290
 39
3.000000119209290
 50
180.0000000000000
  0
POINT
  8
4
 10
530.6287613518128
 20
799.3400933523394
 30
3.000000119209306
 39
3.000000119209290
 50
179.9993755908944
  0
POINT
  8
4
 10
77.28301991216114
 20
722.7528865637289
 30
2.999999999999953
 39
3.000000000000000
 50
47.46642976219243
  0
POINT
  8
4
 10
10.66524893115854
 20
859.3400933523394
 30
3.000000119209294
 39
3.000000119209290
 50
-4.278985419141000
  0
POINT
  8
4
 10
530.6287613518128
 20
869.3400933523394
 30
3.000000119209290
 39
3.000000119209290
 50
180.0000000000000
  0
POLYLINE
  8
8
 66
1
 70
0
  0
VERTEX
  8
8
 10
139.2039391167054
 20
654.3779137869097
  0
VERTEX
  8
8
 10
139.2036339409242
 20
1064.277935149214
  0
SEQEND
  0
POINT
  8
2
 10
139.2039391167054
 20
654.3779137869097
  0
POINT
  8
2
 10
139.2036339409242
 20
1064.277935149214
  0
POLYLINE
  8
8
 66
1
 70
0
  0
VERTEX
  8
8
 10
338.0369797356019
 20
707.9291894216753
  0
VERTEX
  8
8
 10
338.0369797356019
 20
831.9577386160113
  0
VERTEX
  8
8
 10
338.0369797356019
 20
1018.006932951949
  0
SEQEND
  0
POINT
  8
2
 10
338.0369797356019
 20
707.9291894216753
  0
POINT
  8
2
 10
338.0369797356019
 20
831.9577386160113
  0
POINT
  8
2
 10
338.0369797356019
 20
1018.006932951949
  0
POLYLINE
  8
8
 66
1
 70
0
  0
VERTEX
  8
8
 10
440.6287613518128
 20
959.3028619070269
  0
VERTEX
  8
8
 10
530.6287613518128
 20
959.3028619070269
  0
SEQEND
  0
POINT
  8
2
 10
440.6287613518128
 20
959.3028619070269
  0
POINT
  8
2
 10
530.6287613518128
 20
959.3028619070269
  0
POLYLINE
  8
8
 66
1
 70
0
  0
VERTEX
  8
8
 10
530.6287613518128
 20
799.3400933523394
  0
VERTEX
  8
8
 10
515.3370133049378
 20
798.7721612234332
  0
VERTEX
  8
8
 10
514.6474304802308
 20
870.4906823415972
  0
VERTEX
  8
8
 10
530.6287613518128
 20
869.3400933523394
  0
SEQEND
  0
POINT
  8
2
 10
530.6287613518128
 20
799.3400933523394
  0
POINT
  8
2
 10
515.3370133049378
 20
798.7721612234332
  0
POINT
  8
2
 10
514.6474304802308
 20
870.4906823415972
  0
POINT
  8
2
 10
530.6287613518128
 20
869.3400933523394
  0
ENDBLK
  0
BLOCK
  8
1
  2
3
 70
64
 10
0.0
 20
0.0
  0
LINE
  8
7
 10
1484.952233718325
 20
242.8943589036759
 11
1484.952233718325
 21
325.0943589036760
  0
TEXT
  8
1
 10
1510.224810129161
 20
197.5958148913623
 40
10.00000000000000
 50
90.00000000000000
 51
0.0000000000000000
 71
0
  1
Size: 38
  0
TEXT
  8
1
 10
1499.224810129161
 20
197.5958148913623
 40
10.00000000000000
 50
90.00000000000000
 51
0.0000000000000000
 71
0
  1
Piece Name: SLV CUFF 1/4
  0
TEXT
  8
1
 10
1521.224810129161
 20
197.5958148913623
 40
10.00000000000000
 50
90.00000000000000
 51
0.0000000000000000
 71
0
  1
Sample Size
  0
TEXT
  8
1
 10
1532.224810129161
 20
197.5958148913623
 40
10.00000000000000
 50
90.00000000000000
 51
0.0000000000000000
 71
0
  1
Quantity: 4
  0
TEXT
  8
1
 10
1543.224810129161
 20
197.5958148913623
 40
10.00000000000000
 50
90.00000000000000
 51
0.0000000000000000
 71
0
  1
Material: MOKHLASIN 17-05-23
  0
TEXT
  8
1
 10
1554.224810129161
 20
197.5958148913623
 40
10.00000000000000
 50
90.00000000000000
 51
0.0000000000000000
 71
0
  1
Area: 0.0218 sq.m
  0
POLYLINE
  8
1
 66
1
 70
1
  0
VERTEX
  8
1
 10
1434.952233718325
 20
215.4943589036759
  0
VERTEX
  8
1
 10
1434.952233718325
 20
362.4943589036761
  0
VERTEX
  8
1
 10
1510.607668346400
 20
362.4943589036761
  0
VERTEX
  8
1
 10
1517.027397708719
 20
361.6491854993120
 70
8
  0
VERTEX
  8
1
 10
1521.194371004211
 20
360.2828706817621
 70
8
  0
VERTEX
  8
1
 10
1525.057134859158
 20
358.1563100713159
 70
8
  0
VERTEX
  8
1
 10
1528.418844611146
 20
355.3194301567630
 70
8
  0
VERTEX
  8
1
 10
1530.974271264359
 20
352.0619164053728
 70
8
  0
VERTEX
  8
1
 10
1532.884348013927
 20
348.3827336710544
 70
8
  0
VERTEX
  8
1
 10
1534.123262415515
 20
344.4464557144505
 70
8
  0
VERTEX
  8
1
 10
1534.952233718325
 20
338.1497935317660
  0
VERTEX
  8
1
 10
1534.952233718325
 20
215.4943589036759
  0
SEQEND
  0
POLYLINE
  8
14
 66
1
 70
1
  0
VERTEX
  8
14
 10
1444.952233718325
 20
215.4943589036759
  0
VERTEX
  8
14
 10
1444.952233718325
 20
352.4943589036759
  0
VERTEX
  8
14
 10
1509.952233718325
 20
352.4943589036759
  0
VERTEX
  8
14
 10
1513.834519394863
 20
351.9832462980119
 70
8
  0
VERTEX
  8
14
 10
1517.677895284568
 20
350.5268312409038
 70
8
  0
VERTEX
  8
14
 10
1520.951088392856
 20
348.0288635912748
 70
8
  0
VERTEX
  8
14
 10
1523.147056790715
 20
344.9342814112998
 70
8
  0
VERTEX
  8
14
 10
1524.441121112661
 20
341.3766445802138
 70
8
  0
VERTEX
  8
14
 10
1524.952233718325
 20
337.4943589036759
  0
VERTEX
  8
14
 10
1524.952233718325
 20
215.4943589036759
  0
SEQEND
  0
POINT
  8
2
 10
1444.952233718325
 20
215.4943589036759
  0
POINT
  8
2
 10
1444.952233718325
 20
352.4943589036759
  0
POINT
  8
2
 10
1509.952233718325
 20
352.4943589036759
  0
POINT
  8
2
 10
1520.951088392856
 20
348.0288635912748
  0
POINT
  8
2
 10
1524.952233718325
 20
337.4943589036759
  0
POINT
  8
2
 10
1524.952233718325
 20
215.4943589036759
  0
POINT
  8
2
 10
1434.952233718325
 20
215.4943589036759
  0
POINT
  8
2
 10
1434.952233718325
 20
362.4943589036761
  0
POINT
  8
2
 10
1510.607668346400
 20
362.4943589036761
  0
POINT
  8
2
 10
1528.418844611146
 20
355.3194301567630
  0
POINT
  8
2
 10
1534.952233718325
 20
338.1497935317660
  0
POINT
  8
2
 10
1534.952233718325
 20
215.4943589036759
  0
POINT
  8
3
 10
1517.027397708719
 20
361.6491854993120
  0
POINT
  8
3
 10
1521.194371004211
 20
360.2828706817621
  0
POINT
  8
3
 10
1525.057134859158
 20
358.1563100713159
  0
POINT
  8
3
 10
1528.418844611146
 20
355.3194301567630
  0
POINT
  8
3
 10
1530.974271264359
 20
352.0619164053728
  0
POINT
  8
3
 10
1532.884348013927
 20
348.3827336710544
  0
POINT
  8
3
 10
1534.123262415515
 20
344.4464557144505
  0
POINT
  8
3
 10
1534.642637440291
 20
341.3120483951615
  0
LINE
  8
6
 10
1434.952233718325
 20
215.4943589036759
 11
1534.952233718325
 21
215.4943589036759
  0
ENDBLK
  0
BLOCK
  8
1
  2
4
 70
64
 10
0.0
 20
0.0
  0
LINE
  8
7
 10
54.36422772428362
 20
495.9810458506672
 11
186.2569108971340
 21
498.2704057177431
  0
TEXT
  8
1
 10
116.4605710810201
 20
456.6257256159163
 40
4.999999999999999
 50
90.00000250447816
 51
0.0000000000000000
 71
0
  1
Size: 38
  0
TEXT
  8
1
 10
110.9605710810202
 20
456.6257253755037
 40
4.999999999999999
 50
90.00000250447816
 51
0.0000000000000000
 71
0
  1
Piece Name: COLLAR 1/4
  0
TEXT
  8
1
 10
121.9605710810201
 20
456.6257258563289
 40
4.999999999999999
 50
90.00000250447816
 51
0.0000000000000000
 71
0
  1
Sample Size
  0
TEXT
  8
1
 10
127.4605710810201
 20
456.6257260967416
 40
4.999999999999999
 50
90.00000250447816
 51
0.0000000000000000
 71
0
  1
Quantity: 4
  0
TEXT
  8
1
 10
132.9605710810201
 20
456.6257263371543
 40
4.999999999999999
 50
90.00000250447816
 51
0.0000000000000000
 71
0
  1
Material: MOKHLASIN 17-05-23
  0
TEXT
  8
1
 10
138.4605710810201
 20
456.6257265775669
 40
4.999999999999999
 50
90.00000250447816
 51
0.0000000000000000
 71
0
  1
Area: 0.0143 sq.m
  0
POLYLINE
  8
1
 66
1
 70
1
  0
VERTEX
  8
1
 10
0.4000000000001827
 20
527.1503820721737
  0
VERTEX
  8
1
 10
34.37060386293106
 20
527.8840364985135
 70
8
  0
VERTEX
  8
1
 10
73.49837821181863
 20
529.3938473546743
 70
8
  0
VERTEX
  8
1
 10
93.04098677742991
 20
530.6033056917373
 70
8
  0
VERTEX
  8
1
 10
122.1710230674204
 20
533.1603414398987
 70
8
  0
VERTEX
  8
1
 10
151.1867738029484
 20
536.7388324382620
 70
8
  0
VERTEX
  8
1
 10
184.6047206928951
 20
542.1638217351026
 70
8
  0
VERTEX
  8
1
 10
217.9038205776120
 20
548.3575044985514
  0
VERTEX
  8
1
 10
236.6587110072588
 20
508.7981189743040
  0
VERTEX
  8
1
 10
261.4177481562178
 20
456.5742843718615
  0
VERTEX
  8
1
 10
163.0508621679912
 20
450.9652646768905
 70
8
  0
VERTEX
  8
1
 10
148.2879335922732
 20
450.2585734938975
 70
8
  0
VERTEX
  8
1
 10
89.20944027056143
 20
448.0771779088310
 70
8
  0
VERTEX
  8
1
 10
49.80632371229845
 20
447.3802744067002
 70
8
  0
VERTEX
  8
1
 10
0.4000000000001994
 20
447.3781397141540
  0
VERTEX
  8
1
 10
0.4000000000000004
 20
482.3574793981552
  0
SEQEND
  0
POLYLINE
  8
14
 66
1
 70
1
  0
VERTEX
  8
14
 10
10.40000000000014
 20
517.3640177048767
  0
VERTEX
  8
14
 10
34.71097030639663
 20
517.8905985154236
 70
8
  0
VERTEX
  8
14
 10
74.11540791130336
 20
519.4146654143428
 70
8
  0
VERTEX
  8
14
 10
108.5362973957781
 20
521.8006194573744
 70
8
  0
VERTEX
  8
14
 10
137.9295063286328
 20
524.8728596763871
 70
8
  0
VERTEX
  8
14
 10
152.5701344228110
 20
526.8292367239601
 70
8
  0
VERTEX
  8
14
 10
184.6856156686254
 20
532.0972091055064
 70
8
  0
VERTEX
  8
14
 10
212.1262222290040
 20
537.2008386887634
  0
VERTEX
  8
14
 10
227.6227677124353
 20
504.5142271954733
  0
VERTEX
  8
14
 10
246.0104080200197
 20
465.7294763840758
  0
VERTEX
  8
14
 10
152.7712877876247
 20
460.4824053166550
 70
8
  0
VERTEX
  8
14
 10
93.86192133190644
 20
458.1799546877461
 70
8
  0
VERTEX
  8
14
 10
49.66023343695682
 20
457.3781397141540
 70
8
  0
VERTEX
  8
14
 10
10.40000000000014
 20
457.3781397141540
  0
VERTEX
  8
14
 10
10.40000000000000
 20
482.3574793981552
  0
SEQEND
  0
POINT
  8
2
 10
10.40000000000014
 20
517.3640177048767
  0
POINT
  8
2
 10
212.1262222290040
 20
537.2008386887634
  0
POINT
  8
2
 10
227.6227677124353
 20
504.5142271954733
  0
POINT
  8
2
 10
246.0104080200197
 20
465.7294763840758
  0
POINT
  8
2
 10
10.40000000000014
 20
457.3781397141540
  0
POINT
  8
2
 10
10.40000000000000
 20
482.3574793981552
  0
POINT
  8
2
 10
0.4000000000001827
 20
527.1503820721737
  0
POINT
  8
2
 10
217.9038205776120
 20
548.3575044985514
  0
POINT
  8
2
 10
236.6587110072588
 20
508.7981189743040
  0
POINT
  8
2
 10
261.4177481562178
 20
456.5742843718615
  0
POINT
  8
2
 10
0.4000000000001994
 20
447.3781397141540
  0
POINT
  8
2
 10
0.4000000000000004
 20
482.3574793981552
  0
POINT
  8
3
 10
34.37060386293106
 20
527.8840364985135
  0
POINT
  8
3
 10
73.49837821181863
 20
529.3938473546743
  0
POINT
  8
3
 10
93.04098677742991
 20
530.6033056917373
  0
POINT
  8
3
 10
122.1710230674204
 20
533.1603414398987
  0
POINT
  8
3
 10
151.1867738029484
 20
536.7388324382620
  0
POINT
  8
3
 10
184.6047206928951
 20
542.1638217351026
  0
POINT
  8
3
 10
213.1495782501797
 20
547.4547639646102
  0
POINT
  8
3
 10
163.0508621679912
 20
450.9652646768905
  0
POINT
  8
3
 10
148.2879335922732
 20
450.2585734938975
  0
POINT
  8
3
 10
89.20944027056143
 20
448.0771779088310
  0
POINT
  8
3
 10
49.80632371229845
 20
447.3802744067002
  0
POINT
  8
3
 10
5.340778045514475
 20
447.3579877920680
  0
POINT
  8
4
 10
0.4000000000001994
 20
447.3781397141540
  0
POINT
  8
4
 10
10.40000000000014
 20
457.3781397141540
  0
POLYLINE
  8
8
 66
1
 70
0
  0
VERTEX
  8
8
 10
10.40000000000000
 20
482.3574793981552
  0
VERTEX
  8
8
 10
35.90243572418732
 20
482.9081964887350
 70
8
  0
VERTEX
  8
8
 10
74.27803622854486
 20
484.3711002996806
 70
8
  0
VERTEX
  8
8
 10
107.8033944558636
 20
486.6067752789007
 70
8
  0
VERTEX
  8
8
 10
126.9178476552509
 20
488.3918271144723
 70
8
  0
VERTEX
  8
8
 10
157.7226150996137
 20
492.1997628786034
 70
8
  0
VERTEX
  8
8
 10
190.4087260497339
 20
497.5246219697590
 70
8
  0
VERTEX
  8
8
 10
227.6227677124353
 20
504.5142271954733
  0
SEQEND
  0
POINT
  8
2
 10
10.40000000000000
 20
482.3574793981552
  0
POINT
  8
2
 10
227.6227677124353
 20
504.5142271954733
  0
POINT
  8
3
 10
35.90243572418732
 20
482.9081964887350
  0
POINT
  8
3
 10
79.07174657978099
 20
484.6289589590853
  0
POINT
  8
3
 10
112.5855226787681
 20
487.0153606824759
  0
POINT
  8
3
 10
126.9178476552509
 20
488.3918271144723
  0
POINT
  8
3
 10
157.7226150996137
 20
492.1997628786034
  0
POINT
  8
3
 10
195.0658649312784
 20
498.3639293411758
  0
ENDBLK
  0
BLOCK
  8
1
  2
5
 70
64
 10
0.0
 20
0.0
  0
LINE
  8
7
 10
1616.212647841860
 20
517.7627450452046
 11
1616.212647841860
 21
938.5679034697908
  0
TEXT
  8
1
 10
1494.712647841860
 20
739.7153242574977
 40
15.00000000000000
 50
0.0000000000000000
 51
0.0000000000000000
 71
0
  1
Size: 38
  0
TEXT
  8
1
 10
1494.712647841860
 20
756.2153242574977
 40
15.00000000000000
 50
0.0000000000000000
 51
0.0000000000000000
 71
0
  1
Piece Name: FRONT 1/2
  0
TEXT
  8
1
 10
1494.712647841860
 20
723.2153242574976
 40
15.00000000000000
 50
0.0000000000000000
 51
0.0000000000000000
 71
0
  1
Sample Size
  0
TEXT
  8
1
 10
1494.712647841860
 20
706.7153242574977
 40
15.00000000000000
 50
0.0000000000000000
 51
0.0000000000000000
 71
0
  1
Quantity: 2
  0
TEXT
  8
1
 10
1494.712647841860
 20
690.2153242574977
 40
15.00000000000000
 50
0.0000000000000000
 51
0.0000000000000000
 71
0
  1
Material: MOKHLASIN 17-05-23
  0
TEXT
  8
1
 10
1494.712647841860
 20
673.7153242574977
 40
15.00000000000000
 50
0.0000000000000000
 51
0.0000000000000000
 71
0
  1
Area: 0.2232 sq.m
  0
POLYLINE
  8
1
 66
1
 70
1
  0
VERTEX
  8
1
 10
1519.952233718298
 20
1020.815679736043
  0
VERTEX
  8
1
 10
1523.932624915108
 20
1020.023343876462
 70
8
  0
VERTEX
  8
1
 10
1524.952233718325
 20
1019.860695081809
  0
VERTEX
  8
1
 10
1525.673832059516
 20
1019.972086717174
 70
8
  0
VERTEX
  8
1
 10
1533.360058825947
 20
1021.681809085261
 70
8
  0
VERTEX
  8
1
 10
1540.832496198258
 20
1024.246555880940
 70
8
  0
VERTEX
  8
1
 10
1548.865278835184
 20
1028.020697712632
 70
8
  0
VERTEX
  8
1
 10
1552.664195855004
 20
1030.293858019654
 70
8
  0
VERTEX
  8
1
 10
1556.267738154276
 20
1032.852620851683
 70
8
  0
VERTEX
  8
1
 10
1559.828438099044
 20
1035.879888088028
 70
8
  0
VERTEX
  8
1
 10
1563.116971075909
 20
1039.204495150972
 70
8
  0
VERTEX
  8
1
 10
1566.172507631454
 20
1042.848191625172
 70
8
  0
VERTEX
  8
1
 10
1568.928951323448
 20
1046.723606524856
 70
8
  0
VERTEX
  8
1
 10
1572.919708257052
 20
1053.737344922862
 70
8
  0
VERTEX
  8
1
 10
1576.106280805874
 20
1061.166930448603
 70
8
  0
VERTEX
  8
1
 10
1577.420178034955
 20
1064.985503962277
 70
8
  0
VERTEX
  8
1
 10
1579.735656444325
 20
1073.562661740998
 70
8
  0
VERTEX
  8
1
 10
1582.079456291985
 20
1086.696248937835
 70
8
  0
VERTEX
  8
1
 10
1583.705743676286
 20
1099.999999999997
  0
VERTEX
  8
1
 10
1769.159347155118
 20
1039.289588412997
  0
VERTEX
  8
1
 10
1757.386850099553
 20
1008.097892409470
 70
8
  0
VERTEX
  8
1
 10
1751.315112429722
 20
990.0648345044519
 70
8
  0
VERTEX
  8
1
 10
1748.587084634928
 20
980.9500300953382
 70
8
  0
VERTEX
  8
1
 10
1744.424802113924
 20
964.5244352677458
 70
8
  0
VERTEX
  8
1
 10
1742.775462863447
 20
956.2124866270794
 70
8
  0
VERTEX
  8
1
 10
1740.917805534300
 20
943.2306561825385
 70
8
  0
VERTEX
  8
1
 10
1739.960176336988
 20
930.1520853680365
 70
8
  0
VERTEX
  8
1
 10
1740.031363181868
 20
915.3896280550932
 70
8
  0
VERTEX
  8
1
 10
1740.809621280356
 20
905.5715035244625
 70
8
  0
VERTEX
  8
1
 10
1742.202010068735
 20
895.9597880011970
 70
8
  0
VERTEX
  8
1
 10
1744.313015181460
 20
886.4883314248748
 70
8
  0
VERTEX
  8
1
 10
1745.672329941961
 20
881.8332961323231
 70
8
  0
VERTEX
  8
1
 10
1748.146502858850
 20
874.9694447356979
 70
8
  0
VERTEX
  8
1
 10
1749.600662052587
 20
871.6233912453469
 70
8
  0
VERTEX
  8
1
 10
1752.850753185567
 20
865.4138619902534
 70
8
  0
VERTEX
  8
1
 10
1754.717164798718
 20
862.4460028355431
 70
8
  0
VERTEX
  8
1
 10
1757.644289782806
 20
858.4543286769689
 70
8
  0
VERTEX
  8
1
 10
1760.930803377086
 20
854.7548136486261
 70
8
  0
VERTEX
  8
1
 10
1764.441419566037
 20
851.5334468152445
 70
8
  0
VERTEX
  8
1
 10
1768.266632737995
 20
848.6944047291825
 70
8
  0
VERTEX
  8
1
 10
1771.849503308405
 20
846.5455725075357
 70
8
  0
VERTEX
  8
1
 10
1779.478268240675
 20
843.1232026823866
 70
8
  0
VERTEX
  8
1
 10
1788.049535797161
 20
840.5102393034413
 70
8
  0
VERTEX
  8
1
 10
1792.415069352744
 20
839.4988163188702
 70
8
  0
VERTEX
  8
1
 10
1807.458577013242
 20
836.7975356008714
  0
VERTEX
  8
1
 10
1807.472451604530
 20
597.5290757849439
  0
VERTEX
  8
1
 10
1807.473068722334
 20
564.9355060899088
  0
VERTEX
  8
1
 10
1805.254012307742
 20
532.3707933276639
 70
8
  0
VERTEX
  8
1
 10
1804.813907924452
 20
527.7267849346759
 70
8
  0
VERTEX
  8
1
 10
1802.487897172664
 20
509.0798274770541
 70
8
  0
VERTEX
  8
1
 10
1800.005116068313
 20
495.2109611707562
 70
8
  0
VERTEX
  8
1
 10
1799.007222772868
 20
490.6215129175322
 70
8
  0
VERTEX
  8
1
 10
1795.371408648391
 20
476.7980258122764
 70
8
  0
VERTEX
  8
1
 10
1790.734220398752
 20
463.2737961528719
 70
8
  0
VERTEX
  8
1
 10
1784.949231893977
 20
450.1242273984099
 70
8
  0
VERTEX
  8
1
 10
1780.416161275066
 20
441.6916971985434
 70
8
  0
VERTEX
  8
1
 10
1777.936703829723
 20
437.5989674930657
 70
8
  0
VERTEX
  8
1
 10
1772.495529619389
 20
429.6214974119251
 70
8
  0
VERTEX
  8
1
 10
1766.508394249865
 20
422.0441795522067
 70
8
  0
VERTEX
  8
1
 10
1760.065722369807
 20
414.9334107982574
 70
8
  0
VERTEX
  8
1
 10
1753.168525763401
 20
408.2633199961941
 70
8
  0
VERTEX
  8
1
 10
1745.850241641089
 20
402.0562220990559
 70
8
  0
VERTEX
  8
1
 10
1738.145751716658
 20
396.3348182704784
 70
8
  0
VERTEX
  8
1
 10
1730.110814247772
 20
391.1352831119113
 70
8
  0
VERTEX
  8
1
 10
1721.755932112521
 20
386.4689675447017
 70
8
  0
VERTEX
  8
1
 10
1709.119261398298
 20
380.6758642281366
 70
8
  0
VERTEX
  8
1
 10
1704.797776455759
 20
379.0002322999778
 70
8
  0
VERTEX
  8
1
 10
1691.503780380660
 20
374.6938163564357
 70
8
  0
VERTEX
  8
1
 10
1686.998288895305
 20
373.5013531335832
 70
8
  0
VERTEX
  8
1
 10
1673.819931144304
 20
370.7123864932909
 70
8
  0
VERTEX
  8
1
 10
1660.471615079482
 20
368.8567070536239
 70
8
  0
VERTEX
  8
1
 10
1651.521969301320
 20
368.1115099248536
 70
8
  0
VERTEX
  8
1
 10
1632.700090794260
 20
367.4970445510808
  0
VERTEX
  8
1
 10
1524.952233718325
 20
367.4943589036759
  0
VERTEX
  8
1
 10
1519.952233718325
 20
367.4943589036759
  0
VERTEX
  8
1
 10
1514.952233718325
 20
367.4943589036759
  0
VERTEX
  8
1
 10
1494.952233718325
 20
367.4943589036759
  0
VERTEX
  8
1
 10
1474.952233718325
 20
367.4943589036759
  0
VERTEX
  8
1
 10
1454.952233718325
 20
367.4943589036759
  0
VERTEX
  8
1
 10
1434.952233718325
 20
367.4943589036759
  0
VERTEX
  8
1
 10
1434.952233718325
 20
377.4943589036759
  0
VERTEX
  8
1
 10
1434.952233718325
 20
1011.721653825551
  0
VERTEX
  8
1
 10
1436.033145613796
 20
1019.648294436906
  0
VERTEX
  8
1
 10
1444.373102177448
 20
1018.652219797465
 70
8
  0
VERTEX
  8
1
 10
1452.730411410219
 20
1018.293393905728
 70
8
  0
VERTEX
  8
1
 10
1453.768558182156
 20
1018.294559141653
  0
VERTEX
  8
1
 10
1453.752282546450
 20
1010.294575578481
  0
VERTEX
  8
1
 10
1454.952233718325
 20
1010.297016984731
  0
VERTEX
  8
1
 10
1454.977405149295
 20
1018.296977503784
  0
VERTEX
  8
1
 10
1457.088859125779
 20
1018.288338323430
 70
8
  0
VERTEX
  8
1
 10
1466.203128324109
 20
1018.681422136119
 70
8
  0
VERTEX
  8
1
 10
1470.735279229551
 20
1019.187832393462
 70
8
  0
VERTEX
  8
1
 10
1472.074497011835
 20
1019.379252629070
 70
8
  0
VERTEX
  8
1
 10
1474.952259647762
 20
1019.811189411166
  0
VERTEX
  8
1
 10
1477.829919490162
 20
1019.379248826035
 70
8
  0
VERTEX
  8
1
 10
1479.169110502898
 20
1019.187832486512
 70
8
  0
VERTEX
  8
1
 10
1488.254812577590
 20
1018.387936776761
 70
8
  0
VERTEX
  8
1
 10
1492.815606900615
 20
1018.288338416481
 70
8
  0
VERTEX
  8
1
 10
1494.952233718325
 20
1018.297017103940
  0
VERTEX
  8
1
 10
1497.183538778897
 20
1018.293459174683
 70
8
  0
VERTEX
  8
1
 10
1505.533997061937
 20
1018.649459171680
 70
8
  0
VERTEX
  8
1
 10
1513.781730912242
 20
1019.632494942615
  0
VERTEX
  8
1
 10
1514.952233718325
 20
1019.836749507118
  0
VERTEX
  8
1
 10
1515.971842521542
 20
1020.023343876462
 70
8
  0
SEQEND
  0
POLYLINE
  8
14
 66
1
 70
1
  0
VERTEX
  8
14
 10
1494.952233718325
 20
1010.297016984731
  0
VERTEX
  8
14
 10
1497.352212356020
 20
1010.297016984731
 70
8
  0
VERTEX
  8
14
 10
1506.179935663165
 20
1010.669599301577
 70
8
  0
VERTEX
  8
14
 10
1514.952233718325
 20
1011.721653825551
  0
VERTEX
  8
14
 10
1517.458118368742
 20
1012.163250780679
 70
8
  0
VERTEX
  8
14
 10
1519.952233718325
 20
1012.667110774602
  0
VERTEX
  8
14
 10
1522.446349067908
 20
1012.163250780679
 70
8
  0
VERTEX
  8
14
 10
1524.952233718325
 20
1011.721653825551
  0
VERTEX
  8
14
 10
1527.458118368742
 20
1012.163250780679
 70
8
  0
VERTEX
  8
14
 10
1535.789382294252
 20
1014.089574503872
 70
8
  0
VERTEX
  8
14
 10
1543.907837964313
 20
1016.801774236329
 70
8
  0
VERTEX
  8
14
 10
1548.419821427521
 20
1018.733530649706
 70
8
  0
VERTEX
  8
14
 10
1552.795617690706
 20
1020.957202532874
 70
8
  0
VERTEX
  8
14
 10
1557.001303082909
 20
1023.486046119666
 70
8
  0
VERTEX
  8
14
 10
1561.002953933169
 20
1026.333317643910
 70
8
  0
VERTEX
  8
14
 10
1564.726899683166
 20
1029.464833278369
 70
8
  0
VERTEX
  8
14
 10
1568.209866204613
 20
1032.889932656371
 70
8
  0
VERTEX
  8
14
 10
1571.443139412332
 20
1036.578450781473
 70
8
  0
VERTEX
  8
14
 10
1574.418005221143
 20
1040.500222657229
 70
8
  0
VERTEX
  8
14
 10
1577.125749545869
 20
1044.625083287196
 70
8
  0
VERTEX
  8
14
 10
1579.557658301331
 20
1048.922867674928
 70
8
  0
VERTEX
  8
14
 10
1581.705017402352
 20
1053.363410823983
 70
8
  0
VERTEX
  8
14
 10
1583.559112763753
 20
1057.916547737914
 70
8
  0
VERTEX
  8
14
 10
1585.111230300356
 20
1062.552113420277
 70
8
  0
VERTEX
  8
14
 10
1587.136252213388
 20
1070.795293841789
 70
8
  0
VERTEX
  8
14
 10
1589.082146907876
 20
1083.343696962843
 70
8
  0
VERTEX
  8
14
 10
1589.598458693911
 20
1087.548756486684
  0
VERTEX
  8
14
 10
1756.326745437075
 20
1032.968296891957
  0
VERTEX
  8
14
 10
1746.331646029942
 20
1006.388078218664
 70
8
  0
VERTEX
  8
14
 10
1740.334707785905
 20
988.3439567440175
 70
8
  0
VERTEX
  8
14
 10
1736.471183741435
 20
974.5025825181848
 70
8
  0
VERTEX
  8
14
 10
1733.338684502004
 20
960.3058474546948
 70
8
  0
VERTEX
  8
14
 10
1731.105908099542
 20
945.6717452063963
 70
8
  0
VERTEX
  8
14
 10
1729.941552565981
 20
930.5182694261368
 70
8
  0
VERTEX
  8
14
 10
1730.016568642794
 20
914.8843100676595
 70
8
  0
VERTEX
  8
14
 10
1730.844581009268
 20
904.3871296382792
 70
8
  0
VERTEX
  8
14
 10
1732.359687381734
 20
894.0114277838193
 70
8
  0
VERTEX
  8
14
 10
1734.617338634859
 20
883.9124427276256
 70
8
  0
VERTEX
  8
14
 10
1737.672985643311
 20
874.2454126930436
 70
8
  0
VERTEX
  8
14
 10
1741.582079281757
 20
865.1655759034188
 70
8
  0
VERTEX
  8
14
 10
1743.873996985561
 20
860.8943669202608
 70
8
  0
VERTEX
  8
14
 10
1746.400070424864
 20
856.8281705820972
 70
8
  0
VERTEX
  8
14
 10
1749.167230958999
 20
852.9863916668455
 70
8
  0
VERTEX
  8
14
 10
1752.182409947300
 20
849.3884349524242
 70
8
  0
VERTEX
  8
14
 10
1755.452538749100
 20
846.0537052167513
 70
8
  0
VERTEX
  8
14
 10
1758.984548723733
 20
843.0016072377452
 70
8
  0
VERTEX
  8
14
 10
1762.785371230532
 20
840.2515457933243
 70
8
  0
VERTEX
  8
14
 10
1766.928867537435
 20
837.7754529354306
 70
8
  0
VERTEX
  8
14
 10
1771.308014466662
 20
835.6139256373212
 70
8
  0
VERTEX
  8
14
 10
1775.872627362768
 20
833.7483243736356
 70
8
  0
VERTEX
  8
14
 10
1785.357512433838
 20
830.8303418480916
 70
8
  0
VERTEX
  8
14
 10
1790.177415297915
 20
829.7406815355118
 70
8
  0
VERTEX
  8
14
 10
1797.459062026430
 20
828.4331559007462
  0
VERTEX
  8
14
 10
1797.472451613833
 20
597.5286911790665
  0
VERTEX
  8
14
 10
1797.473061965395
 20
565.2922867601212
  0
VERTEX
  8
14
 10
1795.535499643271
 20
536.1244728907694
 70
8
  0
VERTEX
  8
14
 10
1793.477500612193
 20
516.7876831783842
 70
8
  0
VERTEX
  8
14
 10
1791.204827733974
 20
502.3882588567739
 70
8
  0
VERTEX
  8
14
 10
1789.234727309633
 20
492.8530167405900
 70
8
  0
VERTEX
  8
14
 10
1785.432686412562
 20
478.6013328509239
 70
8
  0
VERTEX
  8
14
 10
1780.500606174490
 20
464.6927198773534
 70
8
  0
VERTEX
  8
14
 10
1776.512115536557
 20
455.7116456082632
 70
8
  0
VERTEX
  8
14
 10
1771.912428923519
 20
447.0341564417373
 70
8
  0
VERTEX
  8
14
 10
1769.369767592837
 20
442.8281449144181
 70
8
  0
VERTEX
  8
14
 10
1764.014270335214
 20
435.0198788767234
 70
8
  0
VERTEX
  8
14
 10
1758.079423274084
 20
427.6081524256060
 70
8
  0
VERTEX
  8
14
 10
1751.611358935868
 20
420.6250242045541
 70
8
  0
VERTEX
  8
14
 10
1744.656209846989
 20
414.1025528570560
 70
8
  0
VERTEX
  8
14
 10
1737.260108533870
 20
408.0727970266003
 70
8
  0
VERTEX
  8
14
 10
1729.469187522934
 20
402.5678153566756
 70
8
  0
VERTEX
  8
14
 10
1721.329579340604
 20
397.6196664907698
 70
8
  0
VERTEX
  8
14
 10
1717.143433974672
 20
395.3644226854142
 70
8
  0
VERTEX
  8
14
 10
1708.185653800974
 20
391.1381520247569
 70
8
  0
VERTEX
  8
14
 10
1698.969106006695
 20
387.5434842593527
 70
8
  0
VERTEX
  8
14
 10
1689.539477612568
 20
384.5530648899985
 70
8
  0
VERTEX
  8
14
 10
1675.095449254511
 20
381.1405636115551
 70
8
  0
VERTEX
  8
14
 10
1660.428979038413
 20
378.9337521662089
 70
8
  0
VERTEX
  8
14
 10
1650.603898452212
 20
378.0867813890275
 70
8
  0
VERTEX
  8
14
 10
1632.536233352114
 20
377.4943589036759
  0
VERTEX
  8
14
 10
1524.952233718325
 20
377.4943589036759
  0
VERTEX
  8
14
 10
1519.952233718325
 20
377.4943589036759
  0
VERTEX
  8
14
 10
1514.952233718325
 20
377.4943589036759
  0
VERTEX
  8
14
 10
1494.952233718325
 20
377.4943589036759
  0
VERTEX
  8
14
 10
1474.952233718325
 20
377.4943589036759
  0
VERTEX
  8
14
 10
1454.952233718325
 20
377.4943589036759
  0
VERTEX
  8
14
 10
1434.952233718325
 20
377.4943589036759
  0
VERTEX
  8
14
 10
1434.952233718325
 20
1011.721653825551
  0
VERTEX
  8
14
 10
1443.727258132387
 20
1010.672459489613
 70
8
  0
VERTEX
  8
14
 10
1452.552255080629
 20
1010.297016984731
 70
8
  0
VERTEX
  8
14
 10
1453.752282546450
 20
1010.294575578481
 70
8
  0
VERTEX
  8
14
 10
1454.952233718325
 20
1010.297016984731
  0
VERTEX
  8
14
 10
1457.352212356020
 20
1010.297016984731
 70
8
  0
VERTEX
  8
14
 10
1466.823856662180
 20
1010.729538789637
 70
8
  0
VERTEX
  8
14
 10
1471.537621901919
 20
1011.232991105824
 70
8
  0
VERTEX
  8
14
 10
1473.206704543520
 20
1011.459965593129
 70
8
  0
VERTEX
  8
14
 10
1474.952233718325
 20
1011.721730119496
  0
VERTEX
  8
14
 10
1476.697686599184
 20
1011.459965593129
 70
8
  0
VERTEX
  8
14
 10
1478.366769240786
 20
1011.232991105824
 70
8
  0
VERTEX
  8
14
 10
1487.812764394143
 20
1010.419505180152
 70
8
  0
VERTEX
  8
14
 10
1492.552255080629
 20
1010.297016984731
 70
8
  0
SEQEND
  0
POINT
  8
2
 10
1494.952233718325
 20
1010.297016984731
  0
POINT
  8
2
 10
1514.952233718325
 20
1011.721653825551
  0
POINT
  8
2
 10
1519.952233718325
 20
1012.667110774602
  0
POINT
  8
2
 10
1524.952233718325
 20
1011.721653825551
  0
POINT
  8
2
 10
1589.598458693911
 20
1087.548756486684
  0
POINT
  8
2
 10
1756.326745437075
 20
1032.968296891957
  0
POINT
  8
2
 10
1729.941552565981
 20
930.5182694261368
  0
POINT
  8
2
 10
1797.459062026430
 20
828.4331559007462
  0
POINT
  8
2
 10
1797.472451613833
 20
597.5286911790665
  0
POINT
  8
2
 10
1797.473061965395
 20
565.2922867601212
  0
POINT
  8
2
 10
1769.369767592837
 20
442.8281449144181
  0
POINT
  8
2
 10
1632.536233352114
 20
377.4943589036759
  0
POINT
  8
2
 10
1524.952233718325
 20
377.4943589036759
  0
POINT
  8
2
 10
1519.952233718325
 20
377.4943589036759
  0
POINT
  8
2
 10
1514.952233718325
 20
377.4943589036759
  0
POINT
  8
2
 10
1494.952233718325
 20
377.4943589036759
  0
POINT
  8
2
 10
1474.952233718325
 20
377.4943589036759
  0
POINT
  8
2
 10
1454.952233718325
 20
377.4943589036759
  0
POINT
  8
2
 10
1434.952233718325
 20
377.4943589036759
  0
POINT
  8
2
 10
1434.952233718325
 20
1011.721653825551
  0
POINT
  8
2
 10
1454.952233718325
 20
1010.297016984731
  0
POINT
  8
2
 10
1474.952233718325
 20
1011.721730119496
  0
POINT
  8
2
 10
1519.952233718298
 20
1020.815679736043
  0
POINT
  8
2
 10
1524.952233718325
 20
1019.860695081809
  0
POINT
  8
2
 10
1583.705743676286
 20
1099.999999999997
  0
POINT
  8
2
 10
1769.159347155118
 20
1039.289588412997
  0
POINT
  8
2
 10
1739.960176336988
 20
930.1520853680365
  0
POINT
  8
2
 10
1807.458577013242
 20
836.7975356008714
  0
POINT
  8
2
 10
1807.472451604530
 20
597.5290757849439
  0
POINT
  8
2
 10
1807.473068722334
 20
564.9355060899088
  0
POINT
  8
2
 10
1777.936703829723
 20
437.5989674930657
  0
POINT
  8
2
 10
1632.700090794260
 20
367.4970445510808
  0
POINT
  8
2
 10
1524.952233718325
 20
367.4943589036759
  0
POINT
  8
2
 10
1519.952233718325
 20
367.4943589036759
  0
POINT
  8
2
 10
1514.952233718325
 20
367.4943589036759
  0
POINT
  8
2
 10
1494.952233718325
 20
367.4943589036759
  0
POINT
  8
2
 10
1474.952233718325
 20
367.4943589036759
  0
POINT
  8
2
 10
1454.952233718325
 20
367.4943589036759
  0
POINT
  8
2
 10
1434.952233718325
 20
367.4943589036759
  0
POINT
  8
2
 10
1434.952233718325
 20
377.4943589036759
  0
POINT
  8
2
 10
1434.952233718325
 20
1011.721653825551
  0
POINT
  8
2
 10
1436.033145613796
 20
1019.648294436906
  0
POINT
  8
2
 10
1454.952233718325
 20
1010.297016984731
  0
POINT
  8
2
 10
1454.977405149295
 20
1018.296977503784
  0
POINT
  8
2
 10
1474.952259647762
 20
1019.811189411166
  0
POINT
  8
2
 10
1494.952233718325
 20
1018.297017103940
  0
POINT
  8
2
 10
1513.781730912242
 20
1019.632494942615
  0
POINT
  8
2
 10
1514.952233718325
 20
1019.836749507118
  0
POINT
  8
3
 10
1523.932624915108
 20
1020.023343876462
  0
POINT
  8
3
 10
1525.673832059516
 20
1019.972086717174
  0
POINT
  8
3
 10
1533.360058825947
 20
1021.681809085261
  0
POINT
  8
3
 10
1540.832496198258
 20
1024.246555880940
  0
POINT
  8
3
 10
1548.865278835184
 20
1028.020697712632
  0
POINT
  8
3
 10
1552.664195855004
 20
1030.293858019654
  0
POINT
  8
3
 10
1556.267738154276
 20
1032.852620851683
  0
POINT
  8
3
 10
1559.828438099044
 20
1035.879888088028
  0
POINT
  8
3
 10
1563.116971075909
 20
1039.204495150972
  0
POINT
  8
3
 10
1566.172507631454
 20
1042.848191625172
  0
POINT
  8
3
 10
1568.928951323448
 20
1046.723606524856
  0
POINT
  8
3
 10
1572.919708257052
 20
1053.737344922862
  0
POINT
  8
3
 10
1576.106280805874
 20
1061.166930448603
  0
POINT
  8
3
 10
1577.420178034955
 20
1064.985503962277
  0
POINT
  8
3
 10
1579.735656444325
 20
1073.562661740998
  0
POINT
  8
3
 10
1582.079456291985
 20
1086.696248937835
  0
POINT
  8
3
 10
1583.199080595759
 20
1095.557013158767
  0
POINT
  8
3
 10
1757.386850099553
 20
1008.097892409470
  0
POINT
  8
3
 10
1751.315112429722
 20
990.0648345044519
  0
POINT
  8
3
 10
1748.587084634928
 20
980.9500300953382
  0
POINT
  8
3
 10
1744.424802113924
 20
964.5244352677458
  0
POINT
  8
3
 10
1742.775462863447
 20
956.2124866270794
  0
POINT
  8
3
 10
1740.917805534300
 20
943.2306561825385
  0
POINT
  8
3
 10
1739.960176336988
 20
930.1520853680365
  0
POINT
  8
3
 10
1740.031363181868
 20
915.3896280550932
  0
POINT
  8
3
 10
1740.809621280356
 20
905.5715035244625
  0
POINT
  8
3
 10
1742.202010068735
 20
895.9597880011970
  0
POINT
  8
3
 10
1744.313015181460
 20
886.4883314248748
  0
POINT
  8
3
 10
1745.672329941961
 20
881.8332961323231
  0
POINT
  8
3
 10
1748.146502858850
 20
874.9694447356979
  0
POINT
  8
3
 10
1749.600662052587
 20
871.6233912453469
  0
POINT
  8
3
 10
1752.850753185567
 20
865.4138619902534
  0
POINT
  8
3
 10
1754.717164798718
 20
862.4460028355431
  0
POINT
  8
3
 10
1757.644289782806
 20
858.4543286769689
  0
POINT
  8
3
 10
1760.930803377086
 20
854.7548136486261
  0
POINT
  8
3
 10
1764.441419566037
 20
851.5334468152445
  0
POINT
  8
3
 10
1768.266632737995
 20
848.6944047291825
  0
POINT
  8
3
 10
1771.849503308405
 20
846.5455725075357
  0
POINT
  8
3
 10
1779.478268240675
 20
843.1232026823866
  0
POINT
  8
3
 10
1788.049535797161
 20
840.5102393034413
  0
POINT
  8
3
 10
1792.415069352744
 20
839.4988163188702
  0
POINT
  8
3
 10
1803.686986764861
 20
837.4140950000524
  0
POINT
  8
3
 10
1805.254012307742
 20
532.3707933276639
  0
POINT
  8
3
 10
1804.813907924452
 20
527.7267849346759
  0
POINT
  8
3
 10
1802.487897172664
 20
509.0798274770541
  0
POINT
  8
3
 10
1800.005116068313
 20
495.2109611707562
  0
POINT
  8
3
 10
1799.007222772868
 20
490.6215129175322
  0
POINT
  8
3
 10
1795.371408648391
 20
476.7980258122764
  0
POINT
  8
3
 10
1790.734220398752
 20
463.2737961528719
  0
POINT
  8
3
 10
1784.949231893977
 20
450.1242273984099
  0
POINT
  8
3
 10
1780.416161275066
 20
441.6916971985434
  0
POINT
  8
3
 10
1777.936703829723
 20
437.5989674930657
  0
POINT
  8
3
 10
1772.495529619389
 20
429.6214974119251
  0
POINT
  8
3
 10
1766.508394249865
 20
422.0441795522067
  0
POINT
  8
3
 10
1760.065722369807
 20
414.9334107982574
  0
POINT
  8
3
 10
1753.168525763401
 20
408.2633199961941
  0
POINT
  8
3
 10
1745.850241641089
 20
402.0562220990559
  0
POINT
  8
3
 10
1738.145751716658
 20
396.3348182704784
  0
POINT
  8
3
 10
1730.110814247772
 20
391.1352831119113
  0
POINT
  8
3
 10
1721.755932112521
 20
386.4689675447017
  0
POINT
  8
3
 10
1709.119261398298
 20
380.6758642281366
  0
POINT
  8
3
 10
1704.797776455759
 20
379.0002322999778
  0
POINT
  8
3
 10
1691.503780380660
 20
374.6938163564357
  0
POINT
  8
3
 10
1686.998288895305
 20
373.5013531335832
  0
POINT
  8
3
 10
1673.819931144304
 20
370.7123864932909
  0
POINT
  8
3
 10
1660.471615079482
 20
368.8567070536239
  0
POINT
  8
3
 10
1651.521969301320
 20
368.1115099248536
  0
POINT
  8
3
 10
1637.407291750633
 20
367.5861190662281
  0
POINT
  8
3
 10
1444.373102177448
 20
1018.652219797465
  0
POINT
  8
3
 10
1452.730411410219
 20
1018.293393905728
  0
POINT
  8
3
 10
1457.088859125779
 20
1018.288338323430
  0
POINT
  8
3
 10
1466.203128324109
 20
1018.681422136119
  0
POINT
  8
3
 10
1470.735279229551
 20
1019.187832393462
  0
POINT
  8
3
 10
1472.074497011835
 20
1019.379252629070
  0
POINT
  8
3
 10
1477.829919490162
 20
1019.379248826035
  0
POINT
  8
3
 10
1479.169110502898
 20
1019.187832486512
  0
POINT
  8
3
 10
1488.254812577590
 20
1018.387936776761
  0
POINT
  8
3
 10
1492.815606900615
 20
1018.288338416481
  0
POINT
  8
3
 10
1497.183538778897
 20
1018.293459174683
  0
POINT
  8
3
 10
1505.533997061937
 20
1018.649459171680
  0
POINT
  8
3
 10
1515.971842521542
 20
1020.023343876462
  0
POINT
  8
4
 10
1739.960176336988
 20
930.1520853680365
 30
3.000000119209423
 39
3.000000119209290
 50
177.8564749198783
  0
POINT
  8
4
 10
1807.472451604530
 20
597.5290757849439
 30
3.000000119209238
 39
3.000000119209290
 50
-179.9977963677502
  0
POINT
  8
4
 10
1454.977405149295
 20
1018.296977503784
  0
POINT
  8
4
 10
1494.952233718325
 20
1018.297017103940
  0
POINT
  8
4
 10
1494.952233718325
 20
1018.297017103940
  0
POINT
  8
4
 10
1494.952233718325
 20
1010.297016984731
  0
POINT
  8
4
 10
1729.941552565981
 20
930.5182694261368
 30
3.000000119209299
 39
3.000000119209290
 50
177.8713362095112
  0
POINT
  8
4
 10
1797.472451613833
 20
597.5286911790665
 30
3.000000119209232
 39
3.000000119209290
 50
-179.9977963706448
  0
POINT
  8
4
 10
1454.952233718325
 20
1010.297016984731
  0
POINT
  8
4
 10
1494.952233718325
 20
1010.297016984731
  0
LINE
  8
8
 10
1519.952233718298
 20
1020.815679736043
 11
1519.952233718325
 21
367.4943589036759
  0
POINT
  8
2
 10
1519.952233718298
 20
1020.815679736043
  0
POINT
  8
2
 10
1519.952233718325
 20
367.4943589036759
  0
LINE
  8
8
 10
1524.952233718325
 20
1019.860695081809
 11
1524.952233718325
 21
367.4943589036759
  0
POINT
  8
2
 10
1524.952233718325
 20
1019.860695081809
  0
POINT
  8
2
 10
1524.952233718325
 20
367.4943589036759
  0
LINE
  8
8
 10
1514.952233718325
 20
1019.836749507118
 11
1514.952233718325
 21
367.4943589036759
  0
POINT
  8
2
 10
1514.952233718325
 20
1019.836749507118
  0
POINT
  8
2
 10
1514.952233718325
 20
367.4943589036759
  0
LINE
  8
8
 10
1514.952233718325
 20
1011.721653825551
 11
1514.952233718325
 21
377.4943589036759
  0
POINT
  8
2
 10
1514.952233718325
 20
1011.721653825551
  0
POINT
  8
2
 10
1514.952233718325
 20
377.4943589036759
  0
LINE
  8
8
 10
1519.952233718325
 20
1012.667110774602
 11
1519.952233718325
 21
377.4943589036759
  0
POINT
  8
2
 10
1519.952233718325
 20
1012.667110774602
  0
POINT
  8
2
 10
1519.952233718325
 20
377.4943589036759
  0
LINE
  8
8
 10
1524.952233718325
 20
1011.721653825551
 11
1524.952233718325
 21
377.4943589036759
  0
POINT
  8
2
 10
1524.952233718325
 20
1011.721653825551
  0
POINT
  8
2
 10
1524.952233718325
 20
377.4943589036759
  0
POLYLINE
  8
8
 66
1
 70
0
  0
VERTEX
  8
8
 10
1524.952233718325
 20
377.4943589036759
  0
VERTEX
  8
8
 10
1524.952233718325
 20
1011.721653825551
  0
SEQEND
  0
POINT
  8
2
 10
1524.952233718325
 20
377.4943589036759
  0
POINT
  8
2
 10
1524.952233718325
 20
1011.721653825551
  0
POLYLINE
  8
8
 66
1
 70
0
  0
VERTEX
  8
8
 10
1494.952233718325
 20
377.4943589036759
  0
VERTEX
  8
8
 10
1494.952233718325
 20
1010.297016984731
  0
SEQEND
  0
POINT
  8
2
 10
1494.952233718325
 20
377.4943589036759
  0
POINT
  8
2
 10
1494.952233718325
 20
1010.297016984731
  0
POLYLINE
  8
8
 66
1
 70
0
  0
VERTEX
  8
8
 10
1434.952233718325
 20
377.4943589036759
  0
VERTEX
  8
8
 10
1434.952233718325
 20
1011.721653825551
  0
SEQEND
  0
POINT
  8
2
 10
1434.952233718325
 20
377.4943589036759
  0
POINT
  8
2
 10
1434.952233718325
 20
1011.721653825551
  0
POLYLINE
  8
8
 66
1
 70
0
  0
VERTEX
  8
8
 10
1474.952233718325
 20
377.4943589036759
  0
VERTEX
  8
8
 10
1474.952233718325
 20
1011.721730119496
  0
SEQEND
  0
POINT
  8
2
 10
1474.952233718325
 20
377.4943589036759
  0
POINT
  8
2
 10
1474.952233718325
 20
1011.721730119496
  0
ENDBLK
  0
BLOCK
  8
1
  2
6
 70
64
 10
0.0
 20
0.0
  0
LINE
  8
7
 10
40.39999999999999
 20
182.7649516158377
 11
40.39999999999999
 21
264.9649333052910
  0
TEXT
  8
1
 10
19.60115316350935
 20
305.9786629877896
 40
10.00000000000000
 50
270.0000000000000
 51
0.0000000000000000
 71
0
  1
Size: 38
  0
TEXT
  8
1
 10
30.60115316350935
 20
305.9786629877896
 40
10.00000000000000
 50
270.0000000000000
 51
0.0000000000000000
 71
0
  1
Piece Name: SLV CUFF  FINISH
  0
TEXT
  8
1
 10
8.601153163509352
 20
305.9786629877896
 40
10.00000000000000
 50
270.0000000000000
 51
0.0000000000000000
 71
0
  1
Sample Size
  0
TEXT
  8
1
 10
-2.398846836490649
 20
305.9786629877896
 40
10.00000000000000
 50
270.0000000000000
 51
0.0000000000000000
 71
0
  1
Quantity: 0
  0
TEXT
  8
1
 10
-13.39884683649065
 20
305.9786629877896
 40
10.00000000000000
 50
270.0000000000000
 51
0.0000000000000000
 71
0
  1
Material: MOKHLASIN 17-05-23
  0
TEXT
  8
1
 10
-24.39884683649065
 20
305.9786629877896
 40
10.00000000000000
 50
270.0000000000000
 51
0.0000000000000000
 71
0
  1
Area: 0.0218 sq.m
  0
POLYLINE
  8
1
 66
1
 70
1
  0
VERTEX
  8
1
 10
0.3999999999999915
 20
155.3649577193534
  0
VERTEX
  8
1
 10
0.3999999999999915
 20
277.3649272017753
  0
VERTEX
  8
1
 10
0.9110931396484290
 20
281.2472209029472
 70
8
  0
VERTEX
  8
1
 10
2.205169288967135
 20
284.8048584546962
 70
8
  0
VERTEX
  8
1
 10
4.401159667968741
 20
287.8994425826347
 70
8
  0
VERTEX
  8
1
 10
7.674345660845495
 20
290.3974160327656
 70
8
  0
VERTEX
  8
1
 10
11.51770629882812
 20
291.8538340621269
 70
8
  0
VERTEX
  8
1
 10
15.39999999999999
 20
292.3649272017753
  0
VERTEX
  8
1
 10
80.39999999999999
 20
292.3649272017753
  0
VERTEX
  8
1
 10
80.39999999999999
 20
155.3649577193534
  0
SEQEND
  0
POINT
  8
2
 10
0.3999999999999915
 20
155.3649577193534
  0
POINT
  8
2
 10
0.3999999999999915
 20
277.3649272017753
  0
POINT
  8
2
 10
4.401159667968741
 20
287.8994425826347
  0
POINT
  8
2
 10
15.39999999999999
 20
292.3649272017753
  0
POINT
  8
2
 10
80.39999999999999
 20
292.3649272017753
  0
POINT
  8
2
 10
80.39999999999999
 20
155.3649577193534
  0
POINT
  8
3
 10
0.9110931396484290
 20
281.2472209029472
  0
POINT
  8
3
 10
2.205169288967135
 20
284.8048584546962
  0
POINT
  8
3
 10
4.401159667968741
 20
287.8994425826347
  0
POINT
  8
3
 10
7.674345660845495
 20
290.3974160327656
  0
POINT
  8
3
 10
11.51770629882812
 20
291.8538340621269
  0
LINE
  8
6
 10
0.3999999999999915
 20
155.3649577193534
 11
80.39999999999999
 21
155.3649577193534
  0
ENDBLK
  0
BLOCK
  8
1
  2
7
 70
64
 10
0.0
 20
0.0
  0
LINE
  8
7
 10
59.39498611946613
 20
592.3236992641300
 11
206.3799444778633
 21
594.8756259159384
  0
TEXT
  8
1
 10
132.0783983990035
 20
555.4802269114552
 40
6.684149646191394
 50
90.99442580032338
 51
0.0000000000000000
 71
0
  1
Size: 38
  0
TEXT
  8
1
 10
124.7269411701783
 20
555.3526221744878
 40
6.684149646191394
 50
90.99442580032338
 51
0.0000000000000000
 71
0
  1
Piece Name: BAND 1/4
  0
TEXT
  8
1
 10
139.4298556278288
 20
555.6078316484227
 40
6.684149646191394
 50
90.99442580032338
 51
0.0000000000000000
 71
0
  1
Sample Size
  0
TEXT
  8
1
 10
146.7813128566540
 20
555.7354363853901
 40
6.684149646191394
 50
90.99442580032338
 51
0.0000000000000000
 71
0
  1
Quantity: 4
  0
TEXT
  8
1
 10
154.1327700854793
 20
555.8630411223576
 40
6.684149646191394
 50
90.99442580032338
 51
0.0000000000000000
 71
0
  1
Area: 0.0085 sq.m
  0
POLYLINE
  8
1
 66
1
 70
1
  0
VERTEX
  8
1
 10
0.3999999999999993
 20
553.3575044985515
  0
VERTEX
  8
1
 10
0.4000000000002223
 20
608.3680644582039
  0
VERTEX
  8
1
 10
34.35413583962283
 20
609.1015473872000
 70
8
  0
VERTEX
  8
1
 10
73.46630764273789
 20
610.7450615730803
 70
8
  0
VERTEX
  8
1
 10
92.99762500370736
 20
612.0156524567979
 70
8
  0
VERTEX
  8
1
 10
126.9899940678365
 20
615.0719344512335
 70
8
  0
VERTEX
  8
1
 10
151.2031743292130
 20
617.9599919054253
 70
8
  0
VERTEX
  8
1
 10
180.7753045750937
 20
622.4177230299173
 70
8
  0
VERTEX
  8
1
 10
205.2347430348266
 20
627.1401293209381
 70
8
  0
VERTEX
  8
1
 10
210.0984977878065
 20
628.2165227656900
 70
8
  0
VERTEX
  8
1
 10
229.1951248577541
 20
632.8038496044080
  0
VERTEX
  8
1
 10
234.7079981847322
 20
633.6619582690703
 70
8
  0
VERTEX
  8
1
 10
239.1288751420079
 20
633.7070015630289
 70
8
  0
VERTEX
  8
1
 10
243.3675311068770
 20
632.7409091100405
 70
8
  0
VERTEX
  8
1
 10
247.4269422140401
 20
630.2325316071873
 70
8
  0
VERTEX
  8
1
 10
250.7381281096943
 20
626.6740738376270
 70
8
  0
VERTEX
  8
1
 10
254.1370219260693
 20
621.2831423515687
  0
VERTEX
  8
1
 10
260.8074420525522
 20
608.1721139736675
 70
8
  0
VERTEX
  8
1
 10
269.7686994143663
 20
587.7065793376078
  0
VERTEX
  8
1
 10
238.9581603993603
 20
578.3900909522047
 70
8
  0
VERTEX
  8
1
 10
230.0744395112300
 20
576.0300381046543
 70
8
  0
VERTEX
  8
1
 10
212.2858070174412
 20
571.9729570204643
 70
8
  0
VERTEX
  8
1
 10
198.8385553164648
 20
569.4153782261020
 70
8
  0
VERTEX
  8
1
 10
167.4830793532252
 20
564.5333304263182
 70
8
  0
VERTEX
  8
1
 10
131.3556396995878
 20
559.6837140581412
 70
8
  0
VERTEX
  8
1
 10
122.2992130036906
 20
558.6851040427669
 70
8
  0
VERTEX
  8
1
 10
93.57872603869843
 20
556.3370274537656
 70
8
  0
VERTEX
  8
1
 10
79.18941871120639
 20
555.5480485987226
 70
8
  0
VERTEX
  8
1
 10
36.17466470104449
 20
554.1303647918509
 70
8
  0
SEQEND
  0
POLYLINE
  8
14
 66
1
 70
1
  0
VERTEX
  8
14
 10
10.40000000000004
 20
563.5757827386535
  0
VERTEX
  8
14
 10
10.40000000000018
 20
598.5823210453749
  0
VERTEX
  8
14
 10
34.71097030639667
 20
599.1089018559218
 70
8
  0
VERTEX
  8
14
 10
74.08716912726105
 20
600.7585312384278
 70
8
  0
VERTEX
  8
14
 10
108.4873781600734
 20
603.2364399799528
 70
8
  0
VERTEX
  8
14
 10
142.7922565473011
 20
606.8086883596848
 70
8
  0
VERTEX
  8
14
 10
152.5701344228110
 20
608.0475400644584
 70
8
  0
VERTEX
  8
14
 10
180.1829295620842
 20
612.1627079003150
 70
8
  0
VERTEX
  8
14
 10
203.0387713225478
 20
616.4450263997096
 70
8
  0
VERTEX
  8
14
 10
212.1262222290041
 20
618.4191420292616
 70
8
  0
VERTEX
  8
14
 10
231.1352087992726
 20
622.9854161650672
  0
VERTEX
  8
14
 10
234.9523031224819
 20
623.5795676208164
 70
8
  0
VERTEX
  8
14
 10
239.3277904147510
 20
623.1141800615628
 70
8
  0
VERTEX
  8
14
 10
243.1386146792978
 20
619.9774405198050
 70
8
  0
VERTEX
  8
14
 10
245.4342924580816
 20
616.3363024648688
  0
VERTEX
  8
14
 10
251.7714336792583
 20
603.8984882070594
 70
8
  0
VERTEX
  8
14
 10
256.0585722172106
 20
594.0972624796440
  0
VERTEX
  8
14
 10
232.3919801304196
 20
587.0054141827341
 70
8
  0
VERTEX
  8
14
 10
227.6227677124354
 20
585.7325305359714
 70
8
  0
VERTEX
  8
14
 10
208.8650116263522
 20
581.4612723330233
 70
8
  0
VERTEX
  8
14
 10
185.1465174122810
 20
577.2803907483284
 70
8
  0
VERTEX
  8
14
 10
166.0722661306275
 20
574.4324945972016
 70
8
  0
VERTEX
  8
14
 10
130.2644959332679
 20
569.6193589480096
 70
8
  0
VERTEX
  8
14
 10
121.2942959863162
 20
568.6305001559880
 70
8
  0
VERTEX
  8
14
 10
92.89727351725253
 20
566.3119178628104
 70
8
  0
VERTEX
  8
14
 10
59.66231656063091
 20
564.7766942336166
 70
8
  0
VERTEX
  8
14
 10
35.90243572418737
 20
564.1264998292332
 70
8
  0
SEQEND
  0
POINT
  8
2
 10
10.40000000000004
 20
563.5757827386535
  0
POINT
  8
2
 10
10.40000000000018
 20
598.5823210453749
  0
POINT
  8
2
 10
212.1262222290041
 20
618.4191420292616
  0
POINT
  8
2
 10
231.1352087992726
 20
622.9854161650672
  0
POINT
  8
2
 10
239.3277904147510
 20
623.1141800615628
  0
POINT
  8
2
 10
245.4342924580816
 20
616.3363024648688
  0
POINT
  8
2
 10
256.0585722172106
 20
594.0972624796440
  0
POINT
  8
2
 10
0.3999999999999993
 20
553.3575044985515
  0
POINT
  8
2
 10
0.4000000000002223
 20
608.3680644582039
  0
POINT
  8
2
 10
210.0984977878065
 20
628.2165227656900
  0
POINT
  8
2
 10
229.1951248577541
 20
632.8038496044080
  0
POINT
  8
2
 10
243.3675311068770
 20
632.7409091100405
  0
POINT
  8
2
 10
254.1370219260693
 20
621.2831423515687
  0
POINT
  8
2
 10
269.7686994143663
 20
587.7065793376078
  0
POINT
  8
3
 10
34.35413583962283
 20
609.1015473872000
  0
POINT
  8
3
 10
73.46630764273789
 20
610.7450615730803
  0
POINT
  8
3
 10
92.99762500370736
 20
612.0156524567979
  0
POINT
  8
3
 10
126.9899940678365
 20
615.0719344512335
  0
POINT
  8
3
 10
151.2031743292130
 20
617.9599919054253
  0
POINT
  8
3
 10
180.7753045750937
 20
622.4177230299173
  0
POINT
  8
3
 10
205.2347430348266
 20
627.1401293209381
  0
POINT
  8
3
 10
210.0984977878065
 20
628.2165227656900
  0
POINT
  8
3
 10
224.4276127436374
 20
631.6277273517128
  0
POINT
  8
3
 10
234.7079981847322
 20
633.6619582690703
  0
POINT
  8
3
 10
239.1288751420079
 20
633.7070015630289
  0
POINT
  8
3
 10
243.3675311068770
 20
632.7409091100405
  0
POINT
  8
3
 10
247.4269422140401
 20
630.2325316071873
  0
POINT
  8
3
 10
250.7381281096943
 20
626.6740738376270
  0
POINT
  8
3
 10
252.5292991762620
 20
624.0221473568442
  0
POINT
  8
3
 10
260.8074420525522
 20
608.1721139736675
  0
POINT
  8
3
 10
238.9581603993603
 20
578.3900909522047
  0
POINT
  8
3
 10
230.0744395112300
 20
576.0300381046543
  0
POINT
  8
3
 10
212.2858070174412
 20
571.9729570204643
  0
POINT
  8
3
 10
198.8385553164648
 20
569.4153782261020
  0
POINT
  8
3
 10
167.4830793532252
 20
564.5333304263182
  0
POINT
  8
3
 10
131.3556396995878
 20
559.6837140581412
  0
POINT
  8
3
 10
122.2992130036906
 20
558.6851040427669
  0
POINT
  8
3
 10
93.57872603869843
 20
556.3370274537656
  0
POINT
  8
3
 10
79.18941871120639
 20
555.5480485987226
  0
POINT
  8
3
 10
36.17466470104449
 20
554.1303647918509
  0
POINT
  8
4
 10
210.0984977878065
 20
628.2165227656900
 30
2.999999999999966
 39
3.000000000000000
 50
-77.24025322083526
  0
POINT
  8
4
 10
212.1262222290041
 20
618.4191420292616
 30
3.000000000000021
 39
3.000000000000000
 50
-77.23001335266662
  0
ENDBLK
  0
BLOCK
  8
1
  2
8
 70
64
 10
0.0
 20
0.0
  0
LINE
  8
7
 10
210.4000000000000
 20
1090.000000000000
 11
840.4000000000001
 21
1090.000000000000
  0
TEXT
  8
1
 10
522.1000000000000
 20
1009.000000000000
 40
15.00000000000000
 50
90.00000000000000
 51
0.0000000000000000
 71
0
  1
Size: 38
  0
TEXT
  8
1
 10
505.6000000000000
 20
1009.000000000000
 40
15.00000000000000
 50
90.00000000000000
 51
0.0000000000000000
 71
0
  1
Piece Name: TEP 1/2
  0
TEXT
  8
1
 10
538.6000000000000
 20
1009.000000000000
 40
15.00000000000000
 50
90.00000000000000
 51
0.0000000000000000
 71
0
  1
Sample Size
  0
TEXT
  8
1
 10
555.1000000000000
 20
1009.000000000000
 40
15.00000000000000
 50
90.00000000000000
 51
0.0000000000000000
 71
0
  1
Quantity: 2
  0
TEXT
  8
1
 10
571.6000000000000
 20
1009.000000000000
 40
15.00000000000000
 50
90.00000000000000
 51
0.0000000000000000
 71
0
  1
Area: 0.021 sq.m
  0
POLYLINE
  8
1
 66
1
 70
1
  0
VERTEX
  8
1
 10
0.4000000000000004
 20
1080.000000000000
  0
VERTEX
  8
1
 10
0.4000000000000004
 20
1100.000000000000
  0
VERTEX
  8
1
 10
1050.400000000000
 20
1100.000000000000
  0
VERTEX
  8
1
 10
1050.400000000000
 20
1080.000000000000
  0
SEQEND
  0
POINT
  8
2
 10
0.4000000000000004
 20
1080.000000000000
  0
POINT
  8
2
 10
0.4000000000000004
 20
1100.000000000000
  0
POINT
  8
2
 10
1050.400000000000
 20
1100.000000000000
  0
POINT
  8
2
 10
1050.400000000000
 20
1080.000000000000
  0
ENDBLK
  0
BLOCK
  8
1
  2
9
 70
64
 10
0.0
 20
0.0
  0
LINE
  8
7
 10
44.36423339843750
 20
336.0212930873741
 11
176.2569335937500
 21
338.3106455043663
  0
TEXT
  8
1
 10
106.4605852664050
 20
296.6659691275814
 40
4.999999999999999
 50
90.00000250447816
 51
0.0000000000000000
 71
0
  1
Size: 38
  0
TEXT
  8
1
 10
100.9605852664050
 20
296.6659688871687
 40
4.999999999999999
 50
90.00000250447816
 51
0.0000000000000000
 71
0
  1
Piece Name: COLLAR FINISH
  0
TEXT
  8
1
 10
111.9605852664050
 20
296.6659693679940
 40
4.999999999999999
 50
90.00000250447816
 51
0.0000000000000000
 71
0
  1
Sample Size
  0
TEXT
  8
1
 10
117.4605852664050
 20
296.6659696084067
 40
4.999999999999999
 50
90.00000250447816
 51
0.0000000000000000
 71
0
  1
Quantity: 0
  0
TEXT
  8
1
 10
122.9605852664050
 20
296.6659698488193
 40
4.999999999999999
 50
90.00000250447816
 51
0.0000000000000000
 71
0
  1
Material: MOKHLASIN 17-05-23
  0
TEXT
  8
1
 10
128.4605852664050
 20
296.6659700892320
 40
4.999999999999999
 50
90.00000250447816
 51
0.0000000000000000
 71
0
  1
Area: 0.0143 sq.m
  0
POLYLINE
  8
1
 66
1
 70
1
  0
VERTEX
  8
1
 10
0.4000000000000000
 20
357.4042352870811
  0
VERTEX
  8
1
 10
24.71097030639648
 20
357.9308160976280
 70
8
  0
VERTEX
  8
1
 10
64.11541129122952
 20
359.4548797977476
 70
8
  0
VERTEX
  8
1
 10
98.53630368306874
 20
361.8408312214260
 70
8
  0
VERTEX
  8
1
 10
127.9295144773438
 20
364.9130728885174
 70
8
  0
VERTEX
  8
1
 10
142.5701431274414
 20
366.8694528774132
 70
8
  0
VERTEX
  8
1
 10
174.6856224773404
 20
372.1374372425504
 70
8
  0
VERTEX
  8
1
 10
202.1262268066406
 20
377.2410806850303
  0
VERTEX
  8
1
 10
217.6227859497070
 20
344.5544656947960
  0
VERTEX
  8
1
 10
236.0104278564453
 20
305.7697138027061
  0
VERTEX
  8
1
 10
142.7712987928790
 20
300.5226494342465
 70
8
  0
VERTEX
  8
1
 10
83.86192681636992
 20
298.2202017520033
 70
8
  0
VERTEX
  8
1
 10
39.66023483276367
 20
297.4183878139366
 70
8
  0
VERTEX
  8
1
 10
0.4000000000000000
 20
297.4183878139366
  0
VERTEX
  8
1
 10
0.4000000000000000
 20
322.3977121547569
  0
SEQEND
  0
POINT
  8
2
 10
0.4000000000000000
 20
357.4042352870811
  0
POINT
  8
2
 10
202.1262268066406
 20
377.2410806850303
  0
POINT
  8
2
 10
217.6227859497070
 20
344.5544656947960
  0
POINT
  8
2
 10
236.0104278564453
 20
305.7697138027061
  0
POINT
  8
2
 10
0.4000000000000000
 20
297.4183878139366
  0
POINT
  8
2
 10
0.4000000000000000
 20
322.3977121547569
  0
POINT
  8
3
 10
24.71097030639648
 20
357.9308160976280
  0
POINT
  8
3
 10
64.11541129122952
 20
359.4548797977476
  0
POINT
  8
3
 10
98.53630368306874
 20
361.8408312214260
  0
POINT
  8
3
 10
127.9295144773438
 20
364.9130728885174
  0
POINT
  8
3
 10
142.5701431274414
 20
366.8694528774132
  0
POINT
  8
3
 10
174.6856224773404
 20
372.1374372425504
  0
POINT
  8
3
 10
197.5548462126017
 20
376.3765814138933
  0
POINT
  8
3
 10
142.7712987928790
 20
300.5226494342465
  0
POINT
  8
3
 10
83.86192681636992
 20
298.2202017520033
  0
POINT
  8
3
 10
39.66023483276367
 20
297.4183878139366
  0
POINT
  8
3
 10
5.307892644753011
 20
297.4012972496473
  0
POINT
  8
4
 10
0.4000000000000000
 20
297.4183878139366
  0
POLYLINE
  8
8
 66
1
 70
0
  0
VERTEX
  8
8
 10
0.4000000000000000
 20
322.3977121547569
  0
VERTEX
  8
8
 10
25.90243377685547
 20
322.9484399989952
 70
8
  0
VERTEX
  8
8
 10
64.27804407296392
 20
324.4113430225403
 70
8
  0
VERTEX
  8
8
 10
97.80341066997984
 20
326.6470130851528
 70
8
  0
VERTEX
  8
8
 10
116.9178680419922
 20
328.4320673183311
 70
8
  0
VERTEX
  8
8
 10
147.7226165771484
 20
332.2400125697960
 70
8
  0
VERTEX
  8
8
 10
180.4087345268870
 20
337.5648725804317
 70
8
  0
VERTEX
  8
8
 10
217.6227859497070
 20
344.5544656947960
  0
SEQEND
  0
POINT
  8
2
 10
0.4000000000000000
 20
322.3977121547569
  0
POINT
  8
2
 10
217.6227859497070
 20
344.5544656947960
  0
POINT
  8
3
 10
25.90243377685547
 20
322.9484399989952
  0
POINT
  8
3
 10
69.07175566523424
 20
324.6692007703757
  0
POINT
  8
3
 10
102.5855399927662
 20
327.0555985327556
  0
POINT
  8
3
 10
116.9178680419922
 20
328.4320673183311
  0
POINT
  8
3
 10
147.7226165771484
 20
332.2400125697960
  0
POINT
  8
3
 10
185.0658745614687
 20
338.4041789386649
  0
ENDBLK
  0
BLOCK
  8
1
  2
10
 70
64
 10
0.0
 20
0.0
  0
LINE
  8
7
 10
49.39497985839844
 20
410.9889826015342
 11
196.3799385070801
 21
413.5409387782921
  0
TEXT
  8
1
 10
122.1828038663152
 20
368.1306973398074
 40
6.684149503707886
 50
90.99442340611867
 51
0.0000000000000000
 71
0
  1
Size: 38
  0
TEXT
  8
1
 10
114.8313467888660
 20
368.0030929127536
 40
6.684149503707886
 50
90.99442340611867
 51
0.0000000000000000
 71
0
  1
Piece Name: BAND FINISH
  0
TEXT
  8
1
 10
129.5342609437644
 20
368.2583017668612
 40
6.684149503707886
 50
90.99442340611867
 51
0.0000000000000000
 71
0
  1
Sample Size
  0
TEXT
  8
1
 10
136.8857180212136
 20
368.3859061939149
 40
6.684149503707886
 50
90.99442340611867
 51
0.0000000000000000
 71
0
  1
Quantity: 0
  0
TEXT
  8
1
 10
144.2371750986627
 20
368.5135106209688
 40
6.684149503707886
 50
90.99442340611867
 51
0.0000000000000000
 71
0
  1
Area: 0.0085 sq.m
  0
POLYLINE
  8
1
 66
1
 70
1
  0
VERTEX
  8
1
 10
0.4000000000000000
 20
382.2410806850303
  0
VERTEX
  8
1
 10
0.4000000000000000
 20
417.2476038173546
  0
VERTEX
  8
1
 10
24.71097030639648
 20
417.7741846279014
 70
8
  0
VERTEX
  8
1
 10
64.08716647991922
 20
419.4238091670128
 70
8
  0
VERTEX
  8
1
 10
98.48737309098915
 20
421.9017141264897
 70
8
  0
VERTEX
  8
1
 10
132.7922476844989
 20
425.4739662827545
 70
8
  0
VERTEX
  8
1
 10
142.5701240539551
 20
426.7128214076866
 70
8
  0
VERTEX
  8
1
 10
170.1829167089818
 20
430.8280040240717
 70
8
  0
VERTEX
  8
1
 10
193.0387569221152
 20
435.1103323693335
 70
8
  0
VERTEX
  8
1
 10
202.1262077331543
 20
437.0844492153038
 70
8
  0
VERTEX
  8
1
 10
221.1351875305176
 20
441.6507181362022
  0
VERTEX
  8
1
 10
224.9522880554199
 20
442.2448572353233
 70
8
  0
VERTEX
  8
1
 10
229.3277839660644
 20
441.7794641689171
 70
8
  0
VERTEX
  8
1
 10
233.1385902404785
 20
438.6427530483116
 70
8
  0
VERTEX
  8
1
 10
235.4342750549316
 20
435.0015863612999
  0
VERTEX
  8
1
 10
241.7714408874511
 20
422.5637659267296
 70
8
  0
VERTEX
  8
1
 10
246.0585502624511
 20
412.7625498012413
  0
VERTEX
  8
1
 10
222.3919755718998
 20
405.6707158572263
 70
8
  0
VERTEX
  8
1
 10
217.6227668762207
 20
404.3978342250694
 70
8
  0
VERTEX
  8
1
 10
198.8650038547935
 20
400.1265753097618
 70
8
  0
VERTEX
  8
1
 10
175.1465020707107
 20
395.9456883310422
 70
8
  0
VERTEX
  8
1
 10
156.0722450256347
 20
393.0977853969444
 70
8
  0
VERTEX
  8
1
 10
120.2644939298563
 20
388.2846419552558
 70
8
  0
VERTEX
  8
1
 10
111.2942985534668
 20
387.2957834438194
 70
8
  0
VERTEX
  8
1
 10
82.89727475686649
 20
384.9772096918218
 70
8
  0
VERTEX
  8
1
 10
49.66231578616150
 20
383.4420007265319
 70
8
  0
VERTEX
  8
1
 10
25.90243377685547
 20
382.7918085292686
 70
8
  0
SEQEND
  0
POINT
  8
2
 10
0.4000000000000000
 20
382.2410806850303
  0
POINT
  8
2
 10
0.4000000000000000
 20
417.2476038173546
  0
POINT
  8
2
 10
202.1262077331543
 20
437.0844492153038
  0
POINT
  8
2
 10
221.1351875305176
 20
441.6507181362022
  0
POINT
  8
2
 10
229.3277839660644
 20
441.7794641689171
  0
POINT
  8
2
 10
235.4342750549316
 20
435.0015863612999
  0
POINT
  8
2
 10
246.0585502624511
 20
412.7625498012413
  0
POINT
  8
3
 10
24.71097030639648
 20
417.7741846279014
  0
POINT
  8
3
 10
64.08716647991922
 20
419.4238091670128
  0
POINT
  8
3
 10
98.48737309098915
 20
421.9017141264897
  0
POINT
  8
3
 10
132.7922476844989
 20
425.4739662827545
  0
POINT
  8
3
 10
142.5701240539551
 20
426.7128214076866
  0
POINT
  8
3
 10
170.1829167089818
 20
430.8280040240717
  0
POINT
  8
3
 10
193.0387569221152
 20
435.1103323693335
  0
POINT
  8
3
 10
202.1262077331543
 20
437.0844492153038
  0
POINT
  8
3
 10
216.3894125904640
 20
440.4803823638268
  0
POINT
  8
3
 10
224.9522880554199
 20
442.2448572353233
  0
POINT
  8
3
 10
229.3277839660644
 20
441.7794641689171
  0
POINT
  8
3
 10
233.1385902404785
 20
438.6427530483116
  0
POINT
  8
3
 10
241.7714408874511
 20
422.5637659267296
  0
POINT
  8
3
 10
222.3919755718998
 20
405.6707158572263
  0
POINT
  8
3
 10
217.6227668762207
 20
404.3978342250694
  0
POINT
  8
3
 10
198.8650038547935
 20
400.1265753097618
  0
POINT
  8
3
 10
175.1465020707107
 20
395.9456883310422
  0
POINT
  8
3
 10
156.0722450256347
 20
393.0977853969444
  0
POINT
  8
3
 10
120.2644939298563
 20
388.2846419552558
  0
POINT
  8
3
 10
111.2942985534668
 20
387.2957834438194
  0
POINT
  8
3
 10
82.89727475686649
 20
384.9772096918218
  0
POINT
  8
3
 10
49.66231578616150
 20
383.4420007265319
  0
POINT
  8
3
 10
25.90243377685547
 20
382.7918085292686
  0
POINT
  8
3
 10
4.649747936048760
 20
382.3292472487854
  0
POINT
  8
4
 10
202.1262077331543
 20
437.0844492153038
 30
3.000000119209277
 39
3.000000119209290
 50
-77.23001280673880
  0
ENDBLK
  0
ENDSEC
  0
SECTION
  2
ENTITIES
  0
INSERT
  8
1
  2
1
 10
0.0
 20
0.0
  0
INSERT
  8
1
  2
2
 10
0.0
 20
0.0
  0
INSERT
  8
1
  2
3
 10
0.0
 20
0.0
  0
INSERT
  8
1
  2
4
 10
0.0
 20
0.0
  0
INSERT
  8
1
  2
5
 10
0.0
 20
0.0
  0
INSERT
  8
1
  2
6
 10
0.0
 20
0.0
  0
INSERT
  8
1
  2
7
 10
0.0
 20
0.0
  0
INSERT
  8
1
  2
8
 10
0.0
 20
0.0
  0
INSERT
  8
1
  2
9
 10
0.0
 20
0.0
  0
INSERT
  8
1
  2
10
 10
0.0
 20
0.0
  0
TEXT
  8
1
 10
0.3999999999999915
 20
18.36498823693155
 40
10.00000000000000
 50
0.0000000000000000
 51
0.0000000000000000
 71
0
  1
Style Name: WT23-A1710
  0
TEXT
  8
1
 10
0.3999999999999915
 20
-1.635011763068448
 40
10.00000000000000
 50
0.0000000000000000
 51
0.0000000000000000
 71
0
  1
Sample Size: 38
  0
TEXT
  8
1
 10
0.3999999999999915
 20
-11.63501176306845
 40
10.00000000000000
 50
0.0000000000000000
 51
0.0000000000000000
 71
0
  1
Units: METRIC
  0
TEXT
  8
1
 10
0.3999999999999915
 20
-21.63501176306845
 40
10.00000000000000
 50
0.0000000000000000
 51
0.0000000000000000
 71
0
  1
Tolerance: 0.020000
  0
TEXT
  8
1
 10
0.3999999999999915
 20
-31.63501176306845
 40
10.00000000000000
 50
0.0000000000000000
 51
0.0000000000000000
 71
0
  1
Creation Date: 17-05-2023
  0
TEXT
  8
1
 10
0.3999999999999915
 20
-41.63501176306845
 40
10.00000000000000
 50
0.0000000000000000
 51
0.0000000000000000
 71
0
  1
Creation Time: 16:39
  0
TEXT
  8
1
 10
0.3999999999999915
 20
-51.63501176306845
 40
10.00000000000000
 50
0.0000000000000000
 51
0.0000000000000000
 71
0
  1
Author: Optitex
  0
ENDSEC
  0
EOF
